%TF.GenerationSoftware,KiCad,Pcbnew,5.1.10*%
%TF.CreationDate,2021-11-16T14:47:03-07:00*%
%TF.ProjectId,L0003-Wheatstone-Bridge,4c303030-332d-4576-9865-617473746f6e,rev?*%
%TF.SameCoordinates,Original*%
%TF.FileFunction,Copper,L2,Bot*%
%TF.FilePolarity,Positive*%
%FSLAX46Y46*%
G04 Gerber Fmt 4.6, Leading zero omitted, Abs format (unit mm)*
G04 Created by KiCad (PCBNEW 5.1.10) date 2021-11-16 14:47:03*
%MOMM*%
%LPD*%
G01*
G04 APERTURE LIST*
%TA.AperFunction,ComponentPad*%
%ADD10O,2.200000X4.400000*%
%TD*%
%TA.AperFunction,ComponentPad*%
%ADD11O,1.900000X3.800000*%
%TD*%
%TA.AperFunction,ComponentPad*%
%ADD12O,3.800000X1.900000*%
%TD*%
%TA.AperFunction,ComponentPad*%
%ADD13C,1.605000*%
%TD*%
%TA.AperFunction,ComponentPad*%
%ADD14R,1.605000X1.605000*%
%TD*%
%TA.AperFunction,ComponentPad*%
%ADD15R,1.268000X1.268000*%
%TD*%
%TA.AperFunction,ComponentPad*%
%ADD16C,1.268000*%
%TD*%
%TA.AperFunction,SMDPad,CuDef*%
%ADD17C,1.524000*%
%TD*%
%TA.AperFunction,ViaPad*%
%ADD18C,0.800000*%
%TD*%
%TA.AperFunction,Conductor*%
%ADD19C,0.250000*%
%TD*%
%TA.AperFunction,Conductor*%
%ADD20C,0.254000*%
%TD*%
%TA.AperFunction,Conductor*%
%ADD21C,0.100000*%
%TD*%
G04 APERTURE END LIST*
D10*
%TO.P,P1,1*%
%TO.N,Net-(C1-Pad2)*%
X103289000Y-81026000D03*
D11*
%TO.P,P1,2*%
%TO.N,Earth*%
X97334000Y-81026000D03*
D12*
%TO.P,P1,3*%
X100584000Y-85716000D03*
%TD*%
D13*
%TO.P,P2,4*%
%TO.N,Earth*%
X127508000Y-77978000D03*
%TO.P,P2,3*%
%TO.N,Vout-*%
X124968000Y-77978000D03*
%TO.P,P2,2*%
%TO.N,Vout+*%
X122428000Y-77978000D03*
D14*
%TO.P,P2,1*%
%TO.N,+5V*%
X119888000Y-77978000D03*
%TD*%
D15*
%TO.P,R2,1*%
%TO.N,+5V*%
X119888000Y-87122000D03*
D16*
%TO.P,R2,2*%
%TO.N,Vout+*%
X124968000Y-89662000D03*
%TO.P,R2,3*%
%TO.N,Net-(R2-Pad3)*%
X119888000Y-92202000D03*
%TD*%
D17*
%TO.P,TP1,1*%
%TO.N,+5V*%
X115824000Y-79756000D03*
%TD*%
%TO.P,TP2,1*%
%TO.N,Vout+*%
X130810000Y-89662000D03*
%TD*%
%TO.P,TP3,1*%
%TO.N,Vout-*%
X124968000Y-82042000D03*
%TD*%
D18*
%TO.N,Earth*%
X109474000Y-89662000D03*
%TO.N,+5V*%
X115824000Y-82042000D03*
%TO.N,Vout+*%
X128778000Y-89662000D03*
%TD*%
D19*
%TO.N,+5V*%
X115824000Y-82042000D02*
X115824000Y-79756000D01*
%TO.N,Vout-*%
X124968000Y-77978000D02*
X124968000Y-82042000D01*
%TO.N,Vout+*%
X122428000Y-81280000D02*
X130810000Y-89662000D01*
X122428000Y-77978000D02*
X122428000Y-81280000D01*
X128778000Y-89662000D02*
X130810000Y-89662000D01*
%TD*%
D20*
%TO.N,Earth*%
X118495998Y-76931320D02*
X118459688Y-77051018D01*
X118447428Y-77175500D01*
X118447428Y-78780500D01*
X118459688Y-78904982D01*
X118495998Y-79024680D01*
X118554963Y-79134994D01*
X118634315Y-79231685D01*
X118731006Y-79311037D01*
X118841320Y-79370002D01*
X118961018Y-79406312D01*
X119085500Y-79418572D01*
X120690500Y-79418572D01*
X120814982Y-79406312D01*
X120934680Y-79370002D01*
X121044994Y-79311037D01*
X121141685Y-79231685D01*
X121221037Y-79134994D01*
X121280002Y-79024680D01*
X121316312Y-78904982D01*
X121316826Y-78899758D01*
X121511647Y-79094579D01*
X121668000Y-79199051D01*
X121668001Y-81242668D01*
X121664324Y-81280000D01*
X121668001Y-81317333D01*
X121674393Y-81382226D01*
X121678998Y-81428985D01*
X121722454Y-81572246D01*
X121793026Y-81704276D01*
X121864201Y-81791002D01*
X121888000Y-81820001D01*
X121916998Y-81843799D01*
X128700198Y-88627000D01*
X128676061Y-88627000D01*
X128476102Y-88666774D01*
X128287744Y-88744795D01*
X128118226Y-88858063D01*
X127974063Y-89002226D01*
X127860795Y-89171744D01*
X127782774Y-89360102D01*
X127743000Y-89560061D01*
X127743000Y-89763939D01*
X127782774Y-89963898D01*
X127860795Y-90152256D01*
X127974063Y-90321774D01*
X128118226Y-90465937D01*
X128287744Y-90579205D01*
X128476102Y-90657226D01*
X128676061Y-90697000D01*
X128879939Y-90697000D01*
X129079898Y-90657226D01*
X129268256Y-90579205D01*
X129437774Y-90465937D01*
X129481711Y-90422000D01*
X129637659Y-90422000D01*
X129724880Y-90552535D01*
X129919465Y-90747120D01*
X130148273Y-90900005D01*
X130402510Y-91005314D01*
X130672408Y-91059000D01*
X130947592Y-91059000D01*
X131217490Y-91005314D01*
X131471727Y-90900005D01*
X131700535Y-90747120D01*
X131895120Y-90552535D01*
X132048005Y-90323727D01*
X132153314Y-90069490D01*
X132207000Y-89799592D01*
X132207000Y-89524408D01*
X132153314Y-89254510D01*
X132048005Y-89000273D01*
X131895120Y-88771465D01*
X131700535Y-88576880D01*
X131471727Y-88423995D01*
X131217490Y-88318686D01*
X130947592Y-88265000D01*
X130672408Y-88265000D01*
X130518430Y-88295628D01*
X125539981Y-83317179D01*
X125629727Y-83280005D01*
X125858535Y-83127120D01*
X126053120Y-82932535D01*
X126206005Y-82703727D01*
X126311314Y-82449490D01*
X126365000Y-82179592D01*
X126365000Y-81904408D01*
X126311314Y-81634510D01*
X126206005Y-81380273D01*
X126053120Y-81151465D01*
X125858535Y-80956880D01*
X125728000Y-80869659D01*
X125728000Y-79199051D01*
X125884353Y-79094579D01*
X126006445Y-78972487D01*
X126693118Y-78972487D01*
X126765004Y-79216712D01*
X127020941Y-79337862D01*
X127295596Y-79406752D01*
X127578413Y-79420738D01*
X127858524Y-79379279D01*
X128125165Y-79283970D01*
X128250996Y-79216712D01*
X128322882Y-78972487D01*
X127508000Y-78157605D01*
X126693118Y-78972487D01*
X126006445Y-78972487D01*
X126084579Y-78894353D01*
X126238678Y-78663728D01*
X126269288Y-78720996D01*
X126513513Y-78792882D01*
X127328395Y-77978000D01*
X127687605Y-77978000D01*
X128502487Y-78792882D01*
X128746712Y-78720996D01*
X128816273Y-78574042D01*
X132173000Y-78574042D01*
X132173000Y-78905958D01*
X132237754Y-79231496D01*
X132364772Y-79538147D01*
X132549175Y-79814125D01*
X132783875Y-80048825D01*
X133059853Y-80233228D01*
X133366504Y-80360246D01*
X133692042Y-80425000D01*
X134023958Y-80425000D01*
X134349496Y-80360246D01*
X134656147Y-80233228D01*
X134932125Y-80048825D01*
X135166825Y-79814125D01*
X135351228Y-79538147D01*
X135478246Y-79231496D01*
X135543000Y-78905958D01*
X135543000Y-78574042D01*
X135478246Y-78248504D01*
X135351228Y-77941853D01*
X135166825Y-77665875D01*
X134932125Y-77431175D01*
X134656147Y-77246772D01*
X134349496Y-77119754D01*
X134023958Y-77055000D01*
X133692042Y-77055000D01*
X133366504Y-77119754D01*
X133059853Y-77246772D01*
X132783875Y-77431175D01*
X132549175Y-77665875D01*
X132364772Y-77941853D01*
X132237754Y-78248504D01*
X132173000Y-78574042D01*
X128816273Y-78574042D01*
X128867862Y-78465059D01*
X128936752Y-78190404D01*
X128950738Y-77907587D01*
X128909279Y-77627476D01*
X128813970Y-77360835D01*
X128746712Y-77235004D01*
X128502487Y-77163118D01*
X127687605Y-77978000D01*
X127328395Y-77978000D01*
X126513513Y-77163118D01*
X126269288Y-77235004D01*
X126240727Y-77295340D01*
X126084579Y-77061647D01*
X125932932Y-76910000D01*
X126714756Y-76910000D01*
X126693118Y-76983513D01*
X127508000Y-77798395D01*
X128322882Y-76983513D01*
X128301244Y-76910000D01*
X135942000Y-76910000D01*
X135942001Y-94794000D01*
X95960000Y-94794000D01*
X95960000Y-92544042D01*
X96105000Y-92544042D01*
X96105000Y-92875958D01*
X96169754Y-93201496D01*
X96296772Y-93508147D01*
X96481175Y-93784125D01*
X96715875Y-94018825D01*
X96991853Y-94203228D01*
X97298504Y-94330246D01*
X97624042Y-94395000D01*
X97955958Y-94395000D01*
X98281496Y-94330246D01*
X98588147Y-94203228D01*
X98864125Y-94018825D01*
X99098825Y-93784125D01*
X99283228Y-93508147D01*
X99410246Y-93201496D01*
X99475000Y-92875958D01*
X99475000Y-92544042D01*
X99410246Y-92218504D01*
X99351640Y-92077014D01*
X118619000Y-92077014D01*
X118619000Y-92326986D01*
X118667767Y-92572154D01*
X118763427Y-92803097D01*
X118902303Y-93010940D01*
X119079060Y-93187697D01*
X119286903Y-93326573D01*
X119517846Y-93422233D01*
X119763014Y-93471000D01*
X120012986Y-93471000D01*
X120258154Y-93422233D01*
X120489097Y-93326573D01*
X120696940Y-93187697D01*
X120873697Y-93010940D01*
X121012573Y-92803097D01*
X121108233Y-92572154D01*
X121113824Y-92544042D01*
X132173000Y-92544042D01*
X132173000Y-92875958D01*
X132237754Y-93201496D01*
X132364772Y-93508147D01*
X132549175Y-93784125D01*
X132783875Y-94018825D01*
X133059853Y-94203228D01*
X133366504Y-94330246D01*
X133692042Y-94395000D01*
X134023958Y-94395000D01*
X134349496Y-94330246D01*
X134656147Y-94203228D01*
X134932125Y-94018825D01*
X135166825Y-93784125D01*
X135351228Y-93508147D01*
X135478246Y-93201496D01*
X135543000Y-92875958D01*
X135543000Y-92544042D01*
X135478246Y-92218504D01*
X135351228Y-91911853D01*
X135166825Y-91635875D01*
X134932125Y-91401175D01*
X134656147Y-91216772D01*
X134349496Y-91089754D01*
X134023958Y-91025000D01*
X133692042Y-91025000D01*
X133366504Y-91089754D01*
X133059853Y-91216772D01*
X132783875Y-91401175D01*
X132549175Y-91635875D01*
X132364772Y-91911853D01*
X132237754Y-92218504D01*
X132173000Y-92544042D01*
X121113824Y-92544042D01*
X121157000Y-92326986D01*
X121157000Y-92077014D01*
X121108233Y-91831846D01*
X121012573Y-91600903D01*
X120873697Y-91393060D01*
X120696940Y-91216303D01*
X120489097Y-91077427D01*
X120258154Y-90981767D01*
X120012986Y-90933000D01*
X119763014Y-90933000D01*
X119517846Y-90981767D01*
X119286903Y-91077427D01*
X119079060Y-91216303D01*
X118902303Y-91393060D01*
X118763427Y-91600903D01*
X118667767Y-91831846D01*
X118619000Y-92077014D01*
X99351640Y-92077014D01*
X99283228Y-91911853D01*
X99098825Y-91635875D01*
X98864125Y-91401175D01*
X98588147Y-91216772D01*
X98281496Y-91089754D01*
X97955958Y-91025000D01*
X97624042Y-91025000D01*
X97298504Y-91089754D01*
X96991853Y-91216772D01*
X96715875Y-91401175D01*
X96481175Y-91635875D01*
X96296772Y-91911853D01*
X96169754Y-92218504D01*
X96105000Y-92544042D01*
X95960000Y-92544042D01*
X95960000Y-89537014D01*
X123699000Y-89537014D01*
X123699000Y-89786986D01*
X123747767Y-90032154D01*
X123843427Y-90263097D01*
X123982303Y-90470940D01*
X124159060Y-90647697D01*
X124366903Y-90786573D01*
X124597846Y-90882233D01*
X124843014Y-90931000D01*
X125092986Y-90931000D01*
X125338154Y-90882233D01*
X125569097Y-90786573D01*
X125776940Y-90647697D01*
X125953697Y-90470940D01*
X126092573Y-90263097D01*
X126188233Y-90032154D01*
X126237000Y-89786986D01*
X126237000Y-89537014D01*
X126188233Y-89291846D01*
X126092573Y-89060903D01*
X125953697Y-88853060D01*
X125776940Y-88676303D01*
X125569097Y-88537427D01*
X125338154Y-88441767D01*
X125092986Y-88393000D01*
X124843014Y-88393000D01*
X124597846Y-88441767D01*
X124366903Y-88537427D01*
X124159060Y-88676303D01*
X123982303Y-88853060D01*
X123843427Y-89060903D01*
X123747767Y-89291846D01*
X123699000Y-89537014D01*
X95960000Y-89537014D01*
X95960000Y-86088588D01*
X98093414Y-86088588D01*
X98121051Y-86205221D01*
X98245564Y-86490983D01*
X98423434Y-86746962D01*
X98647825Y-86963322D01*
X98910114Y-87131748D01*
X99200222Y-87245768D01*
X99507000Y-87301000D01*
X100457000Y-87301000D01*
X100457000Y-85843000D01*
X100711000Y-85843000D01*
X100711000Y-87301000D01*
X101661000Y-87301000D01*
X101967778Y-87245768D01*
X102257886Y-87131748D01*
X102520175Y-86963322D01*
X102744566Y-86746962D01*
X102922436Y-86490983D01*
X102923735Y-86488000D01*
X118615928Y-86488000D01*
X118615928Y-87756000D01*
X118628188Y-87880482D01*
X118664498Y-88000180D01*
X118723463Y-88110494D01*
X118802815Y-88207185D01*
X118899506Y-88286537D01*
X119009820Y-88345502D01*
X119129518Y-88381812D01*
X119254000Y-88394072D01*
X120522000Y-88394072D01*
X120646482Y-88381812D01*
X120766180Y-88345502D01*
X120876494Y-88286537D01*
X120973185Y-88207185D01*
X121052537Y-88110494D01*
X121111502Y-88000180D01*
X121147812Y-87880482D01*
X121160072Y-87756000D01*
X121160072Y-86488000D01*
X121147812Y-86363518D01*
X121111502Y-86243820D01*
X121052537Y-86133506D01*
X120973185Y-86036815D01*
X120876494Y-85957463D01*
X120766180Y-85898498D01*
X120646482Y-85862188D01*
X120522000Y-85849928D01*
X119254000Y-85849928D01*
X119129518Y-85862188D01*
X119009820Y-85898498D01*
X118899506Y-85957463D01*
X118802815Y-86036815D01*
X118723463Y-86133506D01*
X118664498Y-86243820D01*
X118628188Y-86363518D01*
X118615928Y-86488000D01*
X102923735Y-86488000D01*
X103046949Y-86205221D01*
X103074586Y-86088588D01*
X102954584Y-85843000D01*
X100711000Y-85843000D01*
X100457000Y-85843000D01*
X98213416Y-85843000D01*
X98093414Y-86088588D01*
X95960000Y-86088588D01*
X95960000Y-85343412D01*
X98093414Y-85343412D01*
X98213416Y-85589000D01*
X100457000Y-85589000D01*
X100457000Y-84131000D01*
X100711000Y-84131000D01*
X100711000Y-85589000D01*
X102954584Y-85589000D01*
X103074586Y-85343412D01*
X103046949Y-85226779D01*
X102922436Y-84941017D01*
X102744566Y-84685038D01*
X102520175Y-84468678D01*
X102257886Y-84300252D01*
X101967778Y-84186232D01*
X101661000Y-84131000D01*
X100711000Y-84131000D01*
X100457000Y-84131000D01*
X99507000Y-84131000D01*
X99200222Y-84186232D01*
X98910114Y-84300252D01*
X98647825Y-84468678D01*
X98423434Y-84685038D01*
X98245564Y-84941017D01*
X98121051Y-85226779D01*
X98093414Y-85343412D01*
X95960000Y-85343412D01*
X95960000Y-82764900D01*
X96086678Y-82962175D01*
X96303038Y-83186566D01*
X96559017Y-83364436D01*
X96844779Y-83488949D01*
X96961412Y-83516586D01*
X97207000Y-83396584D01*
X97207000Y-81153000D01*
X97461000Y-81153000D01*
X97461000Y-83396584D01*
X97706588Y-83516586D01*
X97823221Y-83488949D01*
X98108983Y-83364436D01*
X98364962Y-83186566D01*
X98581322Y-82962175D01*
X98749748Y-82699886D01*
X98863768Y-82409778D01*
X98899515Y-82211224D01*
X101554000Y-82211224D01*
X101579105Y-82466118D01*
X101678314Y-82793167D01*
X101839421Y-83094577D01*
X102056234Y-83358766D01*
X102320422Y-83575579D01*
X102621832Y-83736686D01*
X102948881Y-83835895D01*
X103289000Y-83869394D01*
X103629118Y-83835895D01*
X103956167Y-83736686D01*
X104257577Y-83575579D01*
X104521766Y-83358766D01*
X104738579Y-83094578D01*
X104899686Y-82793168D01*
X104998895Y-82466119D01*
X105024000Y-82211225D01*
X105024000Y-79840775D01*
X105002099Y-79618408D01*
X114427000Y-79618408D01*
X114427000Y-79893592D01*
X114480686Y-80163490D01*
X114585995Y-80417727D01*
X114738880Y-80646535D01*
X114933465Y-80841120D01*
X115064000Y-80928341D01*
X115064000Y-81338289D01*
X115020063Y-81382226D01*
X114906795Y-81551744D01*
X114828774Y-81740102D01*
X114789000Y-81940061D01*
X114789000Y-82143939D01*
X114828774Y-82343898D01*
X114906795Y-82532256D01*
X115020063Y-82701774D01*
X115164226Y-82845937D01*
X115333744Y-82959205D01*
X115522102Y-83037226D01*
X115722061Y-83077000D01*
X115925939Y-83077000D01*
X116125898Y-83037226D01*
X116314256Y-82959205D01*
X116483774Y-82845937D01*
X116627937Y-82701774D01*
X116741205Y-82532256D01*
X116819226Y-82343898D01*
X116859000Y-82143939D01*
X116859000Y-81940061D01*
X116819226Y-81740102D01*
X116741205Y-81551744D01*
X116627937Y-81382226D01*
X116584000Y-81338289D01*
X116584000Y-80928341D01*
X116714535Y-80841120D01*
X116909120Y-80646535D01*
X117062005Y-80417727D01*
X117167314Y-80163490D01*
X117221000Y-79893592D01*
X117221000Y-79618408D01*
X117167314Y-79348510D01*
X117062005Y-79094273D01*
X116909120Y-78865465D01*
X116714535Y-78670880D01*
X116485727Y-78517995D01*
X116231490Y-78412686D01*
X115961592Y-78359000D01*
X115686408Y-78359000D01*
X115416510Y-78412686D01*
X115162273Y-78517995D01*
X114933465Y-78670880D01*
X114738880Y-78865465D01*
X114585995Y-79094273D01*
X114480686Y-79348510D01*
X114427000Y-79618408D01*
X105002099Y-79618408D01*
X104998895Y-79585881D01*
X104899686Y-79258832D01*
X104738579Y-78957422D01*
X104521766Y-78693234D01*
X104257578Y-78476421D01*
X103956168Y-78315314D01*
X103629119Y-78216105D01*
X103289000Y-78182606D01*
X102948882Y-78216105D01*
X102621833Y-78315314D01*
X102320423Y-78476421D01*
X102056235Y-78693234D01*
X101839422Y-78957422D01*
X101678315Y-79258832D01*
X101579106Y-79585881D01*
X101554001Y-79840775D01*
X101554000Y-82211224D01*
X98899515Y-82211224D01*
X98919000Y-82103000D01*
X98919000Y-81153000D01*
X97461000Y-81153000D01*
X97207000Y-81153000D01*
X97187000Y-81153000D01*
X97187000Y-80899000D01*
X97207000Y-80899000D01*
X97207000Y-78655416D01*
X97461000Y-78655416D01*
X97461000Y-80899000D01*
X98919000Y-80899000D01*
X98919000Y-79949000D01*
X98863768Y-79642222D01*
X98749748Y-79352114D01*
X98581322Y-79089825D01*
X98364962Y-78865434D01*
X98108983Y-78687564D01*
X97823221Y-78563051D01*
X97706588Y-78535414D01*
X97461000Y-78655416D01*
X97207000Y-78655416D01*
X96961412Y-78535414D01*
X96844779Y-78563051D01*
X96559017Y-78687564D01*
X96303038Y-78865434D01*
X96086678Y-79089825D01*
X95960000Y-79287100D01*
X95960000Y-76910000D01*
X118507394Y-76910000D01*
X118495998Y-76931320D01*
%TA.AperFunction,Conductor*%
D21*
G36*
X118495998Y-76931320D02*
G01*
X118459688Y-77051018D01*
X118447428Y-77175500D01*
X118447428Y-78780500D01*
X118459688Y-78904982D01*
X118495998Y-79024680D01*
X118554963Y-79134994D01*
X118634315Y-79231685D01*
X118731006Y-79311037D01*
X118841320Y-79370002D01*
X118961018Y-79406312D01*
X119085500Y-79418572D01*
X120690500Y-79418572D01*
X120814982Y-79406312D01*
X120934680Y-79370002D01*
X121044994Y-79311037D01*
X121141685Y-79231685D01*
X121221037Y-79134994D01*
X121280002Y-79024680D01*
X121316312Y-78904982D01*
X121316826Y-78899758D01*
X121511647Y-79094579D01*
X121668000Y-79199051D01*
X121668001Y-81242668D01*
X121664324Y-81280000D01*
X121668001Y-81317333D01*
X121674393Y-81382226D01*
X121678998Y-81428985D01*
X121722454Y-81572246D01*
X121793026Y-81704276D01*
X121864201Y-81791002D01*
X121888000Y-81820001D01*
X121916998Y-81843799D01*
X128700198Y-88627000D01*
X128676061Y-88627000D01*
X128476102Y-88666774D01*
X128287744Y-88744795D01*
X128118226Y-88858063D01*
X127974063Y-89002226D01*
X127860795Y-89171744D01*
X127782774Y-89360102D01*
X127743000Y-89560061D01*
X127743000Y-89763939D01*
X127782774Y-89963898D01*
X127860795Y-90152256D01*
X127974063Y-90321774D01*
X128118226Y-90465937D01*
X128287744Y-90579205D01*
X128476102Y-90657226D01*
X128676061Y-90697000D01*
X128879939Y-90697000D01*
X129079898Y-90657226D01*
X129268256Y-90579205D01*
X129437774Y-90465937D01*
X129481711Y-90422000D01*
X129637659Y-90422000D01*
X129724880Y-90552535D01*
X129919465Y-90747120D01*
X130148273Y-90900005D01*
X130402510Y-91005314D01*
X130672408Y-91059000D01*
X130947592Y-91059000D01*
X131217490Y-91005314D01*
X131471727Y-90900005D01*
X131700535Y-90747120D01*
X131895120Y-90552535D01*
X132048005Y-90323727D01*
X132153314Y-90069490D01*
X132207000Y-89799592D01*
X132207000Y-89524408D01*
X132153314Y-89254510D01*
X132048005Y-89000273D01*
X131895120Y-88771465D01*
X131700535Y-88576880D01*
X131471727Y-88423995D01*
X131217490Y-88318686D01*
X130947592Y-88265000D01*
X130672408Y-88265000D01*
X130518430Y-88295628D01*
X125539981Y-83317179D01*
X125629727Y-83280005D01*
X125858535Y-83127120D01*
X126053120Y-82932535D01*
X126206005Y-82703727D01*
X126311314Y-82449490D01*
X126365000Y-82179592D01*
X126365000Y-81904408D01*
X126311314Y-81634510D01*
X126206005Y-81380273D01*
X126053120Y-81151465D01*
X125858535Y-80956880D01*
X125728000Y-80869659D01*
X125728000Y-79199051D01*
X125884353Y-79094579D01*
X126006445Y-78972487D01*
X126693118Y-78972487D01*
X126765004Y-79216712D01*
X127020941Y-79337862D01*
X127295596Y-79406752D01*
X127578413Y-79420738D01*
X127858524Y-79379279D01*
X128125165Y-79283970D01*
X128250996Y-79216712D01*
X128322882Y-78972487D01*
X127508000Y-78157605D01*
X126693118Y-78972487D01*
X126006445Y-78972487D01*
X126084579Y-78894353D01*
X126238678Y-78663728D01*
X126269288Y-78720996D01*
X126513513Y-78792882D01*
X127328395Y-77978000D01*
X127687605Y-77978000D01*
X128502487Y-78792882D01*
X128746712Y-78720996D01*
X128816273Y-78574042D01*
X132173000Y-78574042D01*
X132173000Y-78905958D01*
X132237754Y-79231496D01*
X132364772Y-79538147D01*
X132549175Y-79814125D01*
X132783875Y-80048825D01*
X133059853Y-80233228D01*
X133366504Y-80360246D01*
X133692042Y-80425000D01*
X134023958Y-80425000D01*
X134349496Y-80360246D01*
X134656147Y-80233228D01*
X134932125Y-80048825D01*
X135166825Y-79814125D01*
X135351228Y-79538147D01*
X135478246Y-79231496D01*
X135543000Y-78905958D01*
X135543000Y-78574042D01*
X135478246Y-78248504D01*
X135351228Y-77941853D01*
X135166825Y-77665875D01*
X134932125Y-77431175D01*
X134656147Y-77246772D01*
X134349496Y-77119754D01*
X134023958Y-77055000D01*
X133692042Y-77055000D01*
X133366504Y-77119754D01*
X133059853Y-77246772D01*
X132783875Y-77431175D01*
X132549175Y-77665875D01*
X132364772Y-77941853D01*
X132237754Y-78248504D01*
X132173000Y-78574042D01*
X128816273Y-78574042D01*
X128867862Y-78465059D01*
X128936752Y-78190404D01*
X128950738Y-77907587D01*
X128909279Y-77627476D01*
X128813970Y-77360835D01*
X128746712Y-77235004D01*
X128502487Y-77163118D01*
X127687605Y-77978000D01*
X127328395Y-77978000D01*
X126513513Y-77163118D01*
X126269288Y-77235004D01*
X126240727Y-77295340D01*
X126084579Y-77061647D01*
X125932932Y-76910000D01*
X126714756Y-76910000D01*
X126693118Y-76983513D01*
X127508000Y-77798395D01*
X128322882Y-76983513D01*
X128301244Y-76910000D01*
X135942000Y-76910000D01*
X135942001Y-94794000D01*
X95960000Y-94794000D01*
X95960000Y-92544042D01*
X96105000Y-92544042D01*
X96105000Y-92875958D01*
X96169754Y-93201496D01*
X96296772Y-93508147D01*
X96481175Y-93784125D01*
X96715875Y-94018825D01*
X96991853Y-94203228D01*
X97298504Y-94330246D01*
X97624042Y-94395000D01*
X97955958Y-94395000D01*
X98281496Y-94330246D01*
X98588147Y-94203228D01*
X98864125Y-94018825D01*
X99098825Y-93784125D01*
X99283228Y-93508147D01*
X99410246Y-93201496D01*
X99475000Y-92875958D01*
X99475000Y-92544042D01*
X99410246Y-92218504D01*
X99351640Y-92077014D01*
X118619000Y-92077014D01*
X118619000Y-92326986D01*
X118667767Y-92572154D01*
X118763427Y-92803097D01*
X118902303Y-93010940D01*
X119079060Y-93187697D01*
X119286903Y-93326573D01*
X119517846Y-93422233D01*
X119763014Y-93471000D01*
X120012986Y-93471000D01*
X120258154Y-93422233D01*
X120489097Y-93326573D01*
X120696940Y-93187697D01*
X120873697Y-93010940D01*
X121012573Y-92803097D01*
X121108233Y-92572154D01*
X121113824Y-92544042D01*
X132173000Y-92544042D01*
X132173000Y-92875958D01*
X132237754Y-93201496D01*
X132364772Y-93508147D01*
X132549175Y-93784125D01*
X132783875Y-94018825D01*
X133059853Y-94203228D01*
X133366504Y-94330246D01*
X133692042Y-94395000D01*
X134023958Y-94395000D01*
X134349496Y-94330246D01*
X134656147Y-94203228D01*
X134932125Y-94018825D01*
X135166825Y-93784125D01*
X135351228Y-93508147D01*
X135478246Y-93201496D01*
X135543000Y-92875958D01*
X135543000Y-92544042D01*
X135478246Y-92218504D01*
X135351228Y-91911853D01*
X135166825Y-91635875D01*
X134932125Y-91401175D01*
X134656147Y-91216772D01*
X134349496Y-91089754D01*
X134023958Y-91025000D01*
X133692042Y-91025000D01*
X133366504Y-91089754D01*
X133059853Y-91216772D01*
X132783875Y-91401175D01*
X132549175Y-91635875D01*
X132364772Y-91911853D01*
X132237754Y-92218504D01*
X132173000Y-92544042D01*
X121113824Y-92544042D01*
X121157000Y-92326986D01*
X121157000Y-92077014D01*
X121108233Y-91831846D01*
X121012573Y-91600903D01*
X120873697Y-91393060D01*
X120696940Y-91216303D01*
X120489097Y-91077427D01*
X120258154Y-90981767D01*
X120012986Y-90933000D01*
X119763014Y-90933000D01*
X119517846Y-90981767D01*
X119286903Y-91077427D01*
X119079060Y-91216303D01*
X118902303Y-91393060D01*
X118763427Y-91600903D01*
X118667767Y-91831846D01*
X118619000Y-92077014D01*
X99351640Y-92077014D01*
X99283228Y-91911853D01*
X99098825Y-91635875D01*
X98864125Y-91401175D01*
X98588147Y-91216772D01*
X98281496Y-91089754D01*
X97955958Y-91025000D01*
X97624042Y-91025000D01*
X97298504Y-91089754D01*
X96991853Y-91216772D01*
X96715875Y-91401175D01*
X96481175Y-91635875D01*
X96296772Y-91911853D01*
X96169754Y-92218504D01*
X96105000Y-92544042D01*
X95960000Y-92544042D01*
X95960000Y-89537014D01*
X123699000Y-89537014D01*
X123699000Y-89786986D01*
X123747767Y-90032154D01*
X123843427Y-90263097D01*
X123982303Y-90470940D01*
X124159060Y-90647697D01*
X124366903Y-90786573D01*
X124597846Y-90882233D01*
X124843014Y-90931000D01*
X125092986Y-90931000D01*
X125338154Y-90882233D01*
X125569097Y-90786573D01*
X125776940Y-90647697D01*
X125953697Y-90470940D01*
X126092573Y-90263097D01*
X126188233Y-90032154D01*
X126237000Y-89786986D01*
X126237000Y-89537014D01*
X126188233Y-89291846D01*
X126092573Y-89060903D01*
X125953697Y-88853060D01*
X125776940Y-88676303D01*
X125569097Y-88537427D01*
X125338154Y-88441767D01*
X125092986Y-88393000D01*
X124843014Y-88393000D01*
X124597846Y-88441767D01*
X124366903Y-88537427D01*
X124159060Y-88676303D01*
X123982303Y-88853060D01*
X123843427Y-89060903D01*
X123747767Y-89291846D01*
X123699000Y-89537014D01*
X95960000Y-89537014D01*
X95960000Y-86088588D01*
X98093414Y-86088588D01*
X98121051Y-86205221D01*
X98245564Y-86490983D01*
X98423434Y-86746962D01*
X98647825Y-86963322D01*
X98910114Y-87131748D01*
X99200222Y-87245768D01*
X99507000Y-87301000D01*
X100457000Y-87301000D01*
X100457000Y-85843000D01*
X100711000Y-85843000D01*
X100711000Y-87301000D01*
X101661000Y-87301000D01*
X101967778Y-87245768D01*
X102257886Y-87131748D01*
X102520175Y-86963322D01*
X102744566Y-86746962D01*
X102922436Y-86490983D01*
X102923735Y-86488000D01*
X118615928Y-86488000D01*
X118615928Y-87756000D01*
X118628188Y-87880482D01*
X118664498Y-88000180D01*
X118723463Y-88110494D01*
X118802815Y-88207185D01*
X118899506Y-88286537D01*
X119009820Y-88345502D01*
X119129518Y-88381812D01*
X119254000Y-88394072D01*
X120522000Y-88394072D01*
X120646482Y-88381812D01*
X120766180Y-88345502D01*
X120876494Y-88286537D01*
X120973185Y-88207185D01*
X121052537Y-88110494D01*
X121111502Y-88000180D01*
X121147812Y-87880482D01*
X121160072Y-87756000D01*
X121160072Y-86488000D01*
X121147812Y-86363518D01*
X121111502Y-86243820D01*
X121052537Y-86133506D01*
X120973185Y-86036815D01*
X120876494Y-85957463D01*
X120766180Y-85898498D01*
X120646482Y-85862188D01*
X120522000Y-85849928D01*
X119254000Y-85849928D01*
X119129518Y-85862188D01*
X119009820Y-85898498D01*
X118899506Y-85957463D01*
X118802815Y-86036815D01*
X118723463Y-86133506D01*
X118664498Y-86243820D01*
X118628188Y-86363518D01*
X118615928Y-86488000D01*
X102923735Y-86488000D01*
X103046949Y-86205221D01*
X103074586Y-86088588D01*
X102954584Y-85843000D01*
X100711000Y-85843000D01*
X100457000Y-85843000D01*
X98213416Y-85843000D01*
X98093414Y-86088588D01*
X95960000Y-86088588D01*
X95960000Y-85343412D01*
X98093414Y-85343412D01*
X98213416Y-85589000D01*
X100457000Y-85589000D01*
X100457000Y-84131000D01*
X100711000Y-84131000D01*
X100711000Y-85589000D01*
X102954584Y-85589000D01*
X103074586Y-85343412D01*
X103046949Y-85226779D01*
X102922436Y-84941017D01*
X102744566Y-84685038D01*
X102520175Y-84468678D01*
X102257886Y-84300252D01*
X101967778Y-84186232D01*
X101661000Y-84131000D01*
X100711000Y-84131000D01*
X100457000Y-84131000D01*
X99507000Y-84131000D01*
X99200222Y-84186232D01*
X98910114Y-84300252D01*
X98647825Y-84468678D01*
X98423434Y-84685038D01*
X98245564Y-84941017D01*
X98121051Y-85226779D01*
X98093414Y-85343412D01*
X95960000Y-85343412D01*
X95960000Y-82764900D01*
X96086678Y-82962175D01*
X96303038Y-83186566D01*
X96559017Y-83364436D01*
X96844779Y-83488949D01*
X96961412Y-83516586D01*
X97207000Y-83396584D01*
X97207000Y-81153000D01*
X97461000Y-81153000D01*
X97461000Y-83396584D01*
X97706588Y-83516586D01*
X97823221Y-83488949D01*
X98108983Y-83364436D01*
X98364962Y-83186566D01*
X98581322Y-82962175D01*
X98749748Y-82699886D01*
X98863768Y-82409778D01*
X98899515Y-82211224D01*
X101554000Y-82211224D01*
X101579105Y-82466118D01*
X101678314Y-82793167D01*
X101839421Y-83094577D01*
X102056234Y-83358766D01*
X102320422Y-83575579D01*
X102621832Y-83736686D01*
X102948881Y-83835895D01*
X103289000Y-83869394D01*
X103629118Y-83835895D01*
X103956167Y-83736686D01*
X104257577Y-83575579D01*
X104521766Y-83358766D01*
X104738579Y-83094578D01*
X104899686Y-82793168D01*
X104998895Y-82466119D01*
X105024000Y-82211225D01*
X105024000Y-79840775D01*
X105002099Y-79618408D01*
X114427000Y-79618408D01*
X114427000Y-79893592D01*
X114480686Y-80163490D01*
X114585995Y-80417727D01*
X114738880Y-80646535D01*
X114933465Y-80841120D01*
X115064000Y-80928341D01*
X115064000Y-81338289D01*
X115020063Y-81382226D01*
X114906795Y-81551744D01*
X114828774Y-81740102D01*
X114789000Y-81940061D01*
X114789000Y-82143939D01*
X114828774Y-82343898D01*
X114906795Y-82532256D01*
X115020063Y-82701774D01*
X115164226Y-82845937D01*
X115333744Y-82959205D01*
X115522102Y-83037226D01*
X115722061Y-83077000D01*
X115925939Y-83077000D01*
X116125898Y-83037226D01*
X116314256Y-82959205D01*
X116483774Y-82845937D01*
X116627937Y-82701774D01*
X116741205Y-82532256D01*
X116819226Y-82343898D01*
X116859000Y-82143939D01*
X116859000Y-81940061D01*
X116819226Y-81740102D01*
X116741205Y-81551744D01*
X116627937Y-81382226D01*
X116584000Y-81338289D01*
X116584000Y-80928341D01*
X116714535Y-80841120D01*
X116909120Y-80646535D01*
X117062005Y-80417727D01*
X117167314Y-80163490D01*
X117221000Y-79893592D01*
X117221000Y-79618408D01*
X117167314Y-79348510D01*
X117062005Y-79094273D01*
X116909120Y-78865465D01*
X116714535Y-78670880D01*
X116485727Y-78517995D01*
X116231490Y-78412686D01*
X115961592Y-78359000D01*
X115686408Y-78359000D01*
X115416510Y-78412686D01*
X115162273Y-78517995D01*
X114933465Y-78670880D01*
X114738880Y-78865465D01*
X114585995Y-79094273D01*
X114480686Y-79348510D01*
X114427000Y-79618408D01*
X105002099Y-79618408D01*
X104998895Y-79585881D01*
X104899686Y-79258832D01*
X104738579Y-78957422D01*
X104521766Y-78693234D01*
X104257578Y-78476421D01*
X103956168Y-78315314D01*
X103629119Y-78216105D01*
X103289000Y-78182606D01*
X102948882Y-78216105D01*
X102621833Y-78315314D01*
X102320423Y-78476421D01*
X102056235Y-78693234D01*
X101839422Y-78957422D01*
X101678315Y-79258832D01*
X101579106Y-79585881D01*
X101554001Y-79840775D01*
X101554000Y-82211224D01*
X98899515Y-82211224D01*
X98919000Y-82103000D01*
X98919000Y-81153000D01*
X97461000Y-81153000D01*
X97207000Y-81153000D01*
X97187000Y-81153000D01*
X97187000Y-80899000D01*
X97207000Y-80899000D01*
X97207000Y-78655416D01*
X97461000Y-78655416D01*
X97461000Y-80899000D01*
X98919000Y-80899000D01*
X98919000Y-79949000D01*
X98863768Y-79642222D01*
X98749748Y-79352114D01*
X98581322Y-79089825D01*
X98364962Y-78865434D01*
X98108983Y-78687564D01*
X97823221Y-78563051D01*
X97706588Y-78535414D01*
X97461000Y-78655416D01*
X97207000Y-78655416D01*
X96961412Y-78535414D01*
X96844779Y-78563051D01*
X96559017Y-78687564D01*
X96303038Y-78865434D01*
X96086678Y-79089825D01*
X95960000Y-79287100D01*
X95960000Y-76910000D01*
X118507394Y-76910000D01*
X118495998Y-76931320D01*
G37*
%TD.AperFunction*%
%TD*%
M02*
