%TF.GenerationSoftware,KiCad,Pcbnew,(6.0.6)*%
%TF.CreationDate,2022-09-08T14:41:25-07:00*%
%TF.ProjectId,L0003-Wheatstone-Bridge,4c303030-332d-4576-9865-617473746f6e,rev?*%
%TF.SameCoordinates,Original*%
%TF.FileFunction,Soldermask,Top*%
%TF.FilePolarity,Negative*%
%FSLAX46Y46*%
G04 Gerber Fmt 4.6, Leading zero omitted, Abs format (unit mm)*
G04 Created by KiCad (PCBNEW (6.0.6)) date 2022-09-08 14:41:25*
%MOMM*%
%LPD*%
G01*
G04 APERTURE LIST*
%ADD10R,2.032000X3.302000*%
%ADD11R,1.473200X0.889000*%
%ADD12C,2.999999*%
%ADD13R,1.900000X1.900000*%
%ADD14C,1.900000*%
%ADD15R,0.965200X1.295400*%
%ADD16R,0.940000X1.020000*%
%ADD17R,1.020000X0.940000*%
%ADD18R,1.268000X1.268000*%
%ADD19C,1.268000*%
%ADD20O,2.200000X4.400000*%
%ADD21O,1.900000X3.800000*%
%ADD22O,3.800000X1.900000*%
%ADD23C,2.100000*%
%ADD24R,1.405349X1.299997*%
%ADD25R,1.100000X1.000000*%
%ADD26R,0.584200X1.041400*%
%ADD27R,1.605000X1.605000*%
%ADD28C,1.605000*%
G04 APERTURE END LIST*
D10*
%TO.C,U1*%
X114884200Y-82677000D03*
D11*
X108440200Y-80402400D03*
X108440200Y-82702400D03*
X108440200Y-85002400D03*
%TD*%
D12*
%TO.C,P4*%
X132677606Y-79018707D03*
X132677606Y-92618680D03*
D13*
X137717606Y-83718705D03*
D14*
X137717606Y-87918704D03*
X132217607Y-83718705D03*
X132217607Y-87918704D03*
%TD*%
D12*
%TO.C,P3*%
X146495206Y-79171107D03*
X146495206Y-92771080D03*
D13*
X151535206Y-83871105D03*
D14*
X151535206Y-88071104D03*
X146035207Y-83871105D03*
X146035207Y-88071104D03*
%TD*%
D15*
%TO.C,D1*%
X110998000Y-93726000D03*
X114046000Y-93726000D03*
%TD*%
D16*
%TO.C,R6*%
X119204800Y-83769200D03*
X117624800Y-83769200D03*
%TD*%
D17*
%TO.C,R5*%
X122631200Y-80642400D03*
X122631200Y-82222400D03*
%TD*%
D16*
%TO.C,R4*%
X119103200Y-81026000D03*
X117523200Y-81026000D03*
%TD*%
D17*
%TO.C,R3*%
X124714000Y-82222400D03*
X124714000Y-80642400D03*
%TD*%
D18*
%TO.C,R2*%
X119786400Y-92354400D03*
D19*
X122326400Y-87274400D03*
X124866400Y-92354400D03*
%TD*%
D16*
%TO.C,R1*%
X105890000Y-93980000D03*
X107470000Y-93980000D03*
%TD*%
D20*
%TO.C,P1*%
X105328500Y-81422000D03*
D21*
X99373500Y-81422000D03*
D22*
X102623500Y-86112000D03*
%TD*%
D23*
%TO.C,H3*%
X156972000Y-78740000D03*
%TD*%
%TO.C,H2*%
X156972000Y-93065600D03*
%TD*%
%TO.C,H1*%
X97282000Y-93014800D03*
%TD*%
D24*
%TO.C,C2*%
X108134522Y-89052400D03*
X105835078Y-89052400D03*
%TD*%
D25*
%TO.C,C1*%
X107912800Y-77825600D03*
X109612800Y-77825600D03*
%TD*%
D26*
%TO.C,D2*%
X114617500Y-88138000D03*
X110934500Y-88138000D03*
%TD*%
D27*
%TO.C,P2*%
X116965100Y-78130400D03*
D28*
X119505100Y-78130400D03*
X122045100Y-78130400D03*
X124585100Y-78130400D03*
%TD*%
M02*
