M48
; DRILL file {KiCad (6.0.5)} date Sat Jun 11 19:37:40 2022
; FORMAT={-:-/ absolute / inch / decimal}
; #@! TF.CreationDate,2022-06-11T19:37:40-07:00
; #@! TF.GenerationSoftware,Kicad,Pcbnew,(6.0.5)
; #@! TF.FileFunction,Plated,1,2,PTH
FMAT,2
INCH
; #@! TA.AperFunction,Plated,PTH,ComponentDrill
T1C0.0299
; #@! TA.AperFunction,Plated,PTH,ComponentDrill
T2C0.0402
; #@! TA.AperFunction,Plated,PTH,ComponentDrill
T3C0.0421
; #@! TA.AperFunction,Plated,PTH,ComponentDrill
T4C0.0551
%
G90
G05
T1
X4.59Y-3.435
X4.59Y-3.635
X4.79Y-3.535
T3
X4.55Y-3.075
X4.65Y-3.075
X4.75Y-3.075
X4.85Y-3.075
T4
X5.1214Y-3.32
X5.1214Y-3.4854
X5.338Y-3.32
X5.338Y-3.4854
X5.7664Y-3.313
X5.7664Y-3.4784
X5.983Y-3.313
X5.983Y-3.4784
T1
G00X3.832Y-3.1449
M15
G01X3.832Y-3.2351
M16
G05
G00X4.0051Y-3.3746
M15
G01X3.9149Y-3.3746
M16
G05
T2
G00X4.0665Y-3.14
M15
G01X4.0665Y-3.24
M16
G05
T0
M30
