%TF.GenerationSoftware,KiCad,Pcbnew,5.1.10*%
%TF.CreationDate,2021-11-16T14:47:03-07:00*%
%TF.ProjectId,L0003-Wheatstone-Bridge,4c303030-332d-4576-9865-617473746f6e,rev?*%
%TF.SameCoordinates,Original*%
%TF.FileFunction,Legend,Bot*%
%TF.FilePolarity,Positive*%
%FSLAX46Y46*%
G04 Gerber Fmt 4.6, Leading zero omitted, Abs format (unit mm)*
G04 Created by KiCad (PCBNEW 5.1.10) date 2021-11-16 14:47:03*
%MOMM*%
%LPD*%
G01*
G04 APERTURE LIST*
%ADD10C,0.150000*%
G04 APERTURE END LIST*
%TO.C,TP1*%
D10*
X117085904Y-77176380D02*
X116514476Y-77176380D01*
X116800190Y-78176380D02*
X116800190Y-77176380D01*
X116181142Y-78176380D02*
X116181142Y-77176380D01*
X115800190Y-77176380D01*
X115704952Y-77224000D01*
X115657333Y-77271619D01*
X115609714Y-77366857D01*
X115609714Y-77509714D01*
X115657333Y-77604952D01*
X115704952Y-77652571D01*
X115800190Y-77700190D01*
X116181142Y-77700190D01*
X114657333Y-78176380D02*
X115228761Y-78176380D01*
X114943047Y-78176380D02*
X114943047Y-77176380D01*
X115038285Y-77319238D01*
X115133523Y-77414476D01*
X115228761Y-77462095D01*
%TO.C,TP2*%
X134865904Y-88098380D02*
X134294476Y-88098380D01*
X134580190Y-89098380D02*
X134580190Y-88098380D01*
X133961142Y-89098380D02*
X133961142Y-88098380D01*
X133580190Y-88098380D01*
X133484952Y-88146000D01*
X133437333Y-88193619D01*
X133389714Y-88288857D01*
X133389714Y-88431714D01*
X133437333Y-88526952D01*
X133484952Y-88574571D01*
X133580190Y-88622190D01*
X133961142Y-88622190D01*
X133008761Y-88193619D02*
X132961142Y-88146000D01*
X132865904Y-88098380D01*
X132627809Y-88098380D01*
X132532571Y-88146000D01*
X132484952Y-88193619D01*
X132437333Y-88288857D01*
X132437333Y-88384095D01*
X132484952Y-88526952D01*
X133056380Y-89098380D01*
X132437333Y-89098380D01*
%TO.C,TP3*%
X128515904Y-81494380D02*
X127944476Y-81494380D01*
X128230190Y-82494380D02*
X128230190Y-81494380D01*
X127611142Y-82494380D02*
X127611142Y-81494380D01*
X127230190Y-81494380D01*
X127134952Y-81542000D01*
X127087333Y-81589619D01*
X127039714Y-81684857D01*
X127039714Y-81827714D01*
X127087333Y-81922952D01*
X127134952Y-81970571D01*
X127230190Y-82018190D01*
X127611142Y-82018190D01*
X126706380Y-81494380D02*
X126087333Y-81494380D01*
X126420666Y-81875333D01*
X126277809Y-81875333D01*
X126182571Y-81922952D01*
X126134952Y-81970571D01*
X126087333Y-82065809D01*
X126087333Y-82303904D01*
X126134952Y-82399142D01*
X126182571Y-82446761D01*
X126277809Y-82494380D01*
X126563523Y-82494380D01*
X126658761Y-82446761D01*
X126706380Y-82399142D01*
%TD*%
M02*
