M48
; DRILL file {KiCad (6.0.6)} date Thu Sep  8 14:41:27 2022
; FORMAT={-:-/ absolute / inch / decimal}
; #@! TF.CreationDate,2022-09-08T14:41:27-07:00
; #@! TF.GenerationSoftware,Kicad,Pcbnew,(6.0.6)
; #@! TF.FileFunction,Plated,1,2,PTH
FMAT,2
INCH
; #@! TA.AperFunction,Plated,PTH,ViaDrill
T1C0.0157
; #@! TA.AperFunction,Plated,PTH,ComponentDrill
T2C0.0299
; #@! TA.AperFunction,Plated,PTH,ComponentDrill
T3C0.0402
; #@! TA.AperFunction,Plated,PTH,ComponentDrill
T4C0.0421
; #@! TA.AperFunction,Plated,PTH,ComponentDrill
T5C0.0551
%
G90
G05
T1
X4.76Y-3.152
X4.93Y-3.31
T2
X4.716Y-3.636
X4.816Y-3.436
X4.916Y-3.636
T4
X4.6049Y-3.076
X4.7049Y-3.076
X4.8049Y-3.076
X4.9049Y-3.076
T5
X5.2054Y-3.296
X5.2054Y-3.4614
X5.422Y-3.296
X5.422Y-3.4614
X5.7494Y-3.302
X5.7494Y-3.4674
X5.966Y-3.302
X5.966Y-3.4674
T2
G00X3.9123Y-3.1605
M15
G01X3.9123Y-3.2507
M16
G05
G00X4.0854Y-3.3902
M15
G01X3.9952Y-3.3902
M16
G05
T3
G00X4.1468Y-3.1556
M15
G01X4.1468Y-3.2556
M16
G05
T0
M30
