%TF.GenerationSoftware,KiCad,Pcbnew,5.1.10*%
%TF.CreationDate,2021-11-16T14:47:03-07:00*%
%TF.ProjectId,L0003-Wheatstone-Bridge,4c303030-332d-4576-9865-617473746f6e,rev?*%
%TF.SameCoordinates,Original*%
%TF.FileFunction,Copper,L1,Top*%
%TF.FilePolarity,Positive*%
%FSLAX46Y46*%
G04 Gerber Fmt 4.6, Leading zero omitted, Abs format (unit mm)*
G04 Created by KiCad (PCBNEW 5.1.10) date 2021-11-16 14:47:03*
%MOMM*%
%LPD*%
G01*
G04 APERTURE LIST*
%TA.AperFunction,EtchedComponent*%
%ADD10C,0.100000*%
%TD*%
%TA.AperFunction,SMDPad,CuDef*%
%ADD11R,0.889000X1.473200*%
%TD*%
%TA.AperFunction,SMDPad,CuDef*%
%ADD12R,1.000000X1.100000*%
%TD*%
%TA.AperFunction,SMDPad,CuDef*%
%ADD13R,1.295400X0.965200*%
%TD*%
%TA.AperFunction,ComponentPad*%
%ADD14O,2.200000X4.400000*%
%TD*%
%TA.AperFunction,ComponentPad*%
%ADD15O,1.900000X3.800000*%
%TD*%
%TA.AperFunction,ComponentPad*%
%ADD16O,3.800000X1.900000*%
%TD*%
%TA.AperFunction,ComponentPad*%
%ADD17C,1.605000*%
%TD*%
%TA.AperFunction,ComponentPad*%
%ADD18R,1.605000X1.605000*%
%TD*%
%TA.AperFunction,SMDPad,CuDef*%
%ADD19R,1.020000X0.940000*%
%TD*%
%TA.AperFunction,ComponentPad*%
%ADD20R,1.268000X1.268000*%
%TD*%
%TA.AperFunction,ComponentPad*%
%ADD21C,1.268000*%
%TD*%
%TA.AperFunction,SMDPad,CuDef*%
%ADD22R,0.940000X1.020000*%
%TD*%
%TA.AperFunction,ViaPad*%
%ADD23C,0.800000*%
%TD*%
%TA.AperFunction,Conductor*%
%ADD24C,0.250000*%
%TD*%
G04 APERTURE END LIST*
D10*
%TO.C,U1*%
G36*
X111048800Y-77020400D02*
G01*
X107899200Y-77020400D01*
X107899200Y-78493600D01*
X111048800Y-78493600D01*
X111048800Y-77020400D01*
G37*
X111048800Y-77020400D02*
X107899200Y-77020400D01*
X107899200Y-78493600D01*
X111048800Y-78493600D01*
X111048800Y-77020400D01*
%TD*%
D11*
%TO.P,U1,3*%
%TO.N,+5V*%
X111774000Y-84295000D03*
%TO.P,U1,2*%
%TO.N,Earth*%
X109474000Y-84295000D03*
%TO.P,U1,1*%
%TO.N,Net-(C1-Pad2)*%
X107174000Y-84295000D03*
%TD*%
D12*
%TO.P,C1,1*%
%TO.N,Earth*%
X107218480Y-88586680D03*
%TO.P,C1,2*%
%TO.N,Net-(C1-Pad2)*%
X107218480Y-86886680D03*
%TD*%
D13*
%TO.P,D1,1*%
%TO.N,Net-(D1-Pad1)*%
X115824000Y-87122000D03*
%TO.P,D1,2*%
%TO.N,+5V*%
X115824000Y-84074000D03*
%TD*%
D14*
%TO.P,P1,1*%
%TO.N,Net-(C1-Pad2)*%
X103289000Y-81026000D03*
D15*
%TO.P,P1,2*%
%TO.N,Earth*%
X97334000Y-81026000D03*
D16*
%TO.P,P1,3*%
X100584000Y-85716000D03*
%TD*%
D17*
%TO.P,P2,4*%
%TO.N,Earth*%
X127508000Y-77978000D03*
%TO.P,P2,3*%
%TO.N,Vout-*%
X124968000Y-77978000D03*
%TO.P,P2,2*%
%TO.N,Vout+*%
X122428000Y-77978000D03*
D18*
%TO.P,P2,1*%
%TO.N,+5V*%
X119888000Y-77978000D03*
%TD*%
D19*
%TO.P,R1,1*%
%TO.N,Net-(D1-Pad1)*%
X115824000Y-89126000D03*
%TO.P,R1,2*%
%TO.N,Earth*%
X115824000Y-90706000D03*
%TD*%
D20*
%TO.P,R2,1*%
%TO.N,+5V*%
X119888000Y-87122000D03*
D21*
%TO.P,R2,2*%
%TO.N,Vout+*%
X124968000Y-89662000D03*
%TO.P,R2,3*%
%TO.N,Net-(R2-Pad3)*%
X119888000Y-92202000D03*
%TD*%
D19*
%TO.P,R3,2*%
%TO.N,Earth*%
X128778000Y-86357400D03*
%TO.P,R3,1*%
%TO.N,Vout+*%
X128778000Y-87937400D03*
%TD*%
D22*
%TO.P,R4,2*%
%TO.N,Vout-*%
X123154500Y-83629500D03*
%TO.P,R4,1*%
%TO.N,+5V*%
X121574500Y-83629500D03*
%TD*%
%TO.P,R5,1*%
%TO.N,Vout-*%
X129042100Y-83997800D03*
%TO.P,R5,2*%
%TO.N,Earth*%
X130622100Y-83997800D03*
%TD*%
D12*
%TO.P,C2,1*%
%TO.N,Earth*%
X111719360Y-89252160D03*
%TO.P,C2,2*%
%TO.N,+5V*%
X111719360Y-87552160D03*
%TD*%
D23*
%TO.N,Earth*%
X109474000Y-89662000D03*
%TO.N,+5V*%
X115824000Y-82042000D03*
%TO.N,Vout+*%
X128778000Y-89662000D03*
%TD*%
D24*
%TO.N,Earth*%
X97334000Y-81026000D02*
X97334000Y-82466000D01*
X109386000Y-89750000D02*
X109474000Y-89662000D01*
X109487444Y-89675444D02*
X109474000Y-89662000D01*
X111760000Y-89675444D02*
X109487444Y-89675444D01*
X114793444Y-89675444D02*
X115824000Y-90706000D01*
X111760000Y-89675444D02*
X114793444Y-89675444D01*
X109474000Y-84295000D02*
X109474000Y-89662000D01*
X130622100Y-83997800D02*
X130622100Y-81061620D01*
X130622100Y-81061620D02*
X127528320Y-77967840D01*
X128778000Y-86357400D02*
X130157280Y-86357400D01*
X130157280Y-86357400D02*
X130591560Y-85923120D01*
X130591560Y-85923120D02*
X130591560Y-83962240D01*
X107218480Y-88586680D02*
X107218480Y-89489280D01*
X107391200Y-89662000D02*
X109474000Y-89662000D01*
X107218480Y-89489280D02*
X107391200Y-89662000D01*
%TO.N,Net-(C1-Pad2)*%
X103289000Y-81026000D02*
X103289000Y-81699000D01*
X103289000Y-81026000D02*
X103905000Y-81026000D01*
X107174000Y-84295000D02*
X103599000Y-84295000D01*
X103289000Y-83985000D02*
X103289000Y-81026000D01*
X103599000Y-84295000D02*
X103289000Y-83985000D01*
X107218480Y-86886680D02*
X107218480Y-84510880D01*
%TO.N,+5V*%
X111774000Y-86720278D02*
X111760000Y-86734278D01*
X115791000Y-84041000D02*
X115824000Y-84074000D01*
X115824000Y-84074000D02*
X115824000Y-82042000D01*
X115824000Y-84074000D02*
X117856000Y-84074000D01*
X117856000Y-84074000D02*
X119888000Y-82042000D01*
X117856000Y-85090000D02*
X119888000Y-87122000D01*
X117856000Y-84074000D02*
X117856000Y-85090000D01*
X115603000Y-84295000D02*
X115824000Y-84074000D01*
X111774000Y-84295000D02*
X115603000Y-84295000D01*
X111774000Y-87362000D02*
X111760000Y-87376000D01*
X111774000Y-84295000D02*
X111774000Y-87362000D01*
X121574500Y-83629500D02*
X121574500Y-82321340D01*
X121107200Y-81854040D02*
X119888000Y-81854040D01*
X119888000Y-81854040D02*
X119888000Y-77978000D01*
X121574500Y-82321340D02*
X121107200Y-81854040D01*
X119888000Y-82042000D02*
X119888000Y-81854040D01*
%TO.N,Net-(D1-Pad1)*%
X115824000Y-87122000D02*
X115824000Y-89126000D01*
%TO.N,Vout-*%
X123218000Y-79728000D02*
X124968000Y-77978000D01*
X123218000Y-82042000D02*
X123218000Y-79728000D01*
X123218000Y-82042000D02*
X123218000Y-83588920D01*
X129042100Y-83997800D02*
X127716280Y-83997800D01*
X127716280Y-83997800D02*
X126385320Y-82666840D01*
X126385320Y-82666840D02*
X125648720Y-82666840D01*
X125648720Y-82666840D02*
X124973080Y-81991200D01*
X124973080Y-81991200D02*
X124973080Y-78094840D01*
%TO.N,Vout+*%
X124968000Y-89662000D02*
X128778000Y-89662000D01*
X128778000Y-87937400D02*
X128778000Y-89662000D01*
%TD*%
M02*
