%TF.GenerationSoftware,KiCad,Pcbnew,(6.0.5)*%
%TF.CreationDate,2022-06-11T19:37:36-07:00*%
%TF.ProjectId,L0003-Wheatstone-Bridge,4c303030-332d-4576-9865-617473746f6e,rev?*%
%TF.SameCoordinates,Original*%
%TF.FileFunction,Legend,Top*%
%TF.FilePolarity,Positive*%
%FSLAX46Y46*%
G04 Gerber Fmt 4.6, Leading zero omitted, Abs format (unit mm)*
G04 Created by KiCad (PCBNEW (6.0.5)) date 2022-06-11 19:37:36*
%MOMM*%
%LPD*%
G01*
G04 APERTURE LIST*
%ADD10C,0.150000*%
%ADD11C,0.076200*%
%ADD12C,0.120000*%
%ADD13C,0.127000*%
%ADD14C,0.200000*%
%ADD15C,0.010000*%
G04 APERTURE END LIST*
D10*
%TO.C,P3*%
X138453904Y-86050380D02*
X138453904Y-85050380D01*
X138834857Y-85050380D01*
X138930095Y-85098000D01*
X138977714Y-85145619D01*
X139025333Y-85240857D01*
X139025333Y-85383714D01*
X138977714Y-85478952D01*
X138930095Y-85526571D01*
X138834857Y-85574190D01*
X138453904Y-85574190D01*
X139358666Y-85050380D02*
X139977714Y-85050380D01*
X139644380Y-85431333D01*
X139787238Y-85431333D01*
X139882476Y-85478952D01*
X139930095Y-85526571D01*
X139977714Y-85621809D01*
X139977714Y-85859904D01*
X139930095Y-85955142D01*
X139882476Y-86002761D01*
X139787238Y-86050380D01*
X139501523Y-86050380D01*
X139406285Y-86002761D01*
X139358666Y-85955142D01*
X151419380Y-84150500D02*
X151657476Y-84150500D01*
X151562238Y-84388595D02*
X151657476Y-84150500D01*
X151562238Y-83912404D01*
X151847952Y-84293357D02*
X151657476Y-84150500D01*
X151847952Y-84007642D01*
%TO.C,P4*%
X124356904Y-81732380D02*
X124356904Y-80732380D01*
X124737857Y-80732380D01*
X124833095Y-80780000D01*
X124880714Y-80827619D01*
X124928333Y-80922857D01*
X124928333Y-81065714D01*
X124880714Y-81160952D01*
X124833095Y-81208571D01*
X124737857Y-81256190D01*
X124356904Y-81256190D01*
X125785476Y-81065714D02*
X125785476Y-81732380D01*
X125547380Y-80684761D02*
X125309285Y-81399047D01*
X125928333Y-81399047D01*
X135036386Y-84328000D02*
X135274482Y-84328000D01*
X135179244Y-84566095D02*
X135274482Y-84328000D01*
X135179244Y-84089904D01*
X135464958Y-84470857D02*
X135274482Y-84328000D01*
X135464958Y-84185142D01*
%TO.C,D1*%
X110132904Y-91511380D02*
X110132904Y-90511380D01*
X110371000Y-90511380D01*
X110513857Y-90559000D01*
X110609095Y-90654238D01*
X110656714Y-90749476D01*
X110704333Y-90939952D01*
X110704333Y-91082809D01*
X110656714Y-91273285D01*
X110609095Y-91368523D01*
X110513857Y-91463761D01*
X110371000Y-91511380D01*
X110132904Y-91511380D01*
X111656714Y-91511380D02*
X111085285Y-91511380D01*
X111371000Y-91511380D02*
X111371000Y-90511380D01*
X111275761Y-90654238D01*
X111180523Y-90749476D01*
X111085285Y-90797095D01*
%TO.C,C2*%
X102322333Y-88241142D02*
X102274714Y-88288761D01*
X102131857Y-88336380D01*
X102036619Y-88336380D01*
X101893761Y-88288761D01*
X101798523Y-88193523D01*
X101750904Y-88098285D01*
X101703285Y-87907809D01*
X101703285Y-87764952D01*
X101750904Y-87574476D01*
X101798523Y-87479238D01*
X101893761Y-87384000D01*
X102036619Y-87336380D01*
X102131857Y-87336380D01*
X102274714Y-87384000D01*
X102322333Y-87431619D01*
X102703285Y-87431619D02*
X102750904Y-87384000D01*
X102846142Y-87336380D01*
X103084238Y-87336380D01*
X103179476Y-87384000D01*
X103227095Y-87431619D01*
X103274714Y-87526857D01*
X103274714Y-87622095D01*
X103227095Y-87764952D01*
X102655666Y-88336380D01*
X103274714Y-88336380D01*
X104100380Y-88519000D02*
X104338476Y-88519000D01*
X104243238Y-88757095D02*
X104338476Y-88519000D01*
X104243238Y-88280904D01*
X104528952Y-88661857D02*
X104338476Y-88519000D01*
X104528952Y-88376142D01*
%TO.C,P2*%
X112058523Y-77577904D02*
X112058523Y-76777904D01*
X112363285Y-76777904D01*
X112439476Y-76816000D01*
X112477571Y-76854095D01*
X112515666Y-76930285D01*
X112515666Y-77044571D01*
X112477571Y-77120761D01*
X112439476Y-77158857D01*
X112363285Y-77196952D01*
X112058523Y-77196952D01*
X112820428Y-76854095D02*
X112858523Y-76816000D01*
X112934714Y-76777904D01*
X113125190Y-76777904D01*
X113201380Y-76816000D01*
X113239476Y-76854095D01*
X113277571Y-76930285D01*
X113277571Y-77006476D01*
X113239476Y-77120761D01*
X112782333Y-77577904D01*
X113277571Y-77577904D01*
D11*
%TO.C,R3*%
X121659666Y-84562904D02*
X121393000Y-84181952D01*
X121202523Y-84562904D02*
X121202523Y-83762904D01*
X121507285Y-83762904D01*
X121583476Y-83801000D01*
X121621571Y-83839095D01*
X121659666Y-83915285D01*
X121659666Y-84029571D01*
X121621571Y-84105761D01*
X121583476Y-84143857D01*
X121507285Y-84181952D01*
X121202523Y-84181952D01*
X121926333Y-83762904D02*
X122421571Y-83762904D01*
X122154904Y-84067666D01*
X122269190Y-84067666D01*
X122345380Y-84105761D01*
X122383476Y-84143857D01*
X122421571Y-84220047D01*
X122421571Y-84410523D01*
X122383476Y-84486714D01*
X122345380Y-84524809D01*
X122269190Y-84562904D01*
X122040619Y-84562904D01*
X121964428Y-84524809D01*
X121926333Y-84486714D01*
%TO.C,R4*%
X113785666Y-83165904D02*
X113519000Y-82784952D01*
X113328523Y-83165904D02*
X113328523Y-82365904D01*
X113633285Y-82365904D01*
X113709476Y-82404000D01*
X113747571Y-82442095D01*
X113785666Y-82518285D01*
X113785666Y-82632571D01*
X113747571Y-82708761D01*
X113709476Y-82746857D01*
X113633285Y-82784952D01*
X113328523Y-82784952D01*
X114471380Y-82632571D02*
X114471380Y-83165904D01*
X114280904Y-82327809D02*
X114090428Y-82899238D01*
X114585666Y-82899238D01*
%TO.C,R5*%
X113912666Y-81514904D02*
X113646000Y-81133952D01*
X113455523Y-81514904D02*
X113455523Y-80714904D01*
X113760285Y-80714904D01*
X113836476Y-80753000D01*
X113874571Y-80791095D01*
X113912666Y-80867285D01*
X113912666Y-80981571D01*
X113874571Y-81057761D01*
X113836476Y-81095857D01*
X113760285Y-81133952D01*
X113455523Y-81133952D01*
X114636476Y-80714904D02*
X114255523Y-80714904D01*
X114217428Y-81095857D01*
X114255523Y-81057761D01*
X114331714Y-81019666D01*
X114522190Y-81019666D01*
X114598380Y-81057761D01*
X114636476Y-81095857D01*
X114674571Y-81172047D01*
X114674571Y-81362523D01*
X114636476Y-81438714D01*
X114598380Y-81476809D01*
X114522190Y-81514904D01*
X114331714Y-81514904D01*
X114255523Y-81476809D01*
X114217428Y-81438714D01*
D10*
%TO.C,R2*%
X125309208Y-93543719D02*
X124975626Y-93067172D01*
X124737352Y-93543719D02*
X124737352Y-92542971D01*
X125118590Y-92542971D01*
X125213899Y-92590626D01*
X125261554Y-92638280D01*
X125309208Y-92733590D01*
X125309208Y-92876554D01*
X125261554Y-92971863D01*
X125213899Y-93019518D01*
X125118590Y-93067172D01*
X124737352Y-93067172D01*
X125690446Y-92638280D02*
X125738100Y-92590626D01*
X125833410Y-92542971D01*
X126071683Y-92542971D01*
X126166992Y-92590626D01*
X126214647Y-92638280D01*
X126262302Y-92733590D01*
X126262302Y-92828899D01*
X126214647Y-92971863D01*
X125642791Y-93543719D01*
X126262302Y-93543719D01*
%TO.C,R1*%
X112101333Y-94559380D02*
X111768000Y-94083190D01*
X111529904Y-94559380D02*
X111529904Y-93559380D01*
X111910857Y-93559380D01*
X112006095Y-93607000D01*
X112053714Y-93654619D01*
X112101333Y-93749857D01*
X112101333Y-93892714D01*
X112053714Y-93987952D01*
X112006095Y-94035571D01*
X111910857Y-94083190D01*
X111529904Y-94083190D01*
X113053714Y-94559380D02*
X112482285Y-94559380D01*
X112768000Y-94559380D02*
X112768000Y-93559380D01*
X112672761Y-93702238D01*
X112577523Y-93797476D01*
X112482285Y-93845095D01*
%TO.C,D2*%
X107465904Y-92400380D02*
X107465904Y-91400380D01*
X107704000Y-91400380D01*
X107846857Y-91448000D01*
X107942095Y-91543238D01*
X107989714Y-91638476D01*
X108037333Y-91828952D01*
X108037333Y-91971809D01*
X107989714Y-92162285D01*
X107942095Y-92257523D01*
X107846857Y-92352761D01*
X107704000Y-92400380D01*
X107465904Y-92400380D01*
X108418285Y-91495619D02*
X108465904Y-91448000D01*
X108561142Y-91400380D01*
X108799238Y-91400380D01*
X108894476Y-91448000D01*
X108942095Y-91495619D01*
X108989714Y-91590857D01*
X108989714Y-91686095D01*
X108942095Y-91828952D01*
X108370666Y-92400380D01*
X108989714Y-92400380D01*
%TO.C,U1*%
X105537095Y-77303380D02*
X105537095Y-78112904D01*
X105584714Y-78208142D01*
X105632333Y-78255761D01*
X105727571Y-78303380D01*
X105918047Y-78303380D01*
X106013285Y-78255761D01*
X106060904Y-78208142D01*
X106108523Y-78112904D01*
X106108523Y-77303380D01*
X107108523Y-78303380D02*
X106537095Y-78303380D01*
X106822809Y-78303380D02*
X106822809Y-77303380D01*
X106727571Y-77446238D01*
X106632333Y-77541476D01*
X106537095Y-77589095D01*
%TO.C,C1*%
X97115333Y-89384142D02*
X97067714Y-89431761D01*
X96924857Y-89479380D01*
X96829619Y-89479380D01*
X96686761Y-89431761D01*
X96591523Y-89336523D01*
X96543904Y-89241285D01*
X96496285Y-89050809D01*
X96496285Y-88907952D01*
X96543904Y-88717476D01*
X96591523Y-88622238D01*
X96686761Y-88527000D01*
X96829619Y-88479380D01*
X96924857Y-88479380D01*
X97067714Y-88527000D01*
X97115333Y-88574619D01*
X98067714Y-89479380D02*
X97496285Y-89479380D01*
X97782000Y-89479380D02*
X97782000Y-88479380D01*
X97686761Y-88622238D01*
X97591523Y-88717476D01*
X97496285Y-88765095D01*
%TO.C,P1*%
X96248666Y-87755333D02*
X96248666Y-86355333D01*
X96782000Y-86355333D01*
X96915333Y-86422000D01*
X96982000Y-86488666D01*
X97048666Y-86622000D01*
X97048666Y-86822000D01*
X96982000Y-86955333D01*
X96915333Y-87022000D01*
X96782000Y-87088666D01*
X96248666Y-87088666D01*
X98382000Y-87755333D02*
X97582000Y-87755333D01*
X97982000Y-87755333D02*
X97982000Y-86355333D01*
X97848666Y-86555333D01*
X97715333Y-86688666D01*
X97582000Y-86755333D01*
D12*
%TO.C,P3*%
X154217000Y-78050517D02*
X148090008Y-78050517D01*
X154217000Y-94450484D02*
X154217000Y-78050517D01*
X143216999Y-94450484D02*
X145764023Y-94450484D01*
X151967000Y-77796517D02*
X151332000Y-76272517D01*
X143216999Y-78050517D02*
X143216999Y-94450484D01*
X145763992Y-78050517D02*
X143216999Y-78050517D01*
X151332000Y-76272517D02*
X152602000Y-76272517D01*
X148089977Y-94450484D02*
X154217000Y-94450484D01*
X152602000Y-76272517D02*
X151967000Y-77796517D01*
%TO.C,P4*%
X137834006Y-78228017D02*
X131707014Y-78228017D01*
X137834006Y-94627984D02*
X137834006Y-78228017D01*
X126834005Y-94627984D02*
X129381029Y-94627984D01*
X135584006Y-77974017D02*
X134949006Y-76450017D01*
X126834005Y-78228017D02*
X126834005Y-94627984D01*
X129380998Y-78228017D02*
X126834005Y-78228017D01*
X134949006Y-76450017D02*
X136219006Y-76450017D01*
X131706983Y-94627984D02*
X137834006Y-94627984D01*
X136219006Y-76450017D02*
X135584006Y-77974017D01*
%TO.C,D1*%
X111671100Y-87518635D02*
X111671100Y-89519365D01*
X113626900Y-89519365D02*
X113626900Y-87518635D01*
X110617000Y-87960200D02*
X110007400Y-87960200D01*
X110058200Y-88823800D02*
X111074200Y-88823800D01*
X110617000Y-88773000D02*
X110617000Y-89433400D01*
X111074200Y-87960200D02*
X110617000Y-88773000D01*
X110617000Y-87960200D02*
X111074200Y-87960200D01*
X110617000Y-87299800D02*
X110617000Y-87960200D01*
X110007400Y-87960200D02*
X110617000Y-88773000D01*
%TO.C,C2*%
X104648000Y-86030003D02*
X104648000Y-85268003D01*
X103721002Y-88256309D02*
X103721002Y-88781691D01*
X105029000Y-85649003D02*
X104267000Y-85649003D01*
X105574998Y-88781691D02*
X105574998Y-88256309D01*
D13*
%TO.C,P2*%
X114050000Y-79375000D02*
X124710000Y-79375000D01*
X114050000Y-76835000D02*
X114050000Y-79375000D01*
X124710000Y-76835000D02*
X114050000Y-76835000D01*
X124710000Y-79375000D02*
X124710000Y-76835000D01*
D14*
X113520000Y-78155000D02*
G75*
G03*
X113520000Y-78155000I-100000J0D01*
G01*
D13*
%TO.C,R3*%
X120358000Y-83367000D02*
X121958000Y-83367000D01*
X120358000Y-81987000D02*
X121958000Y-81987000D01*
%TO.C,R4*%
X117386000Y-82241000D02*
X115786000Y-82241000D01*
X117386000Y-83621000D02*
X115786000Y-83621000D01*
%TO.C,R5*%
X115786000Y-81716000D02*
X117386000Y-81716000D01*
X115786000Y-80336000D02*
X117386000Y-80336000D01*
%TO.C,R2*%
X123891000Y-85024000D02*
X114361000Y-85024000D01*
X114361000Y-85024000D02*
X114361000Y-94554000D01*
X123891000Y-94554000D02*
X123891000Y-85024000D01*
X114361000Y-94554000D02*
X123891000Y-94554000D01*
D14*
X116826000Y-84389000D02*
G75*
G03*
X116826000Y-84389000I-100000J0D01*
G01*
D13*
%TO.C,R1*%
X110147000Y-93290000D02*
X108547000Y-93290000D01*
X110147000Y-94670000D02*
X108547000Y-94670000D01*
D12*
%TO.C,D2*%
X106583480Y-88958420D02*
X106586020Y-89387680D01*
X106126280Y-88153240D02*
X107043220Y-88145620D01*
X109438440Y-90195400D02*
X109664500Y-90195400D01*
X106598720Y-88953340D02*
X106105960Y-88168480D01*
X107022900Y-88966040D02*
X106161840Y-88966040D01*
X107505500Y-90195400D02*
X107731560Y-90195400D01*
X106611420Y-88117680D02*
X106611420Y-87642700D01*
X109664500Y-90195400D02*
X109664500Y-86842600D01*
X107731560Y-86842600D02*
X107505500Y-86842600D01*
X107043220Y-88145620D02*
X106598720Y-88953340D01*
X109664500Y-86842600D02*
X109438440Y-86842600D01*
X107505500Y-86842600D02*
X107505500Y-90195400D01*
%TO.C,U1*%
X105996999Y-79049000D02*
X105996999Y-83003000D01*
X112951001Y-79049000D02*
X105996999Y-79049000D01*
X112951001Y-83003000D02*
X112951001Y-79049000D01*
X105996999Y-83003000D02*
X112951001Y-83003000D01*
X104981000Y-84676000D02*
G75*
G03*
X104981000Y-84676000I-127000J0D01*
G01*
D13*
%TO.C,C1*%
X99799000Y-89477000D02*
X100099000Y-89477000D01*
X99799000Y-88577000D02*
X100099000Y-88577000D01*
D12*
%TO.C,P1*%
X101600000Y-80670400D02*
X101600000Y-81381600D01*
D13*
X104059000Y-78506000D02*
X104059000Y-76626000D01*
X89844000Y-76626000D02*
X89844000Y-85426000D01*
D12*
X95859600Y-80772000D02*
X95859600Y-81330800D01*
D13*
X89844000Y-85426000D02*
X98364000Y-85426000D01*
X104059000Y-85426000D02*
X102804000Y-85426000D01*
X104059000Y-83546000D02*
X104059000Y-85426000D01*
X104059000Y-76626000D02*
X89844000Y-76626000D01*
D12*
X101955600Y-81026000D02*
X101193600Y-81026000D01*
D14*
X105134000Y-81026000D02*
G75*
G03*
X105134000Y-81026000I-100000J0D01*
G01*
%TO.C,LOGO1*%
G36*
X101236616Y-94460472D02*
G01*
X101249622Y-94429364D01*
X101268821Y-94401040D01*
X101293981Y-94376593D01*
X101324874Y-94357118D01*
X101328048Y-94355590D01*
X101342630Y-94349134D01*
X101354759Y-94345167D01*
X101367452Y-94343105D01*
X101383731Y-94342365D01*
X101396800Y-94342314D01*
X101419698Y-94342937D01*
X101437262Y-94344957D01*
X101452575Y-94348840D01*
X101461505Y-94352076D01*
X101487821Y-94366241D01*
X101512987Y-94386754D01*
X101534838Y-94411558D01*
X101550184Y-94436454D01*
X101556458Y-94449780D01*
X101560476Y-94460736D01*
X101562729Y-94471930D01*
X101563709Y-94485972D01*
X101563911Y-94505471D01*
X101563904Y-94509092D01*
X101563635Y-94529999D01*
X101562648Y-94545011D01*
X101560486Y-94556696D01*
X101556693Y-94567623D01*
X101551464Y-94579017D01*
X101534017Y-94606762D01*
X101510647Y-94632029D01*
X101483790Y-94652385D01*
X101470884Y-94659456D01*
X101456743Y-94665611D01*
X101443599Y-94669474D01*
X101428421Y-94671666D01*
X101408178Y-94672809D01*
X101405267Y-94672905D01*
X101377818Y-94672775D01*
X101356413Y-94670575D01*
X101347211Y-94668359D01*
X101313461Y-94652958D01*
X101282803Y-94629719D01*
X101272530Y-94619451D01*
X101251120Y-94590845D01*
X101237054Y-94559550D01*
X101230102Y-94526659D01*
X101230047Y-94500273D01*
X101270623Y-94500273D01*
X101272646Y-94532390D01*
X101282203Y-94562177D01*
X101298875Y-94588648D01*
X101322247Y-94610820D01*
X101342847Y-94623496D01*
X101356984Y-94630255D01*
X101368248Y-94634091D01*
X101379960Y-94635643D01*
X101395441Y-94635552D01*
X101403540Y-94635193D01*
X101423656Y-94633599D01*
X101438440Y-94630642D01*
X101451007Y-94625573D01*
X101456811Y-94622378D01*
X101480152Y-94604882D01*
X101500801Y-94582286D01*
X101515991Y-94557649D01*
X101516632Y-94556251D01*
X101524117Y-94530488D01*
X101525642Y-94501811D01*
X101521288Y-94473239D01*
X101513777Y-94452782D01*
X101495891Y-94425141D01*
X101472811Y-94403465D01*
X101445712Y-94388284D01*
X101415767Y-94380124D01*
X101384153Y-94379513D01*
X101360851Y-94384091D01*
X101338398Y-94394182D01*
X101316456Y-94410277D01*
X101297147Y-94430290D01*
X101282593Y-94452141D01*
X101276549Y-94466811D01*
X101270623Y-94500273D01*
X101230047Y-94500273D01*
X101230032Y-94493269D01*
X101236616Y-94460472D01*
G37*
D15*
X101236616Y-94460472D02*
X101249622Y-94429364D01*
X101268821Y-94401040D01*
X101293981Y-94376593D01*
X101324874Y-94357118D01*
X101328048Y-94355590D01*
X101342630Y-94349134D01*
X101354759Y-94345167D01*
X101367452Y-94343105D01*
X101383731Y-94342365D01*
X101396800Y-94342314D01*
X101419698Y-94342937D01*
X101437262Y-94344957D01*
X101452575Y-94348840D01*
X101461505Y-94352076D01*
X101487821Y-94366241D01*
X101512987Y-94386754D01*
X101534838Y-94411558D01*
X101550184Y-94436454D01*
X101556458Y-94449780D01*
X101560476Y-94460736D01*
X101562729Y-94471930D01*
X101563709Y-94485972D01*
X101563911Y-94505471D01*
X101563904Y-94509092D01*
X101563635Y-94529999D01*
X101562648Y-94545011D01*
X101560486Y-94556696D01*
X101556693Y-94567623D01*
X101551464Y-94579017D01*
X101534017Y-94606762D01*
X101510647Y-94632029D01*
X101483790Y-94652385D01*
X101470884Y-94659456D01*
X101456743Y-94665611D01*
X101443599Y-94669474D01*
X101428421Y-94671666D01*
X101408178Y-94672809D01*
X101405267Y-94672905D01*
X101377818Y-94672775D01*
X101356413Y-94670575D01*
X101347211Y-94668359D01*
X101313461Y-94652958D01*
X101282803Y-94629719D01*
X101272530Y-94619451D01*
X101251120Y-94590845D01*
X101237054Y-94559550D01*
X101230102Y-94526659D01*
X101230047Y-94500273D01*
X101270623Y-94500273D01*
X101272646Y-94532390D01*
X101282203Y-94562177D01*
X101298875Y-94588648D01*
X101322247Y-94610820D01*
X101342847Y-94623496D01*
X101356984Y-94630255D01*
X101368248Y-94634091D01*
X101379960Y-94635643D01*
X101395441Y-94635552D01*
X101403540Y-94635193D01*
X101423656Y-94633599D01*
X101438440Y-94630642D01*
X101451007Y-94625573D01*
X101456811Y-94622378D01*
X101480152Y-94604882D01*
X101500801Y-94582286D01*
X101515991Y-94557649D01*
X101516632Y-94556251D01*
X101524117Y-94530488D01*
X101525642Y-94501811D01*
X101521288Y-94473239D01*
X101513777Y-94452782D01*
X101495891Y-94425141D01*
X101472811Y-94403465D01*
X101445712Y-94388284D01*
X101415767Y-94380124D01*
X101384153Y-94379513D01*
X101360851Y-94384091D01*
X101338398Y-94394182D01*
X101316456Y-94410277D01*
X101297147Y-94430290D01*
X101282593Y-94452141D01*
X101276549Y-94466811D01*
X101270623Y-94500273D01*
X101230047Y-94500273D01*
X101230032Y-94493269D01*
X101236616Y-94460472D01*
G36*
X102375767Y-94342563D02*
G01*
X102390070Y-94343993D01*
X102402201Y-94347102D01*
X102415305Y-94352553D01*
X102422825Y-94356176D01*
X102450900Y-94369997D01*
X102450900Y-94395132D01*
X102450330Y-94410612D01*
X102448225Y-94418306D01*
X102443998Y-94418840D01*
X102437060Y-94412842D01*
X102435681Y-94411342D01*
X102420992Y-94399576D01*
X102400845Y-94389385D01*
X102378243Y-94382050D01*
X102359966Y-94379064D01*
X102329970Y-94380822D01*
X102301341Y-94390239D01*
X102275365Y-94406507D01*
X102253330Y-94428818D01*
X102236520Y-94456365D01*
X102236389Y-94456649D01*
X102230655Y-94470615D01*
X102227659Y-94483018D01*
X102226821Y-94497424D01*
X102227308Y-94512616D01*
X102230170Y-94538706D01*
X102236612Y-94559910D01*
X102247908Y-94579488D01*
X102258910Y-94593418D01*
X102280508Y-94614070D01*
X102304372Y-94627359D01*
X102332395Y-94634222D01*
X102343439Y-94635274D01*
X102371887Y-94634874D01*
X102396398Y-94629038D01*
X102419943Y-94616856D01*
X102432325Y-94608068D01*
X102451311Y-94593576D01*
X102450047Y-94620045D01*
X102448784Y-94646514D01*
X102424030Y-94659154D01*
X102410306Y-94665558D01*
X102397799Y-94669532D01*
X102383440Y-94671746D01*
X102364164Y-94672867D01*
X102360530Y-94672986D01*
X102336062Y-94672870D01*
X102315985Y-94671048D01*
X102304850Y-94668569D01*
X102268952Y-94652554D01*
X102238480Y-94630244D01*
X102213886Y-94602032D01*
X102199416Y-94576912D01*
X102192913Y-94562103D01*
X102189004Y-94549484D01*
X102187048Y-94535827D01*
X102186404Y-94517904D01*
X102186370Y-94511283D01*
X102189487Y-94473056D01*
X102199247Y-94439694D01*
X102216088Y-94410298D01*
X102240451Y-94383971D01*
X102254151Y-94372759D01*
X102276893Y-94357972D01*
X102300150Y-94348447D01*
X102326434Y-94343430D01*
X102356150Y-94342152D01*
X102375767Y-94342563D01*
G37*
X102375767Y-94342563D02*
X102390070Y-94343993D01*
X102402201Y-94347102D01*
X102415305Y-94352553D01*
X102422825Y-94356176D01*
X102450900Y-94369997D01*
X102450900Y-94395132D01*
X102450330Y-94410612D01*
X102448225Y-94418306D01*
X102443998Y-94418840D01*
X102437060Y-94412842D01*
X102435681Y-94411342D01*
X102420992Y-94399576D01*
X102400845Y-94389385D01*
X102378243Y-94382050D01*
X102359966Y-94379064D01*
X102329970Y-94380822D01*
X102301341Y-94390239D01*
X102275365Y-94406507D01*
X102253330Y-94428818D01*
X102236520Y-94456365D01*
X102236389Y-94456649D01*
X102230655Y-94470615D01*
X102227659Y-94483018D01*
X102226821Y-94497424D01*
X102227308Y-94512616D01*
X102230170Y-94538706D01*
X102236612Y-94559910D01*
X102247908Y-94579488D01*
X102258910Y-94593418D01*
X102280508Y-94614070D01*
X102304372Y-94627359D01*
X102332395Y-94634222D01*
X102343439Y-94635274D01*
X102371887Y-94634874D01*
X102396398Y-94629038D01*
X102419943Y-94616856D01*
X102432325Y-94608068D01*
X102451311Y-94593576D01*
X102450047Y-94620045D01*
X102448784Y-94646514D01*
X102424030Y-94659154D01*
X102410306Y-94665558D01*
X102397799Y-94669532D01*
X102383440Y-94671746D01*
X102364164Y-94672867D01*
X102360530Y-94672986D01*
X102336062Y-94672870D01*
X102315985Y-94671048D01*
X102304850Y-94668569D01*
X102268952Y-94652554D01*
X102238480Y-94630244D01*
X102213886Y-94602032D01*
X102199416Y-94576912D01*
X102192913Y-94562103D01*
X102189004Y-94549484D01*
X102187048Y-94535827D01*
X102186404Y-94517904D01*
X102186370Y-94511283D01*
X102189487Y-94473056D01*
X102199247Y-94439694D01*
X102216088Y-94410298D01*
X102240451Y-94383971D01*
X102254151Y-94372759D01*
X102276893Y-94357972D01*
X102300150Y-94348447D01*
X102326434Y-94343430D01*
X102356150Y-94342152D01*
X102375767Y-94342563D01*
G36*
X100469541Y-94348300D02*
G01*
X100505299Y-94349951D01*
X100533860Y-94355137D01*
X100555868Y-94364205D01*
X100571970Y-94377501D01*
X100582811Y-94395375D01*
X100587866Y-94411929D01*
X100590376Y-94440043D01*
X100586060Y-94466214D01*
X100575590Y-94489185D01*
X100559637Y-94507698D01*
X100538875Y-94520495D01*
X100527909Y-94524112D01*
X100519519Y-94526817D01*
X100516267Y-94528999D01*
X100518609Y-94532905D01*
X100525125Y-94542578D01*
X100535045Y-94556908D01*
X100547604Y-94574787D01*
X100562031Y-94595106D01*
X100562110Y-94595215D01*
X100576793Y-94615838D01*
X100589865Y-94634294D01*
X100600492Y-94649395D01*
X100607839Y-94659955D01*
X100611043Y-94664742D01*
X100610680Y-94667827D01*
X100604283Y-94669496D01*
X100590698Y-94670031D01*
X100589386Y-94670033D01*
X100564639Y-94670033D01*
X100516522Y-94600183D01*
X100501702Y-94578918D01*
X100488374Y-94560261D01*
X100477314Y-94545264D01*
X100469302Y-94534979D01*
X100465115Y-94530455D01*
X100464819Y-94530333D01*
X100463626Y-94534334D01*
X100462601Y-94545405D01*
X100461816Y-94562153D01*
X100461342Y-94583181D01*
X100461234Y-94600183D01*
X100461234Y-94670033D01*
X100423134Y-94670033D01*
X100423134Y-94492233D01*
X100461234Y-94492233D01*
X100482314Y-94492233D01*
X100499132Y-94490739D01*
X100515871Y-94486998D01*
X100520577Y-94485358D01*
X100536360Y-94475167D01*
X100546284Y-94460793D01*
X100550506Y-94444010D01*
X100549185Y-94426590D01*
X100542479Y-94410309D01*
X100530544Y-94396939D01*
X100513539Y-94388255D01*
X100511901Y-94387799D01*
X100496126Y-94384556D01*
X100480485Y-94382663D01*
X100477109Y-94382507D01*
X100461234Y-94382167D01*
X100461234Y-94492233D01*
X100423134Y-94492233D01*
X100423134Y-94348300D01*
X100469541Y-94348300D01*
G37*
X100469541Y-94348300D02*
X100505299Y-94349951D01*
X100533860Y-94355137D01*
X100555868Y-94364205D01*
X100571970Y-94377501D01*
X100582811Y-94395375D01*
X100587866Y-94411929D01*
X100590376Y-94440043D01*
X100586060Y-94466214D01*
X100575590Y-94489185D01*
X100559637Y-94507698D01*
X100538875Y-94520495D01*
X100527909Y-94524112D01*
X100519519Y-94526817D01*
X100516267Y-94528999D01*
X100518609Y-94532905D01*
X100525125Y-94542578D01*
X100535045Y-94556908D01*
X100547604Y-94574787D01*
X100562031Y-94595106D01*
X100562110Y-94595215D01*
X100576793Y-94615838D01*
X100589865Y-94634294D01*
X100600492Y-94649395D01*
X100607839Y-94659955D01*
X100611043Y-94664742D01*
X100610680Y-94667827D01*
X100604283Y-94669496D01*
X100590698Y-94670031D01*
X100589386Y-94670033D01*
X100564639Y-94670033D01*
X100516522Y-94600183D01*
X100501702Y-94578918D01*
X100488374Y-94560261D01*
X100477314Y-94545264D01*
X100469302Y-94534979D01*
X100465115Y-94530455D01*
X100464819Y-94530333D01*
X100463626Y-94534334D01*
X100462601Y-94545405D01*
X100461816Y-94562153D01*
X100461342Y-94583181D01*
X100461234Y-94600183D01*
X100461234Y-94670033D01*
X100423134Y-94670033D01*
X100423134Y-94492233D01*
X100461234Y-94492233D01*
X100482314Y-94492233D01*
X100499132Y-94490739D01*
X100515871Y-94486998D01*
X100520577Y-94485358D01*
X100536360Y-94475167D01*
X100546284Y-94460793D01*
X100550506Y-94444010D01*
X100549185Y-94426590D01*
X100542479Y-94410309D01*
X100530544Y-94396939D01*
X100513539Y-94388255D01*
X100511901Y-94387799D01*
X100496126Y-94384556D01*
X100480485Y-94382663D01*
X100477109Y-94382507D01*
X100461234Y-94382167D01*
X100461234Y-94492233D01*
X100423134Y-94492233D01*
X100423134Y-94348300D01*
X100469541Y-94348300D01*
G36*
X103140933Y-94477314D02*
G01*
X103270149Y-94348300D01*
X103324995Y-94348300D01*
X103250272Y-94423442D01*
X103175549Y-94498583D01*
X103251249Y-94581133D01*
X103271440Y-94603261D01*
X103289611Y-94623387D01*
X103305011Y-94640662D01*
X103316889Y-94654237D01*
X103324493Y-94663262D01*
X103327075Y-94666858D01*
X103323290Y-94668495D01*
X103313293Y-94669621D01*
X103300742Y-94669979D01*
X103274283Y-94669925D01*
X103210783Y-94598110D01*
X103192410Y-94577478D01*
X103175843Y-94559155D01*
X103161915Y-94544040D01*
X103151462Y-94533034D01*
X103145318Y-94527037D01*
X103144108Y-94526197D01*
X103143067Y-94530168D01*
X103142169Y-94541233D01*
X103141475Y-94558021D01*
X103141045Y-94579158D01*
X103140933Y-94598067D01*
X103140933Y-94670033D01*
X103098600Y-94670033D01*
X103098600Y-94348300D01*
X103140933Y-94348300D01*
X103140933Y-94477314D01*
G37*
X103140933Y-94477314D02*
X103270149Y-94348300D01*
X103324995Y-94348300D01*
X103250272Y-94423442D01*
X103175549Y-94498583D01*
X103251249Y-94581133D01*
X103271440Y-94603261D01*
X103289611Y-94623387D01*
X103305011Y-94640662D01*
X103316889Y-94654237D01*
X103324493Y-94663262D01*
X103327075Y-94666858D01*
X103323290Y-94668495D01*
X103313293Y-94669621D01*
X103300742Y-94669979D01*
X103274283Y-94669925D01*
X103210783Y-94598110D01*
X103192410Y-94577478D01*
X103175843Y-94559155D01*
X103161915Y-94544040D01*
X103151462Y-94533034D01*
X103145318Y-94527037D01*
X103144108Y-94526197D01*
X103143067Y-94530168D01*
X103142169Y-94541233D01*
X103141475Y-94558021D01*
X103141045Y-94579158D01*
X103140933Y-94598067D01*
X103140933Y-94670033D01*
X103098600Y-94670033D01*
X103098600Y-94348300D01*
X103140933Y-94348300D01*
X103140933Y-94477314D01*
G36*
X104118834Y-94382167D02*
G01*
X103991834Y-94382167D01*
X103991834Y-94475300D01*
X104114600Y-94475300D01*
X104114600Y-94513400D01*
X103991834Y-94513400D01*
X103991834Y-94631933D01*
X104118834Y-94631933D01*
X104118834Y-94670033D01*
X103949500Y-94670033D01*
X103949500Y-94348300D01*
X104118834Y-94348300D01*
X104118834Y-94382167D01*
G37*
X104118834Y-94382167D02*
X103991834Y-94382167D01*
X103991834Y-94475300D01*
X104114600Y-94475300D01*
X104114600Y-94513400D01*
X103991834Y-94513400D01*
X103991834Y-94631933D01*
X104118834Y-94631933D01*
X104118834Y-94670033D01*
X103949500Y-94670033D01*
X103949500Y-94348300D01*
X104118834Y-94348300D01*
X104118834Y-94382167D01*
G36*
X104935867Y-94382167D02*
G01*
X104859667Y-94382167D01*
X104859667Y-94670033D01*
X104817334Y-94670033D01*
X104817334Y-94382167D01*
X104741134Y-94382167D01*
X104741134Y-94348300D01*
X104935867Y-94348300D01*
X104935867Y-94382167D01*
G37*
X104935867Y-94382167D02*
X104859667Y-94382167D01*
X104859667Y-94670033D01*
X104817334Y-94670033D01*
X104817334Y-94382167D01*
X104741134Y-94382167D01*
X104741134Y-94348300D01*
X104935867Y-94348300D01*
X104935867Y-94382167D01*
G36*
X105614380Y-94348923D02*
G01*
X105637341Y-94349775D01*
X105653917Y-94351022D01*
X105666191Y-94353011D01*
X105676243Y-94356091D01*
X105686157Y-94360612D01*
X105687118Y-94361104D01*
X105706828Y-94375199D01*
X105719839Y-94393982D01*
X105726424Y-94417953D01*
X105727407Y-94434691D01*
X105724052Y-94463907D01*
X105714166Y-94487759D01*
X105697678Y-94506359D01*
X105674516Y-94519820D01*
X105671467Y-94521026D01*
X105652359Y-94528279D01*
X105700494Y-94595981D01*
X105715310Y-94616983D01*
X105728279Y-94635680D01*
X105738651Y-94650966D01*
X105745678Y-94661733D01*
X105748607Y-94666874D01*
X105748648Y-94667069D01*
X105744836Y-94668697D01*
X105734955Y-94669402D01*
X105724733Y-94669186D01*
X105700799Y-94667917D01*
X105653824Y-94599283D01*
X105639237Y-94578187D01*
X105626170Y-94559701D01*
X105615400Y-94544891D01*
X105607704Y-94534823D01*
X105603859Y-94530563D01*
X105603675Y-94530491D01*
X105602619Y-94534437D01*
X105601711Y-94545459D01*
X105601016Y-94562164D01*
X105600596Y-94583163D01*
X105600500Y-94600183D01*
X105600500Y-94670033D01*
X105562400Y-94670033D01*
X105562400Y-94492233D01*
X105600500Y-94492233D01*
X105622725Y-94492227D01*
X105640130Y-94490610D01*
X105655972Y-94486462D01*
X105659767Y-94484818D01*
X105675309Y-94472634D01*
X105685065Y-94455636D01*
X105687843Y-94436122D01*
X105687383Y-94431610D01*
X105682811Y-94413496D01*
X105674520Y-94400556D01*
X105661233Y-94391798D01*
X105641677Y-94386228D01*
X105626249Y-94383986D01*
X105600500Y-94381073D01*
X105600500Y-94492233D01*
X105562400Y-94492233D01*
X105562400Y-94347429D01*
X105614380Y-94348923D01*
G37*
X105614380Y-94348923D02*
X105637341Y-94349775D01*
X105653917Y-94351022D01*
X105666191Y-94353011D01*
X105676243Y-94356091D01*
X105686157Y-94360612D01*
X105687118Y-94361104D01*
X105706828Y-94375199D01*
X105719839Y-94393982D01*
X105726424Y-94417953D01*
X105727407Y-94434691D01*
X105724052Y-94463907D01*
X105714166Y-94487759D01*
X105697678Y-94506359D01*
X105674516Y-94519820D01*
X105671467Y-94521026D01*
X105652359Y-94528279D01*
X105700494Y-94595981D01*
X105715310Y-94616983D01*
X105728279Y-94635680D01*
X105738651Y-94650966D01*
X105745678Y-94661733D01*
X105748607Y-94666874D01*
X105748648Y-94667069D01*
X105744836Y-94668697D01*
X105734955Y-94669402D01*
X105724733Y-94669186D01*
X105700799Y-94667917D01*
X105653824Y-94599283D01*
X105639237Y-94578187D01*
X105626170Y-94559701D01*
X105615400Y-94544891D01*
X105607704Y-94534823D01*
X105603859Y-94530563D01*
X105603675Y-94530491D01*
X105602619Y-94534437D01*
X105601711Y-94545459D01*
X105601016Y-94562164D01*
X105600596Y-94583163D01*
X105600500Y-94600183D01*
X105600500Y-94670033D01*
X105562400Y-94670033D01*
X105562400Y-94492233D01*
X105600500Y-94492233D01*
X105622725Y-94492227D01*
X105640130Y-94490610D01*
X105655972Y-94486462D01*
X105659767Y-94484818D01*
X105675309Y-94472634D01*
X105685065Y-94455636D01*
X105687843Y-94436122D01*
X105687383Y-94431610D01*
X105682811Y-94413496D01*
X105674520Y-94400556D01*
X105661233Y-94391798D01*
X105641677Y-94386228D01*
X105626249Y-94383986D01*
X105600500Y-94381073D01*
X105600500Y-94492233D01*
X105562400Y-94492233D01*
X105562400Y-94347429D01*
X105614380Y-94348923D01*
G36*
X106382293Y-94348576D02*
G01*
X106387640Y-94350104D01*
X106392839Y-94354031D01*
X106398708Y-94361260D01*
X106406061Y-94372697D01*
X106415716Y-94389243D01*
X106428489Y-94411803D01*
X106435098Y-94423499D01*
X106447918Y-94445940D01*
X106457357Y-94461805D01*
X106464063Y-94471965D01*
X106468683Y-94477290D01*
X106471865Y-94478652D01*
X106474257Y-94476921D01*
X106474530Y-94476535D01*
X106478317Y-94470346D01*
X106485408Y-94458241D01*
X106494959Y-94441681D01*
X106506124Y-94422129D01*
X106512813Y-94410333D01*
X106524421Y-94390239D01*
X106534916Y-94372861D01*
X106543473Y-94359505D01*
X106549270Y-94351474D01*
X106551083Y-94349754D01*
X106558174Y-94348836D01*
X106570062Y-94348819D01*
X106575630Y-94349105D01*
X106595067Y-94350417D01*
X106542395Y-94441433D01*
X106489723Y-94532450D01*
X106489611Y-94601242D01*
X106489500Y-94670033D01*
X106451400Y-94670033D01*
X106451400Y-94534372D01*
X106398713Y-94442394D01*
X106346026Y-94350417D01*
X106367893Y-94349105D01*
X106375983Y-94348544D01*
X106382293Y-94348576D01*
G37*
X106382293Y-94348576D02*
X106387640Y-94350104D01*
X106392839Y-94354031D01*
X106398708Y-94361260D01*
X106406061Y-94372697D01*
X106415716Y-94389243D01*
X106428489Y-94411803D01*
X106435098Y-94423499D01*
X106447918Y-94445940D01*
X106457357Y-94461805D01*
X106464063Y-94471965D01*
X106468683Y-94477290D01*
X106471865Y-94478652D01*
X106474257Y-94476921D01*
X106474530Y-94476535D01*
X106478317Y-94470346D01*
X106485408Y-94458241D01*
X106494959Y-94441681D01*
X106506124Y-94422129D01*
X106512813Y-94410333D01*
X106524421Y-94390239D01*
X106534916Y-94372861D01*
X106543473Y-94359505D01*
X106549270Y-94351474D01*
X106551083Y-94349754D01*
X106558174Y-94348836D01*
X106570062Y-94348819D01*
X106575630Y-94349105D01*
X106595067Y-94350417D01*
X106542395Y-94441433D01*
X106489723Y-94532450D01*
X106489611Y-94601242D01*
X106489500Y-94670033D01*
X106451400Y-94670033D01*
X106451400Y-94534372D01*
X106398713Y-94442394D01*
X106346026Y-94350417D01*
X106367893Y-94349105D01*
X106375983Y-94348544D01*
X106382293Y-94348576D01*
G36*
X100563553Y-93547127D02*
G01*
X100590049Y-93549813D01*
X100611517Y-93554225D01*
X100633196Y-93560652D01*
X100653343Y-93567826D01*
X100670430Y-93575077D01*
X100682932Y-93581734D01*
X100689323Y-93587127D01*
X100689834Y-93588620D01*
X100687951Y-93594238D01*
X100682804Y-93605728D01*
X100675139Y-93621506D01*
X100665707Y-93639990D01*
X100663980Y-93643289D01*
X100638126Y-93692512D01*
X100626938Y-93685073D01*
X100598843Y-93669512D01*
X100571946Y-93660655D01*
X100547154Y-93658604D01*
X100525377Y-93663461D01*
X100511152Y-93672042D01*
X100502349Y-93682019D01*
X100497003Y-93692912D01*
X100496942Y-93693163D01*
X100496385Y-93701789D01*
X100500241Y-93709888D01*
X100508414Y-93718994D01*
X100517314Y-93726411D01*
X100529132Y-93733186D01*
X100545584Y-93740137D01*
X100568385Y-93748083D01*
X100571307Y-93749038D01*
X100604041Y-93760379D01*
X100629972Y-93771096D01*
X100650648Y-93781984D01*
X100667614Y-93793836D01*
X100679614Y-93804602D01*
X100694262Y-93822601D01*
X100703996Y-93843426D01*
X100709373Y-93868755D01*
X100710950Y-93899262D01*
X100707861Y-93940705D01*
X100698592Y-93976440D01*
X100682951Y-94006743D01*
X100660750Y-94031890D01*
X100631798Y-94052154D01*
X100595906Y-94067812D01*
X100594279Y-94068361D01*
X100571546Y-94073942D01*
X100543776Y-94077754D01*
X100514259Y-94079561D01*
X100486282Y-94079128D01*
X100469148Y-94077329D01*
X100451600Y-94073773D01*
X100431445Y-94068566D01*
X100418348Y-94064560D01*
X100403243Y-94058817D01*
X100386069Y-94051220D01*
X100368821Y-94042788D01*
X100353492Y-94034541D01*
X100342075Y-94027497D01*
X100336630Y-94022786D01*
X100337917Y-94018415D01*
X100342349Y-94008220D01*
X100349100Y-93993852D01*
X100357342Y-93976964D01*
X100366250Y-93959208D01*
X100374996Y-93942237D01*
X100382754Y-93927703D01*
X100388698Y-93917259D01*
X100391527Y-93913034D01*
X100395270Y-93914551D01*
X100403833Y-93919859D01*
X100413194Y-93926286D01*
X100438550Y-93942806D01*
X100460915Y-93953699D01*
X100482610Y-93959926D01*
X100499714Y-93962104D01*
X100519074Y-93962557D01*
X100533555Y-93960355D01*
X100543292Y-93956666D01*
X100558648Y-93945817D01*
X100567964Y-93931749D01*
X100570717Y-93916269D01*
X100566387Y-93901186D01*
X100561298Y-93894244D01*
X100553419Y-93886761D01*
X100544045Y-93880337D01*
X100531624Y-93874243D01*
X100514601Y-93867755D01*
X100491423Y-93860144D01*
X100482409Y-93857340D01*
X100448080Y-93845741D01*
X100420993Y-93834088D01*
X100399955Y-93821620D01*
X100383773Y-93807572D01*
X100371251Y-93791184D01*
X100366866Y-93783551D01*
X100362740Y-93774637D01*
X100360046Y-93765120D01*
X100358494Y-93752934D01*
X100357799Y-93736017D01*
X100357665Y-93717533D01*
X100357944Y-93694409D01*
X100358995Y-93677335D01*
X100361136Y-93663907D01*
X100364688Y-93651721D01*
X100367344Y-93644713D01*
X100384032Y-93614318D01*
X100407845Y-93588235D01*
X100438405Y-93566854D01*
X100447587Y-93562025D01*
X100461459Y-93555306D01*
X100472340Y-93550807D01*
X100482548Y-93548089D01*
X100494401Y-93546712D01*
X100510215Y-93546235D01*
X100530864Y-93546216D01*
X100563553Y-93547127D01*
G37*
X100563553Y-93547127D02*
X100590049Y-93549813D01*
X100611517Y-93554225D01*
X100633196Y-93560652D01*
X100653343Y-93567826D01*
X100670430Y-93575077D01*
X100682932Y-93581734D01*
X100689323Y-93587127D01*
X100689834Y-93588620D01*
X100687951Y-93594238D01*
X100682804Y-93605728D01*
X100675139Y-93621506D01*
X100665707Y-93639990D01*
X100663980Y-93643289D01*
X100638126Y-93692512D01*
X100626938Y-93685073D01*
X100598843Y-93669512D01*
X100571946Y-93660655D01*
X100547154Y-93658604D01*
X100525377Y-93663461D01*
X100511152Y-93672042D01*
X100502349Y-93682019D01*
X100497003Y-93692912D01*
X100496942Y-93693163D01*
X100496385Y-93701789D01*
X100500241Y-93709888D01*
X100508414Y-93718994D01*
X100517314Y-93726411D01*
X100529132Y-93733186D01*
X100545584Y-93740137D01*
X100568385Y-93748083D01*
X100571307Y-93749038D01*
X100604041Y-93760379D01*
X100629972Y-93771096D01*
X100650648Y-93781984D01*
X100667614Y-93793836D01*
X100679614Y-93804602D01*
X100694262Y-93822601D01*
X100703996Y-93843426D01*
X100709373Y-93868755D01*
X100710950Y-93899262D01*
X100707861Y-93940705D01*
X100698592Y-93976440D01*
X100682951Y-94006743D01*
X100660750Y-94031890D01*
X100631798Y-94052154D01*
X100595906Y-94067812D01*
X100594279Y-94068361D01*
X100571546Y-94073942D01*
X100543776Y-94077754D01*
X100514259Y-94079561D01*
X100486282Y-94079128D01*
X100469148Y-94077329D01*
X100451600Y-94073773D01*
X100431445Y-94068566D01*
X100418348Y-94064560D01*
X100403243Y-94058817D01*
X100386069Y-94051220D01*
X100368821Y-94042788D01*
X100353492Y-94034541D01*
X100342075Y-94027497D01*
X100336630Y-94022786D01*
X100337917Y-94018415D01*
X100342349Y-94008220D01*
X100349100Y-93993852D01*
X100357342Y-93976964D01*
X100366250Y-93959208D01*
X100374996Y-93942237D01*
X100382754Y-93927703D01*
X100388698Y-93917259D01*
X100391527Y-93913034D01*
X100395270Y-93914551D01*
X100403833Y-93919859D01*
X100413194Y-93926286D01*
X100438550Y-93942806D01*
X100460915Y-93953699D01*
X100482610Y-93959926D01*
X100499714Y-93962104D01*
X100519074Y-93962557D01*
X100533555Y-93960355D01*
X100543292Y-93956666D01*
X100558648Y-93945817D01*
X100567964Y-93931749D01*
X100570717Y-93916269D01*
X100566387Y-93901186D01*
X100561298Y-93894244D01*
X100553419Y-93886761D01*
X100544045Y-93880337D01*
X100531624Y-93874243D01*
X100514601Y-93867755D01*
X100491423Y-93860144D01*
X100482409Y-93857340D01*
X100448080Y-93845741D01*
X100420993Y-93834088D01*
X100399955Y-93821620D01*
X100383773Y-93807572D01*
X100371251Y-93791184D01*
X100366866Y-93783551D01*
X100362740Y-93774637D01*
X100360046Y-93765120D01*
X100358494Y-93752934D01*
X100357799Y-93736017D01*
X100357665Y-93717533D01*
X100357944Y-93694409D01*
X100358995Y-93677335D01*
X100361136Y-93663907D01*
X100364688Y-93651721D01*
X100367344Y-93644713D01*
X100384032Y-93614318D01*
X100407845Y-93588235D01*
X100438405Y-93566854D01*
X100447587Y-93562025D01*
X100461459Y-93555306D01*
X100472340Y-93550807D01*
X100482548Y-93548089D01*
X100494401Y-93546712D01*
X100510215Y-93546235D01*
X100530864Y-93546216D01*
X100563553Y-93547127D01*
G36*
X101241004Y-93727183D02*
G01*
X101242283Y-93897699D01*
X101252971Y-93918455D01*
X101267069Y-93938161D01*
X101285863Y-93951175D01*
X101309854Y-93957771D01*
X101326558Y-93958764D01*
X101347138Y-93957201D01*
X101363406Y-93952089D01*
X101368885Y-93949239D01*
X101378982Y-93942887D01*
X101387446Y-93935857D01*
X101394419Y-93927379D01*
X101400044Y-93916686D01*
X101404465Y-93903011D01*
X101407822Y-93885585D01*
X101410259Y-93863641D01*
X101411918Y-93836410D01*
X101412942Y-93803126D01*
X101413474Y-93763020D01*
X101413654Y-93715325D01*
X101413660Y-93708008D01*
X101413734Y-93556667D01*
X101549200Y-93556667D01*
X101549165Y-93714358D01*
X101549026Y-93765298D01*
X101548596Y-93808600D01*
X101547818Y-93845087D01*
X101546638Y-93875587D01*
X101544999Y-93900922D01*
X101542846Y-93921919D01*
X101540123Y-93939401D01*
X101536773Y-93954195D01*
X101532743Y-93967124D01*
X101531928Y-93969349D01*
X101517404Y-93996780D01*
X101495862Y-94021869D01*
X101468663Y-94043505D01*
X101437167Y-94060577D01*
X101407899Y-94070704D01*
X101387219Y-94074663D01*
X101361257Y-94077572D01*
X101333154Y-94079263D01*
X101306049Y-94079564D01*
X101283082Y-94078308D01*
X101278267Y-94077717D01*
X101235614Y-94068379D01*
X101198288Y-94053381D01*
X101166754Y-94033032D01*
X101141478Y-94007637D01*
X101122928Y-93977502D01*
X101121803Y-93975019D01*
X101117795Y-93964950D01*
X101114452Y-93953900D01*
X101111716Y-93941040D01*
X101109530Y-93925542D01*
X101107836Y-93906575D01*
X101106577Y-93883313D01*
X101105694Y-93854924D01*
X101105131Y-93820581D01*
X101104830Y-93779455D01*
X101104732Y-93730716D01*
X101104732Y-93729175D01*
X101104700Y-93556667D01*
X101239724Y-93556667D01*
X101241004Y-93727183D01*
G37*
X101241004Y-93727183D02*
X101242283Y-93897699D01*
X101252971Y-93918455D01*
X101267069Y-93938161D01*
X101285863Y-93951175D01*
X101309854Y-93957771D01*
X101326558Y-93958764D01*
X101347138Y-93957201D01*
X101363406Y-93952089D01*
X101368885Y-93949239D01*
X101378982Y-93942887D01*
X101387446Y-93935857D01*
X101394419Y-93927379D01*
X101400044Y-93916686D01*
X101404465Y-93903011D01*
X101407822Y-93885585D01*
X101410259Y-93863641D01*
X101411918Y-93836410D01*
X101412942Y-93803126D01*
X101413474Y-93763020D01*
X101413654Y-93715325D01*
X101413660Y-93708008D01*
X101413734Y-93556667D01*
X101549200Y-93556667D01*
X101549165Y-93714358D01*
X101549026Y-93765298D01*
X101548596Y-93808600D01*
X101547818Y-93845087D01*
X101546638Y-93875587D01*
X101544999Y-93900922D01*
X101542846Y-93921919D01*
X101540123Y-93939401D01*
X101536773Y-93954195D01*
X101532743Y-93967124D01*
X101531928Y-93969349D01*
X101517404Y-93996780D01*
X101495862Y-94021869D01*
X101468663Y-94043505D01*
X101437167Y-94060577D01*
X101407899Y-94070704D01*
X101387219Y-94074663D01*
X101361257Y-94077572D01*
X101333154Y-94079263D01*
X101306049Y-94079564D01*
X101283082Y-94078308D01*
X101278267Y-94077717D01*
X101235614Y-94068379D01*
X101198288Y-94053381D01*
X101166754Y-94033032D01*
X101141478Y-94007637D01*
X101122928Y-93977502D01*
X101121803Y-93975019D01*
X101117795Y-93964950D01*
X101114452Y-93953900D01*
X101111716Y-93941040D01*
X101109530Y-93925542D01*
X101107836Y-93906575D01*
X101106577Y-93883313D01*
X101105694Y-93854924D01*
X101105131Y-93820581D01*
X101104830Y-93779455D01*
X101104732Y-93730716D01*
X101104732Y-93729175D01*
X101104700Y-93556667D01*
X101239724Y-93556667D01*
X101241004Y-93727183D01*
G36*
X102216146Y-93708792D02*
G01*
X102334484Y-93860918D01*
X102335595Y-93708792D01*
X102336706Y-93556667D01*
X102472067Y-93556667D01*
X102472067Y-94064667D01*
X102333756Y-94064667D01*
X102217703Y-93914988D01*
X102101650Y-93765310D01*
X102100538Y-93914988D01*
X102099427Y-94064667D01*
X101964067Y-94064667D01*
X101964067Y-93556667D01*
X102097809Y-93556667D01*
X102216146Y-93708792D01*
G37*
X102216146Y-93708792D02*
X102334484Y-93860918D01*
X102335595Y-93708792D01*
X102336706Y-93556667D01*
X102472067Y-93556667D01*
X102472067Y-94064667D01*
X102333756Y-94064667D01*
X102217703Y-93914988D01*
X102101650Y-93765310D01*
X102100538Y-93914988D01*
X102099427Y-94064667D01*
X101964067Y-94064667D01*
X101964067Y-93556667D01*
X102097809Y-93556667D01*
X102216146Y-93708792D01*
G36*
X103561092Y-93556740D02*
G01*
X103601365Y-93556953D01*
X103634467Y-93557659D01*
X103661690Y-93559047D01*
X103684325Y-93561306D01*
X103703662Y-93564626D01*
X103720992Y-93569196D01*
X103737606Y-93575206D01*
X103754796Y-93582846D01*
X103761707Y-93586197D01*
X103798329Y-93608728D01*
X103830918Y-93637696D01*
X103858357Y-93671734D01*
X103879524Y-93709480D01*
X103892230Y-93745271D01*
X103895367Y-93762208D01*
X103897626Y-93784096D01*
X103898668Y-93807438D01*
X103898700Y-93812003D01*
X103896283Y-93854715D01*
X103888552Y-93892048D01*
X103874793Y-93925732D01*
X103854288Y-93957500D01*
X103826321Y-93989082D01*
X103824813Y-93990590D01*
X103796885Y-94015894D01*
X103771455Y-94033697D01*
X103763234Y-94038139D01*
X103747766Y-94045521D01*
X103733496Y-94051401D01*
X103719197Y-94055949D01*
X103703640Y-94059332D01*
X103685597Y-94061718D01*
X103663842Y-94063276D01*
X103637145Y-94064174D01*
X103604279Y-94064581D01*
X103569727Y-94064667D01*
X103454200Y-94064667D01*
X103454200Y-93951428D01*
X103589667Y-93951428D01*
X103625602Y-93949542D01*
X103645910Y-93947937D01*
X103661508Y-93944997D01*
X103676143Y-93939765D01*
X103689972Y-93933136D01*
X103717313Y-93915093D01*
X103737712Y-93892347D01*
X103751270Y-93864724D01*
X103758087Y-93832050D01*
X103759000Y-93812783D01*
X103755452Y-93777659D01*
X103745044Y-93746508D01*
X103728133Y-93720044D01*
X103705076Y-93698980D01*
X103700683Y-93696059D01*
X103684665Y-93686966D01*
X103668692Y-93680637D01*
X103650112Y-93676298D01*
X103626275Y-93673174D01*
X103620359Y-93672600D01*
X103589667Y-93669751D01*
X103589667Y-93951428D01*
X103454200Y-93951428D01*
X103454200Y-93556667D01*
X103561092Y-93556740D01*
G37*
X103561092Y-93556740D02*
X103601365Y-93556953D01*
X103634467Y-93557659D01*
X103661690Y-93559047D01*
X103684325Y-93561306D01*
X103703662Y-93564626D01*
X103720992Y-93569196D01*
X103737606Y-93575206D01*
X103754796Y-93582846D01*
X103761707Y-93586197D01*
X103798329Y-93608728D01*
X103830918Y-93637696D01*
X103858357Y-93671734D01*
X103879524Y-93709480D01*
X103892230Y-93745271D01*
X103895367Y-93762208D01*
X103897626Y-93784096D01*
X103898668Y-93807438D01*
X103898700Y-93812003D01*
X103896283Y-93854715D01*
X103888552Y-93892048D01*
X103874793Y-93925732D01*
X103854288Y-93957500D01*
X103826321Y-93989082D01*
X103824813Y-93990590D01*
X103796885Y-94015894D01*
X103771455Y-94033697D01*
X103763234Y-94038139D01*
X103747766Y-94045521D01*
X103733496Y-94051401D01*
X103719197Y-94055949D01*
X103703640Y-94059332D01*
X103685597Y-94061718D01*
X103663842Y-94063276D01*
X103637145Y-94064174D01*
X103604279Y-94064581D01*
X103569727Y-94064667D01*
X103454200Y-94064667D01*
X103454200Y-93951428D01*
X103589667Y-93951428D01*
X103625602Y-93949542D01*
X103645910Y-93947937D01*
X103661508Y-93944997D01*
X103676143Y-93939765D01*
X103689972Y-93933136D01*
X103717313Y-93915093D01*
X103737712Y-93892347D01*
X103751270Y-93864724D01*
X103758087Y-93832050D01*
X103759000Y-93812783D01*
X103755452Y-93777659D01*
X103745044Y-93746508D01*
X103728133Y-93720044D01*
X103705076Y-93698980D01*
X103700683Y-93696059D01*
X103684665Y-93686966D01*
X103668692Y-93680637D01*
X103650112Y-93676298D01*
X103626275Y-93673174D01*
X103620359Y-93672600D01*
X103589667Y-93669751D01*
X103589667Y-93951428D01*
X103454200Y-93951428D01*
X103454200Y-93556667D01*
X103561092Y-93556740D01*
G36*
X104584500Y-93670967D02*
G01*
X104427867Y-93670967D01*
X104427867Y-93751400D01*
X104576034Y-93751400D01*
X104576034Y-93869933D01*
X104427867Y-93869933D01*
X104427867Y-93950367D01*
X104584500Y-93950367D01*
X104584500Y-94064667D01*
X104292400Y-94064667D01*
X104292400Y-93556667D01*
X104584500Y-93556667D01*
X104584500Y-93670967D01*
G37*
X104584500Y-93670967D02*
X104427867Y-93670967D01*
X104427867Y-93751400D01*
X104576034Y-93751400D01*
X104576034Y-93869933D01*
X104427867Y-93869933D01*
X104427867Y-93950367D01*
X104584500Y-93950367D01*
X104584500Y-94064667D01*
X104292400Y-94064667D01*
X104292400Y-93556667D01*
X104584500Y-93556667D01*
X104584500Y-93670967D01*
G36*
X105430963Y-93556722D02*
G01*
X105450274Y-93556966D01*
X105463347Y-93557513D01*
X105471299Y-93558478D01*
X105475242Y-93559978D01*
X105476291Y-93562127D01*
X105475902Y-93564075D01*
X105473852Y-93569181D01*
X105468757Y-93581387D01*
X105460907Y-93600011D01*
X105450592Y-93624369D01*
X105438102Y-93653780D01*
X105423726Y-93687560D01*
X105407755Y-93725029D01*
X105390478Y-93765502D01*
X105372185Y-93808298D01*
X105368456Y-93817017D01*
X105263412Y-94062550D01*
X105153884Y-94064638D01*
X105050167Y-93817093D01*
X105032010Y-93773708D01*
X105014822Y-93732543D01*
X104998883Y-93694276D01*
X104984474Y-93659586D01*
X104971877Y-93629153D01*
X104961372Y-93603656D01*
X104953240Y-93583773D01*
X104947763Y-93570184D01*
X104945221Y-93563568D01*
X104945081Y-93563107D01*
X104945547Y-93560753D01*
X104948826Y-93559042D01*
X104956010Y-93557878D01*
X104968194Y-93557162D01*
X104986471Y-93556797D01*
X105011934Y-93556685D01*
X105017048Y-93556684D01*
X105090384Y-93556702D01*
X105149611Y-93706795D01*
X105162878Y-93740184D01*
X105175233Y-93770836D01*
X105186327Y-93797919D01*
X105195812Y-93820598D01*
X105203337Y-93838041D01*
X105208554Y-93849413D01*
X105211112Y-93853881D01*
X105211265Y-93853886D01*
X105213323Y-93849396D01*
X105218130Y-93837917D01*
X105225327Y-93820334D01*
X105234554Y-93797533D01*
X105245454Y-93770402D01*
X105257668Y-93739826D01*
X105270837Y-93706691D01*
X105271993Y-93703775D01*
X105330295Y-93556667D01*
X105404300Y-93556667D01*
X105430963Y-93556722D01*
G37*
X105430963Y-93556722D02*
X105450274Y-93556966D01*
X105463347Y-93557513D01*
X105471299Y-93558478D01*
X105475242Y-93559978D01*
X105476291Y-93562127D01*
X105475902Y-93564075D01*
X105473852Y-93569181D01*
X105468757Y-93581387D01*
X105460907Y-93600011D01*
X105450592Y-93624369D01*
X105438102Y-93653780D01*
X105423726Y-93687560D01*
X105407755Y-93725029D01*
X105390478Y-93765502D01*
X105372185Y-93808298D01*
X105368456Y-93817017D01*
X105263412Y-94062550D01*
X105153884Y-94064638D01*
X105050167Y-93817093D01*
X105032010Y-93773708D01*
X105014822Y-93732543D01*
X104998883Y-93694276D01*
X104984474Y-93659586D01*
X104971877Y-93629153D01*
X104961372Y-93603656D01*
X104953240Y-93583773D01*
X104947763Y-93570184D01*
X104945221Y-93563568D01*
X104945081Y-93563107D01*
X104945547Y-93560753D01*
X104948826Y-93559042D01*
X104956010Y-93557878D01*
X104968194Y-93557162D01*
X104986471Y-93556797D01*
X105011934Y-93556685D01*
X105017048Y-93556684D01*
X105090384Y-93556702D01*
X105149611Y-93706795D01*
X105162878Y-93740184D01*
X105175233Y-93770836D01*
X105186327Y-93797919D01*
X105195812Y-93820598D01*
X105203337Y-93838041D01*
X105208554Y-93849413D01*
X105211112Y-93853881D01*
X105211265Y-93853886D01*
X105213323Y-93849396D01*
X105218130Y-93837917D01*
X105225327Y-93820334D01*
X105234554Y-93797533D01*
X105245454Y-93770402D01*
X105257668Y-93739826D01*
X105270837Y-93706691D01*
X105271993Y-93703775D01*
X105330295Y-93556667D01*
X105404300Y-93556667D01*
X105430963Y-93556722D01*
G36*
X105977267Y-94064667D02*
G01*
X105841800Y-94064667D01*
X105841800Y-93556667D01*
X105977267Y-93556667D01*
X105977267Y-94064667D01*
G37*
X105977267Y-94064667D02*
X105841800Y-94064667D01*
X105841800Y-93556667D01*
X105977267Y-93556667D01*
X105977267Y-94064667D01*
G36*
X106527600Y-93950367D02*
G01*
X106688467Y-93950367D01*
X106688467Y-94064667D01*
X106392133Y-94064667D01*
X106392133Y-93556667D01*
X106527600Y-93556667D01*
X106527600Y-93950367D01*
G37*
X106527600Y-93950367D02*
X106688467Y-93950367D01*
X106688467Y-94064667D01*
X106392133Y-94064667D01*
X106392133Y-93556667D01*
X106527600Y-93556667D01*
X106527600Y-93950367D01*
G36*
X101031715Y-90967857D02*
G01*
X101041784Y-90973149D01*
X101055315Y-90980728D01*
X101059827Y-90983332D01*
X101076012Y-90992730D01*
X101091190Y-91001529D01*
X101102433Y-91008034D01*
X101103642Y-91008732D01*
X101117510Y-91016735D01*
X101131158Y-91024617D01*
X101139249Y-91029265D01*
X101153217Y-91037259D01*
X101171581Y-91047753D01*
X101192862Y-91059903D01*
X101212650Y-91071190D01*
X101234610Y-91083741D01*
X101254307Y-91095052D01*
X101270446Y-91104376D01*
X101281729Y-91110962D01*
X101286733Y-91113979D01*
X101294589Y-91118637D01*
X101305760Y-91124744D01*
X101307900Y-91125868D01*
X101317244Y-91130902D01*
X101331985Y-91139032D01*
X101350162Y-91149168D01*
X101369810Y-91160221D01*
X101371400Y-91161120D01*
X101391077Y-91172176D01*
X101409440Y-91182368D01*
X101424530Y-91190616D01*
X101434386Y-91195839D01*
X101434900Y-91196100D01*
X101446999Y-91202372D01*
X101457173Y-91207947D01*
X101458184Y-91208535D01*
X101464964Y-91212329D01*
X101477542Y-91219195D01*
X101494243Y-91228225D01*
X101513391Y-91238509D01*
X101517450Y-91240681D01*
X101537889Y-91251630D01*
X101557195Y-91262009D01*
X101573340Y-91270724D01*
X101584293Y-91276682D01*
X101585184Y-91277171D01*
X101602338Y-91286406D01*
X101626009Y-91298835D01*
X101655116Y-91313913D01*
X101688580Y-91331094D01*
X101725321Y-91349835D01*
X101764259Y-91369591D01*
X101804314Y-91389815D01*
X101844406Y-91409964D01*
X101883455Y-91429492D01*
X101920382Y-91447855D01*
X101954106Y-91464508D01*
X101983548Y-91478904D01*
X102007627Y-91490501D01*
X102012750Y-91492931D01*
X102050233Y-91510507D01*
X102093438Y-91530548D01*
X102140334Y-91552118D01*
X102188887Y-91574280D01*
X102228650Y-91592303D01*
X102280360Y-91615252D01*
X102336701Y-91639539D01*
X102395239Y-91664151D01*
X102453543Y-91688080D01*
X102509180Y-91710315D01*
X102559719Y-91729847D01*
X102560967Y-91730318D01*
X102582852Y-91738624D01*
X102602440Y-91746132D01*
X102618123Y-91752220D01*
X102628295Y-91756267D01*
X102630817Y-91757334D01*
X102643180Y-91762360D01*
X102662303Y-91769420D01*
X102686846Y-91778076D01*
X102715471Y-91787888D01*
X102746840Y-91798418D01*
X102779613Y-91809228D01*
X102812453Y-91819879D01*
X102844021Y-91829931D01*
X102872978Y-91838948D01*
X102897985Y-91846490D01*
X102917705Y-91852118D01*
X102928597Y-91854907D01*
X102951210Y-91860131D01*
X102987217Y-91934757D01*
X103000934Y-91963134D01*
X103017007Y-91996302D01*
X103034070Y-92031444D01*
X103050755Y-92065748D01*
X103064552Y-92094050D01*
X103078054Y-92121753D01*
X103091653Y-92149724D01*
X103104435Y-92176082D01*
X103115489Y-92198946D01*
X103123902Y-92216435D01*
X103125097Y-92218933D01*
X103133688Y-92236910D01*
X103144787Y-92260133D01*
X103157249Y-92286209D01*
X103169932Y-92312746D01*
X103176689Y-92326883D01*
X103189376Y-92353277D01*
X103204500Y-92384506D01*
X103220727Y-92417826D01*
X103236721Y-92450494D01*
X103249082Y-92475594D01*
X103260936Y-92499796D01*
X103271396Y-92521560D01*
X103279909Y-92539703D01*
X103285923Y-92553043D01*
X103288886Y-92560395D01*
X103289100Y-92561319D01*
X103292031Y-92565835D01*
X103293333Y-92566067D01*
X103297274Y-92569406D01*
X103297567Y-92571321D01*
X103299330Y-92577434D01*
X103303995Y-92588842D01*
X103310628Y-92603292D01*
X103312058Y-92606246D01*
X103318564Y-92619622D01*
X103327859Y-92638811D01*
X103339065Y-92661992D01*
X103351302Y-92687347D01*
X103363238Y-92712116D01*
X103377612Y-92741901D01*
X103393685Y-92775097D01*
X103409988Y-92808672D01*
X103425049Y-92839597D01*
X103433413Y-92856713D01*
X103444176Y-92878942D01*
X103453502Y-92898675D01*
X103460793Y-92914609D01*
X103465453Y-92925438D01*
X103466900Y-92929738D01*
X103469893Y-92934163D01*
X103471133Y-92934366D01*
X103475110Y-92937685D01*
X103475367Y-92939413D01*
X103477105Y-92945699D01*
X103481636Y-92956756D01*
X103487933Y-92970497D01*
X103494973Y-92984832D01*
X103501728Y-92997674D01*
X103507173Y-93006935D01*
X103510284Y-93010527D01*
X103510292Y-93010527D01*
X103513306Y-93007252D01*
X103513467Y-93005742D01*
X103515247Y-93000448D01*
X103520158Y-92988993D01*
X103527558Y-92972797D01*
X103536806Y-92953280D01*
X103542672Y-92941184D01*
X103555225Y-92915429D01*
X103569897Y-92885206D01*
X103585151Y-92853683D01*
X103599453Y-92824029D01*
X103604412Y-92813716D01*
X103617149Y-92787317D01*
X103630700Y-92759428D01*
X103643794Y-92732651D01*
X103655161Y-92709590D01*
X103659874Y-92700118D01*
X103668783Y-92681822D01*
X103676076Y-92665941D01*
X103681000Y-92654183D01*
X103682800Y-92648260D01*
X103685204Y-92642859D01*
X103687034Y-92642266D01*
X103691121Y-92639026D01*
X103691267Y-92637891D01*
X103693057Y-92632972D01*
X103698074Y-92621610D01*
X103705783Y-92604948D01*
X103715654Y-92584130D01*
X103727151Y-92560297D01*
X103733185Y-92547932D01*
X103746400Y-92520867D01*
X103759323Y-92494241D01*
X103771149Y-92469726D01*
X103781074Y-92448991D01*
X103788293Y-92433708D01*
X103789734Y-92430600D01*
X103795381Y-92418450D01*
X103802217Y-92403949D01*
X103810580Y-92386397D01*
X103820808Y-92365093D01*
X103833239Y-92339336D01*
X103848210Y-92308426D01*
X103866059Y-92271662D01*
X103887124Y-92228342D01*
X103898914Y-92204117D01*
X103912404Y-92176340D01*
X103926594Y-92147007D01*
X103940324Y-92118528D01*
X103952428Y-92093315D01*
X103960161Y-92077117D01*
X103971839Y-92052627D01*
X103985467Y-92024160D01*
X103999298Y-91995356D01*
X104010898Y-91971283D01*
X104021698Y-91948824D01*
X104032341Y-91926514D01*
X104041710Y-91906705D01*
X104048690Y-91891748D01*
X104049582Y-91889805D01*
X104054081Y-91879831D01*
X104057890Y-91872508D01*
X104062353Y-91867044D01*
X104068816Y-91862647D01*
X104078623Y-91858525D01*
X104093118Y-91853887D01*
X104113645Y-91847940D01*
X104127300Y-91844024D01*
X104179756Y-91828137D01*
X104238470Y-91808967D01*
X104302126Y-91787011D01*
X104369408Y-91762769D01*
X104438999Y-91736739D01*
X104509582Y-91709420D01*
X104579842Y-91681310D01*
X104648461Y-91652909D01*
X104714124Y-91624715D01*
X104759308Y-91604608D01*
X104777226Y-91596555D01*
X104792116Y-91589969D01*
X104802412Y-91585533D01*
X104806541Y-91583933D01*
X104810769Y-91582257D01*
X104821027Y-91577717D01*
X104835682Y-91571046D01*
X104849751Y-91564540D01*
X104867624Y-91556230D01*
X104890944Y-91545400D01*
X104917477Y-91533088D01*
X104944986Y-91520331D01*
X104965500Y-91510824D01*
X104983890Y-91502134D01*
X105008765Y-91490123D01*
X105039068Y-91475320D01*
X105073743Y-91458253D01*
X105111732Y-91439450D01*
X105151980Y-91419440D01*
X105193428Y-91398751D01*
X105235022Y-91377910D01*
X105275703Y-91357446D01*
X105314416Y-91337886D01*
X105350103Y-91319761D01*
X105381708Y-91303596D01*
X105408174Y-91289921D01*
X105422700Y-91282311D01*
X105452742Y-91266317D01*
X105488478Y-91247078D01*
X105528232Y-91225513D01*
X105570325Y-91202541D01*
X105613079Y-91179080D01*
X105654816Y-91156049D01*
X105693859Y-91134366D01*
X105728530Y-91114950D01*
X105731734Y-91113145D01*
X105755911Y-91099502D01*
X105774879Y-91088764D01*
X105790812Y-91079692D01*
X105805884Y-91071047D01*
X105822267Y-91061590D01*
X105827536Y-91058540D01*
X105867747Y-91035301D01*
X105901218Y-91016059D01*
X105928501Y-91000509D01*
X105950150Y-90988348D01*
X105966717Y-90979273D01*
X105978755Y-90972980D01*
X105986819Y-90969165D01*
X105991459Y-90967526D01*
X105993136Y-90967625D01*
X105993230Y-90972874D01*
X105989403Y-90981527D01*
X105989130Y-90981982D01*
X105983516Y-90991366D01*
X105975401Y-91005155D01*
X105966511Y-91020418D01*
X105966232Y-91020900D01*
X105955344Y-91039226D01*
X105942676Y-91059859D01*
X105932032Y-91076674D01*
X105923426Y-91090528D01*
X105917003Y-91101899D01*
X105913894Y-91108750D01*
X105913767Y-91109483D01*
X105911405Y-91113853D01*
X105910496Y-91114033D01*
X105906695Y-91117433D01*
X105901068Y-91125963D01*
X105898895Y-91129908D01*
X105893250Y-91140231D01*
X105889156Y-91146945D01*
X105888407Y-91147900D01*
X105884747Y-91152889D01*
X105881261Y-91158483D01*
X105877184Y-91165210D01*
X105869666Y-91177438D01*
X105859746Y-91193486D01*
X105848462Y-91211670D01*
X105847395Y-91213387D01*
X105836143Y-91231781D01*
X105826353Y-91248346D01*
X105819018Y-91261360D01*
X105815135Y-91269100D01*
X105814989Y-91269479D01*
X105810877Y-91276893D01*
X105807581Y-91279133D01*
X105803835Y-91282387D01*
X105803700Y-91283534D01*
X105801482Y-91289136D01*
X105795711Y-91299298D01*
X105788884Y-91309935D01*
X105781096Y-91322251D01*
X105775729Y-91332172D01*
X105774067Y-91336932D01*
X105771432Y-91342693D01*
X105770318Y-91343339D01*
X105766594Y-91347376D01*
X105759783Y-91356994D01*
X105751079Y-91370464D01*
X105746718Y-91377558D01*
X105737584Y-91392035D01*
X105729797Y-91403248D01*
X105724529Y-91409559D01*
X105723243Y-91410366D01*
X105718293Y-91412094D01*
X105707206Y-91416836D01*
X105691469Y-91423930D01*
X105672572Y-91432715D01*
X105666117Y-91435767D01*
X105646727Y-91444921D01*
X105630241Y-91452609D01*
X105618078Y-91458176D01*
X105611659Y-91460967D01*
X105611041Y-91461167D01*
X105606771Y-91462840D01*
X105596638Y-91467327D01*
X105582434Y-91473823D01*
X105574292Y-91477610D01*
X105550537Y-91488667D01*
X105520223Y-91502698D01*
X105484498Y-91519174D01*
X105444509Y-91537566D01*
X105410000Y-91553404D01*
X105361667Y-91575582D01*
X105318559Y-91595410D01*
X105279613Y-91613392D01*
X105243769Y-91630033D01*
X105209968Y-91645837D01*
X105177147Y-91661309D01*
X105144246Y-91676954D01*
X105110205Y-91693276D01*
X105073962Y-91710779D01*
X105034458Y-91729968D01*
X104990630Y-91751348D01*
X104941420Y-91775424D01*
X104885765Y-91802699D01*
X104880834Y-91805117D01*
X104849512Y-91820454D01*
X104818107Y-91835792D01*
X104788151Y-91850385D01*
X104761174Y-91863488D01*
X104738709Y-91874357D01*
X104722285Y-91882246D01*
X104722084Y-91882342D01*
X104704917Y-91890582D01*
X104681871Y-91901718D01*
X104654667Y-91914914D01*
X104625028Y-91929335D01*
X104594672Y-91944145D01*
X104576034Y-91953260D01*
X104542159Y-91969842D01*
X104504285Y-91988378D01*
X104465111Y-92007547D01*
X104427335Y-92026029D01*
X104393657Y-92042504D01*
X104384774Y-92046848D01*
X104354424Y-92061832D01*
X104330887Y-92073821D01*
X104313273Y-92083332D01*
X104300692Y-92090883D01*
X104292253Y-92096989D01*
X104287065Y-92102169D01*
X104285436Y-92104532D01*
X104279618Y-92113065D01*
X104275241Y-92117247D01*
X104274839Y-92117333D01*
X104271230Y-92120790D01*
X104269313Y-92125180D01*
X104265211Y-92132529D01*
X104257240Y-92143261D01*
X104250135Y-92151639D01*
X104239920Y-92163799D01*
X104231476Y-92175189D01*
X104227999Y-92180833D01*
X104221056Y-92191775D01*
X104212888Y-92202000D01*
X104205324Y-92211214D01*
X104195523Y-92224356D01*
X104187488Y-92235838D01*
X104178753Y-92248513D01*
X104171473Y-92258665D01*
X104167517Y-92263742D01*
X104164312Y-92267472D01*
X104159725Y-92273242D01*
X104153101Y-92281923D01*
X104143787Y-92294388D01*
X104131129Y-92311508D01*
X104114471Y-92334157D01*
X104104275Y-92348050D01*
X104089562Y-92368013D01*
X104075672Y-92386691D01*
X104063787Y-92402505D01*
X104055090Y-92413880D01*
X104052210Y-92417528D01*
X104043246Y-92428956D01*
X104035570Y-92439319D01*
X104034167Y-92441339D01*
X104022109Y-92459004D01*
X104014137Y-92470378D01*
X104009694Y-92476251D01*
X104008854Y-92477167D01*
X104004908Y-92481981D01*
X103996471Y-92493075D01*
X103983987Y-92509848D01*
X103967902Y-92531701D01*
X103948663Y-92558036D01*
X103945898Y-92561833D01*
X103934634Y-92577260D01*
X103924980Y-92590393D01*
X103918177Y-92599549D01*
X103915762Y-92602706D01*
X103911410Y-92608375D01*
X103902806Y-92619805D01*
X103890728Y-92635949D01*
X103875955Y-92655759D01*
X103859265Y-92678184D01*
X103841436Y-92702178D01*
X103823246Y-92726691D01*
X103805475Y-92750675D01*
X103788900Y-92773081D01*
X103774298Y-92792862D01*
X103762450Y-92808968D01*
X103754133Y-92820351D01*
X103751515Y-92823981D01*
X103745248Y-92832548D01*
X103736104Y-92844816D01*
X103725763Y-92858558D01*
X103715903Y-92871550D01*
X103708204Y-92881567D01*
X103704945Y-92885683D01*
X103700992Y-92891024D01*
X103693696Y-92901318D01*
X103684496Y-92914531D01*
X103682603Y-92917273D01*
X103672452Y-92931650D01*
X103663123Y-92944258D01*
X103656449Y-92952625D01*
X103655886Y-92953257D01*
X103648689Y-92962232D01*
X103640089Y-92974374D01*
X103637233Y-92978722D01*
X103629763Y-92989974D01*
X103623535Y-92998668D01*
X103621813Y-93000800D01*
X103619013Y-93004019D01*
X103615927Y-93007765D01*
X103611551Y-93013331D01*
X103604878Y-93022013D01*
X103594902Y-93035103D01*
X103583788Y-93049725D01*
X103558860Y-93082533D01*
X103508814Y-93082533D01*
X103483925Y-93082151D01*
X103466857Y-93080965D01*
X103456999Y-93078916D01*
X103454284Y-93077241D01*
X103440538Y-93060724D01*
X103432191Y-93049963D01*
X103428891Y-93044501D01*
X103428805Y-93044023D01*
X103426318Y-93039301D01*
X103421128Y-93032649D01*
X103412450Y-93021965D01*
X103406503Y-93014010D01*
X103402245Y-93008167D01*
X103393898Y-92996841D01*
X103382347Y-92981221D01*
X103368473Y-92962495D01*
X103353162Y-92941853D01*
X103337295Y-92920485D01*
X103321756Y-92899580D01*
X103307429Y-92880326D01*
X103295196Y-92863914D01*
X103285940Y-92851532D01*
X103280546Y-92844370D01*
X103279760Y-92843350D01*
X103275653Y-92837871D01*
X103268297Y-92827840D01*
X103260537Y-92817159D01*
X103250312Y-92803040D01*
X103241952Y-92791545D01*
X103234162Y-92780922D01*
X103225650Y-92769417D01*
X103215123Y-92755279D01*
X103201287Y-92736755D01*
X103195162Y-92728560D01*
X103181660Y-92710477D01*
X103169419Y-92694040D01*
X103159621Y-92680839D01*
X103153448Y-92672467D01*
X103152679Y-92671410D01*
X103142463Y-92657420D01*
X103129356Y-92639656D01*
X103114207Y-92619251D01*
X103097864Y-92597336D01*
X103081177Y-92575042D01*
X103064996Y-92553503D01*
X103050169Y-92533850D01*
X103037547Y-92517215D01*
X103027978Y-92504729D01*
X103022312Y-92497526D01*
X103021421Y-92496477D01*
X103015799Y-92489364D01*
X103013933Y-92485483D01*
X103011478Y-92480512D01*
X103006525Y-92473937D01*
X102995166Y-92460303D01*
X102987280Y-92450184D01*
X102980715Y-92440771D01*
X102978290Y-92437058D01*
X102971732Y-92427299D01*
X102966697Y-92420471D01*
X102966406Y-92420127D01*
X102962725Y-92415385D01*
X102955164Y-92405333D01*
X102944849Y-92391491D01*
X102932906Y-92375377D01*
X102920459Y-92358510D01*
X102908634Y-92342411D01*
X102898556Y-92328597D01*
X102896242Y-92325402D01*
X102888970Y-92315604D01*
X102879817Y-92303590D01*
X102877408Y-92300479D01*
X102870375Y-92290906D01*
X102866222Y-92284241D01*
X102865747Y-92282909D01*
X102863114Y-92278457D01*
X102856563Y-92270498D01*
X102853951Y-92267617D01*
X102843524Y-92255004D01*
X102833764Y-92241142D01*
X102832914Y-92239779D01*
X102824164Y-92226907D01*
X102814817Y-92215140D01*
X102813592Y-92213784D01*
X102804274Y-92202439D01*
X102795262Y-92189582D01*
X102794712Y-92188705D01*
X102786728Y-92176929D01*
X102778854Y-92166927D01*
X102778030Y-92166017D01*
X102771064Y-92157610D01*
X102762037Y-92145580D01*
X102757031Y-92138500D01*
X102747697Y-92125482D01*
X102738686Y-92113736D01*
X102734981Y-92109277D01*
X102728769Y-92101248D01*
X102726070Y-92095897D01*
X102726067Y-92095801D01*
X102722508Y-92092634D01*
X102712969Y-92086903D01*
X102699158Y-92079594D01*
X102691142Y-92075635D01*
X102676537Y-92068584D01*
X102656088Y-92058710D01*
X102631575Y-92046874D01*
X102604777Y-92033934D01*
X102577474Y-92020750D01*
X102572200Y-92018204D01*
X102547731Y-92006413D01*
X102525956Y-91995970D01*
X102507984Y-91987401D01*
X102494921Y-91981234D01*
X102487875Y-91977995D01*
X102486963Y-91977633D01*
X102482964Y-91975876D01*
X102472484Y-91970963D01*
X102456660Y-91963438D01*
X102436627Y-91953840D01*
X102413522Y-91942712D01*
X102405879Y-91939019D01*
X102378521Y-91925809D01*
X102350560Y-91912338D01*
X102324055Y-91899597D01*
X102301062Y-91888573D01*
X102283684Y-91880278D01*
X102261231Y-91869603D01*
X102235060Y-91857161D01*
X102209099Y-91844820D01*
X102194784Y-91838015D01*
X102172236Y-91827259D01*
X102145456Y-91814428D01*
X102117827Y-91801145D01*
X102093184Y-91789252D01*
X102046314Y-91766605D01*
X101999520Y-91744050D01*
X101954617Y-91722459D01*
X101913422Y-91702706D01*
X101877750Y-91685665D01*
X101873050Y-91683426D01*
X101850035Y-91672449D01*
X101822963Y-91659511D01*
X101795408Y-91646319D01*
X101773567Y-91635844D01*
X101750105Y-91624603D01*
X101725473Y-91612843D01*
X101702618Y-91601968D01*
X101684667Y-91593468D01*
X101597470Y-91552076D01*
X101509968Y-91509955D01*
X101487618Y-91499108D01*
X101463056Y-91487223D01*
X101438727Y-91475545D01*
X101416641Y-91465032D01*
X101398806Y-91456642D01*
X101390251Y-91452692D01*
X101357296Y-91437328D01*
X101329585Y-91423660D01*
X101307796Y-91412047D01*
X101292607Y-91402848D01*
X101285171Y-91396964D01*
X101277892Y-91387584D01*
X101269943Y-91375161D01*
X101268144Y-91371984D01*
X101260232Y-91358096D01*
X101250248Y-91341351D01*
X101239280Y-91323481D01*
X101228415Y-91306217D01*
X101218740Y-91291290D01*
X101211343Y-91280429D01*
X101207626Y-91275656D01*
X101202881Y-91269052D01*
X101202067Y-91266257D01*
X101199895Y-91261654D01*
X101193845Y-91251094D01*
X101184620Y-91235742D01*
X101172919Y-91216762D01*
X101159444Y-91195320D01*
X101158311Y-91193534D01*
X101138398Y-91162077D01*
X101121635Y-91135354D01*
X101106558Y-91110997D01*
X101091705Y-91086642D01*
X101075610Y-91059921D01*
X101073789Y-91056883D01*
X101068822Y-91049353D01*
X101066281Y-91046300D01*
X101062837Y-91041530D01*
X101057307Y-91032312D01*
X101055698Y-91029444D01*
X101049057Y-91018391D01*
X101043126Y-91010028D01*
X101042258Y-91009033D01*
X101037663Y-91001312D01*
X101036967Y-90997832D01*
X101033993Y-90990687D01*
X101030617Y-90987033D01*
X101026289Y-90980705D01*
X101024236Y-90972829D01*
X101025062Y-90966956D01*
X101027018Y-90965867D01*
X101031715Y-90967857D01*
G37*
X101031715Y-90967857D02*
X101041784Y-90973149D01*
X101055315Y-90980728D01*
X101059827Y-90983332D01*
X101076012Y-90992730D01*
X101091190Y-91001529D01*
X101102433Y-91008034D01*
X101103642Y-91008732D01*
X101117510Y-91016735D01*
X101131158Y-91024617D01*
X101139249Y-91029265D01*
X101153217Y-91037259D01*
X101171581Y-91047753D01*
X101192862Y-91059903D01*
X101212650Y-91071190D01*
X101234610Y-91083741D01*
X101254307Y-91095052D01*
X101270446Y-91104376D01*
X101281729Y-91110962D01*
X101286733Y-91113979D01*
X101294589Y-91118637D01*
X101305760Y-91124744D01*
X101307900Y-91125868D01*
X101317244Y-91130902D01*
X101331985Y-91139032D01*
X101350162Y-91149168D01*
X101369810Y-91160221D01*
X101371400Y-91161120D01*
X101391077Y-91172176D01*
X101409440Y-91182368D01*
X101424530Y-91190616D01*
X101434386Y-91195839D01*
X101434900Y-91196100D01*
X101446999Y-91202372D01*
X101457173Y-91207947D01*
X101458184Y-91208535D01*
X101464964Y-91212329D01*
X101477542Y-91219195D01*
X101494243Y-91228225D01*
X101513391Y-91238509D01*
X101517450Y-91240681D01*
X101537889Y-91251630D01*
X101557195Y-91262009D01*
X101573340Y-91270724D01*
X101584293Y-91276682D01*
X101585184Y-91277171D01*
X101602338Y-91286406D01*
X101626009Y-91298835D01*
X101655116Y-91313913D01*
X101688580Y-91331094D01*
X101725321Y-91349835D01*
X101764259Y-91369591D01*
X101804314Y-91389815D01*
X101844406Y-91409964D01*
X101883455Y-91429492D01*
X101920382Y-91447855D01*
X101954106Y-91464508D01*
X101983548Y-91478904D01*
X102007627Y-91490501D01*
X102012750Y-91492931D01*
X102050233Y-91510507D01*
X102093438Y-91530548D01*
X102140334Y-91552118D01*
X102188887Y-91574280D01*
X102228650Y-91592303D01*
X102280360Y-91615252D01*
X102336701Y-91639539D01*
X102395239Y-91664151D01*
X102453543Y-91688080D01*
X102509180Y-91710315D01*
X102559719Y-91729847D01*
X102560967Y-91730318D01*
X102582852Y-91738624D01*
X102602440Y-91746132D01*
X102618123Y-91752220D01*
X102628295Y-91756267D01*
X102630817Y-91757334D01*
X102643180Y-91762360D01*
X102662303Y-91769420D01*
X102686846Y-91778076D01*
X102715471Y-91787888D01*
X102746840Y-91798418D01*
X102779613Y-91809228D01*
X102812453Y-91819879D01*
X102844021Y-91829931D01*
X102872978Y-91838948D01*
X102897985Y-91846490D01*
X102917705Y-91852118D01*
X102928597Y-91854907D01*
X102951210Y-91860131D01*
X102987217Y-91934757D01*
X103000934Y-91963134D01*
X103017007Y-91996302D01*
X103034070Y-92031444D01*
X103050755Y-92065748D01*
X103064552Y-92094050D01*
X103078054Y-92121753D01*
X103091653Y-92149724D01*
X103104435Y-92176082D01*
X103115489Y-92198946D01*
X103123902Y-92216435D01*
X103125097Y-92218933D01*
X103133688Y-92236910D01*
X103144787Y-92260133D01*
X103157249Y-92286209D01*
X103169932Y-92312746D01*
X103176689Y-92326883D01*
X103189376Y-92353277D01*
X103204500Y-92384506D01*
X103220727Y-92417826D01*
X103236721Y-92450494D01*
X103249082Y-92475594D01*
X103260936Y-92499796D01*
X103271396Y-92521560D01*
X103279909Y-92539703D01*
X103285923Y-92553043D01*
X103288886Y-92560395D01*
X103289100Y-92561319D01*
X103292031Y-92565835D01*
X103293333Y-92566067D01*
X103297274Y-92569406D01*
X103297567Y-92571321D01*
X103299330Y-92577434D01*
X103303995Y-92588842D01*
X103310628Y-92603292D01*
X103312058Y-92606246D01*
X103318564Y-92619622D01*
X103327859Y-92638811D01*
X103339065Y-92661992D01*
X103351302Y-92687347D01*
X103363238Y-92712116D01*
X103377612Y-92741901D01*
X103393685Y-92775097D01*
X103409988Y-92808672D01*
X103425049Y-92839597D01*
X103433413Y-92856713D01*
X103444176Y-92878942D01*
X103453502Y-92898675D01*
X103460793Y-92914609D01*
X103465453Y-92925438D01*
X103466900Y-92929738D01*
X103469893Y-92934163D01*
X103471133Y-92934366D01*
X103475110Y-92937685D01*
X103475367Y-92939413D01*
X103477105Y-92945699D01*
X103481636Y-92956756D01*
X103487933Y-92970497D01*
X103494973Y-92984832D01*
X103501728Y-92997674D01*
X103507173Y-93006935D01*
X103510284Y-93010527D01*
X103510292Y-93010527D01*
X103513306Y-93007252D01*
X103513467Y-93005742D01*
X103515247Y-93000448D01*
X103520158Y-92988993D01*
X103527558Y-92972797D01*
X103536806Y-92953280D01*
X103542672Y-92941184D01*
X103555225Y-92915429D01*
X103569897Y-92885206D01*
X103585151Y-92853683D01*
X103599453Y-92824029D01*
X103604412Y-92813716D01*
X103617149Y-92787317D01*
X103630700Y-92759428D01*
X103643794Y-92732651D01*
X103655161Y-92709590D01*
X103659874Y-92700118D01*
X103668783Y-92681822D01*
X103676076Y-92665941D01*
X103681000Y-92654183D01*
X103682800Y-92648260D01*
X103685204Y-92642859D01*
X103687034Y-92642266D01*
X103691121Y-92639026D01*
X103691267Y-92637891D01*
X103693057Y-92632972D01*
X103698074Y-92621610D01*
X103705783Y-92604948D01*
X103715654Y-92584130D01*
X103727151Y-92560297D01*
X103733185Y-92547932D01*
X103746400Y-92520867D01*
X103759323Y-92494241D01*
X103771149Y-92469726D01*
X103781074Y-92448991D01*
X103788293Y-92433708D01*
X103789734Y-92430600D01*
X103795381Y-92418450D01*
X103802217Y-92403949D01*
X103810580Y-92386397D01*
X103820808Y-92365093D01*
X103833239Y-92339336D01*
X103848210Y-92308426D01*
X103866059Y-92271662D01*
X103887124Y-92228342D01*
X103898914Y-92204117D01*
X103912404Y-92176340D01*
X103926594Y-92147007D01*
X103940324Y-92118528D01*
X103952428Y-92093315D01*
X103960161Y-92077117D01*
X103971839Y-92052627D01*
X103985467Y-92024160D01*
X103999298Y-91995356D01*
X104010898Y-91971283D01*
X104021698Y-91948824D01*
X104032341Y-91926514D01*
X104041710Y-91906705D01*
X104048690Y-91891748D01*
X104049582Y-91889805D01*
X104054081Y-91879831D01*
X104057890Y-91872508D01*
X104062353Y-91867044D01*
X104068816Y-91862647D01*
X104078623Y-91858525D01*
X104093118Y-91853887D01*
X104113645Y-91847940D01*
X104127300Y-91844024D01*
X104179756Y-91828137D01*
X104238470Y-91808967D01*
X104302126Y-91787011D01*
X104369408Y-91762769D01*
X104438999Y-91736739D01*
X104509582Y-91709420D01*
X104579842Y-91681310D01*
X104648461Y-91652909D01*
X104714124Y-91624715D01*
X104759308Y-91604608D01*
X104777226Y-91596555D01*
X104792116Y-91589969D01*
X104802412Y-91585533D01*
X104806541Y-91583933D01*
X104810769Y-91582257D01*
X104821027Y-91577717D01*
X104835682Y-91571046D01*
X104849751Y-91564540D01*
X104867624Y-91556230D01*
X104890944Y-91545400D01*
X104917477Y-91533088D01*
X104944986Y-91520331D01*
X104965500Y-91510824D01*
X104983890Y-91502134D01*
X105008765Y-91490123D01*
X105039068Y-91475320D01*
X105073743Y-91458253D01*
X105111732Y-91439450D01*
X105151980Y-91419440D01*
X105193428Y-91398751D01*
X105235022Y-91377910D01*
X105275703Y-91357446D01*
X105314416Y-91337886D01*
X105350103Y-91319761D01*
X105381708Y-91303596D01*
X105408174Y-91289921D01*
X105422700Y-91282311D01*
X105452742Y-91266317D01*
X105488478Y-91247078D01*
X105528232Y-91225513D01*
X105570325Y-91202541D01*
X105613079Y-91179080D01*
X105654816Y-91156049D01*
X105693859Y-91134366D01*
X105728530Y-91114950D01*
X105731734Y-91113145D01*
X105755911Y-91099502D01*
X105774879Y-91088764D01*
X105790812Y-91079692D01*
X105805884Y-91071047D01*
X105822267Y-91061590D01*
X105827536Y-91058540D01*
X105867747Y-91035301D01*
X105901218Y-91016059D01*
X105928501Y-91000509D01*
X105950150Y-90988348D01*
X105966717Y-90979273D01*
X105978755Y-90972980D01*
X105986819Y-90969165D01*
X105991459Y-90967526D01*
X105993136Y-90967625D01*
X105993230Y-90972874D01*
X105989403Y-90981527D01*
X105989130Y-90981982D01*
X105983516Y-90991366D01*
X105975401Y-91005155D01*
X105966511Y-91020418D01*
X105966232Y-91020900D01*
X105955344Y-91039226D01*
X105942676Y-91059859D01*
X105932032Y-91076674D01*
X105923426Y-91090528D01*
X105917003Y-91101899D01*
X105913894Y-91108750D01*
X105913767Y-91109483D01*
X105911405Y-91113853D01*
X105910496Y-91114033D01*
X105906695Y-91117433D01*
X105901068Y-91125963D01*
X105898895Y-91129908D01*
X105893250Y-91140231D01*
X105889156Y-91146945D01*
X105888407Y-91147900D01*
X105884747Y-91152889D01*
X105881261Y-91158483D01*
X105877184Y-91165210D01*
X105869666Y-91177438D01*
X105859746Y-91193486D01*
X105848462Y-91211670D01*
X105847395Y-91213387D01*
X105836143Y-91231781D01*
X105826353Y-91248346D01*
X105819018Y-91261360D01*
X105815135Y-91269100D01*
X105814989Y-91269479D01*
X105810877Y-91276893D01*
X105807581Y-91279133D01*
X105803835Y-91282387D01*
X105803700Y-91283534D01*
X105801482Y-91289136D01*
X105795711Y-91299298D01*
X105788884Y-91309935D01*
X105781096Y-91322251D01*
X105775729Y-91332172D01*
X105774067Y-91336932D01*
X105771432Y-91342693D01*
X105770318Y-91343339D01*
X105766594Y-91347376D01*
X105759783Y-91356994D01*
X105751079Y-91370464D01*
X105746718Y-91377558D01*
X105737584Y-91392035D01*
X105729797Y-91403248D01*
X105724529Y-91409559D01*
X105723243Y-91410366D01*
X105718293Y-91412094D01*
X105707206Y-91416836D01*
X105691469Y-91423930D01*
X105672572Y-91432715D01*
X105666117Y-91435767D01*
X105646727Y-91444921D01*
X105630241Y-91452609D01*
X105618078Y-91458176D01*
X105611659Y-91460967D01*
X105611041Y-91461167D01*
X105606771Y-91462840D01*
X105596638Y-91467327D01*
X105582434Y-91473823D01*
X105574292Y-91477610D01*
X105550537Y-91488667D01*
X105520223Y-91502698D01*
X105484498Y-91519174D01*
X105444509Y-91537566D01*
X105410000Y-91553404D01*
X105361667Y-91575582D01*
X105318559Y-91595410D01*
X105279613Y-91613392D01*
X105243769Y-91630033D01*
X105209968Y-91645837D01*
X105177147Y-91661309D01*
X105144246Y-91676954D01*
X105110205Y-91693276D01*
X105073962Y-91710779D01*
X105034458Y-91729968D01*
X104990630Y-91751348D01*
X104941420Y-91775424D01*
X104885765Y-91802699D01*
X104880834Y-91805117D01*
X104849512Y-91820454D01*
X104818107Y-91835792D01*
X104788151Y-91850385D01*
X104761174Y-91863488D01*
X104738709Y-91874357D01*
X104722285Y-91882246D01*
X104722084Y-91882342D01*
X104704917Y-91890582D01*
X104681871Y-91901718D01*
X104654667Y-91914914D01*
X104625028Y-91929335D01*
X104594672Y-91944145D01*
X104576034Y-91953260D01*
X104542159Y-91969842D01*
X104504285Y-91988378D01*
X104465111Y-92007547D01*
X104427335Y-92026029D01*
X104393657Y-92042504D01*
X104384774Y-92046848D01*
X104354424Y-92061832D01*
X104330887Y-92073821D01*
X104313273Y-92083332D01*
X104300692Y-92090883D01*
X104292253Y-92096989D01*
X104287065Y-92102169D01*
X104285436Y-92104532D01*
X104279618Y-92113065D01*
X104275241Y-92117247D01*
X104274839Y-92117333D01*
X104271230Y-92120790D01*
X104269313Y-92125180D01*
X104265211Y-92132529D01*
X104257240Y-92143261D01*
X104250135Y-92151639D01*
X104239920Y-92163799D01*
X104231476Y-92175189D01*
X104227999Y-92180833D01*
X104221056Y-92191775D01*
X104212888Y-92202000D01*
X104205324Y-92211214D01*
X104195523Y-92224356D01*
X104187488Y-92235838D01*
X104178753Y-92248513D01*
X104171473Y-92258665D01*
X104167517Y-92263742D01*
X104164312Y-92267472D01*
X104159725Y-92273242D01*
X104153101Y-92281923D01*
X104143787Y-92294388D01*
X104131129Y-92311508D01*
X104114471Y-92334157D01*
X104104275Y-92348050D01*
X104089562Y-92368013D01*
X104075672Y-92386691D01*
X104063787Y-92402505D01*
X104055090Y-92413880D01*
X104052210Y-92417528D01*
X104043246Y-92428956D01*
X104035570Y-92439319D01*
X104034167Y-92441339D01*
X104022109Y-92459004D01*
X104014137Y-92470378D01*
X104009694Y-92476251D01*
X104008854Y-92477167D01*
X104004908Y-92481981D01*
X103996471Y-92493075D01*
X103983987Y-92509848D01*
X103967902Y-92531701D01*
X103948663Y-92558036D01*
X103945898Y-92561833D01*
X103934634Y-92577260D01*
X103924980Y-92590393D01*
X103918177Y-92599549D01*
X103915762Y-92602706D01*
X103911410Y-92608375D01*
X103902806Y-92619805D01*
X103890728Y-92635949D01*
X103875955Y-92655759D01*
X103859265Y-92678184D01*
X103841436Y-92702178D01*
X103823246Y-92726691D01*
X103805475Y-92750675D01*
X103788900Y-92773081D01*
X103774298Y-92792862D01*
X103762450Y-92808968D01*
X103754133Y-92820351D01*
X103751515Y-92823981D01*
X103745248Y-92832548D01*
X103736104Y-92844816D01*
X103725763Y-92858558D01*
X103715903Y-92871550D01*
X103708204Y-92881567D01*
X103704945Y-92885683D01*
X103700992Y-92891024D01*
X103693696Y-92901318D01*
X103684496Y-92914531D01*
X103682603Y-92917273D01*
X103672452Y-92931650D01*
X103663123Y-92944258D01*
X103656449Y-92952625D01*
X103655886Y-92953257D01*
X103648689Y-92962232D01*
X103640089Y-92974374D01*
X103637233Y-92978722D01*
X103629763Y-92989974D01*
X103623535Y-92998668D01*
X103621813Y-93000800D01*
X103619013Y-93004019D01*
X103615927Y-93007765D01*
X103611551Y-93013331D01*
X103604878Y-93022013D01*
X103594902Y-93035103D01*
X103583788Y-93049725D01*
X103558860Y-93082533D01*
X103508814Y-93082533D01*
X103483925Y-93082151D01*
X103466857Y-93080965D01*
X103456999Y-93078916D01*
X103454284Y-93077241D01*
X103440538Y-93060724D01*
X103432191Y-93049963D01*
X103428891Y-93044501D01*
X103428805Y-93044023D01*
X103426318Y-93039301D01*
X103421128Y-93032649D01*
X103412450Y-93021965D01*
X103406503Y-93014010D01*
X103402245Y-93008167D01*
X103393898Y-92996841D01*
X103382347Y-92981221D01*
X103368473Y-92962495D01*
X103353162Y-92941853D01*
X103337295Y-92920485D01*
X103321756Y-92899580D01*
X103307429Y-92880326D01*
X103295196Y-92863914D01*
X103285940Y-92851532D01*
X103280546Y-92844370D01*
X103279760Y-92843350D01*
X103275653Y-92837871D01*
X103268297Y-92827840D01*
X103260537Y-92817159D01*
X103250312Y-92803040D01*
X103241952Y-92791545D01*
X103234162Y-92780922D01*
X103225650Y-92769417D01*
X103215123Y-92755279D01*
X103201287Y-92736755D01*
X103195162Y-92728560D01*
X103181660Y-92710477D01*
X103169419Y-92694040D01*
X103159621Y-92680839D01*
X103153448Y-92672467D01*
X103152679Y-92671410D01*
X103142463Y-92657420D01*
X103129356Y-92639656D01*
X103114207Y-92619251D01*
X103097864Y-92597336D01*
X103081177Y-92575042D01*
X103064996Y-92553503D01*
X103050169Y-92533850D01*
X103037547Y-92517215D01*
X103027978Y-92504729D01*
X103022312Y-92497526D01*
X103021421Y-92496477D01*
X103015799Y-92489364D01*
X103013933Y-92485483D01*
X103011478Y-92480512D01*
X103006525Y-92473937D01*
X102995166Y-92460303D01*
X102987280Y-92450184D01*
X102980715Y-92440771D01*
X102978290Y-92437058D01*
X102971732Y-92427299D01*
X102966697Y-92420471D01*
X102966406Y-92420127D01*
X102962725Y-92415385D01*
X102955164Y-92405333D01*
X102944849Y-92391491D01*
X102932906Y-92375377D01*
X102920459Y-92358510D01*
X102908634Y-92342411D01*
X102898556Y-92328597D01*
X102896242Y-92325402D01*
X102888970Y-92315604D01*
X102879817Y-92303590D01*
X102877408Y-92300479D01*
X102870375Y-92290906D01*
X102866222Y-92284241D01*
X102865747Y-92282909D01*
X102863114Y-92278457D01*
X102856563Y-92270498D01*
X102853951Y-92267617D01*
X102843524Y-92255004D01*
X102833764Y-92241142D01*
X102832914Y-92239779D01*
X102824164Y-92226907D01*
X102814817Y-92215140D01*
X102813592Y-92213784D01*
X102804274Y-92202439D01*
X102795262Y-92189582D01*
X102794712Y-92188705D01*
X102786728Y-92176929D01*
X102778854Y-92166927D01*
X102778030Y-92166017D01*
X102771064Y-92157610D01*
X102762037Y-92145580D01*
X102757031Y-92138500D01*
X102747697Y-92125482D01*
X102738686Y-92113736D01*
X102734981Y-92109277D01*
X102728769Y-92101248D01*
X102726070Y-92095897D01*
X102726067Y-92095801D01*
X102722508Y-92092634D01*
X102712969Y-92086903D01*
X102699158Y-92079594D01*
X102691142Y-92075635D01*
X102676537Y-92068584D01*
X102656088Y-92058710D01*
X102631575Y-92046874D01*
X102604777Y-92033934D01*
X102577474Y-92020750D01*
X102572200Y-92018204D01*
X102547731Y-92006413D01*
X102525956Y-91995970D01*
X102507984Y-91987401D01*
X102494921Y-91981234D01*
X102487875Y-91977995D01*
X102486963Y-91977633D01*
X102482964Y-91975876D01*
X102472484Y-91970963D01*
X102456660Y-91963438D01*
X102436627Y-91953840D01*
X102413522Y-91942712D01*
X102405879Y-91939019D01*
X102378521Y-91925809D01*
X102350560Y-91912338D01*
X102324055Y-91899597D01*
X102301062Y-91888573D01*
X102283684Y-91880278D01*
X102261231Y-91869603D01*
X102235060Y-91857161D01*
X102209099Y-91844820D01*
X102194784Y-91838015D01*
X102172236Y-91827259D01*
X102145456Y-91814428D01*
X102117827Y-91801145D01*
X102093184Y-91789252D01*
X102046314Y-91766605D01*
X101999520Y-91744050D01*
X101954617Y-91722459D01*
X101913422Y-91702706D01*
X101877750Y-91685665D01*
X101873050Y-91683426D01*
X101850035Y-91672449D01*
X101822963Y-91659511D01*
X101795408Y-91646319D01*
X101773567Y-91635844D01*
X101750105Y-91624603D01*
X101725473Y-91612843D01*
X101702618Y-91601968D01*
X101684667Y-91593468D01*
X101597470Y-91552076D01*
X101509968Y-91509955D01*
X101487618Y-91499108D01*
X101463056Y-91487223D01*
X101438727Y-91475545D01*
X101416641Y-91465032D01*
X101398806Y-91456642D01*
X101390251Y-91452692D01*
X101357296Y-91437328D01*
X101329585Y-91423660D01*
X101307796Y-91412047D01*
X101292607Y-91402848D01*
X101285171Y-91396964D01*
X101277892Y-91387584D01*
X101269943Y-91375161D01*
X101268144Y-91371984D01*
X101260232Y-91358096D01*
X101250248Y-91341351D01*
X101239280Y-91323481D01*
X101228415Y-91306217D01*
X101218740Y-91291290D01*
X101211343Y-91280429D01*
X101207626Y-91275656D01*
X101202881Y-91269052D01*
X101202067Y-91266257D01*
X101199895Y-91261654D01*
X101193845Y-91251094D01*
X101184620Y-91235742D01*
X101172919Y-91216762D01*
X101159444Y-91195320D01*
X101158311Y-91193534D01*
X101138398Y-91162077D01*
X101121635Y-91135354D01*
X101106558Y-91110997D01*
X101091705Y-91086642D01*
X101075610Y-91059921D01*
X101073789Y-91056883D01*
X101068822Y-91049353D01*
X101066281Y-91046300D01*
X101062837Y-91041530D01*
X101057307Y-91032312D01*
X101055698Y-91029444D01*
X101049057Y-91018391D01*
X101043126Y-91010028D01*
X101042258Y-91009033D01*
X101037663Y-91001312D01*
X101036967Y-90997832D01*
X101033993Y-90990687D01*
X101030617Y-90987033D01*
X101026289Y-90980705D01*
X101024236Y-90972829D01*
X101025062Y-90966956D01*
X101027018Y-90965867D01*
X101031715Y-90967857D01*
G36*
X101535415Y-91776284D02*
G01*
X101552536Y-91780662D01*
X101576845Y-91787899D01*
X101580491Y-91789027D01*
X101603610Y-91796182D01*
X101631267Y-91804712D01*
X101659901Y-91813519D01*
X101684667Y-91821114D01*
X101708013Y-91828266D01*
X101730920Y-91835297D01*
X101750952Y-91841456D01*
X101765674Y-91845997D01*
X101767217Y-91846475D01*
X101785141Y-91852001D01*
X101809323Y-91859418D01*
X101837915Y-91868163D01*
X101869071Y-91877671D01*
X101900946Y-91887379D01*
X101931693Y-91896724D01*
X101947134Y-91901407D01*
X101970802Y-91908608D01*
X101996650Y-91916517D01*
X102020500Y-91923855D01*
X102029684Y-91926697D01*
X102051202Y-91933337D01*
X102076649Y-91941135D01*
X102101845Y-91948812D01*
X102112234Y-91951961D01*
X102136476Y-91959335D01*
X102164345Y-91967876D01*
X102191391Y-91976218D01*
X102203250Y-91979899D01*
X102231903Y-91988801D01*
X102262441Y-91998263D01*
X102293471Y-92007856D01*
X102323600Y-92017151D01*
X102351436Y-92025718D01*
X102375586Y-92033128D01*
X102394656Y-92038953D01*
X102407255Y-92042762D01*
X102408567Y-92043153D01*
X102424466Y-92047903D01*
X102442564Y-92053351D01*
X102449842Y-92055554D01*
X102467690Y-92060956D01*
X102486585Y-92066652D01*
X102493234Y-92068650D01*
X102521120Y-92077044D01*
X102545188Y-92084365D01*
X102569438Y-92091838D01*
X102596950Y-92100400D01*
X102626015Y-92109451D01*
X102648403Y-92116364D01*
X102665508Y-92121556D01*
X102678724Y-92125444D01*
X102689446Y-92128444D01*
X102699069Y-92130975D01*
X102699608Y-92131113D01*
X102710495Y-92134450D01*
X102716891Y-92137505D01*
X102717600Y-92138451D01*
X102720181Y-92143002D01*
X102726694Y-92151280D01*
X102730300Y-92155433D01*
X102737943Y-92164491D01*
X102742469Y-92170818D01*
X102743000Y-92172114D01*
X102745598Y-92176567D01*
X102751953Y-92184213D01*
X102752947Y-92185297D01*
X102761455Y-92195533D01*
X102771151Y-92208660D01*
X102774676Y-92213828D01*
X102781973Y-92224026D01*
X102787639Y-92230468D01*
X102789482Y-92231633D01*
X102793524Y-92234954D01*
X102796328Y-92239613D01*
X102801277Y-92247490D01*
X102809486Y-92258400D01*
X102814055Y-92263954D01*
X102823083Y-92275020D01*
X102834974Y-92290191D01*
X102847599Y-92306737D01*
X102851588Y-92312067D01*
X102862181Y-92326142D01*
X102870956Y-92337510D01*
X102876644Y-92344537D01*
X102877959Y-92345933D01*
X102881566Y-92350039D01*
X102888975Y-92359307D01*
X102898912Y-92372124D01*
X102904847Y-92379912D01*
X102916361Y-92394924D01*
X102926778Y-92408179D01*
X102934479Y-92417632D01*
X102936652Y-92420128D01*
X102944109Y-92429091D01*
X102952871Y-92440701D01*
X102954722Y-92443300D01*
X102962602Y-92454321D01*
X102970171Y-92464314D01*
X102979548Y-92476012D01*
X102988831Y-92487296D01*
X102997853Y-92498530D01*
X103008682Y-92512459D01*
X103014231Y-92519763D01*
X103025992Y-92535002D01*
X103039048Y-92551344D01*
X103044407Y-92557863D01*
X103056242Y-92572475D01*
X103069218Y-92589097D01*
X103075816Y-92597817D01*
X103094303Y-92622366D01*
X103113466Y-92647155D01*
X103135658Y-92675227D01*
X103136700Y-92676534D01*
X103148061Y-92690844D01*
X103158931Y-92704643D01*
X103166333Y-92714141D01*
X103175909Y-92726442D01*
X103186746Y-92740209D01*
X103189617Y-92743827D01*
X103200755Y-92757938D01*
X103215294Y-92776512D01*
X103231761Y-92797648D01*
X103248679Y-92819447D01*
X103264573Y-92840008D01*
X103277970Y-92857433D01*
X103286312Y-92868386D01*
X103297106Y-92882292D01*
X103307843Y-92895516D01*
X103313927Y-92902616D01*
X103324222Y-92915013D01*
X103334417Y-92928571D01*
X103335508Y-92930133D01*
X103344697Y-92942429D01*
X103354100Y-92953549D01*
X103355518Y-92955052D01*
X103363458Y-92964851D01*
X103364692Y-92970695D01*
X103360008Y-92972185D01*
X103356379Y-92969202D01*
X103347182Y-92960585D01*
X103332805Y-92946718D01*
X103313637Y-92927987D01*
X103290064Y-92904776D01*
X103262474Y-92877469D01*
X103231255Y-92846451D01*
X103196794Y-92812107D01*
X103159480Y-92774822D01*
X103119699Y-92734979D01*
X103077840Y-92692963D01*
X103034290Y-92649159D01*
X103026115Y-92640927D01*
X102697513Y-92309950D01*
X102621831Y-92293593D01*
X102596137Y-92288069D01*
X102571951Y-92282921D01*
X102551040Y-92278522D01*
X102535170Y-92275243D01*
X102527100Y-92273642D01*
X102514313Y-92271103D01*
X102496349Y-92267378D01*
X102476296Y-92263110D01*
X102467834Y-92261276D01*
X102445529Y-92256438D01*
X102421778Y-92251326D01*
X102400822Y-92246854D01*
X102395867Y-92245806D01*
X102366002Y-92239493D01*
X102341843Y-92234355D01*
X102320807Y-92229831D01*
X102300314Y-92225364D01*
X102277780Y-92220395D01*
X102251934Y-92214656D01*
X102228458Y-92209479D01*
X102206292Y-92204674D01*
X102187529Y-92200689D01*
X102174260Y-92197971D01*
X102171500Y-92197439D01*
X102163148Y-92195832D01*
X102152624Y-92193708D01*
X102138856Y-92190841D01*
X102120771Y-92187003D01*
X102097298Y-92181969D01*
X102067366Y-92175510D01*
X102042384Y-92170105D01*
X102002960Y-92161599D01*
X101969876Y-92154535D01*
X101941210Y-92148502D01*
X101925967Y-92145339D01*
X101909603Y-92141899D01*
X101887688Y-92137202D01*
X101862935Y-92131835D01*
X101838056Y-92126383D01*
X101834950Y-92125698D01*
X101810902Y-92120477D01*
X101787243Y-92115498D01*
X101766451Y-92111273D01*
X101751003Y-92108313D01*
X101749022Y-92107962D01*
X101722361Y-92103314D01*
X101705412Y-92075399D01*
X101696512Y-92060727D01*
X101688777Y-92047950D01*
X101683733Y-92039589D01*
X101683389Y-92039017D01*
X101678497Y-92031493D01*
X101676061Y-92028433D01*
X101672820Y-92023904D01*
X101666772Y-92014383D01*
X101661161Y-92005150D01*
X101653258Y-91991932D01*
X101646435Y-91980542D01*
X101643417Y-91975517D01*
X101638380Y-91967045D01*
X101631109Y-91954698D01*
X101626567Y-91946946D01*
X101619559Y-91935860D01*
X101613926Y-91928557D01*
X101611642Y-91926837D01*
X101608821Y-91923390D01*
X101608467Y-91920483D01*
X101606425Y-91914846D01*
X101604692Y-91914133D01*
X101600966Y-91910545D01*
X101598262Y-91903550D01*
X101594862Y-91895621D01*
X101591453Y-91892967D01*
X101587511Y-91889673D01*
X101587300Y-91888168D01*
X101585162Y-91883159D01*
X101579420Y-91872697D01*
X101571084Y-91858431D01*
X101561165Y-91842006D01*
X101550673Y-91825071D01*
X101540616Y-91809272D01*
X101532006Y-91796257D01*
X101525852Y-91787673D01*
X101525146Y-91786800D01*
X101520347Y-91780021D01*
X101520004Y-91775990D01*
X101524799Y-91774735D01*
X101535415Y-91776284D01*
G37*
X101535415Y-91776284D02*
X101552536Y-91780662D01*
X101576845Y-91787899D01*
X101580491Y-91789027D01*
X101603610Y-91796182D01*
X101631267Y-91804712D01*
X101659901Y-91813519D01*
X101684667Y-91821114D01*
X101708013Y-91828266D01*
X101730920Y-91835297D01*
X101750952Y-91841456D01*
X101765674Y-91845997D01*
X101767217Y-91846475D01*
X101785141Y-91852001D01*
X101809323Y-91859418D01*
X101837915Y-91868163D01*
X101869071Y-91877671D01*
X101900946Y-91887379D01*
X101931693Y-91896724D01*
X101947134Y-91901407D01*
X101970802Y-91908608D01*
X101996650Y-91916517D01*
X102020500Y-91923855D01*
X102029684Y-91926697D01*
X102051202Y-91933337D01*
X102076649Y-91941135D01*
X102101845Y-91948812D01*
X102112234Y-91951961D01*
X102136476Y-91959335D01*
X102164345Y-91967876D01*
X102191391Y-91976218D01*
X102203250Y-91979899D01*
X102231903Y-91988801D01*
X102262441Y-91998263D01*
X102293471Y-92007856D01*
X102323600Y-92017151D01*
X102351436Y-92025718D01*
X102375586Y-92033128D01*
X102394656Y-92038953D01*
X102407255Y-92042762D01*
X102408567Y-92043153D01*
X102424466Y-92047903D01*
X102442564Y-92053351D01*
X102449842Y-92055554D01*
X102467690Y-92060956D01*
X102486585Y-92066652D01*
X102493234Y-92068650D01*
X102521120Y-92077044D01*
X102545188Y-92084365D01*
X102569438Y-92091838D01*
X102596950Y-92100400D01*
X102626015Y-92109451D01*
X102648403Y-92116364D01*
X102665508Y-92121556D01*
X102678724Y-92125444D01*
X102689446Y-92128444D01*
X102699069Y-92130975D01*
X102699608Y-92131113D01*
X102710495Y-92134450D01*
X102716891Y-92137505D01*
X102717600Y-92138451D01*
X102720181Y-92143002D01*
X102726694Y-92151280D01*
X102730300Y-92155433D01*
X102737943Y-92164491D01*
X102742469Y-92170818D01*
X102743000Y-92172114D01*
X102745598Y-92176567D01*
X102751953Y-92184213D01*
X102752947Y-92185297D01*
X102761455Y-92195533D01*
X102771151Y-92208660D01*
X102774676Y-92213828D01*
X102781973Y-92224026D01*
X102787639Y-92230468D01*
X102789482Y-92231633D01*
X102793524Y-92234954D01*
X102796328Y-92239613D01*
X102801277Y-92247490D01*
X102809486Y-92258400D01*
X102814055Y-92263954D01*
X102823083Y-92275020D01*
X102834974Y-92290191D01*
X102847599Y-92306737D01*
X102851588Y-92312067D01*
X102862181Y-92326142D01*
X102870956Y-92337510D01*
X102876644Y-92344537D01*
X102877959Y-92345933D01*
X102881566Y-92350039D01*
X102888975Y-92359307D01*
X102898912Y-92372124D01*
X102904847Y-92379912D01*
X102916361Y-92394924D01*
X102926778Y-92408179D01*
X102934479Y-92417632D01*
X102936652Y-92420128D01*
X102944109Y-92429091D01*
X102952871Y-92440701D01*
X102954722Y-92443300D01*
X102962602Y-92454321D01*
X102970171Y-92464314D01*
X102979548Y-92476012D01*
X102988831Y-92487296D01*
X102997853Y-92498530D01*
X103008682Y-92512459D01*
X103014231Y-92519763D01*
X103025992Y-92535002D01*
X103039048Y-92551344D01*
X103044407Y-92557863D01*
X103056242Y-92572475D01*
X103069218Y-92589097D01*
X103075816Y-92597817D01*
X103094303Y-92622366D01*
X103113466Y-92647155D01*
X103135658Y-92675227D01*
X103136700Y-92676534D01*
X103148061Y-92690844D01*
X103158931Y-92704643D01*
X103166333Y-92714141D01*
X103175909Y-92726442D01*
X103186746Y-92740209D01*
X103189617Y-92743827D01*
X103200755Y-92757938D01*
X103215294Y-92776512D01*
X103231761Y-92797648D01*
X103248679Y-92819447D01*
X103264573Y-92840008D01*
X103277970Y-92857433D01*
X103286312Y-92868386D01*
X103297106Y-92882292D01*
X103307843Y-92895516D01*
X103313927Y-92902616D01*
X103324222Y-92915013D01*
X103334417Y-92928571D01*
X103335508Y-92930133D01*
X103344697Y-92942429D01*
X103354100Y-92953549D01*
X103355518Y-92955052D01*
X103363458Y-92964851D01*
X103364692Y-92970695D01*
X103360008Y-92972185D01*
X103356379Y-92969202D01*
X103347182Y-92960585D01*
X103332805Y-92946718D01*
X103313637Y-92927987D01*
X103290064Y-92904776D01*
X103262474Y-92877469D01*
X103231255Y-92846451D01*
X103196794Y-92812107D01*
X103159480Y-92774822D01*
X103119699Y-92734979D01*
X103077840Y-92692963D01*
X103034290Y-92649159D01*
X103026115Y-92640927D01*
X102697513Y-92309950D01*
X102621831Y-92293593D01*
X102596137Y-92288069D01*
X102571951Y-92282921D01*
X102551040Y-92278522D01*
X102535170Y-92275243D01*
X102527100Y-92273642D01*
X102514313Y-92271103D01*
X102496349Y-92267378D01*
X102476296Y-92263110D01*
X102467834Y-92261276D01*
X102445529Y-92256438D01*
X102421778Y-92251326D01*
X102400822Y-92246854D01*
X102395867Y-92245806D01*
X102366002Y-92239493D01*
X102341843Y-92234355D01*
X102320807Y-92229831D01*
X102300314Y-92225364D01*
X102277780Y-92220395D01*
X102251934Y-92214656D01*
X102228458Y-92209479D01*
X102206292Y-92204674D01*
X102187529Y-92200689D01*
X102174260Y-92197971D01*
X102171500Y-92197439D01*
X102163148Y-92195832D01*
X102152624Y-92193708D01*
X102138856Y-92190841D01*
X102120771Y-92187003D01*
X102097298Y-92181969D01*
X102067366Y-92175510D01*
X102042384Y-92170105D01*
X102002960Y-92161599D01*
X101969876Y-92154535D01*
X101941210Y-92148502D01*
X101925967Y-92145339D01*
X101909603Y-92141899D01*
X101887688Y-92137202D01*
X101862935Y-92131835D01*
X101838056Y-92126383D01*
X101834950Y-92125698D01*
X101810902Y-92120477D01*
X101787243Y-92115498D01*
X101766451Y-92111273D01*
X101751003Y-92108313D01*
X101749022Y-92107962D01*
X101722361Y-92103314D01*
X101705412Y-92075399D01*
X101696512Y-92060727D01*
X101688777Y-92047950D01*
X101683733Y-92039589D01*
X101683389Y-92039017D01*
X101678497Y-92031493D01*
X101676061Y-92028433D01*
X101672820Y-92023904D01*
X101666772Y-92014383D01*
X101661161Y-92005150D01*
X101653258Y-91991932D01*
X101646435Y-91980542D01*
X101643417Y-91975517D01*
X101638380Y-91967045D01*
X101631109Y-91954698D01*
X101626567Y-91946946D01*
X101619559Y-91935860D01*
X101613926Y-91928557D01*
X101611642Y-91926837D01*
X101608821Y-91923390D01*
X101608467Y-91920483D01*
X101606425Y-91914846D01*
X101604692Y-91914133D01*
X101600966Y-91910545D01*
X101598262Y-91903550D01*
X101594862Y-91895621D01*
X101591453Y-91892967D01*
X101587511Y-91889673D01*
X101587300Y-91888168D01*
X101585162Y-91883159D01*
X101579420Y-91872697D01*
X101571084Y-91858431D01*
X101561165Y-91842006D01*
X101550673Y-91825071D01*
X101540616Y-91809272D01*
X101532006Y-91796257D01*
X101525852Y-91787673D01*
X101525146Y-91786800D01*
X101520347Y-91780021D01*
X101520004Y-91775990D01*
X101524799Y-91774735D01*
X101535415Y-91776284D01*
G36*
X105498234Y-91778667D02*
G01*
X105495089Y-91786829D01*
X105487740Y-91800368D01*
X105475900Y-91819959D01*
X105471384Y-91827193D01*
X105460769Y-91844462D01*
X105452056Y-91859322D01*
X105446128Y-91870217D01*
X105443869Y-91875591D01*
X105443867Y-91875647D01*
X105441185Y-91880068D01*
X105440092Y-91880267D01*
X105436270Y-91883830D01*
X105433906Y-91889876D01*
X105429166Y-91900625D01*
X105423922Y-91908083D01*
X105415697Y-91918711D01*
X105410227Y-91927049D01*
X105406134Y-91933866D01*
X105398469Y-91946533D01*
X105388070Y-91963674D01*
X105375775Y-91983910D01*
X105362421Y-92005863D01*
X105348847Y-92028158D01*
X105335890Y-92049416D01*
X105324389Y-92068260D01*
X105315180Y-92083313D01*
X105314623Y-92084221D01*
X105306808Y-92095866D01*
X105299448Y-92102469D01*
X105289233Y-92106278D01*
X105278981Y-92108415D01*
X105266170Y-92110934D01*
X105247360Y-92114796D01*
X105224820Y-92119526D01*
X105200821Y-92124652D01*
X105194100Y-92126104D01*
X105169871Y-92131347D01*
X105146245Y-92136446D01*
X105125573Y-92140896D01*
X105110202Y-92144190D01*
X105107317Y-92144805D01*
X105076008Y-92151463D01*
X105051619Y-92156653D01*
X105032787Y-92160666D01*
X105018150Y-92163792D01*
X105006344Y-92166322D01*
X104996009Y-92168548D01*
X104988784Y-92170109D01*
X104954168Y-92177592D01*
X104926738Y-92183501D01*
X104905405Y-92188067D01*
X104889082Y-92191521D01*
X104876683Y-92194092D01*
X104867119Y-92196011D01*
X104859667Y-92197439D01*
X104848613Y-92199655D01*
X104831392Y-92203283D01*
X104810095Y-92207877D01*
X104786814Y-92212987D01*
X104779234Y-92214671D01*
X104755757Y-92219860D01*
X104733592Y-92224691D01*
X104714828Y-92228711D01*
X104701559Y-92231469D01*
X104698800Y-92232015D01*
X104682360Y-92235380D01*
X104665851Y-92239043D01*
X104662817Y-92239761D01*
X104650317Y-92242614D01*
X104632998Y-92246375D01*
X104614341Y-92250291D01*
X104612017Y-92250769D01*
X104590413Y-92255250D01*
X104565719Y-92260456D01*
X104543114Y-92265295D01*
X104542167Y-92265500D01*
X104519792Y-92270304D01*
X104495078Y-92275545D01*
X104473206Y-92280126D01*
X104472317Y-92280310D01*
X104451995Y-92284591D01*
X104430890Y-92289150D01*
X104413475Y-92293021D01*
X104413050Y-92293118D01*
X104393753Y-92297388D01*
X104372392Y-92301926D01*
X104361354Y-92304186D01*
X104335058Y-92309460D01*
X104003802Y-92640963D01*
X103959766Y-92685002D01*
X103917388Y-92727326D01*
X103877050Y-92767554D01*
X103839140Y-92805305D01*
X103804041Y-92840197D01*
X103772140Y-92871848D01*
X103743821Y-92899877D01*
X103719469Y-92923901D01*
X103699471Y-92943540D01*
X103684211Y-92958411D01*
X103674074Y-92968133D01*
X103669446Y-92972325D01*
X103669206Y-92972466D01*
X103665950Y-92969230D01*
X103665867Y-92968306D01*
X103668484Y-92962687D01*
X103674935Y-92954174D01*
X103676473Y-92952431D01*
X103683166Y-92944563D01*
X103693845Y-92931458D01*
X103707334Y-92914595D01*
X103722459Y-92895448D01*
X103738045Y-92875495D01*
X103749796Y-92860283D01*
X103758775Y-92848647D01*
X103770510Y-92833517D01*
X103783938Y-92816255D01*
X103797996Y-92798222D01*
X103811621Y-92780778D01*
X103823751Y-92765286D01*
X103833324Y-92753106D01*
X103839276Y-92745599D01*
X103840534Y-92744056D01*
X103845303Y-92738180D01*
X103854645Y-92726422D01*
X103867931Y-92709579D01*
X103884534Y-92688451D01*
X103903825Y-92663837D01*
X103925178Y-92636534D01*
X103940038Y-92617501D01*
X103954424Y-92599100D01*
X103970260Y-92578900D01*
X103984481Y-92560811D01*
X103986511Y-92558234D01*
X103998397Y-92543158D01*
X104006722Y-92532576D01*
X104013162Y-92524327D01*
X104019391Y-92516251D01*
X104027085Y-92506190D01*
X104037918Y-92491981D01*
X104039531Y-92489867D01*
X104050778Y-92475220D01*
X104060598Y-92462625D01*
X104067509Y-92453972D01*
X104069365Y-92451767D01*
X104075032Y-92444909D01*
X104083521Y-92434142D01*
X104089505Y-92426367D01*
X104097802Y-92415583D01*
X104103971Y-92407766D01*
X104106134Y-92405200D01*
X104109533Y-92401063D01*
X104116699Y-92391934D01*
X104126269Y-92379556D01*
X104129330Y-92375567D01*
X104140628Y-92361066D01*
X104151226Y-92347887D01*
X104159101Y-92338536D01*
X104160022Y-92337510D01*
X104166553Y-92329662D01*
X104169604Y-92324645D01*
X104169634Y-92324410D01*
X104172157Y-92319861D01*
X104178412Y-92311794D01*
X104180327Y-92309550D01*
X104187746Y-92300591D01*
X104198390Y-92287212D01*
X104210400Y-92271762D01*
X104215192Y-92265500D01*
X104225933Y-92251487D01*
X104234761Y-92240148D01*
X104240417Y-92233093D01*
X104241705Y-92231633D01*
X104244236Y-92228740D01*
X104249835Y-92221733D01*
X104259009Y-92209962D01*
X104272265Y-92192778D01*
X104290110Y-92169529D01*
X104291048Y-92168305D01*
X104303341Y-92152866D01*
X104313170Y-92142685D01*
X104322834Y-92136018D01*
X104334632Y-92131122D01*
X104343860Y-92128261D01*
X104362728Y-92122626D01*
X104382637Y-92116496D01*
X104394000Y-92112891D01*
X104409493Y-92107979D01*
X104431215Y-92101220D01*
X104457284Y-92093193D01*
X104485815Y-92084478D01*
X104514928Y-92075653D01*
X104525234Y-92072547D01*
X104537618Y-92068789D01*
X104555248Y-92063398D01*
X104575283Y-92057244D01*
X104586617Y-92053751D01*
X104610492Y-92046397D01*
X104637171Y-92038201D01*
X104661997Y-92030594D01*
X104669167Y-92028402D01*
X104689225Y-92022262D01*
X104714206Y-92014595D01*
X104740941Y-92006376D01*
X104766263Y-91998575D01*
X104766534Y-91998492D01*
X104799030Y-91988473D01*
X104825038Y-91980464D01*
X104846158Y-91973976D01*
X104863989Y-91968520D01*
X104880133Y-91963607D01*
X104896189Y-91958747D01*
X104913759Y-91953450D01*
X104918934Y-91951893D01*
X104942611Y-91944731D01*
X104968468Y-91936850D01*
X104992323Y-91929529D01*
X105001484Y-91926697D01*
X105023007Y-91920061D01*
X105048459Y-91912275D01*
X105073660Y-91904618D01*
X105084034Y-91901484D01*
X105103327Y-91895636D01*
X105120553Y-91890349D01*
X105133509Y-91886305D01*
X105139067Y-91884506D01*
X105147138Y-91881918D01*
X105161328Y-91877509D01*
X105179647Y-91871891D01*
X105200108Y-91865679D01*
X105200450Y-91865576D01*
X105226255Y-91857731D01*
X105255941Y-91848630D01*
X105285314Y-91839561D01*
X105304167Y-91833696D01*
X105328335Y-91826210D01*
X105353650Y-91818477D01*
X105376907Y-91811472D01*
X105393067Y-91806698D01*
X105414719Y-91800315D01*
X105437021Y-91793595D01*
X105458058Y-91787128D01*
X105475919Y-91781506D01*
X105488689Y-91777322D01*
X105493047Y-91775773D01*
X105497459Y-91775207D01*
X105498234Y-91778667D01*
G37*
X105498234Y-91778667D02*
X105495089Y-91786829D01*
X105487740Y-91800368D01*
X105475900Y-91819959D01*
X105471384Y-91827193D01*
X105460769Y-91844462D01*
X105452056Y-91859322D01*
X105446128Y-91870217D01*
X105443869Y-91875591D01*
X105443867Y-91875647D01*
X105441185Y-91880068D01*
X105440092Y-91880267D01*
X105436270Y-91883830D01*
X105433906Y-91889876D01*
X105429166Y-91900625D01*
X105423922Y-91908083D01*
X105415697Y-91918711D01*
X105410227Y-91927049D01*
X105406134Y-91933866D01*
X105398469Y-91946533D01*
X105388070Y-91963674D01*
X105375775Y-91983910D01*
X105362421Y-92005863D01*
X105348847Y-92028158D01*
X105335890Y-92049416D01*
X105324389Y-92068260D01*
X105315180Y-92083313D01*
X105314623Y-92084221D01*
X105306808Y-92095866D01*
X105299448Y-92102469D01*
X105289233Y-92106278D01*
X105278981Y-92108415D01*
X105266170Y-92110934D01*
X105247360Y-92114796D01*
X105224820Y-92119526D01*
X105200821Y-92124652D01*
X105194100Y-92126104D01*
X105169871Y-92131347D01*
X105146245Y-92136446D01*
X105125573Y-92140896D01*
X105110202Y-92144190D01*
X105107317Y-92144805D01*
X105076008Y-92151463D01*
X105051619Y-92156653D01*
X105032787Y-92160666D01*
X105018150Y-92163792D01*
X105006344Y-92166322D01*
X104996009Y-92168548D01*
X104988784Y-92170109D01*
X104954168Y-92177592D01*
X104926738Y-92183501D01*
X104905405Y-92188067D01*
X104889082Y-92191521D01*
X104876683Y-92194092D01*
X104867119Y-92196011D01*
X104859667Y-92197439D01*
X104848613Y-92199655D01*
X104831392Y-92203283D01*
X104810095Y-92207877D01*
X104786814Y-92212987D01*
X104779234Y-92214671D01*
X104755757Y-92219860D01*
X104733592Y-92224691D01*
X104714828Y-92228711D01*
X104701559Y-92231469D01*
X104698800Y-92232015D01*
X104682360Y-92235380D01*
X104665851Y-92239043D01*
X104662817Y-92239761D01*
X104650317Y-92242614D01*
X104632998Y-92246375D01*
X104614341Y-92250291D01*
X104612017Y-92250769D01*
X104590413Y-92255250D01*
X104565719Y-92260456D01*
X104543114Y-92265295D01*
X104542167Y-92265500D01*
X104519792Y-92270304D01*
X104495078Y-92275545D01*
X104473206Y-92280126D01*
X104472317Y-92280310D01*
X104451995Y-92284591D01*
X104430890Y-92289150D01*
X104413475Y-92293021D01*
X104413050Y-92293118D01*
X104393753Y-92297388D01*
X104372392Y-92301926D01*
X104361354Y-92304186D01*
X104335058Y-92309460D01*
X104003802Y-92640963D01*
X103959766Y-92685002D01*
X103917388Y-92727326D01*
X103877050Y-92767554D01*
X103839140Y-92805305D01*
X103804041Y-92840197D01*
X103772140Y-92871848D01*
X103743821Y-92899877D01*
X103719469Y-92923901D01*
X103699471Y-92943540D01*
X103684211Y-92958411D01*
X103674074Y-92968133D01*
X103669446Y-92972325D01*
X103669206Y-92972466D01*
X103665950Y-92969230D01*
X103665867Y-92968306D01*
X103668484Y-92962687D01*
X103674935Y-92954174D01*
X103676473Y-92952431D01*
X103683166Y-92944563D01*
X103693845Y-92931458D01*
X103707334Y-92914595D01*
X103722459Y-92895448D01*
X103738045Y-92875495D01*
X103749796Y-92860283D01*
X103758775Y-92848647D01*
X103770510Y-92833517D01*
X103783938Y-92816255D01*
X103797996Y-92798222D01*
X103811621Y-92780778D01*
X103823751Y-92765286D01*
X103833324Y-92753106D01*
X103839276Y-92745599D01*
X103840534Y-92744056D01*
X103845303Y-92738180D01*
X103854645Y-92726422D01*
X103867931Y-92709579D01*
X103884534Y-92688451D01*
X103903825Y-92663837D01*
X103925178Y-92636534D01*
X103940038Y-92617501D01*
X103954424Y-92599100D01*
X103970260Y-92578900D01*
X103984481Y-92560811D01*
X103986511Y-92558234D01*
X103998397Y-92543158D01*
X104006722Y-92532576D01*
X104013162Y-92524327D01*
X104019391Y-92516251D01*
X104027085Y-92506190D01*
X104037918Y-92491981D01*
X104039531Y-92489867D01*
X104050778Y-92475220D01*
X104060598Y-92462625D01*
X104067509Y-92453972D01*
X104069365Y-92451767D01*
X104075032Y-92444909D01*
X104083521Y-92434142D01*
X104089505Y-92426367D01*
X104097802Y-92415583D01*
X104103971Y-92407766D01*
X104106134Y-92405200D01*
X104109533Y-92401063D01*
X104116699Y-92391934D01*
X104126269Y-92379556D01*
X104129330Y-92375567D01*
X104140628Y-92361066D01*
X104151226Y-92347887D01*
X104159101Y-92338536D01*
X104160022Y-92337510D01*
X104166553Y-92329662D01*
X104169604Y-92324645D01*
X104169634Y-92324410D01*
X104172157Y-92319861D01*
X104178412Y-92311794D01*
X104180327Y-92309550D01*
X104187746Y-92300591D01*
X104198390Y-92287212D01*
X104210400Y-92271762D01*
X104215192Y-92265500D01*
X104225933Y-92251487D01*
X104234761Y-92240148D01*
X104240417Y-92233093D01*
X104241705Y-92231633D01*
X104244236Y-92228740D01*
X104249835Y-92221733D01*
X104259009Y-92209962D01*
X104272265Y-92192778D01*
X104290110Y-92169529D01*
X104291048Y-92168305D01*
X104303341Y-92152866D01*
X104313170Y-92142685D01*
X104322834Y-92136018D01*
X104334632Y-92131122D01*
X104343860Y-92128261D01*
X104362728Y-92122626D01*
X104382637Y-92116496D01*
X104394000Y-92112891D01*
X104409493Y-92107979D01*
X104431215Y-92101220D01*
X104457284Y-92093193D01*
X104485815Y-92084478D01*
X104514928Y-92075653D01*
X104525234Y-92072547D01*
X104537618Y-92068789D01*
X104555248Y-92063398D01*
X104575283Y-92057244D01*
X104586617Y-92053751D01*
X104610492Y-92046397D01*
X104637171Y-92038201D01*
X104661997Y-92030594D01*
X104669167Y-92028402D01*
X104689225Y-92022262D01*
X104714206Y-92014595D01*
X104740941Y-92006376D01*
X104766263Y-91998575D01*
X104766534Y-91998492D01*
X104799030Y-91988473D01*
X104825038Y-91980464D01*
X104846158Y-91973976D01*
X104863989Y-91968520D01*
X104880133Y-91963607D01*
X104896189Y-91958747D01*
X104913759Y-91953450D01*
X104918934Y-91951893D01*
X104942611Y-91944731D01*
X104968468Y-91936850D01*
X104992323Y-91929529D01*
X105001484Y-91926697D01*
X105023007Y-91920061D01*
X105048459Y-91912275D01*
X105073660Y-91904618D01*
X105084034Y-91901484D01*
X105103327Y-91895636D01*
X105120553Y-91890349D01*
X105133509Y-91886305D01*
X105139067Y-91884506D01*
X105147138Y-91881918D01*
X105161328Y-91877509D01*
X105179647Y-91871891D01*
X105200108Y-91865679D01*
X105200450Y-91865576D01*
X105226255Y-91857731D01*
X105255941Y-91848630D01*
X105285314Y-91839561D01*
X105304167Y-91833696D01*
X105328335Y-91826210D01*
X105353650Y-91818477D01*
X105376907Y-91811472D01*
X105393067Y-91806698D01*
X105414719Y-91800315D01*
X105437021Y-91793595D01*
X105458058Y-91787128D01*
X105475919Y-91781506D01*
X105488689Y-91777322D01*
X105493047Y-91775773D01*
X105497459Y-91775207D01*
X105498234Y-91778667D01*
G36*
X101757286Y-92132804D02*
G01*
X101773025Y-92135731D01*
X101785024Y-92138299D01*
X101820265Y-92146176D01*
X101850019Y-92152738D01*
X101877046Y-92158589D01*
X101904107Y-92164329D01*
X101911150Y-92165807D01*
X101928143Y-92169383D01*
X101942737Y-92172486D01*
X101952287Y-92174553D01*
X101953484Y-92174820D01*
X101965904Y-92177604D01*
X101984467Y-92181721D01*
X102007068Y-92186710D01*
X102031605Y-92192108D01*
X102055975Y-92197454D01*
X102078077Y-92202286D01*
X102095806Y-92206141D01*
X102105884Y-92208308D01*
X102137548Y-92215040D01*
X102162347Y-92220318D01*
X102181697Y-92224448D01*
X102197014Y-92227732D01*
X102209717Y-92230474D01*
X102221221Y-92232977D01*
X102226534Y-92234139D01*
X102245214Y-92238093D01*
X102267314Y-92242573D01*
X102287209Y-92246449D01*
X102303176Y-92249638D01*
X102315835Y-92252469D01*
X102322946Y-92254432D01*
X102323581Y-92254719D01*
X102329272Y-92256475D01*
X102340468Y-92258865D01*
X102349689Y-92260516D01*
X102364228Y-92263211D01*
X102385480Y-92267524D01*
X102411916Y-92273129D01*
X102442010Y-92279699D01*
X102474234Y-92286907D01*
X102491117Y-92290752D01*
X102503606Y-92293532D01*
X102520910Y-92297281D01*
X102539554Y-92301247D01*
X102541917Y-92301744D01*
X102564153Y-92306469D01*
X102589019Y-92311837D01*
X102609650Y-92316358D01*
X102630109Y-92320850D01*
X102651531Y-92325489D01*
X102669363Y-92329289D01*
X102669751Y-92329371D01*
X102695986Y-92334880D01*
X102999419Y-92638336D01*
X103041494Y-92680474D01*
X103081809Y-92720967D01*
X103119967Y-92759411D01*
X103155573Y-92795400D01*
X103188228Y-92828531D01*
X103217538Y-92858397D01*
X103243104Y-92884594D01*
X103264531Y-92906717D01*
X103281422Y-92924362D01*
X103293380Y-92937123D01*
X103300009Y-92944596D01*
X103301268Y-92946458D01*
X103297582Y-92946221D01*
X103289289Y-92941322D01*
X103278062Y-92932778D01*
X103276062Y-92931104D01*
X103260404Y-92917886D01*
X103243720Y-92903885D01*
X103232049Y-92894150D01*
X103204706Y-92871426D01*
X103182032Y-92852531D01*
X103162164Y-92835905D01*
X103143239Y-92819989D01*
X103123394Y-92803221D01*
X103115197Y-92796278D01*
X103100372Y-92783814D01*
X103083813Y-92770035D01*
X103075183Y-92762916D01*
X103060425Y-92750719D01*
X103045042Y-92737876D01*
X103037083Y-92731166D01*
X103023554Y-92719792D01*
X103007887Y-92706760D01*
X102998983Y-92699416D01*
X102984185Y-92687210D01*
X102968718Y-92674360D01*
X102960715Y-92667666D01*
X102950581Y-92659196D01*
X102935857Y-92646945D01*
X102918483Y-92632523D01*
X102900396Y-92617542D01*
X102899580Y-92616866D01*
X102879081Y-92599839D01*
X102856877Y-92581284D01*
X102835869Y-92563630D01*
X102821240Y-92551250D01*
X102802916Y-92535716D01*
X102781248Y-92517423D01*
X102759395Y-92499035D01*
X102745939Y-92487750D01*
X102705482Y-92453883D01*
X102651216Y-92449029D01*
X102627413Y-92446906D01*
X102598222Y-92444311D01*
X102566689Y-92441515D01*
X102535862Y-92438788D01*
X102522867Y-92437641D01*
X102497371Y-92435337D01*
X102473608Y-92433090D01*
X102453369Y-92431076D01*
X102438445Y-92429473D01*
X102431850Y-92428651D01*
X102420832Y-92427323D01*
X102403809Y-92425586D01*
X102383220Y-92423678D01*
X102364117Y-92422048D01*
X102348085Y-92420720D01*
X102331384Y-92419293D01*
X102313051Y-92417677D01*
X102292120Y-92415783D01*
X102267629Y-92413522D01*
X102238613Y-92410806D01*
X102204108Y-92407546D01*
X102163151Y-92403651D01*
X102114776Y-92399034D01*
X102112234Y-92398791D01*
X102081616Y-92395894D01*
X102047133Y-92392678D01*
X102012619Y-92389498D01*
X101981911Y-92386710D01*
X101976428Y-92386219D01*
X101952864Y-92384005D01*
X101931586Y-92381807D01*
X101914346Y-92379820D01*
X101902897Y-92378242D01*
X101899848Y-92377656D01*
X101891826Y-92372900D01*
X101882444Y-92361865D01*
X101871482Y-92344586D01*
X101859895Y-92324785D01*
X101851804Y-92311126D01*
X101846480Y-92302414D01*
X101843193Y-92297453D01*
X101841300Y-92295133D01*
X101835653Y-92287534D01*
X101829495Y-92276828D01*
X101825867Y-92268675D01*
X101822228Y-92262430D01*
X101820054Y-92261267D01*
X101816286Y-92257782D01*
X101812047Y-92249625D01*
X101806952Y-92239209D01*
X101799264Y-92225827D01*
X101794924Y-92218933D01*
X101784947Y-92203130D01*
X101774516Y-92185831D01*
X101771002Y-92179775D01*
X101764054Y-92168653D01*
X101758345Y-92161351D01*
X101755961Y-92159667D01*
X101752757Y-92156249D01*
X101752400Y-92153619D01*
X101749612Y-92145969D01*
X101745546Y-92140717D01*
X101741131Y-92134493D01*
X101741128Y-92131427D01*
X101746029Y-92131272D01*
X101757286Y-92132804D01*
G37*
X101757286Y-92132804D02*
X101773025Y-92135731D01*
X101785024Y-92138299D01*
X101820265Y-92146176D01*
X101850019Y-92152738D01*
X101877046Y-92158589D01*
X101904107Y-92164329D01*
X101911150Y-92165807D01*
X101928143Y-92169383D01*
X101942737Y-92172486D01*
X101952287Y-92174553D01*
X101953484Y-92174820D01*
X101965904Y-92177604D01*
X101984467Y-92181721D01*
X102007068Y-92186710D01*
X102031605Y-92192108D01*
X102055975Y-92197454D01*
X102078077Y-92202286D01*
X102095806Y-92206141D01*
X102105884Y-92208308D01*
X102137548Y-92215040D01*
X102162347Y-92220318D01*
X102181697Y-92224448D01*
X102197014Y-92227732D01*
X102209717Y-92230474D01*
X102221221Y-92232977D01*
X102226534Y-92234139D01*
X102245214Y-92238093D01*
X102267314Y-92242573D01*
X102287209Y-92246449D01*
X102303176Y-92249638D01*
X102315835Y-92252469D01*
X102322946Y-92254432D01*
X102323581Y-92254719D01*
X102329272Y-92256475D01*
X102340468Y-92258865D01*
X102349689Y-92260516D01*
X102364228Y-92263211D01*
X102385480Y-92267524D01*
X102411916Y-92273129D01*
X102442010Y-92279699D01*
X102474234Y-92286907D01*
X102491117Y-92290752D01*
X102503606Y-92293532D01*
X102520910Y-92297281D01*
X102539554Y-92301247D01*
X102541917Y-92301744D01*
X102564153Y-92306469D01*
X102589019Y-92311837D01*
X102609650Y-92316358D01*
X102630109Y-92320850D01*
X102651531Y-92325489D01*
X102669363Y-92329289D01*
X102669751Y-92329371D01*
X102695986Y-92334880D01*
X102999419Y-92638336D01*
X103041494Y-92680474D01*
X103081809Y-92720967D01*
X103119967Y-92759411D01*
X103155573Y-92795400D01*
X103188228Y-92828531D01*
X103217538Y-92858397D01*
X103243104Y-92884594D01*
X103264531Y-92906717D01*
X103281422Y-92924362D01*
X103293380Y-92937123D01*
X103300009Y-92944596D01*
X103301268Y-92946458D01*
X103297582Y-92946221D01*
X103289289Y-92941322D01*
X103278062Y-92932778D01*
X103276062Y-92931104D01*
X103260404Y-92917886D01*
X103243720Y-92903885D01*
X103232049Y-92894150D01*
X103204706Y-92871426D01*
X103182032Y-92852531D01*
X103162164Y-92835905D01*
X103143239Y-92819989D01*
X103123394Y-92803221D01*
X103115197Y-92796278D01*
X103100372Y-92783814D01*
X103083813Y-92770035D01*
X103075183Y-92762916D01*
X103060425Y-92750719D01*
X103045042Y-92737876D01*
X103037083Y-92731166D01*
X103023554Y-92719792D01*
X103007887Y-92706760D01*
X102998983Y-92699416D01*
X102984185Y-92687210D01*
X102968718Y-92674360D01*
X102960715Y-92667666D01*
X102950581Y-92659196D01*
X102935857Y-92646945D01*
X102918483Y-92632523D01*
X102900396Y-92617542D01*
X102899580Y-92616866D01*
X102879081Y-92599839D01*
X102856877Y-92581284D01*
X102835869Y-92563630D01*
X102821240Y-92551250D01*
X102802916Y-92535716D01*
X102781248Y-92517423D01*
X102759395Y-92499035D01*
X102745939Y-92487750D01*
X102705482Y-92453883D01*
X102651216Y-92449029D01*
X102627413Y-92446906D01*
X102598222Y-92444311D01*
X102566689Y-92441515D01*
X102535862Y-92438788D01*
X102522867Y-92437641D01*
X102497371Y-92435337D01*
X102473608Y-92433090D01*
X102453369Y-92431076D01*
X102438445Y-92429473D01*
X102431850Y-92428651D01*
X102420832Y-92427323D01*
X102403809Y-92425586D01*
X102383220Y-92423678D01*
X102364117Y-92422048D01*
X102348085Y-92420720D01*
X102331384Y-92419293D01*
X102313051Y-92417677D01*
X102292120Y-92415783D01*
X102267629Y-92413522D01*
X102238613Y-92410806D01*
X102204108Y-92407546D01*
X102163151Y-92403651D01*
X102114776Y-92399034D01*
X102112234Y-92398791D01*
X102081616Y-92395894D01*
X102047133Y-92392678D01*
X102012619Y-92389498D01*
X101981911Y-92386710D01*
X101976428Y-92386219D01*
X101952864Y-92384005D01*
X101931586Y-92381807D01*
X101914346Y-92379820D01*
X101902897Y-92378242D01*
X101899848Y-92377656D01*
X101891826Y-92372900D01*
X101882444Y-92361865D01*
X101871482Y-92344586D01*
X101859895Y-92324785D01*
X101851804Y-92311126D01*
X101846480Y-92302414D01*
X101843193Y-92297453D01*
X101841300Y-92295133D01*
X101835653Y-92287534D01*
X101829495Y-92276828D01*
X101825867Y-92268675D01*
X101822228Y-92262430D01*
X101820054Y-92261267D01*
X101816286Y-92257782D01*
X101812047Y-92249625D01*
X101806952Y-92239209D01*
X101799264Y-92225827D01*
X101794924Y-92218933D01*
X101784947Y-92203130D01*
X101774516Y-92185831D01*
X101771002Y-92179775D01*
X101764054Y-92168653D01*
X101758345Y-92161351D01*
X101755961Y-92159667D01*
X101752757Y-92156249D01*
X101752400Y-92153619D01*
X101749612Y-92145969D01*
X101745546Y-92140717D01*
X101741131Y-92134493D01*
X101741128Y-92131427D01*
X101746029Y-92131272D01*
X101757286Y-92132804D01*
G36*
X105281006Y-92132317D02*
G01*
X105282937Y-92135226D01*
X105283000Y-92136303D01*
X105280999Y-92141991D01*
X105279261Y-92142733D01*
X105274917Y-92146169D01*
X105272952Y-92150142D01*
X105269783Y-92156385D01*
X105262970Y-92168125D01*
X105253472Y-92183757D01*
X105242251Y-92201672D01*
X105240696Y-92204117D01*
X105229171Y-92222408D01*
X105219087Y-92238811D01*
X105211456Y-92251648D01*
X105207295Y-92259243D01*
X105207086Y-92259700D01*
X105203021Y-92267389D01*
X105195702Y-92279822D01*
X105186515Y-92294662D01*
X105183815Y-92298902D01*
X105174969Y-92313168D01*
X105168248Y-92324897D01*
X105164736Y-92332159D01*
X105164467Y-92333276D01*
X105161724Y-92337356D01*
X105160915Y-92337467D01*
X105157066Y-92340925D01*
X105151577Y-92349624D01*
X105149311Y-92354018D01*
X105142621Y-92365438D01*
X105135754Y-92373730D01*
X105133965Y-92375127D01*
X105127452Y-92377011D01*
X105114069Y-92379328D01*
X105095389Y-92381859D01*
X105072984Y-92384383D01*
X105055610Y-92386057D01*
X105024649Y-92388863D01*
X104989705Y-92392077D01*
X104954618Y-92395342D01*
X104923226Y-92398303D01*
X104916817Y-92398915D01*
X104854851Y-92404834D01*
X104799247Y-92410116D01*
X104747941Y-92414955D01*
X104698869Y-92419543D01*
X104649967Y-92424071D01*
X104599171Y-92428733D01*
X104544416Y-92433721D01*
X104512534Y-92436612D01*
X104485657Y-92439119D01*
X104458513Y-92441776D01*
X104433624Y-92444328D01*
X104413513Y-92446520D01*
X104406700Y-92447321D01*
X104386765Y-92449427D01*
X104366969Y-92450989D01*
X104351114Y-92451715D01*
X104349099Y-92451734D01*
X104339311Y-92452043D01*
X104331308Y-92453581D01*
X104323275Y-92457313D01*
X104313393Y-92464205D01*
X104299845Y-92475222D01*
X104291271Y-92482458D01*
X104272873Y-92497985D01*
X104250939Y-92516394D01*
X104228462Y-92535178D01*
X104211688Y-92549133D01*
X104191217Y-92566179D01*
X104169033Y-92584754D01*
X104148040Y-92602420D01*
X104133481Y-92614750D01*
X104118921Y-92627063D01*
X104099592Y-92643301D01*
X104077252Y-92661995D01*
X104053658Y-92681675D01*
X104031482Y-92700109D01*
X104010631Y-92717420D01*
X103991507Y-92733319D01*
X103975253Y-92746854D01*
X103963010Y-92757073D01*
X103955922Y-92763027D01*
X103955239Y-92763609D01*
X103947783Y-92769856D01*
X103935944Y-92779627D01*
X103921918Y-92791113D01*
X103917558Y-92794666D01*
X103903217Y-92806423D01*
X103890326Y-92817136D01*
X103881123Y-92824940D01*
X103879437Y-92826416D01*
X103871751Y-92833013D01*
X103859725Y-92843072D01*
X103845597Y-92854725D01*
X103841390Y-92858166D01*
X103826259Y-92870668D01*
X103807371Y-92886500D01*
X103787362Y-92903442D01*
X103772235Y-92916375D01*
X103753695Y-92932128D01*
X103740572Y-92942747D01*
X103732024Y-92948798D01*
X103727209Y-92950849D01*
X103725283Y-92949467D01*
X103725134Y-92948055D01*
X103728065Y-92944676D01*
X103736593Y-92935720D01*
X103750319Y-92921589D01*
X103768847Y-92902686D01*
X103791778Y-92879412D01*
X103818714Y-92852169D01*
X103849258Y-92821360D01*
X103883010Y-92787386D01*
X103919574Y-92750650D01*
X103958551Y-92711553D01*
X103999544Y-92670498D01*
X104029955Y-92640080D01*
X104081718Y-92588374D01*
X104127834Y-92542402D01*
X104168601Y-92501876D01*
X104204322Y-92466505D01*
X104235294Y-92435999D01*
X104261819Y-92410069D01*
X104284197Y-92388423D01*
X104302728Y-92370772D01*
X104317712Y-92356826D01*
X104329449Y-92346294D01*
X104338240Y-92338887D01*
X104344383Y-92334315D01*
X104348181Y-92332287D01*
X104348513Y-92332196D01*
X104359508Y-92329737D01*
X104375446Y-92326247D01*
X104392990Y-92322457D01*
X104394000Y-92322241D01*
X104414060Y-92317925D01*
X104435106Y-92313369D01*
X104451150Y-92309871D01*
X104469403Y-92305908D01*
X104490654Y-92301347D01*
X104506184Y-92298047D01*
X104521451Y-92294778D01*
X104542459Y-92290218D01*
X104566685Y-92284918D01*
X104591605Y-92279428D01*
X104597200Y-92278189D01*
X104635500Y-92269735D01*
X104666823Y-92262897D01*
X104692447Y-92257401D01*
X104713649Y-92252975D01*
X104731707Y-92249344D01*
X104734784Y-92248742D01*
X104742238Y-92247270D01*
X104750420Y-92245600D01*
X104760416Y-92243498D01*
X104773311Y-92240730D01*
X104790192Y-92237060D01*
X104812143Y-92232255D01*
X104840250Y-92226079D01*
X104873425Y-92218777D01*
X104893245Y-92214479D01*
X104912343Y-92210454D01*
X104927550Y-92207364D01*
X104931634Y-92206576D01*
X104942688Y-92204357D01*
X104959910Y-92200728D01*
X104981209Y-92196138D01*
X105004491Y-92191034D01*
X105012067Y-92189355D01*
X105036787Y-92183883D01*
X105061396Y-92178477D01*
X105083371Y-92173687D01*
X105100191Y-92170066D01*
X105103084Y-92169453D01*
X105123490Y-92165124D01*
X105145615Y-92160400D01*
X105160234Y-92157260D01*
X105179316Y-92153228D01*
X105199339Y-92149126D01*
X105211034Y-92146807D01*
X105226747Y-92143544D01*
X105241099Y-92140214D01*
X105247017Y-92138658D01*
X105264467Y-92133940D01*
X105275323Y-92131857D01*
X105281006Y-92132317D01*
G37*
X105281006Y-92132317D02*
X105282937Y-92135226D01*
X105283000Y-92136303D01*
X105280999Y-92141991D01*
X105279261Y-92142733D01*
X105274917Y-92146169D01*
X105272952Y-92150142D01*
X105269783Y-92156385D01*
X105262970Y-92168125D01*
X105253472Y-92183757D01*
X105242251Y-92201672D01*
X105240696Y-92204117D01*
X105229171Y-92222408D01*
X105219087Y-92238811D01*
X105211456Y-92251648D01*
X105207295Y-92259243D01*
X105207086Y-92259700D01*
X105203021Y-92267389D01*
X105195702Y-92279822D01*
X105186515Y-92294662D01*
X105183815Y-92298902D01*
X105174969Y-92313168D01*
X105168248Y-92324897D01*
X105164736Y-92332159D01*
X105164467Y-92333276D01*
X105161724Y-92337356D01*
X105160915Y-92337467D01*
X105157066Y-92340925D01*
X105151577Y-92349624D01*
X105149311Y-92354018D01*
X105142621Y-92365438D01*
X105135754Y-92373730D01*
X105133965Y-92375127D01*
X105127452Y-92377011D01*
X105114069Y-92379328D01*
X105095389Y-92381859D01*
X105072984Y-92384383D01*
X105055610Y-92386057D01*
X105024649Y-92388863D01*
X104989705Y-92392077D01*
X104954618Y-92395342D01*
X104923226Y-92398303D01*
X104916817Y-92398915D01*
X104854851Y-92404834D01*
X104799247Y-92410116D01*
X104747941Y-92414955D01*
X104698869Y-92419543D01*
X104649967Y-92424071D01*
X104599171Y-92428733D01*
X104544416Y-92433721D01*
X104512534Y-92436612D01*
X104485657Y-92439119D01*
X104458513Y-92441776D01*
X104433624Y-92444328D01*
X104413513Y-92446520D01*
X104406700Y-92447321D01*
X104386765Y-92449427D01*
X104366969Y-92450989D01*
X104351114Y-92451715D01*
X104349099Y-92451734D01*
X104339311Y-92452043D01*
X104331308Y-92453581D01*
X104323275Y-92457313D01*
X104313393Y-92464205D01*
X104299845Y-92475222D01*
X104291271Y-92482458D01*
X104272873Y-92497985D01*
X104250939Y-92516394D01*
X104228462Y-92535178D01*
X104211688Y-92549133D01*
X104191217Y-92566179D01*
X104169033Y-92584754D01*
X104148040Y-92602420D01*
X104133481Y-92614750D01*
X104118921Y-92627063D01*
X104099592Y-92643301D01*
X104077252Y-92661995D01*
X104053658Y-92681675D01*
X104031482Y-92700109D01*
X104010631Y-92717420D01*
X103991507Y-92733319D01*
X103975253Y-92746854D01*
X103963010Y-92757073D01*
X103955922Y-92763027D01*
X103955239Y-92763609D01*
X103947783Y-92769856D01*
X103935944Y-92779627D01*
X103921918Y-92791113D01*
X103917558Y-92794666D01*
X103903217Y-92806423D01*
X103890326Y-92817136D01*
X103881123Y-92824940D01*
X103879437Y-92826416D01*
X103871751Y-92833013D01*
X103859725Y-92843072D01*
X103845597Y-92854725D01*
X103841390Y-92858166D01*
X103826259Y-92870668D01*
X103807371Y-92886500D01*
X103787362Y-92903442D01*
X103772235Y-92916375D01*
X103753695Y-92932128D01*
X103740572Y-92942747D01*
X103732024Y-92948798D01*
X103727209Y-92950849D01*
X103725283Y-92949467D01*
X103725134Y-92948055D01*
X103728065Y-92944676D01*
X103736593Y-92935720D01*
X103750319Y-92921589D01*
X103768847Y-92902686D01*
X103791778Y-92879412D01*
X103818714Y-92852169D01*
X103849258Y-92821360D01*
X103883010Y-92787386D01*
X103919574Y-92750650D01*
X103958551Y-92711553D01*
X103999544Y-92670498D01*
X104029955Y-92640080D01*
X104081718Y-92588374D01*
X104127834Y-92542402D01*
X104168601Y-92501876D01*
X104204322Y-92466505D01*
X104235294Y-92435999D01*
X104261819Y-92410069D01*
X104284197Y-92388423D01*
X104302728Y-92370772D01*
X104317712Y-92356826D01*
X104329449Y-92346294D01*
X104338240Y-92338887D01*
X104344383Y-92334315D01*
X104348181Y-92332287D01*
X104348513Y-92332196D01*
X104359508Y-92329737D01*
X104375446Y-92326247D01*
X104392990Y-92322457D01*
X104394000Y-92322241D01*
X104414060Y-92317925D01*
X104435106Y-92313369D01*
X104451150Y-92309871D01*
X104469403Y-92305908D01*
X104490654Y-92301347D01*
X104506184Y-92298047D01*
X104521451Y-92294778D01*
X104542459Y-92290218D01*
X104566685Y-92284918D01*
X104591605Y-92279428D01*
X104597200Y-92278189D01*
X104635500Y-92269735D01*
X104666823Y-92262897D01*
X104692447Y-92257401D01*
X104713649Y-92252975D01*
X104731707Y-92249344D01*
X104734784Y-92248742D01*
X104742238Y-92247270D01*
X104750420Y-92245600D01*
X104760416Y-92243498D01*
X104773311Y-92240730D01*
X104790192Y-92237060D01*
X104812143Y-92232255D01*
X104840250Y-92226079D01*
X104873425Y-92218777D01*
X104893245Y-92214479D01*
X104912343Y-92210454D01*
X104927550Y-92207364D01*
X104931634Y-92206576D01*
X104942688Y-92204357D01*
X104959910Y-92200728D01*
X104981209Y-92196138D01*
X105004491Y-92191034D01*
X105012067Y-92189355D01*
X105036787Y-92183883D01*
X105061396Y-92178477D01*
X105083371Y-92173687D01*
X105100191Y-92170066D01*
X105103084Y-92169453D01*
X105123490Y-92165124D01*
X105145615Y-92160400D01*
X105160234Y-92157260D01*
X105179316Y-92153228D01*
X105199339Y-92149126D01*
X105211034Y-92146807D01*
X105226747Y-92143544D01*
X105241099Y-92140214D01*
X105247017Y-92138658D01*
X105264467Y-92133940D01*
X105275323Y-92131857D01*
X105281006Y-92132317D01*
G36*
X101931259Y-92402485D02*
G01*
X101942308Y-92403799D01*
X101959550Y-92405496D01*
X101980733Y-92407367D01*
X102003603Y-92409204D01*
X102006400Y-92409416D01*
X102031965Y-92411462D01*
X102058679Y-92413807D01*
X102083282Y-92416153D01*
X102101650Y-92418103D01*
X102121957Y-92420256D01*
X102147143Y-92422650D01*
X102173637Y-92424959D01*
X102192667Y-92426471D01*
X102228311Y-92429258D01*
X102271230Y-92432802D01*
X102320276Y-92437002D01*
X102374301Y-92441761D01*
X102432155Y-92446977D01*
X102459367Y-92449470D01*
X102488926Y-92452153D01*
X102523406Y-92455226D01*
X102559289Y-92458378D01*
X102593058Y-92461298D01*
X102606495Y-92462442D01*
X102631668Y-92464699D01*
X102654298Y-92466963D01*
X102672877Y-92469065D01*
X102685900Y-92470834D01*
X102691666Y-92472019D01*
X102695339Y-92473782D01*
X102700290Y-92477002D01*
X102707441Y-92482418D01*
X102717716Y-92490774D01*
X102732039Y-92502810D01*
X102751334Y-92519269D01*
X102763942Y-92530083D01*
X102777048Y-92541209D01*
X102793449Y-92554953D01*
X102809881Y-92568584D01*
X102811965Y-92570300D01*
X102824759Y-92581322D01*
X102834555Y-92590707D01*
X102839821Y-92596949D01*
X102840317Y-92598201D01*
X102837098Y-92599444D01*
X102827226Y-92600589D01*
X102810422Y-92601648D01*
X102786405Y-92602630D01*
X102754897Y-92603545D01*
X102715616Y-92604405D01*
X102668284Y-92605220D01*
X102642458Y-92605601D01*
X102592538Y-92606302D01*
X102536508Y-92607086D01*
X102476726Y-92607922D01*
X102415547Y-92608776D01*
X102355329Y-92609615D01*
X102298427Y-92610406D01*
X102247198Y-92611117D01*
X102243109Y-92611174D01*
X102041667Y-92613965D01*
X102034420Y-92603774D01*
X102028858Y-92595511D01*
X102020400Y-92582440D01*
X102010591Y-92566959D01*
X102007386Y-92561833D01*
X101998178Y-92547472D01*
X101990431Y-92536145D01*
X101985352Y-92529589D01*
X101984300Y-92528672D01*
X101981034Y-92523836D01*
X101981000Y-92523250D01*
X101978870Y-92518424D01*
X101973001Y-92507791D01*
X101964174Y-92492702D01*
X101953172Y-92474508D01*
X101947134Y-92464723D01*
X101935322Y-92445383D01*
X101925304Y-92428358D01*
X101917866Y-92415032D01*
X101913795Y-92406791D01*
X101913267Y-92405030D01*
X101916181Y-92401928D01*
X101925631Y-92401782D01*
X101931259Y-92402485D01*
G37*
X101931259Y-92402485D02*
X101942308Y-92403799D01*
X101959550Y-92405496D01*
X101980733Y-92407367D01*
X102003603Y-92409204D01*
X102006400Y-92409416D01*
X102031965Y-92411462D01*
X102058679Y-92413807D01*
X102083282Y-92416153D01*
X102101650Y-92418103D01*
X102121957Y-92420256D01*
X102147143Y-92422650D01*
X102173637Y-92424959D01*
X102192667Y-92426471D01*
X102228311Y-92429258D01*
X102271230Y-92432802D01*
X102320276Y-92437002D01*
X102374301Y-92441761D01*
X102432155Y-92446977D01*
X102459367Y-92449470D01*
X102488926Y-92452153D01*
X102523406Y-92455226D01*
X102559289Y-92458378D01*
X102593058Y-92461298D01*
X102606495Y-92462442D01*
X102631668Y-92464699D01*
X102654298Y-92466963D01*
X102672877Y-92469065D01*
X102685900Y-92470834D01*
X102691666Y-92472019D01*
X102695339Y-92473782D01*
X102700290Y-92477002D01*
X102707441Y-92482418D01*
X102717716Y-92490774D01*
X102732039Y-92502810D01*
X102751334Y-92519269D01*
X102763942Y-92530083D01*
X102777048Y-92541209D01*
X102793449Y-92554953D01*
X102809881Y-92568584D01*
X102811965Y-92570300D01*
X102824759Y-92581322D01*
X102834555Y-92590707D01*
X102839821Y-92596949D01*
X102840317Y-92598201D01*
X102837098Y-92599444D01*
X102827226Y-92600589D01*
X102810422Y-92601648D01*
X102786405Y-92602630D01*
X102754897Y-92603545D01*
X102715616Y-92604405D01*
X102668284Y-92605220D01*
X102642458Y-92605601D01*
X102592538Y-92606302D01*
X102536508Y-92607086D01*
X102476726Y-92607922D01*
X102415547Y-92608776D01*
X102355329Y-92609615D01*
X102298427Y-92610406D01*
X102247198Y-92611117D01*
X102243109Y-92611174D01*
X102041667Y-92613965D01*
X102034420Y-92603774D01*
X102028858Y-92595511D01*
X102020400Y-92582440D01*
X102010591Y-92566959D01*
X102007386Y-92561833D01*
X101998178Y-92547472D01*
X101990431Y-92536145D01*
X101985352Y-92529589D01*
X101984300Y-92528672D01*
X101981034Y-92523836D01*
X101981000Y-92523250D01*
X101978870Y-92518424D01*
X101973001Y-92507791D01*
X101964174Y-92492702D01*
X101953172Y-92474508D01*
X101947134Y-92464723D01*
X101935322Y-92445383D01*
X101925304Y-92428358D01*
X101917866Y-92415032D01*
X101913795Y-92406791D01*
X101913267Y-92405030D01*
X101916181Y-92401928D01*
X101925631Y-92401782D01*
X101931259Y-92402485D01*
G36*
X105115140Y-92401939D02*
G01*
X105116390Y-92402279D01*
X105115081Y-92406450D01*
X105109978Y-92416300D01*
X105101875Y-92430391D01*
X105091569Y-92447288D01*
X105090684Y-92448701D01*
X105080005Y-92466080D01*
X105071224Y-92481072D01*
X105065220Y-92492124D01*
X105062872Y-92497685D01*
X105062867Y-92497790D01*
X105059952Y-92502328D01*
X105058634Y-92502567D01*
X105054582Y-92505835D01*
X105054400Y-92507166D01*
X105052150Y-92513079D01*
X105046411Y-92523045D01*
X105042222Y-92529391D01*
X105034235Y-92541396D01*
X105023818Y-92557654D01*
X105012893Y-92575158D01*
X105010033Y-92579825D01*
X104990024Y-92612633D01*
X104866637Y-92611819D01*
X104832912Y-92611550D01*
X104792681Y-92611151D01*
X104747903Y-92610646D01*
X104700539Y-92610060D01*
X104652547Y-92609416D01*
X104605888Y-92608739D01*
X104569684Y-92608171D01*
X104526747Y-92607501D01*
X104481843Y-92606854D01*
X104436733Y-92606254D01*
X104393177Y-92605720D01*
X104352938Y-92605276D01*
X104317776Y-92604943D01*
X104291342Y-92604752D01*
X104258444Y-92604508D01*
X104233081Y-92604150D01*
X104214320Y-92603616D01*
X104201229Y-92602843D01*
X104192874Y-92601771D01*
X104188325Y-92600337D01*
X104186649Y-92598480D01*
X104186567Y-92597817D01*
X104188653Y-92592180D01*
X104190424Y-92591467D01*
X104194863Y-92588814D01*
X104204747Y-92581373D01*
X104219137Y-92569913D01*
X104237093Y-92555208D01*
X104257677Y-92538028D01*
X104279949Y-92519146D01*
X104302971Y-92499334D01*
X104310500Y-92492786D01*
X104322559Y-92482928D01*
X104333294Y-92475276D01*
X104339226Y-92472009D01*
X104346092Y-92470639D01*
X104359849Y-92468794D01*
X104378945Y-92466651D01*
X104401830Y-92464385D01*
X104422726Y-92462527D01*
X104454532Y-92459807D01*
X104490484Y-92456679D01*
X104526821Y-92453472D01*
X104559781Y-92450518D01*
X104569684Y-92449617D01*
X104638988Y-92443345D01*
X104701142Y-92437848D01*
X104755826Y-92433152D01*
X104802720Y-92429286D01*
X104840617Y-92426342D01*
X104865318Y-92424369D01*
X104890711Y-92422114D01*
X104913642Y-92419871D01*
X104929517Y-92418109D01*
X104950805Y-92415796D01*
X104975594Y-92413524D01*
X104998929Y-92411744D01*
X105001484Y-92411579D01*
X105025063Y-92409816D01*
X105051440Y-92407418D01*
X105075215Y-92404881D01*
X105076932Y-92404676D01*
X105093778Y-92402891D01*
X105107190Y-92401938D01*
X105115140Y-92401939D01*
G37*
X105115140Y-92401939D02*
X105116390Y-92402279D01*
X105115081Y-92406450D01*
X105109978Y-92416300D01*
X105101875Y-92430391D01*
X105091569Y-92447288D01*
X105090684Y-92448701D01*
X105080005Y-92466080D01*
X105071224Y-92481072D01*
X105065220Y-92492124D01*
X105062872Y-92497685D01*
X105062867Y-92497790D01*
X105059952Y-92502328D01*
X105058634Y-92502567D01*
X105054582Y-92505835D01*
X105054400Y-92507166D01*
X105052150Y-92513079D01*
X105046411Y-92523045D01*
X105042222Y-92529391D01*
X105034235Y-92541396D01*
X105023818Y-92557654D01*
X105012893Y-92575158D01*
X105010033Y-92579825D01*
X104990024Y-92612633D01*
X104866637Y-92611819D01*
X104832912Y-92611550D01*
X104792681Y-92611151D01*
X104747903Y-92610646D01*
X104700539Y-92610060D01*
X104652547Y-92609416D01*
X104605888Y-92608739D01*
X104569684Y-92608171D01*
X104526747Y-92607501D01*
X104481843Y-92606854D01*
X104436733Y-92606254D01*
X104393177Y-92605720D01*
X104352938Y-92605276D01*
X104317776Y-92604943D01*
X104291342Y-92604752D01*
X104258444Y-92604508D01*
X104233081Y-92604150D01*
X104214320Y-92603616D01*
X104201229Y-92602843D01*
X104192874Y-92601771D01*
X104188325Y-92600337D01*
X104186649Y-92598480D01*
X104186567Y-92597817D01*
X104188653Y-92592180D01*
X104190424Y-92591467D01*
X104194863Y-92588814D01*
X104204747Y-92581373D01*
X104219137Y-92569913D01*
X104237093Y-92555208D01*
X104257677Y-92538028D01*
X104279949Y-92519146D01*
X104302971Y-92499334D01*
X104310500Y-92492786D01*
X104322559Y-92482928D01*
X104333294Y-92475276D01*
X104339226Y-92472009D01*
X104346092Y-92470639D01*
X104359849Y-92468794D01*
X104378945Y-92466651D01*
X104401830Y-92464385D01*
X104422726Y-92462527D01*
X104454532Y-92459807D01*
X104490484Y-92456679D01*
X104526821Y-92453472D01*
X104559781Y-92450518D01*
X104569684Y-92449617D01*
X104638988Y-92443345D01*
X104701142Y-92437848D01*
X104755826Y-92433152D01*
X104802720Y-92429286D01*
X104840617Y-92426342D01*
X104865318Y-92424369D01*
X104890711Y-92422114D01*
X104913642Y-92419871D01*
X104929517Y-92418109D01*
X104950805Y-92415796D01*
X104975594Y-92413524D01*
X104998929Y-92411744D01*
X105001484Y-92411579D01*
X105025063Y-92409816D01*
X105051440Y-92407418D01*
X105075215Y-92404881D01*
X105076932Y-92404676D01*
X105093778Y-92402891D01*
X105107190Y-92401938D01*
X105115140Y-92401939D01*
G36*
X101322231Y-91445994D02*
G01*
X101332849Y-91450913D01*
X101348790Y-91458450D01*
X101368909Y-91468060D01*
X101392060Y-91479202D01*
X101399573Y-91482833D01*
X101426127Y-91495656D01*
X101452541Y-91508367D01*
X101476974Y-91520083D01*
X101497585Y-91529921D01*
X101512532Y-91536999D01*
X101513217Y-91537320D01*
X101529923Y-91545210D01*
X101551657Y-91555550D01*
X101575827Y-91567103D01*
X101599839Y-91578632D01*
X101604234Y-91580749D01*
X101633113Y-91594645D01*
X101661426Y-91608220D01*
X101690938Y-91622317D01*
X101723419Y-91637779D01*
X101760637Y-91655451D01*
X101788384Y-91668606D01*
X101809864Y-91678814D01*
X101835484Y-91691033D01*
X101861758Y-91703597D01*
X101881517Y-91713073D01*
X101924282Y-91733589D01*
X101971205Y-91756047D01*
X102018788Y-91778777D01*
X102063531Y-91800106D01*
X102076250Y-91806159D01*
X102095065Y-91815127D01*
X102118587Y-91826364D01*
X102143891Y-91838473D01*
X102168053Y-91850055D01*
X102169384Y-91850693D01*
X102193382Y-91862186D01*
X102218696Y-91874266D01*
X102242402Y-91885540D01*
X102261578Y-91894618D01*
X102262517Y-91895061D01*
X102281660Y-91904127D01*
X102305367Y-91915419D01*
X102330577Y-91927477D01*
X102353534Y-91938505D01*
X102398622Y-91960216D01*
X102436870Y-91978614D01*
X102469057Y-91994073D01*
X102495965Y-92006968D01*
X102518374Y-92017672D01*
X102537065Y-92026559D01*
X102552818Y-92034003D01*
X102560967Y-92037830D01*
X102597531Y-92055051D01*
X102626881Y-92069093D01*
X102649536Y-92080220D01*
X102666015Y-92088699D01*
X102676839Y-92094793D01*
X102682526Y-92098768D01*
X102683733Y-92100510D01*
X102680386Y-92104036D01*
X102671057Y-92102872D01*
X102664683Y-92100611D01*
X102656631Y-92097771D01*
X102643151Y-92093443D01*
X102626947Y-92088491D01*
X102624467Y-92087753D01*
X102606454Y-92082347D01*
X102589178Y-92077051D01*
X102576246Y-92072970D01*
X102575783Y-92072820D01*
X102562035Y-92068517D01*
X102544768Y-92063351D01*
X102533450Y-92060077D01*
X102515524Y-92054793D01*
X102494614Y-92048360D01*
X102478417Y-92043194D01*
X102461160Y-92037679D01*
X102439267Y-92030841D01*
X102416218Y-92023761D01*
X102404334Y-92020163D01*
X102375546Y-92011472D01*
X102345908Y-92002467D01*
X102317046Y-91993648D01*
X102290588Y-91985513D01*
X102268161Y-91978563D01*
X102251392Y-91973297D01*
X102245584Y-91971433D01*
X102232961Y-91967447D01*
X102215818Y-91962184D01*
X102197759Y-91956748D01*
X102196900Y-91956492D01*
X102177524Y-91950656D01*
X102157590Y-91944529D01*
X102141867Y-91939582D01*
X102123936Y-91933966D01*
X102103750Y-91927844D01*
X102093184Y-91924728D01*
X102067248Y-91917059D01*
X102038923Y-91908467D01*
X102012080Y-91900138D01*
X101995817Y-91894958D01*
X101983714Y-91891118D01*
X101964684Y-91885176D01*
X101939900Y-91877496D01*
X101910535Y-91868439D01*
X101877763Y-91858367D01*
X101842757Y-91847643D01*
X101818017Y-91840083D01*
X101797547Y-91833808D01*
X101779182Y-91828125D01*
X101764909Y-91823655D01*
X101756714Y-91821015D01*
X101756634Y-91820988D01*
X101747455Y-91818079D01*
X101733054Y-91813734D01*
X101716353Y-91808834D01*
X101714300Y-91808241D01*
X101696264Y-91802944D01*
X101678971Y-91797705D01*
X101666042Y-91793622D01*
X101665617Y-91793482D01*
X101650951Y-91788739D01*
X101631378Y-91782564D01*
X101608844Y-91775552D01*
X101585296Y-91768301D01*
X101562678Y-91761409D01*
X101542937Y-91755472D01*
X101528018Y-91751087D01*
X101521684Y-91749314D01*
X101510666Y-91746138D01*
X101502778Y-91742545D01*
X101496256Y-91736911D01*
X101489337Y-91727613D01*
X101480260Y-91713027D01*
X101477719Y-91708817D01*
X101466307Y-91689897D01*
X101458387Y-91676872D01*
X101453084Y-91668384D01*
X101449522Y-91663073D01*
X101446826Y-91659582D01*
X101444120Y-91656553D01*
X101443837Y-91656247D01*
X101437876Y-91647907D01*
X101431942Y-91637018D01*
X101425688Y-91624898D01*
X101416990Y-91609660D01*
X101406936Y-91593019D01*
X101396611Y-91576688D01*
X101387101Y-91562381D01*
X101379494Y-91551812D01*
X101374874Y-91546695D01*
X101374595Y-91546539D01*
X101371480Y-91541678D01*
X101371400Y-91540647D01*
X101369246Y-91535346D01*
X101363549Y-91524904D01*
X101355460Y-91511169D01*
X101346128Y-91495984D01*
X101336704Y-91481196D01*
X101328337Y-91468651D01*
X101322177Y-91460195D01*
X101319682Y-91457639D01*
X101317083Y-91453562D01*
X101316336Y-91447451D01*
X101318031Y-91444234D01*
X101318081Y-91444233D01*
X101322231Y-91445994D01*
G37*
X101322231Y-91445994D02*
X101332849Y-91450913D01*
X101348790Y-91458450D01*
X101368909Y-91468060D01*
X101392060Y-91479202D01*
X101399573Y-91482833D01*
X101426127Y-91495656D01*
X101452541Y-91508367D01*
X101476974Y-91520083D01*
X101497585Y-91529921D01*
X101512532Y-91536999D01*
X101513217Y-91537320D01*
X101529923Y-91545210D01*
X101551657Y-91555550D01*
X101575827Y-91567103D01*
X101599839Y-91578632D01*
X101604234Y-91580749D01*
X101633113Y-91594645D01*
X101661426Y-91608220D01*
X101690938Y-91622317D01*
X101723419Y-91637779D01*
X101760637Y-91655451D01*
X101788384Y-91668606D01*
X101809864Y-91678814D01*
X101835484Y-91691033D01*
X101861758Y-91703597D01*
X101881517Y-91713073D01*
X101924282Y-91733589D01*
X101971205Y-91756047D01*
X102018788Y-91778777D01*
X102063531Y-91800106D01*
X102076250Y-91806159D01*
X102095065Y-91815127D01*
X102118587Y-91826364D01*
X102143891Y-91838473D01*
X102168053Y-91850055D01*
X102169384Y-91850693D01*
X102193382Y-91862186D01*
X102218696Y-91874266D01*
X102242402Y-91885540D01*
X102261578Y-91894618D01*
X102262517Y-91895061D01*
X102281660Y-91904127D01*
X102305367Y-91915419D01*
X102330577Y-91927477D01*
X102353534Y-91938505D01*
X102398622Y-91960216D01*
X102436870Y-91978614D01*
X102469057Y-91994073D01*
X102495965Y-92006968D01*
X102518374Y-92017672D01*
X102537065Y-92026559D01*
X102552818Y-92034003D01*
X102560967Y-92037830D01*
X102597531Y-92055051D01*
X102626881Y-92069093D01*
X102649536Y-92080220D01*
X102666015Y-92088699D01*
X102676839Y-92094793D01*
X102682526Y-92098768D01*
X102683733Y-92100510D01*
X102680386Y-92104036D01*
X102671057Y-92102872D01*
X102664683Y-92100611D01*
X102656631Y-92097771D01*
X102643151Y-92093443D01*
X102626947Y-92088491D01*
X102624467Y-92087753D01*
X102606454Y-92082347D01*
X102589178Y-92077051D01*
X102576246Y-92072970D01*
X102575783Y-92072820D01*
X102562035Y-92068517D01*
X102544768Y-92063351D01*
X102533450Y-92060077D01*
X102515524Y-92054793D01*
X102494614Y-92048360D01*
X102478417Y-92043194D01*
X102461160Y-92037679D01*
X102439267Y-92030841D01*
X102416218Y-92023761D01*
X102404334Y-92020163D01*
X102375546Y-92011472D01*
X102345908Y-92002467D01*
X102317046Y-91993648D01*
X102290588Y-91985513D01*
X102268161Y-91978563D01*
X102251392Y-91973297D01*
X102245584Y-91971433D01*
X102232961Y-91967447D01*
X102215818Y-91962184D01*
X102197759Y-91956748D01*
X102196900Y-91956492D01*
X102177524Y-91950656D01*
X102157590Y-91944529D01*
X102141867Y-91939582D01*
X102123936Y-91933966D01*
X102103750Y-91927844D01*
X102093184Y-91924728D01*
X102067248Y-91917059D01*
X102038923Y-91908467D01*
X102012080Y-91900138D01*
X101995817Y-91894958D01*
X101983714Y-91891118D01*
X101964684Y-91885176D01*
X101939900Y-91877496D01*
X101910535Y-91868439D01*
X101877763Y-91858367D01*
X101842757Y-91847643D01*
X101818017Y-91840083D01*
X101797547Y-91833808D01*
X101779182Y-91828125D01*
X101764909Y-91823655D01*
X101756714Y-91821015D01*
X101756634Y-91820988D01*
X101747455Y-91818079D01*
X101733054Y-91813734D01*
X101716353Y-91808834D01*
X101714300Y-91808241D01*
X101696264Y-91802944D01*
X101678971Y-91797705D01*
X101666042Y-91793622D01*
X101665617Y-91793482D01*
X101650951Y-91788739D01*
X101631378Y-91782564D01*
X101608844Y-91775552D01*
X101585296Y-91768301D01*
X101562678Y-91761409D01*
X101542937Y-91755472D01*
X101528018Y-91751087D01*
X101521684Y-91749314D01*
X101510666Y-91746138D01*
X101502778Y-91742545D01*
X101496256Y-91736911D01*
X101489337Y-91727613D01*
X101480260Y-91713027D01*
X101477719Y-91708817D01*
X101466307Y-91689897D01*
X101458387Y-91676872D01*
X101453084Y-91668384D01*
X101449522Y-91663073D01*
X101446826Y-91659582D01*
X101444120Y-91656553D01*
X101443837Y-91656247D01*
X101437876Y-91647907D01*
X101431942Y-91637018D01*
X101425688Y-91624898D01*
X101416990Y-91609660D01*
X101406936Y-91593019D01*
X101396611Y-91576688D01*
X101387101Y-91562381D01*
X101379494Y-91551812D01*
X101374874Y-91546695D01*
X101374595Y-91546539D01*
X101371480Y-91541678D01*
X101371400Y-91540647D01*
X101369246Y-91535346D01*
X101363549Y-91524904D01*
X101355460Y-91511169D01*
X101346128Y-91495984D01*
X101336704Y-91481196D01*
X101328337Y-91468651D01*
X101322177Y-91460195D01*
X101319682Y-91457639D01*
X101317083Y-91453562D01*
X101316336Y-91447451D01*
X101318031Y-91444234D01*
X101318081Y-91444233D01*
X101322231Y-91445994D01*
G36*
X105698054Y-91455693D02*
G01*
X105695260Y-91463472D01*
X105688493Y-91474237D01*
X105687775Y-91475207D01*
X105680362Y-91486535D01*
X105675242Y-91496881D01*
X105674790Y-91498208D01*
X105671081Y-91505598D01*
X105667948Y-91507733D01*
X105664444Y-91511166D01*
X105664000Y-91514083D01*
X105662278Y-91519727D01*
X105660825Y-91520437D01*
X105657241Y-91523842D01*
X105651154Y-91532677D01*
X105645234Y-91542662D01*
X105636616Y-91557520D01*
X105625632Y-91575690D01*
X105614563Y-91593405D01*
X105613853Y-91594517D01*
X105602780Y-91612275D01*
X105591582Y-91630967D01*
X105582588Y-91646705D01*
X105582190Y-91647433D01*
X105572568Y-91664137D01*
X105561046Y-91682848D01*
X105553145Y-91694974D01*
X105544432Y-91708345D01*
X105537517Y-91719761D01*
X105533996Y-91726536D01*
X105528134Y-91737009D01*
X105520385Y-91745447D01*
X105513355Y-91749030D01*
X105513194Y-91749033D01*
X105507493Y-91750255D01*
X105495387Y-91753599D01*
X105478530Y-91758589D01*
X105458574Y-91764744D01*
X105453810Y-91766245D01*
X105431718Y-91773209D01*
X105410748Y-91779772D01*
X105393144Y-91785235D01*
X105381148Y-91788899D01*
X105380367Y-91789132D01*
X105364467Y-91793895D01*
X105346368Y-91799350D01*
X105339092Y-91801554D01*
X105292234Y-91815687D01*
X105254425Y-91826976D01*
X105242609Y-91830545D01*
X105223807Y-91836296D01*
X105199116Y-91843890D01*
X105169634Y-91852988D01*
X105136456Y-91863253D01*
X105100681Y-91874345D01*
X105063404Y-91885925D01*
X105048050Y-91890701D01*
X105023095Y-91898428D01*
X104995083Y-91907040D01*
X104968464Y-91915170D01*
X104957034Y-91918638D01*
X104932969Y-91925960D01*
X104906349Y-91934125D01*
X104881548Y-91941792D01*
X104872367Y-91944651D01*
X104853279Y-91950593D01*
X104835571Y-91956062D01*
X104821907Y-91960239D01*
X104817334Y-91961612D01*
X104803004Y-91965949D01*
X104787441Y-91970782D01*
X104785584Y-91971368D01*
X104770865Y-91975950D01*
X104753774Y-91981161D01*
X104747484Y-91983049D01*
X104731612Y-91987835D01*
X104708807Y-91994783D01*
X104680218Y-92003539D01*
X104646997Y-92013750D01*
X104610294Y-92025063D01*
X104571259Y-92037125D01*
X104569684Y-92037613D01*
X104547200Y-92044564D01*
X104525604Y-92051231D01*
X104507218Y-92056897D01*
X104494367Y-92060845D01*
X104493484Y-92061115D01*
X104477087Y-92066186D01*
X104460727Y-92071331D01*
X104455384Y-92073037D01*
X104442737Y-92076958D01*
X104425563Y-92082094D01*
X104407480Y-92087365D01*
X104406700Y-92087588D01*
X104390066Y-92092507D01*
X104375537Y-92097067D01*
X104365957Y-92100373D01*
X104365226Y-92100662D01*
X104353572Y-92104099D01*
X104345537Y-92103980D01*
X104343200Y-92101215D01*
X104346782Y-92098065D01*
X104356414Y-92092377D01*
X104370430Y-92085090D01*
X104380242Y-92080345D01*
X104394004Y-92073846D01*
X104410138Y-92066197D01*
X104429426Y-92057024D01*
X104452652Y-92045954D01*
X104480601Y-92032612D01*
X104514055Y-92016626D01*
X104553797Y-91997622D01*
X104586617Y-91981921D01*
X104603180Y-91973986D01*
X104625249Y-91963398D01*
X104650704Y-91951175D01*
X104677421Y-91938336D01*
X104698229Y-91928330D01*
X104721065Y-91917375D01*
X104741142Y-91907800D01*
X104757272Y-91900168D01*
X104768266Y-91895042D01*
X104772934Y-91892982D01*
X104773005Y-91892967D01*
X104777001Y-91891199D01*
X104787554Y-91886233D01*
X104803604Y-91878576D01*
X104824094Y-91868734D01*
X104847966Y-91857211D01*
X104865917Y-91848517D01*
X104891515Y-91836127D01*
X104914467Y-91825067D01*
X104933715Y-91815843D01*
X104948199Y-91808960D01*
X104956862Y-91804925D01*
X104958892Y-91804067D01*
X104962928Y-91802313D01*
X104973429Y-91797418D01*
X104989241Y-91789928D01*
X105009208Y-91780392D01*
X105032177Y-91769357D01*
X105038001Y-91766549D01*
X105064714Y-91753681D01*
X105091716Y-91740701D01*
X105117006Y-91728570D01*
X105138583Y-91718248D01*
X105153884Y-91710961D01*
X105168631Y-91703952D01*
X105189923Y-91693814D01*
X105216665Y-91681069D01*
X105247763Y-91666238D01*
X105282123Y-91649845D01*
X105318650Y-91632410D01*
X105356250Y-91614457D01*
X105393829Y-91596507D01*
X105430293Y-91579082D01*
X105431167Y-91578664D01*
X105448226Y-91570498D01*
X105470425Y-91559856D01*
X105495273Y-91547932D01*
X105520282Y-91535920D01*
X105528534Y-91531954D01*
X105570298Y-91511907D01*
X105606778Y-91494461D01*
X105637583Y-91479799D01*
X105662321Y-91468108D01*
X105680602Y-91459572D01*
X105692034Y-91454375D01*
X105696203Y-91452700D01*
X105698054Y-91455693D01*
G37*
X105698054Y-91455693D02*
X105695260Y-91463472D01*
X105688493Y-91474237D01*
X105687775Y-91475207D01*
X105680362Y-91486535D01*
X105675242Y-91496881D01*
X105674790Y-91498208D01*
X105671081Y-91505598D01*
X105667948Y-91507733D01*
X105664444Y-91511166D01*
X105664000Y-91514083D01*
X105662278Y-91519727D01*
X105660825Y-91520437D01*
X105657241Y-91523842D01*
X105651154Y-91532677D01*
X105645234Y-91542662D01*
X105636616Y-91557520D01*
X105625632Y-91575690D01*
X105614563Y-91593405D01*
X105613853Y-91594517D01*
X105602780Y-91612275D01*
X105591582Y-91630967D01*
X105582588Y-91646705D01*
X105582190Y-91647433D01*
X105572568Y-91664137D01*
X105561046Y-91682848D01*
X105553145Y-91694974D01*
X105544432Y-91708345D01*
X105537517Y-91719761D01*
X105533996Y-91726536D01*
X105528134Y-91737009D01*
X105520385Y-91745447D01*
X105513355Y-91749030D01*
X105513194Y-91749033D01*
X105507493Y-91750255D01*
X105495387Y-91753599D01*
X105478530Y-91758589D01*
X105458574Y-91764744D01*
X105453810Y-91766245D01*
X105431718Y-91773209D01*
X105410748Y-91779772D01*
X105393144Y-91785235D01*
X105381148Y-91788899D01*
X105380367Y-91789132D01*
X105364467Y-91793895D01*
X105346368Y-91799350D01*
X105339092Y-91801554D01*
X105292234Y-91815687D01*
X105254425Y-91826976D01*
X105242609Y-91830545D01*
X105223807Y-91836296D01*
X105199116Y-91843890D01*
X105169634Y-91852988D01*
X105136456Y-91863253D01*
X105100681Y-91874345D01*
X105063404Y-91885925D01*
X105048050Y-91890701D01*
X105023095Y-91898428D01*
X104995083Y-91907040D01*
X104968464Y-91915170D01*
X104957034Y-91918638D01*
X104932969Y-91925960D01*
X104906349Y-91934125D01*
X104881548Y-91941792D01*
X104872367Y-91944651D01*
X104853279Y-91950593D01*
X104835571Y-91956062D01*
X104821907Y-91960239D01*
X104817334Y-91961612D01*
X104803004Y-91965949D01*
X104787441Y-91970782D01*
X104785584Y-91971368D01*
X104770865Y-91975950D01*
X104753774Y-91981161D01*
X104747484Y-91983049D01*
X104731612Y-91987835D01*
X104708807Y-91994783D01*
X104680218Y-92003539D01*
X104646997Y-92013750D01*
X104610294Y-92025063D01*
X104571259Y-92037125D01*
X104569684Y-92037613D01*
X104547200Y-92044564D01*
X104525604Y-92051231D01*
X104507218Y-92056897D01*
X104494367Y-92060845D01*
X104493484Y-92061115D01*
X104477087Y-92066186D01*
X104460727Y-92071331D01*
X104455384Y-92073037D01*
X104442737Y-92076958D01*
X104425563Y-92082094D01*
X104407480Y-92087365D01*
X104406700Y-92087588D01*
X104390066Y-92092507D01*
X104375537Y-92097067D01*
X104365957Y-92100373D01*
X104365226Y-92100662D01*
X104353572Y-92104099D01*
X104345537Y-92103980D01*
X104343200Y-92101215D01*
X104346782Y-92098065D01*
X104356414Y-92092377D01*
X104370430Y-92085090D01*
X104380242Y-92080345D01*
X104394004Y-92073846D01*
X104410138Y-92066197D01*
X104429426Y-92057024D01*
X104452652Y-92045954D01*
X104480601Y-92032612D01*
X104514055Y-92016626D01*
X104553797Y-91997622D01*
X104586617Y-91981921D01*
X104603180Y-91973986D01*
X104625249Y-91963398D01*
X104650704Y-91951175D01*
X104677421Y-91938336D01*
X104698229Y-91928330D01*
X104721065Y-91917375D01*
X104741142Y-91907800D01*
X104757272Y-91900168D01*
X104768266Y-91895042D01*
X104772934Y-91892982D01*
X104773005Y-91892967D01*
X104777001Y-91891199D01*
X104787554Y-91886233D01*
X104803604Y-91878576D01*
X104824094Y-91868734D01*
X104847966Y-91857211D01*
X104865917Y-91848517D01*
X104891515Y-91836127D01*
X104914467Y-91825067D01*
X104933715Y-91815843D01*
X104948199Y-91808960D01*
X104956862Y-91804925D01*
X104958892Y-91804067D01*
X104962928Y-91802313D01*
X104973429Y-91797418D01*
X104989241Y-91789928D01*
X105009208Y-91780392D01*
X105032177Y-91769357D01*
X105038001Y-91766549D01*
X105064714Y-91753681D01*
X105091716Y-91740701D01*
X105117006Y-91728570D01*
X105138583Y-91718248D01*
X105153884Y-91710961D01*
X105168631Y-91703952D01*
X105189923Y-91693814D01*
X105216665Y-91681069D01*
X105247763Y-91666238D01*
X105282123Y-91649845D01*
X105318650Y-91632410D01*
X105356250Y-91614457D01*
X105393829Y-91596507D01*
X105430293Y-91579082D01*
X105431167Y-91578664D01*
X105448226Y-91570498D01*
X105470425Y-91559856D01*
X105495273Y-91547932D01*
X105520282Y-91535920D01*
X105528534Y-91531954D01*
X105570298Y-91511907D01*
X105606778Y-91494461D01*
X105637583Y-91479799D01*
X105662321Y-91468108D01*
X105680602Y-91459572D01*
X105692034Y-91454375D01*
X105696203Y-91452700D01*
X105698054Y-91455693D01*
%TD*%
M02*
