%TF.GenerationSoftware,KiCad,Pcbnew,(6.0.6)*%
%TF.CreationDate,2022-09-08T14:41:24-07:00*%
%TF.ProjectId,L0003-Wheatstone-Bridge,4c303030-332d-4576-9865-617473746f6e,rev?*%
%TF.SameCoordinates,Original*%
%TF.FileFunction,Copper,L1,Top*%
%TF.FilePolarity,Positive*%
%FSLAX46Y46*%
G04 Gerber Fmt 4.6, Leading zero omitted, Abs format (unit mm)*
G04 Created by KiCad (PCBNEW (6.0.6)) date 2022-09-08 14:41:24*
%MOMM*%
%LPD*%
G01*
G04 APERTURE LIST*
%TA.AperFunction,SMDPad,CuDef*%
%ADD10R,2.032000X3.302000*%
%TD*%
%TA.AperFunction,SMDPad,CuDef*%
%ADD11R,1.473200X0.889000*%
%TD*%
%TA.AperFunction,ComponentPad*%
%ADD12R,1.900000X1.900000*%
%TD*%
%TA.AperFunction,ComponentPad*%
%ADD13C,1.900000*%
%TD*%
%TA.AperFunction,SMDPad,CuDef*%
%ADD14R,0.965200X1.295400*%
%TD*%
%TA.AperFunction,SMDPad,CuDef*%
%ADD15R,0.940000X1.020000*%
%TD*%
%TA.AperFunction,SMDPad,CuDef*%
%ADD16R,1.020000X0.940000*%
%TD*%
%TA.AperFunction,ComponentPad*%
%ADD17R,1.268000X1.268000*%
%TD*%
%TA.AperFunction,ComponentPad*%
%ADD18C,1.268000*%
%TD*%
%TA.AperFunction,ComponentPad*%
%ADD19O,2.200000X4.400000*%
%TD*%
%TA.AperFunction,ComponentPad*%
%ADD20O,1.900000X3.800000*%
%TD*%
%TA.AperFunction,ComponentPad*%
%ADD21O,3.800000X1.900000*%
%TD*%
%TA.AperFunction,SMDPad,CuDef*%
%ADD22R,1.405349X1.299997*%
%TD*%
%TA.AperFunction,SMDPad,CuDef*%
%ADD23R,1.100000X1.000000*%
%TD*%
%TA.AperFunction,SMDPad,CuDef*%
%ADD24R,0.584200X1.041400*%
%TD*%
%TA.AperFunction,ComponentPad*%
%ADD25R,1.605000X1.605000*%
%TD*%
%TA.AperFunction,ComponentPad*%
%ADD26C,1.605000*%
%TD*%
%TA.AperFunction,ViaPad*%
%ADD27C,0.800000*%
%TD*%
%TA.AperFunction,Conductor*%
%ADD28C,0.381000*%
%TD*%
G04 APERTURE END LIST*
D10*
%TO.P,U1,*%
%TO.N,*%
X114884200Y-82677000D03*
D11*
%TO.P,U1,1,VI*%
%TO.N,Net-(C1-Pad1)*%
X108440200Y-80402400D03*
%TO.P,U1,2,GND*%
%TO.N,Earth*%
X108440200Y-82702400D03*
%TO.P,U1,3,VO*%
%TO.N,Net-(C2-Pad1)*%
X108440200Y-85002400D03*
%TD*%
D12*
%TO.P,P4,1,+12V*%
%TO.N,+5V*%
X137717606Y-83718705D03*
D13*
%TO.P,P4,2,GND*%
%TO.N,Vout+*%
X137717606Y-87918704D03*
%TO.P,P4,3,3*%
%TO.N,Vout-*%
X132217607Y-83718705D03*
%TO.P,P4,4,4*%
%TO.N,Earth*%
X132217607Y-87918704D03*
%TD*%
D12*
%TO.P,P3,1,+12V*%
%TO.N,+5V*%
X151535206Y-83871105D03*
D13*
%TO.P,P3,2,GND*%
%TO.N,Vout+*%
X151535206Y-88071104D03*
%TO.P,P3,3,3*%
%TO.N,Vout-*%
X146035207Y-83871105D03*
%TO.P,P3,4,4*%
%TO.N,Earth*%
X146035207Y-88071104D03*
%TD*%
D14*
%TO.P,D1,1,1*%
%TO.N,Net-(D1-Pad1)*%
X110998000Y-93726000D03*
%TO.P,D1,2,2*%
%TO.N,+5V*%
X114046000Y-93726000D03*
%TD*%
D15*
%TO.P,R6,1*%
%TO.N,Net-(R2-Pad1)*%
X119204800Y-83769200D03*
%TO.P,R6,2*%
%TO.N,+5V*%
X117624800Y-83769200D03*
%TD*%
D16*
%TO.P,R5,1*%
%TO.N,Earth*%
X122631200Y-80642400D03*
%TO.P,R5,2*%
%TO.N,Vout+*%
X122631200Y-82222400D03*
%TD*%
D15*
%TO.P,R4,1*%
%TO.N,Vout+*%
X119103200Y-81026000D03*
%TO.P,R4,2*%
%TO.N,+5V*%
X117523200Y-81026000D03*
%TD*%
D16*
%TO.P,R3,1*%
%TO.N,Earth*%
X124714000Y-82222400D03*
%TO.P,R3,2*%
%TO.N,Vout-*%
X124714000Y-80642400D03*
%TD*%
D17*
%TO.P,R2,1*%
%TO.N,Net-(R2-Pad1)*%
X119786400Y-92354400D03*
D18*
%TO.P,R2,2*%
%TO.N,Vout-*%
X122326400Y-87274400D03*
%TO.P,R2,3,3*%
%TO.N,unconnected-(R2-Pad3)*%
X124866400Y-92354400D03*
%TD*%
D15*
%TO.P,R1,1*%
%TO.N,Earth*%
X105890000Y-93980000D03*
%TO.P,R1,2*%
%TO.N,Net-(D1-Pad1)*%
X107470000Y-93980000D03*
%TD*%
D19*
%TO.P,P1,1*%
%TO.N,Net-(C1-Pad1)*%
X105328500Y-81422000D03*
D20*
%TO.P,P1,2*%
%TO.N,Earth*%
X99373500Y-81422000D03*
D21*
%TO.P,P1,3,MountPin*%
X102623500Y-86112000D03*
%TD*%
D22*
%TO.P,C2,1*%
%TO.N,Net-(C2-Pad1)*%
X108134522Y-89052400D03*
%TO.P,C2,2*%
%TO.N,Earth*%
X105835078Y-89052400D03*
%TD*%
D23*
%TO.P,C1,1*%
%TO.N,Net-(C1-Pad1)*%
X107912800Y-77825600D03*
%TO.P,C1,2*%
%TO.N,Earth*%
X109612800Y-77825600D03*
%TD*%
D24*
%TO.P,D2,1*%
%TO.N,+5V*%
X114617500Y-88138000D03*
%TO.P,D2,2*%
%TO.N,Net-(C2-Pad1)*%
X110934500Y-88138000D03*
%TD*%
D25*
%TO.P,P2,1,1*%
%TO.N,+5V*%
X116965100Y-78130400D03*
D26*
%TO.P,P2,2,2*%
%TO.N,Vout+*%
X119505100Y-78130400D03*
%TO.P,P2,3,3*%
%TO.N,Vout-*%
X122045100Y-78130400D03*
%TO.P,P2,4,4*%
%TO.N,Earth*%
X124585100Y-78130400D03*
%TD*%
D27*
%TO.N,Earth*%
X125222000Y-84074000D03*
X120904000Y-80060800D03*
%TD*%
D28*
%TO.N,Vout+*%
X149029899Y-90576400D02*
X141732000Y-90576400D01*
X137717600Y-87918699D02*
X139074299Y-87918699D01*
X139074299Y-87918699D02*
X141732000Y-90576400D01*
X151535200Y-88071099D02*
X149029899Y-90576400D01*
%TO.N,+5V*%
X151535200Y-83871100D02*
X151535200Y-83717200D01*
X139852400Y-81686400D02*
X137769600Y-83769200D01*
X151535200Y-83717200D02*
X149504400Y-81686400D01*
X149504400Y-81686400D02*
X139852400Y-81686400D01*
%TO.N,Vout-*%
X146035201Y-83871100D02*
X144054301Y-85852000D01*
X144054301Y-85852000D02*
X134670800Y-85852000D01*
X134670800Y-85852000D02*
X132588000Y-83769200D01*
%TO.N,Earth*%
X124714000Y-82222400D02*
X124714000Y-83566000D01*
X124714000Y-83566000D02*
X125222000Y-84074000D01*
X122631200Y-80642400D02*
X121485600Y-80642400D01*
X121485600Y-80642400D02*
X120904000Y-80060800D01*
X110490000Y-81838800D02*
X110490000Y-78689200D01*
X108440200Y-82702400D02*
X109626400Y-82702400D01*
X109626400Y-82702400D02*
X110490000Y-81838800D01*
X110490000Y-78689200D02*
X109982000Y-78181200D01*
X105835078Y-86226278D02*
X105835078Y-85122122D01*
X105835078Y-85122122D02*
X108254800Y-82702400D01*
X108254800Y-82702400D02*
X108440200Y-82702400D01*
X105835078Y-89052400D02*
X105835078Y-86226278D01*
X105835078Y-86226278D02*
X105714800Y-86106000D01*
X105714800Y-86106000D02*
X102717600Y-86106000D01*
X108440200Y-82702400D02*
X108153200Y-82702400D01*
X104698800Y-86156800D02*
X102717600Y-86156800D01*
X105890000Y-93980000D02*
X105890000Y-89278400D01*
%TO.N,Vout+*%
X137717600Y-87918699D02*
X135670699Y-87918699D01*
X135670699Y-87918699D02*
X133502400Y-85750400D01*
X133502400Y-85750400D02*
X124714000Y-85750400D01*
X124714000Y-85750400D02*
X122732800Y-83769200D01*
X122732800Y-83769200D02*
X122732800Y-82245200D01*
%TO.N,+5V*%
X137717600Y-83718700D02*
X137717600Y-83666400D01*
X137717600Y-83666400D02*
X135585200Y-81534000D01*
X132232400Y-81534000D02*
X127406400Y-76708000D01*
X135585200Y-81534000D02*
X132232400Y-81534000D01*
X127406400Y-76708000D02*
X118364000Y-76708000D01*
X118364000Y-76708000D02*
X117094000Y-77978000D01*
X117523200Y-81048800D02*
X117523200Y-82522000D01*
X117523200Y-82522000D02*
X117523200Y-83588800D01*
%TO.N,Vout-*%
X129169301Y-80670400D02*
X124815600Y-80670400D01*
X132217601Y-83718700D02*
X129169301Y-80670400D01*
X122045100Y-78130400D02*
X124381900Y-80467200D01*
X124381900Y-80467200D02*
X124409200Y-80467200D01*
%TO.N,Vout+*%
X122631200Y-82222400D02*
X121592400Y-82222400D01*
X121592400Y-82222400D02*
X120548400Y-81178400D01*
X120548400Y-81178400D02*
X119176800Y-81178400D01*
%TO.N,Net-(R2-Pad1)*%
X119075200Y-89052400D02*
X119075200Y-83769200D01*
%TO.N,+5V*%
X117500400Y-86563200D02*
X117500400Y-83718400D01*
X117500400Y-83718400D02*
X117551200Y-83667600D01*
X117398800Y-80924400D02*
X117523200Y-81048800D01*
X117523200Y-83588800D02*
X117551200Y-83616800D01*
%TO.N,Net-(R2-Pad1)*%
X119786400Y-92354400D02*
X119786400Y-89763600D01*
X119786400Y-89763600D02*
X119075200Y-89052400D01*
%TO.N,Vout+*%
X119505100Y-78130400D02*
X119505100Y-80494500D01*
X119505100Y-80494500D02*
X119024400Y-80975200D01*
%TO.N,+5V*%
X116965100Y-78130400D02*
X116965100Y-80389100D01*
X116965100Y-80389100D02*
X117246400Y-80670400D01*
X115925600Y-88138000D02*
X117500400Y-86563200D01*
X114617500Y-88138000D02*
X115925600Y-88138000D01*
%TO.N,Net-(D1-Pad1)*%
X110998000Y-93726000D02*
X107543600Y-93726000D01*
%TO.N,+5V*%
X114617500Y-88138000D02*
X114617500Y-91376500D01*
X114617500Y-91376500D02*
X114096800Y-91897200D01*
X114096800Y-91897200D02*
X114096800Y-93675200D01*
%TO.N,Net-(C2-Pad1)*%
X110934500Y-88138000D02*
X109220000Y-88138000D01*
X109220000Y-88138000D02*
X108559600Y-88798400D01*
X108440200Y-85002400D02*
X110896400Y-87458600D01*
X110896400Y-87458600D02*
X110896400Y-88036400D01*
%TO.N,Net-(C1-Pad1)*%
X107912800Y-77825600D02*
X107912800Y-80023600D01*
X107912800Y-80023600D02*
X108204000Y-80314800D01*
X105328500Y-81422000D02*
X107046000Y-81422000D01*
X107046000Y-81422000D02*
X107899200Y-80568800D01*
%TD*%
%TA.AperFunction,Conductor*%
%TO.N,Earth*%
G36*
X120274796Y-81897402D02*
G01*
X120295770Y-81914305D01*
X121077903Y-82696438D01*
X121083756Y-82702703D01*
X121121242Y-82745674D01*
X121130061Y-82751872D01*
X121172778Y-82781894D01*
X121178074Y-82785827D01*
X121221663Y-82820006D01*
X121221666Y-82820008D01*
X121227640Y-82824692D01*
X121234564Y-82827818D01*
X121237599Y-82829656D01*
X121250298Y-82836900D01*
X121253446Y-82838588D01*
X121259661Y-82842956D01*
X121318350Y-82865838D01*
X121324395Y-82868378D01*
X121381835Y-82894313D01*
X121389308Y-82895698D01*
X121392726Y-82896769D01*
X121406715Y-82900754D01*
X121410207Y-82901651D01*
X121417289Y-82904412D01*
X121424822Y-82905404D01*
X121424823Y-82905404D01*
X121479730Y-82912633D01*
X121486243Y-82913665D01*
X121540718Y-82923761D01*
X121540720Y-82923761D01*
X121548187Y-82925145D01*
X121555766Y-82924708D01*
X121555767Y-82924708D01*
X121560496Y-82924435D01*
X121587967Y-82922851D01*
X121657125Y-82938898D01*
X121696045Y-82973076D01*
X121757939Y-83055661D01*
X121874495Y-83143015D01*
X121882903Y-83146167D01*
X121952030Y-83172082D01*
X122008794Y-83214724D01*
X122033494Y-83281286D01*
X122033800Y-83290064D01*
X122033800Y-83740601D01*
X122033508Y-83749171D01*
X122030319Y-83795950D01*
X122029630Y-83806052D01*
X122030935Y-83813528D01*
X122030935Y-83813532D01*
X122040463Y-83868124D01*
X122041426Y-83874649D01*
X122046579Y-83917226D01*
X122048991Y-83937160D01*
X122051675Y-83944262D01*
X122052519Y-83947700D01*
X122056383Y-83961823D01*
X122057413Y-83965234D01*
X122058719Y-83972717D01*
X122061772Y-83979672D01*
X122084039Y-84030398D01*
X122086530Y-84036504D01*
X122108794Y-84095422D01*
X122113093Y-84101677D01*
X122114735Y-84104818D01*
X122121833Y-84117572D01*
X122123670Y-84120678D01*
X122126723Y-84127633D01*
X122131348Y-84133660D01*
X122131350Y-84133664D01*
X122165065Y-84177602D01*
X122168929Y-84182920D01*
X122204621Y-84234852D01*
X122210291Y-84239904D01*
X122210292Y-84239905D01*
X122250488Y-84275718D01*
X122255764Y-84280699D01*
X124199503Y-86224438D01*
X124205356Y-86230703D01*
X124242842Y-86273674D01*
X124249056Y-86278041D01*
X124294378Y-86309894D01*
X124299674Y-86313827D01*
X124343263Y-86348006D01*
X124343266Y-86348008D01*
X124349240Y-86352692D01*
X124356164Y-86355818D01*
X124359199Y-86357656D01*
X124371898Y-86364900D01*
X124375046Y-86366588D01*
X124381261Y-86370956D01*
X124439950Y-86393838D01*
X124445995Y-86396378D01*
X124503435Y-86422313D01*
X124510908Y-86423698D01*
X124514326Y-86424769D01*
X124528315Y-86428754D01*
X124531807Y-86429651D01*
X124538889Y-86432412D01*
X124546422Y-86433404D01*
X124546423Y-86433404D01*
X124601330Y-86440633D01*
X124607843Y-86441665D01*
X124662318Y-86451761D01*
X124662320Y-86451761D01*
X124669787Y-86453145D01*
X124677367Y-86452708D01*
X124677368Y-86452708D01*
X124731112Y-86449609D01*
X124738365Y-86449400D01*
X131369609Y-86449400D01*
X131437730Y-86469402D01*
X131484223Y-86523058D01*
X131494327Y-86593332D01*
X131464833Y-86657912D01*
X131436749Y-86682022D01*
X131433872Y-86683834D01*
X131395855Y-86712378D01*
X131387402Y-86723703D01*
X131394147Y-86736034D01*
X132204795Y-87546682D01*
X132218739Y-87554296D01*
X132220572Y-87554165D01*
X132227187Y-87549914D01*
X133042197Y-86734904D01*
X133049218Y-86722047D01*
X133041445Y-86711380D01*
X133031274Y-86703347D01*
X133022699Y-86697650D01*
X133001068Y-86685709D01*
X132951098Y-86635276D01*
X132936326Y-86565833D01*
X132961442Y-86499428D01*
X133018473Y-86457143D01*
X133061962Y-86449400D01*
X133160675Y-86449400D01*
X133228796Y-86469402D01*
X133249770Y-86486305D01*
X135156202Y-88392737D01*
X135162055Y-88399002D01*
X135199541Y-88441973D01*
X135227909Y-88461910D01*
X135251077Y-88478193D01*
X135256373Y-88482126D01*
X135299962Y-88516305D01*
X135299965Y-88516307D01*
X135305939Y-88520991D01*
X135312863Y-88524117D01*
X135315898Y-88525955D01*
X135328597Y-88533199D01*
X135331745Y-88534887D01*
X135337960Y-88539255D01*
X135396649Y-88562137D01*
X135402694Y-88564677D01*
X135460134Y-88590612D01*
X135467607Y-88591997D01*
X135471025Y-88593068D01*
X135485014Y-88597053D01*
X135488506Y-88597950D01*
X135495588Y-88600711D01*
X135503121Y-88601703D01*
X135503122Y-88601703D01*
X135558029Y-88608932D01*
X135564542Y-88609964D01*
X135619017Y-88620060D01*
X135619019Y-88620060D01*
X135626486Y-88621444D01*
X135634066Y-88621007D01*
X135634067Y-88621007D01*
X135687811Y-88617908D01*
X135695064Y-88617699D01*
X136364726Y-88617699D01*
X136432847Y-88637701D01*
X136472159Y-88677864D01*
X136536620Y-88783055D01*
X136540004Y-88786961D01*
X136540005Y-88786963D01*
X136561763Y-88812081D01*
X136693649Y-88964334D01*
X136800484Y-89053030D01*
X136868280Y-89109315D01*
X136878177Y-89117532D01*
X137085249Y-89238535D01*
X137309303Y-89324093D01*
X137314369Y-89325124D01*
X137314370Y-89325124D01*
X137340637Y-89330468D01*
X137544322Y-89371908D01*
X137679870Y-89376878D01*
X137778831Y-89380507D01*
X137778835Y-89380507D01*
X137783995Y-89380696D01*
X137789115Y-89380040D01*
X137789117Y-89380040D01*
X138016757Y-89350879D01*
X138016758Y-89350879D01*
X138021885Y-89350222D01*
X138028475Y-89348245D01*
X138246648Y-89282790D01*
X138246653Y-89282788D01*
X138251603Y-89281303D01*
X138466980Y-89175791D01*
X138471185Y-89172791D01*
X138471191Y-89172788D01*
X138577817Y-89096732D01*
X138662233Y-89036519D01*
X138832117Y-88867227D01*
X138835137Y-88863024D01*
X138836269Y-88861694D01*
X138895650Y-88822778D01*
X138966644Y-88822144D01*
X139021322Y-88854257D01*
X141217503Y-91050438D01*
X141223356Y-91056703D01*
X141260842Y-91099674D01*
X141281708Y-91114339D01*
X141312378Y-91135894D01*
X141317674Y-91139827D01*
X141361263Y-91174006D01*
X141361266Y-91174008D01*
X141367240Y-91178692D01*
X141374164Y-91181818D01*
X141377199Y-91183656D01*
X141389898Y-91190900D01*
X141393046Y-91192588D01*
X141399261Y-91196956D01*
X141457950Y-91219838D01*
X141463995Y-91222378D01*
X141521435Y-91248313D01*
X141528908Y-91249698D01*
X141532326Y-91250769D01*
X141546315Y-91254754D01*
X141549807Y-91255651D01*
X141556889Y-91258412D01*
X141564422Y-91259404D01*
X141564423Y-91259404D01*
X141619330Y-91266633D01*
X141625843Y-91267665D01*
X141680318Y-91277761D01*
X141680320Y-91277761D01*
X141687787Y-91279145D01*
X141695367Y-91278708D01*
X141695368Y-91278708D01*
X141749112Y-91275609D01*
X141756365Y-91275400D01*
X144856599Y-91275400D01*
X144924720Y-91295402D01*
X144971213Y-91349058D01*
X144981317Y-91419332D01*
X144955888Y-91478973D01*
X144889001Y-91564585D01*
X144826018Y-91645199D01*
X144773558Y-91736062D01*
X144699436Y-91864446D01*
X144685570Y-91888462D01*
X144683920Y-91892546D01*
X144683917Y-91892552D01*
X144665544Y-91938028D01*
X144580345Y-92148904D01*
X144579281Y-92153173D01*
X144579280Y-92153175D01*
X144514137Y-92414450D01*
X144512390Y-92421456D01*
X144511931Y-92425824D01*
X144511930Y-92425829D01*
X144485128Y-92680844D01*
X144483029Y-92700813D01*
X144483182Y-92705201D01*
X144483182Y-92705207D01*
X144492623Y-92975548D01*
X144492832Y-92981538D01*
X144493594Y-92985861D01*
X144493595Y-92985868D01*
X144517276Y-93120168D01*
X144541609Y-93258167D01*
X144542964Y-93262338D01*
X144542966Y-93262345D01*
X144577531Y-93368725D01*
X144628410Y-93525314D01*
X144751547Y-93777782D01*
X144754002Y-93781421D01*
X144754005Y-93781427D01*
X144906162Y-94007009D01*
X144906167Y-94007016D01*
X144908622Y-94010655D01*
X145096578Y-94219402D01*
X145149079Y-94263455D01*
X145308386Y-94397130D01*
X145308391Y-94397134D01*
X145311757Y-94399958D01*
X145549970Y-94548810D01*
X145806581Y-94663061D01*
X145810809Y-94664273D01*
X145810808Y-94664273D01*
X146034088Y-94728297D01*
X146076596Y-94740486D01*
X146080946Y-94741097D01*
X146080949Y-94741098D01*
X146106765Y-94744726D01*
X146171439Y-94774014D01*
X146210012Y-94833618D01*
X146210237Y-94904615D01*
X146172043Y-94964462D01*
X146107556Y-94994160D01*
X146089229Y-94995500D01*
X114925112Y-94995500D01*
X114856991Y-94975498D01*
X114810498Y-94921842D01*
X114800394Y-94851568D01*
X114829888Y-94786988D01*
X114849544Y-94768676D01*
X114891861Y-94736961D01*
X114979215Y-94620405D01*
X115030345Y-94484016D01*
X115037100Y-94421834D01*
X115037100Y-93030166D01*
X115030345Y-92967984D01*
X114979215Y-92831595D01*
X114891861Y-92715039D01*
X114872880Y-92700813D01*
X114846235Y-92680844D01*
X114803720Y-92623985D01*
X114795800Y-92580018D01*
X114795800Y-92238925D01*
X114815802Y-92170804D01*
X114832705Y-92149830D01*
X115091538Y-91890997D01*
X115097804Y-91885143D01*
X115098378Y-91884642D01*
X115140774Y-91847658D01*
X115176994Y-91796122D01*
X115180927Y-91790826D01*
X115215106Y-91747237D01*
X115215108Y-91747234D01*
X115219792Y-91741260D01*
X115222918Y-91734336D01*
X115224756Y-91731301D01*
X115232000Y-91718602D01*
X115233688Y-91715454D01*
X115238056Y-91709239D01*
X115260938Y-91650550D01*
X115263478Y-91644505D01*
X115289413Y-91587065D01*
X115290798Y-91579592D01*
X115291869Y-91576174D01*
X115295854Y-91562185D01*
X115296751Y-91558693D01*
X115299512Y-91551611D01*
X115305104Y-91509140D01*
X115307733Y-91489170D01*
X115308765Y-91482657D01*
X115318861Y-91428182D01*
X115318861Y-91428180D01*
X115320245Y-91420713D01*
X115316709Y-91359387D01*
X115316500Y-91352135D01*
X115316500Y-89005709D01*
X115336502Y-88937588D01*
X115341674Y-88930144D01*
X115354829Y-88912591D01*
X115360215Y-88905405D01*
X115361875Y-88900978D01*
X115410621Y-88852344D01*
X115470880Y-88837000D01*
X115897001Y-88837000D01*
X115905571Y-88837292D01*
X115954877Y-88840654D01*
X115954881Y-88840654D01*
X115962452Y-88841170D01*
X115969928Y-88839865D01*
X115969932Y-88839865D01*
X116024524Y-88830337D01*
X116031049Y-88829374D01*
X116086018Y-88822722D01*
X116086020Y-88822721D01*
X116093560Y-88821809D01*
X116100662Y-88819125D01*
X116104100Y-88818281D01*
X116118223Y-88814417D01*
X116121634Y-88813387D01*
X116129117Y-88812081D01*
X116186797Y-88786761D01*
X116192904Y-88784270D01*
X116244717Y-88764691D01*
X116244718Y-88764690D01*
X116251822Y-88762006D01*
X116258077Y-88757707D01*
X116261218Y-88756065D01*
X116273972Y-88748967D01*
X116277078Y-88747130D01*
X116284033Y-88744077D01*
X116290060Y-88739452D01*
X116290064Y-88739450D01*
X116334002Y-88705735D01*
X116339320Y-88701871D01*
X116391252Y-88666179D01*
X116432135Y-88620293D01*
X116437098Y-88615037D01*
X117974446Y-87077690D01*
X117980712Y-87071836D01*
X118017947Y-87039354D01*
X118023674Y-87034358D01*
X118059898Y-86982817D01*
X118063823Y-86977532D01*
X118098007Y-86933935D01*
X118102692Y-86927960D01*
X118105816Y-86921042D01*
X118107645Y-86918021D01*
X118114900Y-86905302D01*
X118116588Y-86902154D01*
X118120956Y-86895939D01*
X118132807Y-86865542D01*
X118176187Y-86809340D01*
X118243066Y-86785513D01*
X118312210Y-86801626D01*
X118361666Y-86852563D01*
X118376200Y-86911311D01*
X118376200Y-89023801D01*
X118375908Y-89032371D01*
X118374500Y-89053030D01*
X118372030Y-89089252D01*
X118373335Y-89096728D01*
X118373335Y-89096732D01*
X118382863Y-89151324D01*
X118383826Y-89157849D01*
X118385998Y-89175791D01*
X118391391Y-89220360D01*
X118394075Y-89227462D01*
X118394919Y-89230900D01*
X118398783Y-89245023D01*
X118399813Y-89248434D01*
X118401119Y-89255917D01*
X118404172Y-89262872D01*
X118426439Y-89313598D01*
X118428930Y-89319704D01*
X118441354Y-89352581D01*
X118451194Y-89378622D01*
X118455493Y-89384877D01*
X118457135Y-89388018D01*
X118464233Y-89400772D01*
X118466070Y-89403878D01*
X118469123Y-89410833D01*
X118473748Y-89416860D01*
X118473750Y-89416864D01*
X118507465Y-89460802D01*
X118511329Y-89466120D01*
X118547021Y-89518052D01*
X118592897Y-89558926D01*
X118598155Y-89563890D01*
X119050496Y-90016232D01*
X119084521Y-90078544D01*
X119087400Y-90105327D01*
X119087400Y-91114339D01*
X119067398Y-91182460D01*
X119013742Y-91228953D01*
X119005630Y-91232321D01*
X118905695Y-91269785D01*
X118789139Y-91357139D01*
X118701785Y-91473695D01*
X118650655Y-91610084D01*
X118643900Y-91672266D01*
X118643900Y-93036534D01*
X118650655Y-93098716D01*
X118701785Y-93235105D01*
X118789139Y-93351661D01*
X118905695Y-93439015D01*
X119042084Y-93490145D01*
X119104266Y-93496900D01*
X120468534Y-93496900D01*
X120530716Y-93490145D01*
X120667105Y-93439015D01*
X120783661Y-93351661D01*
X120871015Y-93235105D01*
X120922145Y-93098716D01*
X120928900Y-93036534D01*
X120928900Y-92324365D01*
X123719398Y-92324365D01*
X123733131Y-92533892D01*
X123734552Y-92539488D01*
X123734553Y-92539493D01*
X123770452Y-92680844D01*
X123784818Y-92737408D01*
X123872727Y-92928097D01*
X123993914Y-93099573D01*
X123998048Y-93103600D01*
X124133042Y-93235105D01*
X124144321Y-93246093D01*
X124149117Y-93249298D01*
X124149120Y-93249300D01*
X124219471Y-93296307D01*
X124318910Y-93362750D01*
X124324213Y-93365028D01*
X124324216Y-93365030D01*
X124496422Y-93439015D01*
X124511835Y-93445637D01*
X124579645Y-93460981D01*
X124710999Y-93490704D01*
X124711002Y-93490704D01*
X124716635Y-93491979D01*
X124722406Y-93492206D01*
X124722408Y-93492206D01*
X124785061Y-93494668D01*
X124926450Y-93500223D01*
X124932159Y-93499395D01*
X124932163Y-93499395D01*
X125128539Y-93470921D01*
X125128543Y-93470920D01*
X125134254Y-93470092D01*
X125333088Y-93402597D01*
X125516292Y-93299998D01*
X125677731Y-93165731D01*
X125799445Y-93019385D01*
X125808307Y-93008730D01*
X125811998Y-93004292D01*
X125914597Y-92821088D01*
X125982092Y-92622254D01*
X125988482Y-92578188D01*
X125992799Y-92548413D01*
X130665429Y-92548413D01*
X130665582Y-92552801D01*
X130665582Y-92552807D01*
X130675067Y-92824409D01*
X130675232Y-92829138D01*
X130675994Y-92833461D01*
X130675995Y-92833468D01*
X130699714Y-92967984D01*
X130724009Y-93105767D01*
X130725364Y-93109938D01*
X130725366Y-93109945D01*
X130774631Y-93261567D01*
X130810810Y-93372914D01*
X130812738Y-93376867D01*
X130812740Y-93376872D01*
X130844587Y-93442167D01*
X130933947Y-93625382D01*
X130936402Y-93629021D01*
X130936405Y-93629027D01*
X131088562Y-93854609D01*
X131088567Y-93854616D01*
X131091022Y-93858255D01*
X131278978Y-94067002D01*
X131327838Y-94108000D01*
X131490786Y-94244730D01*
X131490791Y-94244734D01*
X131494157Y-94247558D01*
X131732370Y-94396410D01*
X131870739Y-94458016D01*
X131980242Y-94506770D01*
X131988981Y-94510661D01*
X132084791Y-94538134D01*
X132207208Y-94573236D01*
X132258996Y-94588086D01*
X132263346Y-94588697D01*
X132263349Y-94588698D01*
X132346017Y-94600316D01*
X132537158Y-94627179D01*
X132747752Y-94627179D01*
X132749938Y-94627026D01*
X132749942Y-94627026D01*
X132953433Y-94612797D01*
X132953438Y-94612796D01*
X132957818Y-94612490D01*
X133232575Y-94554088D01*
X133236704Y-94552585D01*
X133236708Y-94552584D01*
X133492386Y-94459525D01*
X133492390Y-94459523D01*
X133496531Y-94458016D01*
X133500421Y-94455948D01*
X133500427Y-94455945D01*
X133740656Y-94328213D01*
X133740662Y-94328209D01*
X133744548Y-94326143D01*
X133748108Y-94323556D01*
X133748112Y-94323554D01*
X133968234Y-94163626D01*
X133968237Y-94163624D01*
X133971797Y-94161037D01*
X133974964Y-94157979D01*
X134170695Y-93968964D01*
X134170698Y-93968960D01*
X134173857Y-93965910D01*
X134177021Y-93961861D01*
X134344086Y-93748027D01*
X134346794Y-93744561D01*
X134453456Y-93559817D01*
X134485037Y-93505118D01*
X134485040Y-93505113D01*
X134487242Y-93501298D01*
X134488892Y-93497214D01*
X134488895Y-93497208D01*
X134585473Y-93258167D01*
X134592467Y-93240856D01*
X134595997Y-93226697D01*
X134659358Y-92972573D01*
X134659359Y-92972568D01*
X134660422Y-92968304D01*
X134661085Y-92962001D01*
X134689324Y-92693316D01*
X134689324Y-92693313D01*
X134689783Y-92688947D01*
X134689500Y-92680844D01*
X134680134Y-92412619D01*
X134680133Y-92412613D01*
X134679980Y-92408222D01*
X134675997Y-92385630D01*
X134638117Y-92170804D01*
X134631203Y-92131593D01*
X134629848Y-92127422D01*
X134629846Y-92127415D01*
X134545763Y-91868635D01*
X134544402Y-91864446D01*
X134537241Y-91849762D01*
X134478644Y-91729623D01*
X134421265Y-91611978D01*
X134418810Y-91608339D01*
X134418807Y-91608333D01*
X134266650Y-91382751D01*
X134266645Y-91382744D01*
X134264190Y-91379105D01*
X134076234Y-91170358D01*
X133976850Y-91086965D01*
X133864426Y-90992630D01*
X133864421Y-90992626D01*
X133861055Y-90989802D01*
X133622842Y-90840950D01*
X133366231Y-90726699D01*
X133096216Y-90649274D01*
X133091866Y-90648663D01*
X133091863Y-90648662D01*
X132988916Y-90634194D01*
X132818054Y-90610181D01*
X132607460Y-90610181D01*
X132605274Y-90610334D01*
X132605270Y-90610334D01*
X132401779Y-90624563D01*
X132401774Y-90624564D01*
X132397394Y-90624870D01*
X132122637Y-90683272D01*
X132118508Y-90684775D01*
X132118504Y-90684776D01*
X131862826Y-90777835D01*
X131862822Y-90777837D01*
X131858681Y-90779344D01*
X131854791Y-90781412D01*
X131854785Y-90781415D01*
X131614556Y-90909147D01*
X131614550Y-90909151D01*
X131610664Y-90911217D01*
X131607104Y-90913804D01*
X131607100Y-90913806D01*
X131410418Y-91056704D01*
X131383415Y-91076323D01*
X131380251Y-91079379D01*
X131380248Y-91079381D01*
X131184517Y-91268396D01*
X131184514Y-91268400D01*
X131181355Y-91271450D01*
X131178649Y-91274914D01*
X131178645Y-91274918D01*
X131094397Y-91382751D01*
X131008418Y-91492799D01*
X130939610Y-91611978D01*
X130870719Y-91731301D01*
X130867970Y-91736062D01*
X130866320Y-91740146D01*
X130866317Y-91740152D01*
X130806600Y-91887959D01*
X130762745Y-91996504D01*
X130761681Y-92000773D01*
X130761680Y-92000775D01*
X130702303Y-92238925D01*
X130694790Y-92269056D01*
X130694331Y-92273424D01*
X130694330Y-92273429D01*
X130665888Y-92544044D01*
X130665429Y-92548413D01*
X125992799Y-92548413D01*
X126011691Y-92418120D01*
X126011691Y-92418118D01*
X126012223Y-92414450D01*
X126013795Y-92354400D01*
X125994582Y-92145304D01*
X125991935Y-92135916D01*
X125951465Y-91992423D01*
X125937586Y-91943210D01*
X125935033Y-91938033D01*
X125935031Y-91938028D01*
X125847269Y-91760067D01*
X125844715Y-91754888D01*
X125762269Y-91644479D01*
X125722534Y-91591267D01*
X125722533Y-91591266D01*
X125719081Y-91586643D01*
X125605991Y-91482103D01*
X125569130Y-91448029D01*
X125569127Y-91448027D01*
X125564890Y-91444110D01*
X125387306Y-91332064D01*
X125192278Y-91254255D01*
X125186610Y-91253128D01*
X125186608Y-91253127D01*
X124992003Y-91214418D01*
X124991999Y-91214418D01*
X124986335Y-91213291D01*
X124980560Y-91213215D01*
X124980556Y-91213215D01*
X124875186Y-91211836D01*
X124776376Y-91210542D01*
X124770679Y-91211521D01*
X124770678Y-91211521D01*
X124575129Y-91245123D01*
X124569432Y-91246102D01*
X124372434Y-91318778D01*
X124367473Y-91321730D01*
X124367472Y-91321730D01*
X124199433Y-91421703D01*
X124191978Y-91426138D01*
X124034109Y-91564585D01*
X123904114Y-91729484D01*
X123901425Y-91734595D01*
X123901423Y-91734598D01*
X123859858Y-91813600D01*
X123806345Y-91915311D01*
X123773517Y-92021035D01*
X123752088Y-92090048D01*
X123744078Y-92115843D01*
X123719398Y-92324365D01*
X120928900Y-92324365D01*
X120928900Y-91672266D01*
X120922145Y-91610084D01*
X120871015Y-91473695D01*
X120783661Y-91357139D01*
X120667105Y-91269785D01*
X120567170Y-91232321D01*
X120510406Y-91189679D01*
X120485706Y-91123118D01*
X120485400Y-91114339D01*
X120485400Y-89792200D01*
X120485692Y-89783629D01*
X120487717Y-89753929D01*
X120489570Y-89726749D01*
X120478734Y-89664665D01*
X120477778Y-89658186D01*
X120470209Y-89595640D01*
X120467525Y-89588538D01*
X120466670Y-89585056D01*
X120462830Y-89571021D01*
X120461789Y-89567573D01*
X120460482Y-89560083D01*
X120457426Y-89553121D01*
X120435163Y-89502405D01*
X120432670Y-89496297D01*
X120413092Y-89444486D01*
X120413092Y-89444485D01*
X120410406Y-89437378D01*
X120406100Y-89431112D01*
X120404450Y-89427957D01*
X120397331Y-89415165D01*
X120395531Y-89412121D01*
X120392478Y-89405167D01*
X120379319Y-89388018D01*
X120354140Y-89355204D01*
X120350262Y-89349867D01*
X120318881Y-89304207D01*
X120318879Y-89304205D01*
X120314579Y-89297948D01*
X120292819Y-89278560D01*
X120268712Y-89257082D01*
X120263436Y-89252101D01*
X120128939Y-89117604D01*
X131383965Y-89117604D01*
X131387268Y-89122264D01*
X131581006Y-89235475D01*
X131590293Y-89239925D01*
X131804613Y-89321766D01*
X131814515Y-89324643D01*
X132039306Y-89370377D01*
X132049558Y-89371600D01*
X132278809Y-89380006D01*
X132289095Y-89379539D01*
X132516650Y-89350388D01*
X132526736Y-89348245D01*
X132746471Y-89282321D01*
X132756066Y-89278560D01*
X132962073Y-89177639D01*
X132970939Y-89172354D01*
X133038552Y-89124125D01*
X133046953Y-89113425D01*
X133039965Y-89100272D01*
X132230419Y-88290726D01*
X132216475Y-88283112D01*
X132214642Y-88283243D01*
X132208027Y-88287494D01*
X131391242Y-89104279D01*
X131383965Y-89117604D01*
X120128939Y-89117604D01*
X119811105Y-88799770D01*
X119777079Y-88737458D01*
X119774200Y-88710675D01*
X119774200Y-87244365D01*
X121179398Y-87244365D01*
X121187671Y-87370595D01*
X121191916Y-87435347D01*
X121193131Y-87453892D01*
X121194552Y-87459488D01*
X121194553Y-87459493D01*
X121240291Y-87639583D01*
X121244818Y-87657408D01*
X121332727Y-87848097D01*
X121453914Y-88019573D01*
X121604321Y-88166093D01*
X121609117Y-88169298D01*
X121609120Y-88169300D01*
X121752649Y-88265203D01*
X121778910Y-88282750D01*
X121784213Y-88285028D01*
X121784216Y-88285030D01*
X121937571Y-88350916D01*
X121971835Y-88365637D01*
X122058396Y-88385224D01*
X122170999Y-88410704D01*
X122171002Y-88410704D01*
X122176635Y-88411979D01*
X122182406Y-88412206D01*
X122182408Y-88412206D01*
X122245061Y-88414668D01*
X122386450Y-88420223D01*
X122392159Y-88419395D01*
X122392163Y-88419395D01*
X122588539Y-88390921D01*
X122588543Y-88390920D01*
X122594254Y-88390092D01*
X122793088Y-88322597D01*
X122976292Y-88219998D01*
X123137731Y-88085731D01*
X123271998Y-87924292D01*
X123292257Y-87888116D01*
X130755344Y-87888116D01*
X130768551Y-88117155D01*
X130769984Y-88127357D01*
X130820417Y-88351146D01*
X130823505Y-88360999D01*
X130909811Y-88573544D01*
X130914459Y-88582745D01*
X131011343Y-88740847D01*
X131021799Y-88750308D01*
X131030577Y-88746524D01*
X131845585Y-87931516D01*
X131851963Y-87919836D01*
X132582015Y-87919836D01*
X132582146Y-87921669D01*
X132586397Y-87928284D01*
X133399737Y-88741624D01*
X133411748Y-88748183D01*
X133423487Y-88739215D01*
X133468619Y-88676406D01*
X133473934Y-88667561D01*
X133575573Y-88461910D01*
X133579372Y-88452315D01*
X133646060Y-88232824D01*
X133648239Y-88222743D01*
X133678420Y-87993493D01*
X133678939Y-87986818D01*
X133680522Y-87922068D01*
X133680328Y-87915351D01*
X133661383Y-87684910D01*
X133659700Y-87674748D01*
X133603811Y-87452243D01*
X133600490Y-87442488D01*
X133509016Y-87232114D01*
X133504138Y-87223016D01*
X133422991Y-87097580D01*
X133412305Y-87088378D01*
X133402740Y-87092781D01*
X132589629Y-87905892D01*
X132582015Y-87919836D01*
X131851963Y-87919836D01*
X131853199Y-87917572D01*
X131853068Y-87915739D01*
X131848817Y-87909124D01*
X131035491Y-87095798D01*
X131023955Y-87089498D01*
X131011672Y-87099122D01*
X130948456Y-87191793D01*
X130943363Y-87200757D01*
X130846770Y-87408849D01*
X130843213Y-87418517D01*
X130781906Y-87639583D01*
X130779975Y-87649703D01*
X130755596Y-87877827D01*
X130755344Y-87888116D01*
X123292257Y-87888116D01*
X123374597Y-87741088D01*
X123442092Y-87542254D01*
X123444670Y-87524479D01*
X123471691Y-87338120D01*
X123471691Y-87338118D01*
X123472223Y-87334450D01*
X123473795Y-87274400D01*
X123454582Y-87065304D01*
X123447264Y-87039354D01*
X123428718Y-86973597D01*
X123397586Y-86863210D01*
X123395033Y-86858033D01*
X123395031Y-86858028D01*
X123307269Y-86680067D01*
X123304715Y-86674888D01*
X123179081Y-86506643D01*
X123046617Y-86384194D01*
X123029130Y-86368029D01*
X123029127Y-86368027D01*
X123024890Y-86364110D01*
X122847306Y-86252064D01*
X122652278Y-86174255D01*
X122646610Y-86173128D01*
X122646608Y-86173127D01*
X122452003Y-86134418D01*
X122451999Y-86134418D01*
X122446335Y-86133291D01*
X122440560Y-86133215D01*
X122440556Y-86133215D01*
X122335186Y-86131836D01*
X122236376Y-86130542D01*
X122230679Y-86131521D01*
X122230678Y-86131521D01*
X122213819Y-86134418D01*
X122029432Y-86166102D01*
X121832434Y-86238778D01*
X121827473Y-86241730D01*
X121827472Y-86241730D01*
X121747017Y-86289596D01*
X121651978Y-86346138D01*
X121494109Y-86484585D01*
X121364114Y-86649484D01*
X121361425Y-86654595D01*
X121361423Y-86654598D01*
X121317164Y-86738720D01*
X121266345Y-86835311D01*
X121242746Y-86911311D01*
X121206469Y-87028143D01*
X121204078Y-87035843D01*
X121179398Y-87244365D01*
X119774200Y-87244365D01*
X119774200Y-84872365D01*
X119794202Y-84804244D01*
X119847858Y-84757751D01*
X119855970Y-84754383D01*
X119913097Y-84732967D01*
X119921505Y-84729815D01*
X120038061Y-84642461D01*
X120125415Y-84525905D01*
X120176545Y-84389516D01*
X120183300Y-84327334D01*
X120183300Y-83211066D01*
X120176545Y-83148884D01*
X120125415Y-83012495D01*
X120038061Y-82895939D01*
X119921505Y-82808585D01*
X119785116Y-82757455D01*
X119722934Y-82750700D01*
X118686666Y-82750700D01*
X118624484Y-82757455D01*
X118607399Y-82763860D01*
X118496499Y-82805434D01*
X118496496Y-82805436D01*
X118488095Y-82808585D01*
X118480913Y-82813968D01*
X118475309Y-82817036D01*
X118405952Y-82832205D01*
X118354292Y-82817037D01*
X118348691Y-82813971D01*
X118341505Y-82808585D01*
X118303970Y-82794514D01*
X118247206Y-82751872D01*
X118222506Y-82685311D01*
X118222200Y-82676532D01*
X118222200Y-82106822D01*
X118242202Y-82038701D01*
X118295858Y-81992208D01*
X118366132Y-81982104D01*
X118392429Y-81988840D01*
X118515482Y-82034971D01*
X118515488Y-82034973D01*
X118522884Y-82037745D01*
X118585066Y-82044500D01*
X119621334Y-82044500D01*
X119683516Y-82037745D01*
X119819905Y-81986615D01*
X119932041Y-81902574D01*
X119998546Y-81877726D01*
X120007605Y-81877400D01*
X120206675Y-81877400D01*
X120274796Y-81897402D01*
G37*
%TD.AperFunction*%
%TA.AperFunction,Conductor*%
G36*
X107028138Y-76728502D02*
G01*
X107074631Y-76782158D01*
X107084735Y-76852432D01*
X107055241Y-76917012D01*
X107035586Y-76935323D01*
X106999539Y-76962339D01*
X106912185Y-77078895D01*
X106861055Y-77215284D01*
X106854300Y-77277466D01*
X106854300Y-78373734D01*
X106861055Y-78435916D01*
X106912185Y-78572305D01*
X106999539Y-78688861D01*
X107116095Y-78776215D01*
X107124504Y-78779367D01*
X107124507Y-78779369D01*
X107132031Y-78782190D01*
X107188795Y-78824832D01*
X107213494Y-78891394D01*
X107213800Y-78900171D01*
X107213800Y-79792879D01*
X107205782Y-79837109D01*
X107201855Y-79847584D01*
X107195100Y-79909766D01*
X107195100Y-80232175D01*
X107175098Y-80300296D01*
X107158195Y-80321270D01*
X107150959Y-80328506D01*
X107088647Y-80362532D01*
X107017832Y-80357467D01*
X106960996Y-80314920D01*
X106936252Y-80249297D01*
X106931812Y-80192879D01*
X106922109Y-80069597D01*
X106920342Y-80062234D01*
X106867033Y-79840186D01*
X106863005Y-79823409D01*
X106855013Y-79804115D01*
X106768011Y-79594072D01*
X106768009Y-79594068D01*
X106766116Y-79589498D01*
X106633828Y-79373624D01*
X106469398Y-79181102D01*
X106276876Y-79016672D01*
X106061002Y-78884384D01*
X106056432Y-78882491D01*
X106056428Y-78882489D01*
X105831664Y-78789389D01*
X105831662Y-78789388D01*
X105827091Y-78787495D01*
X105686982Y-78753858D01*
X105585716Y-78729546D01*
X105585710Y-78729545D01*
X105580903Y-78728391D01*
X105328500Y-78708526D01*
X105076097Y-78728391D01*
X105071290Y-78729545D01*
X105071284Y-78729546D01*
X104970018Y-78753858D01*
X104829909Y-78787495D01*
X104825338Y-78789388D01*
X104825336Y-78789389D01*
X104600572Y-78882489D01*
X104600568Y-78882491D01*
X104595998Y-78884384D01*
X104380124Y-79016672D01*
X104187602Y-79181102D01*
X104023172Y-79373624D01*
X103890884Y-79589498D01*
X103888991Y-79594068D01*
X103888989Y-79594072D01*
X103801987Y-79804115D01*
X103793995Y-79823409D01*
X103789967Y-79840186D01*
X103736659Y-80062234D01*
X103734891Y-80069597D01*
X103730480Y-80125641D01*
X103720275Y-80255310D01*
X103720000Y-80258801D01*
X103720000Y-82585199D01*
X103720193Y-82587648D01*
X103720193Y-82587655D01*
X103722873Y-82621708D01*
X103734891Y-82774403D01*
X103736045Y-82779210D01*
X103736046Y-82779216D01*
X103769338Y-82917888D01*
X103793995Y-83020591D01*
X103795888Y-83025162D01*
X103795889Y-83025164D01*
X103880667Y-83229835D01*
X103890884Y-83254502D01*
X104023172Y-83470376D01*
X104187602Y-83662898D01*
X104380124Y-83827328D01*
X104595998Y-83959616D01*
X104600568Y-83961509D01*
X104600572Y-83961511D01*
X104825336Y-84054611D01*
X104829909Y-84056505D01*
X104906051Y-84074785D01*
X105071284Y-84114454D01*
X105071290Y-84114455D01*
X105076097Y-84115609D01*
X105328500Y-84135474D01*
X105580903Y-84115609D01*
X105585710Y-84114455D01*
X105585716Y-84114454D01*
X105750949Y-84074785D01*
X105827091Y-84056505D01*
X105831664Y-84054611D01*
X106056428Y-83961511D01*
X106056432Y-83961509D01*
X106061002Y-83959616D01*
X106276876Y-83827328D01*
X106469398Y-83662898D01*
X106633828Y-83470376D01*
X106766116Y-83254502D01*
X106776334Y-83229835D01*
X106792184Y-83191569D01*
X107195601Y-83191569D01*
X107195971Y-83198390D01*
X107201495Y-83249252D01*
X107205121Y-83264504D01*
X107250276Y-83384954D01*
X107258814Y-83400549D01*
X107335315Y-83502624D01*
X107347876Y-83515185D01*
X107449951Y-83591686D01*
X107465546Y-83600224D01*
X107585994Y-83645378D01*
X107601249Y-83649005D01*
X107652114Y-83654531D01*
X107658928Y-83654900D01*
X108168085Y-83654900D01*
X108183324Y-83650425D01*
X108184529Y-83649035D01*
X108186200Y-83641352D01*
X108186200Y-83636784D01*
X108694200Y-83636784D01*
X108698675Y-83652023D01*
X108700065Y-83653228D01*
X108707748Y-83654899D01*
X109221469Y-83654899D01*
X109228290Y-83654529D01*
X109279152Y-83649005D01*
X109294404Y-83645379D01*
X109414854Y-83600224D01*
X109430449Y-83591686D01*
X109532524Y-83515185D01*
X109545085Y-83502624D01*
X109621586Y-83400549D01*
X109630124Y-83384954D01*
X109675278Y-83264506D01*
X109678905Y-83249251D01*
X109684431Y-83198386D01*
X109684800Y-83191572D01*
X109684800Y-82974515D01*
X109680325Y-82959276D01*
X109678935Y-82958071D01*
X109671252Y-82956400D01*
X108712315Y-82956400D01*
X108697076Y-82960875D01*
X108695871Y-82962265D01*
X108694200Y-82969948D01*
X108694200Y-83636784D01*
X108186200Y-83636784D01*
X108186200Y-82974515D01*
X108181725Y-82959276D01*
X108180335Y-82958071D01*
X108172652Y-82956400D01*
X107213716Y-82956400D01*
X107198477Y-82960875D01*
X107197272Y-82962265D01*
X107195601Y-82969948D01*
X107195601Y-83191569D01*
X106792184Y-83191569D01*
X106861111Y-83025164D01*
X106861112Y-83025162D01*
X106863005Y-83020591D01*
X106887662Y-82917888D01*
X106920954Y-82779216D01*
X106920955Y-82779210D01*
X106922109Y-82774403D01*
X106934127Y-82621708D01*
X106936807Y-82587655D01*
X106936807Y-82587648D01*
X106937000Y-82585199D01*
X106937000Y-82250109D01*
X106957002Y-82181988D01*
X107010658Y-82135495D01*
X107071571Y-82124401D01*
X107078171Y-82124851D01*
X107144773Y-82149440D01*
X107187509Y-82206134D01*
X107195600Y-82250559D01*
X107195600Y-82430285D01*
X107200075Y-82445524D01*
X107201465Y-82446729D01*
X107209148Y-82448400D01*
X108168085Y-82448400D01*
X108183324Y-82443925D01*
X108184529Y-82442535D01*
X108186200Y-82434852D01*
X108186200Y-82430285D01*
X108694200Y-82430285D01*
X108698675Y-82445524D01*
X108700065Y-82446729D01*
X108707748Y-82448400D01*
X109666684Y-82448400D01*
X109681923Y-82443925D01*
X109683128Y-82442535D01*
X109684799Y-82434852D01*
X109684799Y-82213231D01*
X109684429Y-82206410D01*
X109678905Y-82155548D01*
X109675279Y-82140296D01*
X109630124Y-82019846D01*
X109621586Y-82004251D01*
X109545085Y-81902176D01*
X109532524Y-81889615D01*
X109430449Y-81813114D01*
X109414854Y-81804576D01*
X109294406Y-81759422D01*
X109279151Y-81755795D01*
X109228286Y-81750269D01*
X109221472Y-81749900D01*
X108712315Y-81749900D01*
X108697076Y-81754375D01*
X108695871Y-81755765D01*
X108694200Y-81763448D01*
X108694200Y-82430285D01*
X108186200Y-82430285D01*
X108186200Y-81768016D01*
X108181725Y-81752777D01*
X108180335Y-81751572D01*
X108172652Y-81749901D01*
X108010824Y-81749901D01*
X107942703Y-81729899D01*
X107896210Y-81676243D01*
X107886106Y-81605969D01*
X107915600Y-81541389D01*
X107921729Y-81534806D01*
X108064230Y-81392305D01*
X108126542Y-81358279D01*
X108153325Y-81355400D01*
X109224934Y-81355400D01*
X109287116Y-81348645D01*
X109423505Y-81297515D01*
X109540061Y-81210161D01*
X109627415Y-81093605D01*
X109678545Y-80957216D01*
X109685300Y-80895034D01*
X109685300Y-79909766D01*
X109678545Y-79847584D01*
X109627415Y-79711195D01*
X109540061Y-79594639D01*
X109423505Y-79507285D01*
X109287116Y-79456155D01*
X109224934Y-79449400D01*
X108737800Y-79449400D01*
X108669679Y-79429398D01*
X108623186Y-79375742D01*
X108611800Y-79323400D01*
X108611800Y-78900171D01*
X108631802Y-78832050D01*
X108685458Y-78785557D01*
X108693569Y-78782190D01*
X108701097Y-78779368D01*
X108701103Y-78779365D01*
X108704715Y-78778011D01*
X108704718Y-78778010D01*
X108709504Y-78776216D01*
X108709763Y-78776907D01*
X108772174Y-78763257D01*
X108816185Y-78776180D01*
X108816338Y-78775772D01*
X108821912Y-78777862D01*
X108823834Y-78778426D01*
X108824739Y-78778921D01*
X108945194Y-78824078D01*
X108960449Y-78827705D01*
X109011314Y-78833231D01*
X109018128Y-78833600D01*
X109340685Y-78833600D01*
X109355924Y-78829125D01*
X109357129Y-78827735D01*
X109358800Y-78820052D01*
X109358800Y-78815484D01*
X109866800Y-78815484D01*
X109871275Y-78830723D01*
X109872665Y-78831928D01*
X109880348Y-78833599D01*
X110207469Y-78833599D01*
X110214290Y-78833229D01*
X110265152Y-78827705D01*
X110280404Y-78824079D01*
X110400854Y-78778924D01*
X110416449Y-78770386D01*
X110518524Y-78693885D01*
X110531085Y-78681324D01*
X110607586Y-78579249D01*
X110616124Y-78563654D01*
X110661278Y-78443206D01*
X110664905Y-78427951D01*
X110670431Y-78377086D01*
X110670800Y-78370272D01*
X110670800Y-78097715D01*
X110666325Y-78082476D01*
X110664935Y-78081271D01*
X110657252Y-78079600D01*
X109884915Y-78079600D01*
X109869676Y-78084075D01*
X109868471Y-78085465D01*
X109866800Y-78093148D01*
X109866800Y-78815484D01*
X109358800Y-78815484D01*
X109358800Y-77697600D01*
X109378802Y-77629479D01*
X109432458Y-77582986D01*
X109484800Y-77571600D01*
X110652684Y-77571600D01*
X110667923Y-77567125D01*
X110669128Y-77565735D01*
X110670799Y-77558052D01*
X110670799Y-77280931D01*
X110670429Y-77274110D01*
X110664905Y-77223248D01*
X110661279Y-77207996D01*
X110616124Y-77087546D01*
X110607586Y-77071951D01*
X110531085Y-76969876D01*
X110518524Y-76957315D01*
X110489184Y-76935326D01*
X110446669Y-76878467D01*
X110441643Y-76807649D01*
X110475703Y-76745355D01*
X110538034Y-76711365D01*
X110564749Y-76708500D01*
X115762886Y-76708500D01*
X115831007Y-76728502D01*
X115877500Y-76782158D01*
X115887604Y-76852432D01*
X115858110Y-76917012D01*
X115838451Y-76935326D01*
X115799339Y-76964639D01*
X115711985Y-77081195D01*
X115660855Y-77217584D01*
X115654100Y-77279766D01*
X115654100Y-78981034D01*
X115660855Y-79043216D01*
X115711985Y-79179605D01*
X115799339Y-79296161D01*
X115915895Y-79383515D01*
X116052284Y-79434645D01*
X116114466Y-79441400D01*
X116140100Y-79441400D01*
X116208221Y-79461402D01*
X116254714Y-79515058D01*
X116266100Y-79567400D01*
X116266100Y-80360501D01*
X116265808Y-80369071D01*
X116261930Y-80425952D01*
X116262889Y-80431448D01*
X116246679Y-80499686D01*
X116195530Y-80548923D01*
X116125882Y-80562691D01*
X116093032Y-80555188D01*
X116017918Y-80527029D01*
X116017912Y-80527027D01*
X116010516Y-80524255D01*
X115948334Y-80517500D01*
X113820066Y-80517500D01*
X113757884Y-80524255D01*
X113621495Y-80575385D01*
X113504939Y-80662739D01*
X113417585Y-80779295D01*
X113366455Y-80915684D01*
X113359700Y-80977866D01*
X113359700Y-84376134D01*
X113366455Y-84438316D01*
X113417585Y-84574705D01*
X113504939Y-84691261D01*
X113621495Y-84778615D01*
X113757884Y-84829745D01*
X113820066Y-84836500D01*
X115948334Y-84836500D01*
X116010516Y-84829745D01*
X116146905Y-84778615D01*
X116263461Y-84691261D01*
X116350815Y-84574705D01*
X116401945Y-84438316D01*
X116405767Y-84403134D01*
X116433009Y-84337572D01*
X116491372Y-84297146D01*
X116562326Y-84294691D01*
X116623344Y-84330986D01*
X116652651Y-84385797D01*
X116653055Y-84389516D01*
X116704185Y-84525905D01*
X116749946Y-84586964D01*
X116776226Y-84622029D01*
X116801074Y-84688535D01*
X116801400Y-84697594D01*
X116801400Y-86221475D01*
X116781398Y-86289596D01*
X116764495Y-86310570D01*
X115672970Y-87402095D01*
X115610658Y-87436121D01*
X115583875Y-87439000D01*
X115470880Y-87439000D01*
X115402759Y-87418998D01*
X115361946Y-87375212D01*
X115360215Y-87370595D01*
X115272861Y-87254039D01*
X115156305Y-87166685D01*
X115019916Y-87115555D01*
X114957734Y-87108800D01*
X114277266Y-87108800D01*
X114215084Y-87115555D01*
X114078695Y-87166685D01*
X113962139Y-87254039D01*
X113874785Y-87370595D01*
X113823655Y-87506984D01*
X113816900Y-87569166D01*
X113816900Y-88706834D01*
X113823655Y-88769016D01*
X113874785Y-88905405D01*
X113880171Y-88912591D01*
X113893326Y-88930144D01*
X113918174Y-88996650D01*
X113918500Y-89005709D01*
X113918500Y-91034775D01*
X113898498Y-91102896D01*
X113881595Y-91123870D01*
X113622762Y-91382703D01*
X113616497Y-91388556D01*
X113573526Y-91426042D01*
X113551428Y-91457485D01*
X113537306Y-91477578D01*
X113533373Y-91482874D01*
X113499194Y-91526463D01*
X113499192Y-91526466D01*
X113494508Y-91532440D01*
X113491382Y-91539364D01*
X113489544Y-91542399D01*
X113482300Y-91555098D01*
X113480612Y-91558246D01*
X113476244Y-91564461D01*
X113456178Y-91615930D01*
X113453367Y-91623139D01*
X113450822Y-91629195D01*
X113424887Y-91686635D01*
X113423502Y-91694108D01*
X113422431Y-91697526D01*
X113418446Y-91711515D01*
X113417549Y-91715007D01*
X113414788Y-91722089D01*
X113413796Y-91729622D01*
X113413796Y-91729623D01*
X113406567Y-91784530D01*
X113405535Y-91791043D01*
X113400735Y-91816945D01*
X113394055Y-91852987D01*
X113394492Y-91860567D01*
X113394492Y-91860568D01*
X113397591Y-91914312D01*
X113397800Y-91921565D01*
X113397800Y-92510067D01*
X113377798Y-92578188D01*
X113332310Y-92620586D01*
X113325097Y-92624535D01*
X113316695Y-92627685D01*
X113200139Y-92715039D01*
X113112785Y-92831595D01*
X113061655Y-92967984D01*
X113054900Y-93030166D01*
X113054900Y-94421834D01*
X113061655Y-94484016D01*
X113112785Y-94620405D01*
X113200139Y-94736961D01*
X113242455Y-94768675D01*
X113284968Y-94825534D01*
X113289993Y-94896352D01*
X113255933Y-94958646D01*
X113193602Y-94992636D01*
X113166888Y-94995500D01*
X111877112Y-94995500D01*
X111808991Y-94975498D01*
X111762498Y-94921842D01*
X111752394Y-94851568D01*
X111781888Y-94786988D01*
X111801544Y-94768676D01*
X111843861Y-94736961D01*
X111931215Y-94620405D01*
X111982345Y-94484016D01*
X111989100Y-94421834D01*
X111989100Y-93030166D01*
X111982345Y-92967984D01*
X111931215Y-92831595D01*
X111843861Y-92715039D01*
X111727305Y-92627685D01*
X111590916Y-92576555D01*
X111528734Y-92569800D01*
X110467266Y-92569800D01*
X110405084Y-92576555D01*
X110268695Y-92627685D01*
X110152139Y-92715039D01*
X110064785Y-92831595D01*
X110061633Y-92840003D01*
X110022185Y-92945230D01*
X109979543Y-93001994D01*
X109912982Y-93026694D01*
X109904203Y-93027000D01*
X108229860Y-93027000D01*
X108185630Y-93018982D01*
X108151022Y-93006008D01*
X108050316Y-92968255D01*
X107988134Y-92961500D01*
X106951866Y-92961500D01*
X106889684Y-92968255D01*
X106878166Y-92972573D01*
X106761699Y-93016234D01*
X106761696Y-93016236D01*
X106753295Y-93019385D01*
X106746113Y-93024768D01*
X106739983Y-93028124D01*
X106670626Y-93043293D01*
X106618965Y-93028124D01*
X106598058Y-93016677D01*
X106477606Y-92971522D01*
X106462351Y-92967895D01*
X106411486Y-92962369D01*
X106404672Y-92962000D01*
X106162115Y-92962000D01*
X106146876Y-92966475D01*
X106145671Y-92967865D01*
X106144000Y-92975548D01*
X106144000Y-94108000D01*
X106123998Y-94176121D01*
X106070342Y-94222614D01*
X106018000Y-94234000D01*
X104930116Y-94234000D01*
X104914877Y-94238475D01*
X104913672Y-94239865D01*
X104912001Y-94247548D01*
X104912001Y-94534669D01*
X104912371Y-94541490D01*
X104917895Y-94592352D01*
X104921521Y-94607604D01*
X104966676Y-94728054D01*
X104975213Y-94743648D01*
X105012902Y-94793936D01*
X105037749Y-94860442D01*
X105022696Y-94929825D01*
X104972521Y-94980054D01*
X104912075Y-94995500D01*
X95884500Y-94995500D01*
X95816379Y-94975498D01*
X95769886Y-94921842D01*
X95758500Y-94869500D01*
X95758500Y-93955387D01*
X95778502Y-93887266D01*
X95832158Y-93840773D01*
X95902432Y-93830669D01*
X95967012Y-93860163D01*
X95988712Y-93884564D01*
X96060605Y-93990352D01*
X96060608Y-93990356D01*
X96063451Y-93994539D01*
X96066928Y-93998216D01*
X96066929Y-93998217D01*
X96223348Y-94163626D01*
X96235767Y-94176759D01*
X96239793Y-94179837D01*
X96239794Y-94179838D01*
X96430981Y-94326012D01*
X96430985Y-94326015D01*
X96435001Y-94329085D01*
X96656026Y-94447597D01*
X96660807Y-94449243D01*
X96660811Y-94449245D01*
X96886538Y-94526969D01*
X96893156Y-94529248D01*
X96992937Y-94546483D01*
X97136380Y-94571260D01*
X97136386Y-94571261D01*
X97140290Y-94571935D01*
X97144251Y-94572115D01*
X97144252Y-94572115D01*
X97168931Y-94573236D01*
X97168950Y-94573236D01*
X97170350Y-94573300D01*
X97345015Y-94573300D01*
X97347523Y-94573098D01*
X97347528Y-94573098D01*
X97526944Y-94558663D01*
X97526949Y-94558662D01*
X97531985Y-94558257D01*
X97536893Y-94557052D01*
X97536896Y-94557051D01*
X97770625Y-94499641D01*
X97775539Y-94498434D01*
X97780191Y-94496459D01*
X97780195Y-94496458D01*
X98001741Y-94402417D01*
X98001742Y-94402417D01*
X98006396Y-94400441D01*
X98144812Y-94313276D01*
X98214334Y-94269496D01*
X98214335Y-94269495D01*
X98218615Y-94266800D01*
X98406738Y-94100947D01*
X98565924Y-93907151D01*
X98681899Y-93707885D01*
X104912000Y-93707885D01*
X104916475Y-93723124D01*
X104917865Y-93724329D01*
X104925548Y-93726000D01*
X105617885Y-93726000D01*
X105633124Y-93721525D01*
X105634329Y-93720135D01*
X105636000Y-93712452D01*
X105636000Y-92980116D01*
X105631525Y-92964877D01*
X105630135Y-92963672D01*
X105622452Y-92962001D01*
X105375331Y-92962001D01*
X105368510Y-92962371D01*
X105317648Y-92967895D01*
X105302396Y-92971521D01*
X105181946Y-93016676D01*
X105166351Y-93025214D01*
X105064276Y-93101715D01*
X105051715Y-93114276D01*
X104975214Y-93216351D01*
X104966676Y-93231946D01*
X104921522Y-93352394D01*
X104917895Y-93367649D01*
X104912369Y-93418514D01*
X104912000Y-93425328D01*
X104912000Y-93707885D01*
X98681899Y-93707885D01*
X98692078Y-93690396D01*
X98781955Y-93456261D01*
X98783909Y-93446912D01*
X98828157Y-93235105D01*
X98833241Y-93210767D01*
X98837530Y-93116331D01*
X98841586Y-93027000D01*
X98844618Y-92960232D01*
X98841446Y-92932813D01*
X98821105Y-92757023D01*
X98815792Y-92711101D01*
X98814125Y-92705207D01*
X98748884Y-92474652D01*
X98748883Y-92474650D01*
X98747506Y-92469783D01*
X98745372Y-92465208D01*
X98745370Y-92465201D01*
X98643653Y-92247069D01*
X98643651Y-92247065D01*
X98641516Y-92242487D01*
X98638674Y-92238305D01*
X98503395Y-92039248D01*
X98503392Y-92039244D01*
X98500549Y-92035061D01*
X98460229Y-91992423D01*
X98331713Y-91856521D01*
X98328233Y-91852841D01*
X98318655Y-91845518D01*
X98133019Y-91703588D01*
X98133015Y-91703585D01*
X98128999Y-91700515D01*
X97907974Y-91582003D01*
X97903193Y-91580357D01*
X97903189Y-91580355D01*
X97675633Y-91502001D01*
X97670844Y-91500352D01*
X97554638Y-91480280D01*
X97427620Y-91458340D01*
X97427614Y-91458339D01*
X97423710Y-91457665D01*
X97419749Y-91457485D01*
X97419748Y-91457485D01*
X97395069Y-91456364D01*
X97395050Y-91456364D01*
X97393650Y-91456300D01*
X97218985Y-91456300D01*
X97216477Y-91456502D01*
X97216472Y-91456502D01*
X97037056Y-91470937D01*
X97037051Y-91470938D01*
X97032015Y-91471343D01*
X97027107Y-91472548D01*
X97027104Y-91472549D01*
X96886179Y-91507164D01*
X96788461Y-91531166D01*
X96783809Y-91533141D01*
X96783805Y-91533142D01*
X96584034Y-91617940D01*
X96557604Y-91629159D01*
X96476935Y-91679959D01*
X96381350Y-91740152D01*
X96345385Y-91762800D01*
X96181458Y-91907321D01*
X96172396Y-91915311D01*
X96157262Y-91928653D01*
X95998076Y-92122449D01*
X95995532Y-92126820D01*
X95993399Y-92130485D01*
X95941846Y-92179299D01*
X95872086Y-92192492D01*
X95806267Y-92165876D01*
X95765287Y-92107900D01*
X95758500Y-92067105D01*
X95758500Y-89747067D01*
X104624405Y-89747067D01*
X104624775Y-89753888D01*
X104630299Y-89804750D01*
X104633925Y-89820002D01*
X104679080Y-89940452D01*
X104687618Y-89956047D01*
X104764119Y-90058122D01*
X104776680Y-90070683D01*
X104878755Y-90147184D01*
X104894350Y-90155722D01*
X105014798Y-90200876D01*
X105030053Y-90204503D01*
X105080918Y-90210029D01*
X105087732Y-90210398D01*
X105562963Y-90210398D01*
X105578202Y-90205923D01*
X105579407Y-90204533D01*
X105581078Y-90196850D01*
X105581078Y-90192282D01*
X106089078Y-90192282D01*
X106093553Y-90207521D01*
X106094943Y-90208726D01*
X106102626Y-90210397D01*
X106582421Y-90210397D01*
X106589242Y-90210027D01*
X106640104Y-90204503D01*
X106655356Y-90200877D01*
X106775806Y-90155722D01*
X106791401Y-90147184D01*
X106893476Y-90070683D01*
X106895348Y-90068811D01*
X106897654Y-90067552D01*
X106900656Y-90065302D01*
X106900981Y-90065735D01*
X106957660Y-90034785D01*
X107028475Y-90039850D01*
X107068544Y-90065601D01*
X107068587Y-90065659D01*
X107185143Y-90153013D01*
X107321532Y-90204143D01*
X107383714Y-90210898D01*
X108885330Y-90210898D01*
X108947512Y-90204143D01*
X109083901Y-90153013D01*
X109200457Y-90065659D01*
X109287811Y-89949103D01*
X109338941Y-89812714D01*
X109345696Y-89750532D01*
X109345696Y-89053030D01*
X109365698Y-88984909D01*
X109382601Y-88963934D01*
X109472632Y-88873904D01*
X109534944Y-88839879D01*
X109561727Y-88837000D01*
X110081120Y-88837000D01*
X110149241Y-88857002D01*
X110190054Y-88900788D01*
X110191785Y-88905405D01*
X110279139Y-89021961D01*
X110395695Y-89109315D01*
X110532084Y-89160445D01*
X110594266Y-89167200D01*
X111274734Y-89167200D01*
X111336916Y-89160445D01*
X111473305Y-89109315D01*
X111589861Y-89021961D01*
X111677215Y-88905405D01*
X111728345Y-88769016D01*
X111735100Y-88706834D01*
X111735100Y-87569166D01*
X111728345Y-87506984D01*
X111677215Y-87370595D01*
X111589861Y-87254039D01*
X111582681Y-87248658D01*
X111576331Y-87242308D01*
X111577992Y-87240647D01*
X111546992Y-87201573D01*
X111546634Y-87200757D01*
X111545166Y-87197413D01*
X111542677Y-87191315D01*
X111523090Y-87139480D01*
X111523089Y-87139478D01*
X111520406Y-87132378D01*
X111516109Y-87126126D01*
X111514466Y-87122983D01*
X111507371Y-87110235D01*
X111505530Y-87107123D01*
X111502477Y-87100167D01*
X111492293Y-87086894D01*
X111464138Y-87050202D01*
X111460261Y-87044866D01*
X111450270Y-87030328D01*
X111430778Y-87001967D01*
X111428881Y-86999207D01*
X111428880Y-86999205D01*
X111424579Y-86992948D01*
X111413220Y-86982827D01*
X111378721Y-86952090D01*
X111373445Y-86947109D01*
X109722205Y-85295870D01*
X109688180Y-85233558D01*
X109685300Y-85206775D01*
X109685300Y-84509766D01*
X109678545Y-84447584D01*
X109627415Y-84311195D01*
X109540061Y-84194639D01*
X109423505Y-84107285D01*
X109287116Y-84056155D01*
X109224934Y-84049400D01*
X107655466Y-84049400D01*
X107593284Y-84056155D01*
X107456895Y-84107285D01*
X107340339Y-84194639D01*
X107252985Y-84311195D01*
X107201855Y-84447584D01*
X107195100Y-84509766D01*
X107195100Y-85495034D01*
X107201855Y-85557216D01*
X107252985Y-85693605D01*
X107340339Y-85810161D01*
X107456895Y-85897515D01*
X107593284Y-85948645D01*
X107655466Y-85955400D01*
X108352475Y-85955400D01*
X108420596Y-85975402D01*
X108441570Y-85992305D01*
X109673170Y-87223905D01*
X109707196Y-87286217D01*
X109702131Y-87357032D01*
X109659584Y-87413868D01*
X109593064Y-87438679D01*
X109584075Y-87439000D01*
X109248600Y-87439000D01*
X109240029Y-87438708D01*
X109239604Y-87438679D01*
X109183149Y-87434830D01*
X109121065Y-87445666D01*
X109114586Y-87446622D01*
X109052040Y-87454191D01*
X109044938Y-87456875D01*
X109041456Y-87457730D01*
X109027421Y-87461570D01*
X109023973Y-87462611D01*
X109016483Y-87463918D01*
X109009522Y-87466974D01*
X109009521Y-87466974D01*
X108958805Y-87489237D01*
X108952697Y-87491730D01*
X108931910Y-87499585D01*
X108893778Y-87513994D01*
X108887512Y-87518300D01*
X108884357Y-87519950D01*
X108871565Y-87527069D01*
X108868521Y-87528869D01*
X108861567Y-87531922D01*
X108855539Y-87536547D01*
X108855538Y-87536548D01*
X108811604Y-87570260D01*
X108806267Y-87574138D01*
X108762121Y-87604479D01*
X108754348Y-87609821D01*
X108749296Y-87615491D01*
X108749295Y-87615492D01*
X108713482Y-87655688D01*
X108708501Y-87660964D01*
X108512468Y-87856997D01*
X108450156Y-87891023D01*
X108423373Y-87893902D01*
X107383714Y-87893902D01*
X107321532Y-87900657D01*
X107185143Y-87951787D01*
X107068587Y-88039141D01*
X107068349Y-88038823D01*
X107011226Y-88070015D01*
X106940411Y-88064950D01*
X106900705Y-88039432D01*
X106900656Y-88039498D01*
X106899741Y-88038812D01*
X106895348Y-88035989D01*
X106893476Y-88034117D01*
X106791401Y-87957616D01*
X106775806Y-87949078D01*
X106655358Y-87903924D01*
X106640103Y-87900297D01*
X106589238Y-87894771D01*
X106582424Y-87894402D01*
X106107193Y-87894402D01*
X106091954Y-87898877D01*
X106090749Y-87900267D01*
X106089078Y-87907950D01*
X106089078Y-90192282D01*
X105581078Y-90192282D01*
X105581078Y-89324515D01*
X105576603Y-89309276D01*
X105575213Y-89308071D01*
X105567530Y-89306400D01*
X104642520Y-89306400D01*
X104627281Y-89310875D01*
X104626076Y-89312265D01*
X104624405Y-89319948D01*
X104624405Y-89747067D01*
X95758500Y-89747067D01*
X95758500Y-88780285D01*
X104624404Y-88780285D01*
X104628879Y-88795524D01*
X104630269Y-88796729D01*
X104637952Y-88798400D01*
X105562963Y-88798400D01*
X105578202Y-88793925D01*
X105579407Y-88792535D01*
X105581078Y-88784852D01*
X105581078Y-87912518D01*
X105576603Y-87897279D01*
X105575213Y-87896074D01*
X105567530Y-87894403D01*
X105087735Y-87894403D01*
X105080914Y-87894773D01*
X105030052Y-87900297D01*
X105014800Y-87903923D01*
X104894350Y-87949078D01*
X104878755Y-87957616D01*
X104776680Y-88034117D01*
X104764119Y-88046678D01*
X104687618Y-88148753D01*
X104679080Y-88164348D01*
X104633926Y-88284796D01*
X104630299Y-88300051D01*
X104624773Y-88350916D01*
X104624404Y-88357730D01*
X104624404Y-88780285D01*
X95758500Y-88780285D01*
X95758500Y-86384194D01*
X100240102Y-86384194D01*
X100249550Y-86445933D01*
X100251939Y-86455961D01*
X100323210Y-86674016D01*
X100327207Y-86683525D01*
X100433133Y-86887007D01*
X100438627Y-86895732D01*
X100576369Y-87079187D01*
X100583212Y-87086894D01*
X100749069Y-87245391D01*
X100757075Y-87251874D01*
X100946594Y-87381155D01*
X100955553Y-87386244D01*
X101163645Y-87482837D01*
X101173313Y-87486394D01*
X101394379Y-87547701D01*
X101404499Y-87549632D01*
X101591752Y-87569644D01*
X101598444Y-87570000D01*
X102351385Y-87570000D01*
X102366624Y-87565525D01*
X102367829Y-87564135D01*
X102369500Y-87556452D01*
X102369500Y-87551885D01*
X102877500Y-87551885D01*
X102881975Y-87567124D01*
X102883365Y-87568329D01*
X102891048Y-87570000D01*
X103631690Y-87570000D01*
X103636863Y-87569788D01*
X103807294Y-87555776D01*
X103817456Y-87554093D01*
X104039961Y-87498204D01*
X104049716Y-87494883D01*
X104260090Y-87403409D01*
X104269188Y-87398531D01*
X104461801Y-87273925D01*
X104469961Y-87267641D01*
X104639649Y-87113237D01*
X104646670Y-87105707D01*
X104788856Y-86925668D01*
X104794561Y-86917081D01*
X104905426Y-86716250D01*
X104909656Y-86706838D01*
X104986236Y-86490584D01*
X104988865Y-86480634D01*
X105006107Y-86383836D01*
X105004648Y-86370540D01*
X104990092Y-86366000D01*
X102895615Y-86366000D01*
X102880376Y-86370475D01*
X102879171Y-86371865D01*
X102877500Y-86379548D01*
X102877500Y-87551885D01*
X102369500Y-87551885D01*
X102369500Y-86384115D01*
X102365025Y-86368876D01*
X102363635Y-86367671D01*
X102355952Y-86366000D01*
X100255433Y-86366000D01*
X100242089Y-86369918D01*
X100240102Y-86384194D01*
X95758500Y-86384194D01*
X95758500Y-85840164D01*
X100240893Y-85840164D01*
X100242352Y-85853460D01*
X100256908Y-85858000D01*
X102351385Y-85858000D01*
X102366624Y-85853525D01*
X102367829Y-85852135D01*
X102369500Y-85844452D01*
X102369500Y-85839885D01*
X102877500Y-85839885D01*
X102881975Y-85855124D01*
X102883365Y-85856329D01*
X102891048Y-85858000D01*
X104991567Y-85858000D01*
X105004911Y-85854082D01*
X105006898Y-85839806D01*
X104997450Y-85778067D01*
X104995061Y-85768039D01*
X104923790Y-85549984D01*
X104919793Y-85540475D01*
X104813867Y-85336993D01*
X104808373Y-85328268D01*
X104670631Y-85144813D01*
X104663788Y-85137106D01*
X104497931Y-84978609D01*
X104489925Y-84972126D01*
X104300406Y-84842845D01*
X104291447Y-84837756D01*
X104083355Y-84741163D01*
X104073687Y-84737606D01*
X103852621Y-84676299D01*
X103842501Y-84674368D01*
X103655248Y-84654356D01*
X103648556Y-84654000D01*
X102895615Y-84654000D01*
X102880376Y-84658475D01*
X102879171Y-84659865D01*
X102877500Y-84667548D01*
X102877500Y-85839885D01*
X102369500Y-85839885D01*
X102369500Y-84672115D01*
X102365025Y-84656876D01*
X102363635Y-84655671D01*
X102355952Y-84654000D01*
X101615310Y-84654000D01*
X101610137Y-84654212D01*
X101439706Y-84668224D01*
X101429544Y-84669907D01*
X101207039Y-84725796D01*
X101197284Y-84729117D01*
X100986910Y-84820591D01*
X100977812Y-84825469D01*
X100785199Y-84950075D01*
X100777039Y-84956359D01*
X100607351Y-85110763D01*
X100600330Y-85118293D01*
X100458144Y-85298332D01*
X100452439Y-85306919D01*
X100341574Y-85507750D01*
X100337344Y-85517162D01*
X100260764Y-85733416D01*
X100258135Y-85743366D01*
X100240893Y-85840164D01*
X95758500Y-85840164D01*
X95758500Y-82430190D01*
X97915500Y-82430190D01*
X97915712Y-82435363D01*
X97929724Y-82605794D01*
X97931407Y-82615956D01*
X97987296Y-82838461D01*
X97990617Y-82848216D01*
X98082091Y-83058590D01*
X98086969Y-83067688D01*
X98211575Y-83260301D01*
X98217859Y-83268461D01*
X98372263Y-83438149D01*
X98379793Y-83445170D01*
X98559832Y-83587356D01*
X98568419Y-83593061D01*
X98769250Y-83703926D01*
X98778662Y-83708156D01*
X98994916Y-83784736D01*
X99004866Y-83787365D01*
X99101664Y-83804607D01*
X99114960Y-83803148D01*
X99119040Y-83790067D01*
X99627500Y-83790067D01*
X99631418Y-83803411D01*
X99645694Y-83805398D01*
X99707433Y-83795950D01*
X99717461Y-83793561D01*
X99935516Y-83722290D01*
X99945025Y-83718293D01*
X100148507Y-83612367D01*
X100157232Y-83606873D01*
X100340687Y-83469131D01*
X100348394Y-83462288D01*
X100506891Y-83296431D01*
X100513374Y-83288425D01*
X100642655Y-83098906D01*
X100647744Y-83089947D01*
X100744337Y-82881855D01*
X100747894Y-82872187D01*
X100809201Y-82651121D01*
X100811132Y-82641001D01*
X100831144Y-82453748D01*
X100831500Y-82447056D01*
X100831500Y-81694115D01*
X100827025Y-81678876D01*
X100825635Y-81677671D01*
X100817952Y-81676000D01*
X99645615Y-81676000D01*
X99630376Y-81680475D01*
X99629171Y-81681865D01*
X99627500Y-81689548D01*
X99627500Y-83790067D01*
X99119040Y-83790067D01*
X99119500Y-83788592D01*
X99119500Y-81694115D01*
X99115025Y-81678876D01*
X99113635Y-81677671D01*
X99105952Y-81676000D01*
X97933615Y-81676000D01*
X97918376Y-81680475D01*
X97917171Y-81681865D01*
X97915500Y-81689548D01*
X97915500Y-82430190D01*
X95758500Y-82430190D01*
X95758500Y-81149885D01*
X97915500Y-81149885D01*
X97919975Y-81165124D01*
X97921365Y-81166329D01*
X97929048Y-81168000D01*
X99101385Y-81168000D01*
X99116624Y-81163525D01*
X99117829Y-81162135D01*
X99119500Y-81154452D01*
X99119500Y-81149885D01*
X99627500Y-81149885D01*
X99631975Y-81165124D01*
X99633365Y-81166329D01*
X99641048Y-81168000D01*
X100813385Y-81168000D01*
X100828624Y-81163525D01*
X100829829Y-81162135D01*
X100831500Y-81154452D01*
X100831500Y-80413810D01*
X100831288Y-80408637D01*
X100817276Y-80238206D01*
X100815593Y-80228044D01*
X100759704Y-80005539D01*
X100756383Y-79995784D01*
X100664909Y-79785410D01*
X100660031Y-79776312D01*
X100535425Y-79583699D01*
X100529141Y-79575539D01*
X100374737Y-79405851D01*
X100367207Y-79398830D01*
X100187168Y-79256644D01*
X100178581Y-79250939D01*
X99977750Y-79140074D01*
X99968338Y-79135844D01*
X99752084Y-79059264D01*
X99742134Y-79056635D01*
X99645336Y-79039393D01*
X99632040Y-79040852D01*
X99627500Y-79055408D01*
X99627500Y-81149885D01*
X99119500Y-81149885D01*
X99119500Y-79053933D01*
X99115582Y-79040589D01*
X99101306Y-79038602D01*
X99039567Y-79048050D01*
X99029539Y-79050439D01*
X98811484Y-79121710D01*
X98801975Y-79125707D01*
X98598493Y-79231633D01*
X98589768Y-79237127D01*
X98406313Y-79374869D01*
X98398606Y-79381712D01*
X98240109Y-79547569D01*
X98233626Y-79555575D01*
X98104345Y-79745094D01*
X98099256Y-79754053D01*
X98002663Y-79962145D01*
X97999106Y-79971813D01*
X97937799Y-80192879D01*
X97935868Y-80202999D01*
X97915856Y-80390252D01*
X97915500Y-80396944D01*
X97915500Y-81149885D01*
X95758500Y-81149885D01*
X95758500Y-76834500D01*
X95778502Y-76766379D01*
X95832158Y-76719886D01*
X95884500Y-76708500D01*
X106960017Y-76708500D01*
X107028138Y-76728502D01*
G37*
%TD.AperFunction*%
%TA.AperFunction,Conductor*%
G36*
X158945621Y-76728502D02*
G01*
X158992114Y-76782158D01*
X159003500Y-76834500D01*
X159003500Y-94869500D01*
X158983498Y-94937621D01*
X158929842Y-94984114D01*
X158877500Y-94995500D01*
X146889294Y-94995500D01*
X146821173Y-94975498D01*
X146774680Y-94921842D01*
X146764576Y-94851568D01*
X146794070Y-94786988D01*
X146853796Y-94748604D01*
X146863097Y-94746253D01*
X146874228Y-94743887D01*
X147050175Y-94706488D01*
X147054304Y-94704985D01*
X147054308Y-94704984D01*
X147309986Y-94611925D01*
X147309990Y-94611923D01*
X147314131Y-94610416D01*
X147318021Y-94608348D01*
X147318027Y-94608345D01*
X147558256Y-94480613D01*
X147558262Y-94480609D01*
X147562148Y-94478543D01*
X147565708Y-94475956D01*
X147565712Y-94475954D01*
X147785834Y-94316026D01*
X147785837Y-94316024D01*
X147789397Y-94313437D01*
X147792564Y-94310379D01*
X147988295Y-94121364D01*
X147988298Y-94121360D01*
X147991457Y-94118310D01*
X147999513Y-94108000D01*
X148161686Y-93900427D01*
X148164394Y-93896961D01*
X148257053Y-93736471D01*
X148302637Y-93657518D01*
X148302640Y-93657513D01*
X148304842Y-93653698D01*
X148306492Y-93649614D01*
X148306495Y-93649608D01*
X148408418Y-93397337D01*
X148410067Y-93393256D01*
X148417673Y-93362750D01*
X148476958Y-93124973D01*
X148476959Y-93124968D01*
X148478022Y-93120704D01*
X148478078Y-93120168D01*
X155409382Y-93120168D01*
X155438208Y-93369299D01*
X155439587Y-93374173D01*
X155439588Y-93374177D01*
X155492119Y-93559817D01*
X155506494Y-93610617D01*
X155508628Y-93615192D01*
X155508630Y-93615199D01*
X155609106Y-93830669D01*
X155612484Y-93837913D01*
X155615326Y-93842094D01*
X155615326Y-93842095D01*
X155750605Y-94041152D01*
X155750608Y-94041156D01*
X155753451Y-94045339D01*
X155756928Y-94049016D01*
X155756929Y-94049017D01*
X155857238Y-94155091D01*
X155925767Y-94227559D01*
X155929793Y-94230637D01*
X155929794Y-94230638D01*
X156120981Y-94376812D01*
X156120985Y-94376815D01*
X156125001Y-94379885D01*
X156129459Y-94382275D01*
X156129460Y-94382276D01*
X156209571Y-94425231D01*
X156346026Y-94498397D01*
X156350807Y-94500043D01*
X156350811Y-94500045D01*
X156576538Y-94577769D01*
X156583156Y-94580048D01*
X156655015Y-94592460D01*
X156826380Y-94622060D01*
X156826386Y-94622061D01*
X156830290Y-94622735D01*
X156834251Y-94622915D01*
X156834252Y-94622915D01*
X156858931Y-94624036D01*
X156858950Y-94624036D01*
X156860350Y-94624100D01*
X157035015Y-94624100D01*
X157037523Y-94623898D01*
X157037528Y-94623898D01*
X157216944Y-94609463D01*
X157216949Y-94609462D01*
X157221985Y-94609057D01*
X157226893Y-94607852D01*
X157226896Y-94607851D01*
X157460625Y-94550441D01*
X157465539Y-94549234D01*
X157470191Y-94547259D01*
X157470195Y-94547258D01*
X157691741Y-94453217D01*
X157691742Y-94453217D01*
X157696396Y-94451241D01*
X157908615Y-94317600D01*
X158096738Y-94151747D01*
X158255924Y-93957951D01*
X158382078Y-93741196D01*
X158399900Y-93694770D01*
X158470143Y-93511781D01*
X158471955Y-93507061D01*
X158473557Y-93499395D01*
X158522206Y-93266521D01*
X158523241Y-93261567D01*
X158523997Y-93244937D01*
X158529836Y-93116331D01*
X158534618Y-93011032D01*
X158533573Y-93001994D01*
X158513063Y-92824741D01*
X158505792Y-92761901D01*
X158498862Y-92737408D01*
X158438884Y-92525452D01*
X158438883Y-92525450D01*
X158437506Y-92520583D01*
X158435372Y-92516008D01*
X158435370Y-92516001D01*
X158333653Y-92297869D01*
X158333651Y-92297865D01*
X158331516Y-92293287D01*
X158325200Y-92283993D01*
X158193395Y-92090048D01*
X158193392Y-92090044D01*
X158190549Y-92085861D01*
X158172813Y-92067105D01*
X158021713Y-91907321D01*
X158018233Y-91903641D01*
X158003729Y-91892552D01*
X157823019Y-91754388D01*
X157823015Y-91754385D01*
X157818999Y-91751315D01*
X157800247Y-91741260D01*
X157625354Y-91647484D01*
X157597974Y-91632803D01*
X157593193Y-91631157D01*
X157593189Y-91631155D01*
X157365633Y-91552801D01*
X157360844Y-91551152D01*
X157245136Y-91531166D01*
X157117620Y-91509140D01*
X157117614Y-91509139D01*
X157113710Y-91508465D01*
X157109749Y-91508285D01*
X157109748Y-91508285D01*
X157085069Y-91507164D01*
X157085050Y-91507164D01*
X157083650Y-91507100D01*
X156908985Y-91507100D01*
X156906477Y-91507302D01*
X156906472Y-91507302D01*
X156727056Y-91521737D01*
X156727051Y-91521738D01*
X156722015Y-91522143D01*
X156717107Y-91523348D01*
X156717104Y-91523349D01*
X156520908Y-91571540D01*
X156478461Y-91581966D01*
X156473809Y-91583941D01*
X156473805Y-91583942D01*
X156252259Y-91677983D01*
X156247604Y-91679959D01*
X156119337Y-91760733D01*
X156081548Y-91784530D01*
X156035385Y-91813600D01*
X155847262Y-91979453D01*
X155688076Y-92173249D01*
X155561922Y-92390004D01*
X155560109Y-92394727D01*
X155560108Y-92394729D01*
X155548170Y-92425829D01*
X155472045Y-92624139D01*
X155471012Y-92629085D01*
X155471010Y-92629091D01*
X155430207Y-92824409D01*
X155420759Y-92869633D01*
X155420530Y-92874682D01*
X155420529Y-92874688D01*
X155416132Y-92971521D01*
X155409382Y-93120168D01*
X148478078Y-93120168D01*
X148479556Y-93106115D01*
X148506924Y-92845716D01*
X148506924Y-92845713D01*
X148507383Y-92841347D01*
X148507108Y-92833468D01*
X148497734Y-92565019D01*
X148497733Y-92565013D01*
X148497580Y-92560622D01*
X148495428Y-92548413D01*
X148456938Y-92330131D01*
X148448803Y-92283993D01*
X148447448Y-92279822D01*
X148447446Y-92279815D01*
X148363363Y-92021035D01*
X148362002Y-92016846D01*
X148345671Y-91983361D01*
X148299385Y-91888462D01*
X148238865Y-91764378D01*
X148236410Y-91760739D01*
X148236407Y-91760733D01*
X148084250Y-91535151D01*
X148084245Y-91535144D01*
X148081790Y-91531505D01*
X148074447Y-91523349D01*
X148043818Y-91489333D01*
X148040556Y-91485710D01*
X148009839Y-91421703D01*
X148018603Y-91351249D01*
X148064066Y-91296718D01*
X148134192Y-91275400D01*
X149001300Y-91275400D01*
X149009870Y-91275692D01*
X149059176Y-91279054D01*
X149059180Y-91279054D01*
X149066751Y-91279570D01*
X149074227Y-91278265D01*
X149074231Y-91278265D01*
X149128823Y-91268737D01*
X149135348Y-91267774D01*
X149190317Y-91261122D01*
X149190319Y-91261121D01*
X149197859Y-91260209D01*
X149204961Y-91257525D01*
X149208399Y-91256681D01*
X149222522Y-91252817D01*
X149225933Y-91251787D01*
X149233416Y-91250481D01*
X149274786Y-91232321D01*
X149291097Y-91225161D01*
X149297203Y-91222670D01*
X149349016Y-91203091D01*
X149349017Y-91203090D01*
X149356121Y-91200406D01*
X149362376Y-91196107D01*
X149365517Y-91194465D01*
X149378271Y-91187367D01*
X149381377Y-91185530D01*
X149388332Y-91182477D01*
X149394359Y-91177852D01*
X149394363Y-91177850D01*
X149438301Y-91144135D01*
X149443619Y-91140271D01*
X149495551Y-91104579D01*
X149536434Y-91058693D01*
X149541397Y-91053437D01*
X151071915Y-89522919D01*
X151134227Y-89488893D01*
X151186130Y-89488543D01*
X151224243Y-89496297D01*
X151361922Y-89524308D01*
X151497470Y-89529278D01*
X151596431Y-89532907D01*
X151596435Y-89532907D01*
X151601595Y-89533096D01*
X151606715Y-89532440D01*
X151606717Y-89532440D01*
X151834357Y-89503279D01*
X151834358Y-89503279D01*
X151839485Y-89502622D01*
X151850298Y-89499378D01*
X152064248Y-89435190D01*
X152064253Y-89435188D01*
X152069203Y-89433703D01*
X152284580Y-89328191D01*
X152288785Y-89325191D01*
X152288791Y-89325188D01*
X152408325Y-89239925D01*
X152479833Y-89188919D01*
X152649717Y-89019627D01*
X152663218Y-89000839D01*
X152786651Y-88829062D01*
X152789669Y-88824862D01*
X152794832Y-88814417D01*
X152893639Y-88614496D01*
X152893640Y-88614494D01*
X152895933Y-88609854D01*
X152965653Y-88380378D01*
X152996958Y-88142596D01*
X152997041Y-88139218D01*
X152998623Y-88074469D01*
X152998623Y-88074465D01*
X152998705Y-88071104D01*
X152991775Y-87986818D01*
X152979477Y-87837228D01*
X152979476Y-87837222D01*
X152979053Y-87832077D01*
X152945647Y-87699082D01*
X152921885Y-87604479D01*
X152921884Y-87604475D01*
X152920626Y-87599468D01*
X152918570Y-87594738D01*
X152918567Y-87594731D01*
X152827053Y-87384263D01*
X152827051Y-87384260D01*
X152824993Y-87379526D01*
X152821103Y-87373512D01*
X152697531Y-87182500D01*
X152697529Y-87182497D01*
X152694721Y-87178157D01*
X152689184Y-87172071D01*
X152536788Y-87004591D01*
X152536786Y-87004590D01*
X152533310Y-87000769D01*
X152529259Y-86997570D01*
X152529255Y-86997566D01*
X152375455Y-86876103D01*
X152345094Y-86852125D01*
X152135128Y-86736217D01*
X151987203Y-86683834D01*
X151913926Y-86657885D01*
X151913922Y-86657884D01*
X151909051Y-86656159D01*
X151903958Y-86655252D01*
X151903955Y-86655251D01*
X151678022Y-86615006D01*
X151678016Y-86615005D01*
X151672933Y-86614100D01*
X151585666Y-86613034D01*
X151438287Y-86611233D01*
X151438285Y-86611233D01*
X151433117Y-86611170D01*
X151196043Y-86647447D01*
X150968077Y-86721958D01*
X150941037Y-86736034D01*
X150764296Y-86828040D01*
X150755342Y-86832701D01*
X150751209Y-86835804D01*
X150751206Y-86835806D01*
X150628469Y-86927960D01*
X150563551Y-86976702D01*
X150559979Y-86980440D01*
X150429367Y-87117118D01*
X150397854Y-87150094D01*
X150394940Y-87154366D01*
X150394939Y-87154367D01*
X150350373Y-87219699D01*
X150262701Y-87348221D01*
X150219345Y-87441623D01*
X150166043Y-87556452D01*
X150161722Y-87565760D01*
X150097630Y-87796872D01*
X150072144Y-88035348D01*
X150072441Y-88040500D01*
X150072441Y-88040504D01*
X150074400Y-88074469D01*
X150085950Y-88274784D01*
X150087085Y-88279821D01*
X150087086Y-88279827D01*
X150117961Y-88416830D01*
X150113425Y-88487681D01*
X150084139Y-88533625D01*
X148777269Y-89840495D01*
X148714957Y-89874521D01*
X148688174Y-89877400D01*
X142073725Y-89877400D01*
X142005604Y-89857398D01*
X141984630Y-89840495D01*
X141414139Y-89270004D01*
X145201565Y-89270004D01*
X145204868Y-89274664D01*
X145398606Y-89387875D01*
X145407893Y-89392325D01*
X145622213Y-89474166D01*
X145632115Y-89477043D01*
X145856906Y-89522777D01*
X145867158Y-89524000D01*
X146096409Y-89532406D01*
X146106695Y-89531939D01*
X146334250Y-89502788D01*
X146344336Y-89500645D01*
X146564071Y-89434721D01*
X146573666Y-89430960D01*
X146779673Y-89330039D01*
X146788539Y-89324754D01*
X146856152Y-89276525D01*
X146864553Y-89265825D01*
X146857565Y-89252672D01*
X146048019Y-88443126D01*
X146034075Y-88435512D01*
X146032242Y-88435643D01*
X146025627Y-88439894D01*
X145208842Y-89256679D01*
X145201565Y-89270004D01*
X141414139Y-89270004D01*
X140184651Y-88040516D01*
X144572944Y-88040516D01*
X144586151Y-88269555D01*
X144587584Y-88279757D01*
X144638017Y-88503546D01*
X144641105Y-88513399D01*
X144727411Y-88725944D01*
X144732059Y-88735145D01*
X144828943Y-88893247D01*
X144839399Y-88902708D01*
X144848177Y-88898924D01*
X145663185Y-88083916D01*
X145669563Y-88072236D01*
X146399615Y-88072236D01*
X146399746Y-88074069D01*
X146403997Y-88080684D01*
X147217337Y-88894024D01*
X147229348Y-88900583D01*
X147241087Y-88891615D01*
X147286219Y-88828806D01*
X147291534Y-88819961D01*
X147393173Y-88614310D01*
X147396972Y-88604715D01*
X147463660Y-88385224D01*
X147465839Y-88375143D01*
X147496020Y-88145893D01*
X147496539Y-88139218D01*
X147498122Y-88074468D01*
X147497928Y-88067751D01*
X147478983Y-87837310D01*
X147477300Y-87827148D01*
X147421411Y-87604643D01*
X147418090Y-87594888D01*
X147326616Y-87384514D01*
X147321738Y-87375416D01*
X147240591Y-87249980D01*
X147229905Y-87240778D01*
X147220340Y-87245181D01*
X146407229Y-88058292D01*
X146399615Y-88072236D01*
X145669563Y-88072236D01*
X145670799Y-88069972D01*
X145670668Y-88068139D01*
X145666417Y-88061524D01*
X144853091Y-87248198D01*
X144841555Y-87241898D01*
X144829272Y-87251522D01*
X144766056Y-87344193D01*
X144760963Y-87353157D01*
X144664370Y-87561249D01*
X144660813Y-87570917D01*
X144599506Y-87791983D01*
X144597575Y-87802103D01*
X144573196Y-88030227D01*
X144572944Y-88040516D01*
X140184651Y-88040516D01*
X139588796Y-87444661D01*
X139582942Y-87438395D01*
X139545457Y-87395425D01*
X139493921Y-87359205D01*
X139488625Y-87355272D01*
X139445036Y-87321093D01*
X139445033Y-87321091D01*
X139439059Y-87316407D01*
X139432135Y-87313281D01*
X139429100Y-87311443D01*
X139416401Y-87304199D01*
X139413253Y-87302511D01*
X139407038Y-87298143D01*
X139348349Y-87275261D01*
X139342304Y-87272721D01*
X139284864Y-87246786D01*
X139277391Y-87245401D01*
X139273973Y-87244330D01*
X139259984Y-87240345D01*
X139256492Y-87239448D01*
X139249410Y-87236687D01*
X139241877Y-87235695D01*
X139241876Y-87235695D01*
X139186969Y-87228466D01*
X139180456Y-87227434D01*
X139125981Y-87217338D01*
X139125979Y-87217338D01*
X139118512Y-87215954D01*
X139110932Y-87216391D01*
X139110931Y-87216391D01*
X139077633Y-87218311D01*
X139008474Y-87202263D01*
X138964588Y-87160960D01*
X138879931Y-87030100D01*
X138879929Y-87030097D01*
X138877121Y-87025757D01*
X138857862Y-87004591D01*
X138740946Y-86876103D01*
X145205002Y-86876103D01*
X145211747Y-86888434D01*
X146022395Y-87699082D01*
X146036339Y-87706696D01*
X146038172Y-87706565D01*
X146044787Y-87702314D01*
X146859797Y-86887304D01*
X146866818Y-86874447D01*
X146859045Y-86863780D01*
X146848874Y-86855747D01*
X146840290Y-86850044D01*
X146639457Y-86739178D01*
X146630045Y-86734948D01*
X146413798Y-86658370D01*
X146403827Y-86655736D01*
X146177976Y-86615506D01*
X146167723Y-86614537D01*
X145938323Y-86611734D01*
X145928039Y-86612454D01*
X145701274Y-86647154D01*
X145691246Y-86649543D01*
X145473191Y-86720814D01*
X145463682Y-86724811D01*
X145260200Y-86830737D01*
X145251475Y-86836231D01*
X145213455Y-86864778D01*
X145205002Y-86876103D01*
X138740946Y-86876103D01*
X138719188Y-86852191D01*
X138719186Y-86852190D01*
X138715710Y-86848369D01*
X138711659Y-86845170D01*
X138711655Y-86845166D01*
X138623926Y-86775882D01*
X138582863Y-86717965D01*
X138579631Y-86647042D01*
X138615257Y-86585630D01*
X138678428Y-86553228D01*
X138702018Y-86551000D01*
X144025702Y-86551000D01*
X144034272Y-86551292D01*
X144083578Y-86554654D01*
X144083582Y-86554654D01*
X144091153Y-86555170D01*
X144098629Y-86553865D01*
X144098633Y-86553865D01*
X144153225Y-86544337D01*
X144159750Y-86543374D01*
X144214719Y-86536722D01*
X144214721Y-86536721D01*
X144222261Y-86535809D01*
X144229363Y-86533125D01*
X144232801Y-86532281D01*
X144246924Y-86528417D01*
X144250335Y-86527387D01*
X144257818Y-86526081D01*
X144315498Y-86500761D01*
X144321605Y-86498270D01*
X144373418Y-86478691D01*
X144373419Y-86478690D01*
X144380523Y-86476006D01*
X144386778Y-86471707D01*
X144389919Y-86470065D01*
X144402673Y-86462967D01*
X144405779Y-86461130D01*
X144412734Y-86458077D01*
X144418761Y-86453452D01*
X144418765Y-86453450D01*
X144462703Y-86419735D01*
X144468021Y-86415871D01*
X144519953Y-86380179D01*
X144560836Y-86334293D01*
X144565799Y-86329037D01*
X145571916Y-85322920D01*
X145634228Y-85288894D01*
X145686131Y-85288544D01*
X145744024Y-85300322D01*
X145861923Y-85324309D01*
X145996296Y-85329236D01*
X146096432Y-85332908D01*
X146096436Y-85332908D01*
X146101596Y-85333097D01*
X146106716Y-85332441D01*
X146106718Y-85332441D01*
X146334358Y-85303280D01*
X146334359Y-85303280D01*
X146339486Y-85302623D01*
X146386414Y-85288544D01*
X146564249Y-85235191D01*
X146564254Y-85235189D01*
X146569204Y-85233704D01*
X146784581Y-85128192D01*
X146788786Y-85125192D01*
X146788792Y-85125189D01*
X146894608Y-85049711D01*
X146979834Y-84988920D01*
X147149718Y-84819628D01*
X147160773Y-84804244D01*
X147286652Y-84629063D01*
X147289670Y-84624863D01*
X147310333Y-84583056D01*
X147393640Y-84414497D01*
X147393641Y-84414495D01*
X147395934Y-84409855D01*
X147465654Y-84180379D01*
X147496959Y-83942597D01*
X147497579Y-83917226D01*
X147498624Y-83874470D01*
X147498624Y-83874466D01*
X147498706Y-83871105D01*
X147488329Y-83744888D01*
X147479478Y-83637229D01*
X147479477Y-83637223D01*
X147479054Y-83632078D01*
X147434389Y-83454258D01*
X147421886Y-83404480D01*
X147421885Y-83404476D01*
X147420627Y-83399469D01*
X147418571Y-83394739D01*
X147418568Y-83394732D01*
X147327054Y-83184264D01*
X147327052Y-83184261D01*
X147324994Y-83179527D01*
X147312062Y-83159536D01*
X147197532Y-82982501D01*
X147197530Y-82982498D01*
X147194722Y-82978158D01*
X147187252Y-82969948D01*
X147036789Y-82804592D01*
X147036787Y-82804591D01*
X147033311Y-82800770D01*
X147029260Y-82797571D01*
X147029256Y-82797567D01*
X146894294Y-82690981D01*
X146845095Y-82652126D01*
X146789993Y-82621708D01*
X146740023Y-82571276D01*
X146725251Y-82501833D01*
X146750367Y-82435428D01*
X146807398Y-82393143D01*
X146850887Y-82385400D01*
X149162675Y-82385400D01*
X149230796Y-82405402D01*
X149251770Y-82422305D01*
X150039801Y-83210336D01*
X150073827Y-83272648D01*
X150076706Y-83299431D01*
X150076706Y-84869239D01*
X150083461Y-84931421D01*
X150134591Y-85067810D01*
X150221945Y-85184366D01*
X150338501Y-85271720D01*
X150474890Y-85322850D01*
X150537072Y-85329605D01*
X152533340Y-85329605D01*
X152595522Y-85322850D01*
X152731911Y-85271720D01*
X152848467Y-85184366D01*
X152935821Y-85067810D01*
X152986951Y-84931421D01*
X152993706Y-84869239D01*
X152993706Y-82872971D01*
X152986951Y-82810789D01*
X152935821Y-82674400D01*
X152848467Y-82557844D01*
X152731911Y-82470490D01*
X152595522Y-82419360D01*
X152533340Y-82412605D01*
X151271330Y-82412605D01*
X151203209Y-82392603D01*
X151182235Y-82375700D01*
X150018897Y-81212362D01*
X150013043Y-81206096D01*
X149980552Y-81168851D01*
X149975558Y-81163126D01*
X149924022Y-81126906D01*
X149918726Y-81122973D01*
X149875137Y-81088794D01*
X149875134Y-81088792D01*
X149869160Y-81084108D01*
X149862236Y-81080982D01*
X149859201Y-81079144D01*
X149846502Y-81071900D01*
X149843354Y-81070212D01*
X149837139Y-81065844D01*
X149778450Y-81042962D01*
X149772405Y-81040422D01*
X149714965Y-81014487D01*
X149707492Y-81013102D01*
X149704074Y-81012031D01*
X149690085Y-81008046D01*
X149686593Y-81007149D01*
X149679511Y-81004388D01*
X149671978Y-81003396D01*
X149671977Y-81003396D01*
X149617070Y-80996167D01*
X149610557Y-80995135D01*
X149556082Y-80985039D01*
X149556080Y-80985039D01*
X149548613Y-80983655D01*
X149541033Y-80984092D01*
X149541032Y-80984092D01*
X149487288Y-80987191D01*
X149480035Y-80987400D01*
X147800144Y-80987400D01*
X147732023Y-80967398D01*
X147685530Y-80913742D01*
X147675426Y-80843468D01*
X147704920Y-80778888D01*
X147726083Y-80759464D01*
X147785834Y-80716053D01*
X147785837Y-80716051D01*
X147789397Y-80713464D01*
X147792564Y-80710406D01*
X147988295Y-80521391D01*
X147988298Y-80521387D01*
X147991457Y-80518337D01*
X148000716Y-80506487D01*
X148161686Y-80300454D01*
X148164394Y-80296988D01*
X148254581Y-80140780D01*
X148302637Y-80057545D01*
X148302640Y-80057540D01*
X148304842Y-80053725D01*
X148306492Y-80049641D01*
X148306495Y-80049635D01*
X148403661Y-79809139D01*
X148410067Y-79793283D01*
X148427487Y-79723417D01*
X148476958Y-79525000D01*
X148476959Y-79524995D01*
X148478022Y-79520731D01*
X148478619Y-79515058D01*
X148506924Y-79245743D01*
X148506924Y-79245740D01*
X148507383Y-79241374D01*
X148506609Y-79219209D01*
X148497734Y-78965046D01*
X148497733Y-78965040D01*
X148497580Y-78960649D01*
X148495428Y-78948440D01*
X148468296Y-78794568D01*
X155409382Y-78794568D01*
X155409963Y-78799588D01*
X155409963Y-78799592D01*
X155415480Y-78847273D01*
X155438208Y-79043699D01*
X155439587Y-79048573D01*
X155439588Y-79048577D01*
X155496851Y-79250939D01*
X155506494Y-79285017D01*
X155508628Y-79289592D01*
X155508630Y-79289599D01*
X155610139Y-79507285D01*
X155612484Y-79512313D01*
X155615326Y-79516494D01*
X155615326Y-79516495D01*
X155750605Y-79715552D01*
X155750608Y-79715556D01*
X155753451Y-79719739D01*
X155756928Y-79723416D01*
X155756929Y-79723417D01*
X155867351Y-79840186D01*
X155925767Y-79901959D01*
X155929793Y-79905037D01*
X155929794Y-79905038D01*
X156120981Y-80051212D01*
X156120985Y-80051215D01*
X156125001Y-80054285D01*
X156129459Y-80056675D01*
X156129460Y-80056676D01*
X156162760Y-80074531D01*
X156346026Y-80172797D01*
X156350807Y-80174443D01*
X156350811Y-80174445D01*
X156576538Y-80252169D01*
X156583156Y-80254448D01*
X156686689Y-80272331D01*
X156826380Y-80296460D01*
X156826386Y-80296461D01*
X156830290Y-80297135D01*
X156834251Y-80297315D01*
X156834252Y-80297315D01*
X156858931Y-80298436D01*
X156858950Y-80298436D01*
X156860350Y-80298500D01*
X157035015Y-80298500D01*
X157037523Y-80298298D01*
X157037528Y-80298298D01*
X157216944Y-80283863D01*
X157216949Y-80283862D01*
X157221985Y-80283457D01*
X157226893Y-80282252D01*
X157226896Y-80282251D01*
X157460625Y-80224841D01*
X157465539Y-80223634D01*
X157470191Y-80221659D01*
X157470195Y-80221658D01*
X157691741Y-80127617D01*
X157691742Y-80127617D01*
X157696396Y-80125641D01*
X157854994Y-80025767D01*
X157904334Y-79994696D01*
X157904335Y-79994695D01*
X157908615Y-79992000D01*
X158096738Y-79826147D01*
X158255924Y-79632351D01*
X158382078Y-79415596D01*
X158395142Y-79381565D01*
X158450643Y-79236980D01*
X158471955Y-79181461D01*
X158474100Y-79171197D01*
X158522206Y-78940921D01*
X158523241Y-78935967D01*
X158523587Y-78928365D01*
X158529749Y-78792658D01*
X158534618Y-78685432D01*
X158533972Y-78679842D01*
X158516821Y-78531620D01*
X158505792Y-78436301D01*
X158503430Y-78427951D01*
X158438884Y-78199852D01*
X158438883Y-78199850D01*
X158437506Y-78194983D01*
X158435372Y-78190408D01*
X158435370Y-78190401D01*
X158333653Y-77972269D01*
X158333651Y-77972265D01*
X158331516Y-77967687D01*
X158304722Y-77928261D01*
X158193395Y-77764448D01*
X158193392Y-77764444D01*
X158190549Y-77760261D01*
X158089925Y-77653853D01*
X158021713Y-77581721D01*
X158018233Y-77578041D01*
X158009809Y-77571600D01*
X157823019Y-77428788D01*
X157823015Y-77428785D01*
X157818999Y-77425715D01*
X157763029Y-77395704D01*
X157602435Y-77309595D01*
X157597974Y-77307203D01*
X157593193Y-77305557D01*
X157593189Y-77305555D01*
X157365633Y-77227201D01*
X157360844Y-77225552D01*
X157219217Y-77201089D01*
X157117620Y-77183540D01*
X157117614Y-77183539D01*
X157113710Y-77182865D01*
X157109749Y-77182685D01*
X157109748Y-77182685D01*
X157085069Y-77181564D01*
X157085050Y-77181564D01*
X157083650Y-77181500D01*
X156908985Y-77181500D01*
X156906477Y-77181702D01*
X156906472Y-77181702D01*
X156727056Y-77196137D01*
X156727051Y-77196138D01*
X156722015Y-77196543D01*
X156717107Y-77197748D01*
X156717104Y-77197749D01*
X156485326Y-77254680D01*
X156478461Y-77256366D01*
X156473809Y-77258341D01*
X156473805Y-77258342D01*
X156343077Y-77313833D01*
X156247604Y-77354359D01*
X156129412Y-77428788D01*
X156069951Y-77466233D01*
X156035385Y-77488000D01*
X155847262Y-77653853D01*
X155688076Y-77847649D01*
X155561922Y-78064404D01*
X155560109Y-78069127D01*
X155560108Y-78069129D01*
X155534404Y-78136089D01*
X155472045Y-78298539D01*
X155471012Y-78303485D01*
X155471010Y-78303491D01*
X155427490Y-78511814D01*
X155420759Y-78544033D01*
X155420530Y-78549082D01*
X155420529Y-78549088D01*
X155415334Y-78663506D01*
X155409382Y-78794568D01*
X148468296Y-78794568D01*
X148449943Y-78690486D01*
X148448803Y-78684020D01*
X148447448Y-78679849D01*
X148447446Y-78679842D01*
X148369950Y-78441334D01*
X148362002Y-78416873D01*
X148333738Y-78358922D01*
X148297522Y-78284669D01*
X148238865Y-78164405D01*
X148236410Y-78160766D01*
X148236407Y-78160760D01*
X148084250Y-77935178D01*
X148084245Y-77935171D01*
X148081790Y-77931532D01*
X147893834Y-77722785D01*
X147802534Y-77646176D01*
X147682026Y-77545057D01*
X147682021Y-77545053D01*
X147678655Y-77542229D01*
X147440442Y-77393377D01*
X147183831Y-77279126D01*
X146961186Y-77215284D01*
X146918043Y-77202913D01*
X146918042Y-77202913D01*
X146913816Y-77201701D01*
X146909466Y-77201090D01*
X146909463Y-77201089D01*
X146779790Y-77182865D01*
X146635654Y-77162608D01*
X146425060Y-77162608D01*
X146422874Y-77162761D01*
X146422870Y-77162761D01*
X146219379Y-77176990D01*
X146219374Y-77176991D01*
X146214994Y-77177297D01*
X145940237Y-77235699D01*
X145936108Y-77237202D01*
X145936104Y-77237203D01*
X145680426Y-77330262D01*
X145680422Y-77330264D01*
X145676281Y-77331771D01*
X145672391Y-77333839D01*
X145672385Y-77333842D01*
X145432156Y-77461574D01*
X145432150Y-77461578D01*
X145428264Y-77463644D01*
X145424704Y-77466231D01*
X145424700Y-77466233D01*
X145204578Y-77626161D01*
X145201015Y-77628750D01*
X145197851Y-77631806D01*
X145197848Y-77631808D01*
X145002117Y-77820823D01*
X145002114Y-77820827D01*
X144998955Y-77823877D01*
X144996249Y-77827341D01*
X144996245Y-77827345D01*
X144886598Y-77967687D01*
X144826018Y-78045226D01*
X144780004Y-78124925D01*
X144699436Y-78264473D01*
X144685570Y-78288489D01*
X144683920Y-78292573D01*
X144683917Y-78292579D01*
X144623016Y-78443315D01*
X144580345Y-78548931D01*
X144579281Y-78553200D01*
X144579280Y-78553202D01*
X144513886Y-78815484D01*
X144512390Y-78821483D01*
X144511931Y-78825851D01*
X144511930Y-78825856D01*
X144488577Y-79048050D01*
X144483029Y-79100840D01*
X144483182Y-79105228D01*
X144483182Y-79105234D01*
X144492629Y-79375742D01*
X144492832Y-79381565D01*
X144493594Y-79385888D01*
X144493595Y-79385895D01*
X144516624Y-79516495D01*
X144541609Y-79658194D01*
X144542964Y-79662365D01*
X144542966Y-79662372D01*
X144603145Y-79847584D01*
X144628410Y-79925341D01*
X144630338Y-79929294D01*
X144630340Y-79929299D01*
X144664086Y-79998487D01*
X144751547Y-80177809D01*
X144754002Y-80181448D01*
X144754005Y-80181454D01*
X144906162Y-80407036D01*
X144906167Y-80407043D01*
X144908622Y-80410682D01*
X145040421Y-80557060D01*
X145085445Y-80607064D01*
X145096578Y-80619429D01*
X145249247Y-80747533D01*
X145269918Y-80764878D01*
X145309245Y-80823988D01*
X145310371Y-80894975D01*
X145272940Y-80955303D01*
X145208835Y-80985817D01*
X145188927Y-80987400D01*
X139880999Y-80987400D01*
X139872429Y-80987108D01*
X139823123Y-80983746D01*
X139823119Y-80983746D01*
X139815548Y-80983230D01*
X139808072Y-80984535D01*
X139808068Y-80984535D01*
X139753476Y-80994063D01*
X139746951Y-80995026D01*
X139691982Y-81001678D01*
X139691980Y-81001679D01*
X139684440Y-81002591D01*
X139677338Y-81005275D01*
X139673900Y-81006119D01*
X139659777Y-81009983D01*
X139656366Y-81011013D01*
X139648883Y-81012319D01*
X139641928Y-81015372D01*
X139591202Y-81037639D01*
X139585096Y-81040130D01*
X139584353Y-81040411D01*
X139526178Y-81062394D01*
X139519923Y-81066693D01*
X139516782Y-81068335D01*
X139504028Y-81075433D01*
X139500922Y-81077270D01*
X139493967Y-81080323D01*
X139487940Y-81084948D01*
X139487936Y-81084950D01*
X139443998Y-81118665D01*
X139438680Y-81122529D01*
X139386748Y-81158221D01*
X139381696Y-81163891D01*
X139381695Y-81163892D01*
X139345882Y-81204088D01*
X139340901Y-81209364D01*
X138326965Y-82223300D01*
X138264653Y-82257326D01*
X138237870Y-82260205D01*
X137352130Y-82260205D01*
X137284009Y-82240203D01*
X137263035Y-82223300D01*
X136099697Y-81059962D01*
X136093843Y-81053696D01*
X136086868Y-81045700D01*
X136056358Y-81010726D01*
X136004822Y-80974506D01*
X135999526Y-80970573D01*
X135955937Y-80936394D01*
X135955934Y-80936392D01*
X135949960Y-80931708D01*
X135943036Y-80928582D01*
X135940001Y-80926744D01*
X135927302Y-80919500D01*
X135924154Y-80917812D01*
X135917939Y-80913444D01*
X135859250Y-80890562D01*
X135853205Y-80888022D01*
X135795765Y-80862087D01*
X135788292Y-80860702D01*
X135784874Y-80859631D01*
X135770885Y-80855646D01*
X135767393Y-80854749D01*
X135760311Y-80851988D01*
X135752778Y-80850996D01*
X135752777Y-80850996D01*
X135697870Y-80843767D01*
X135691357Y-80842735D01*
X135636882Y-80832639D01*
X135636880Y-80832639D01*
X135629413Y-80831255D01*
X135621833Y-80831692D01*
X135621832Y-80831692D01*
X135568088Y-80834791D01*
X135560835Y-80835000D01*
X133982544Y-80835000D01*
X133914423Y-80814998D01*
X133867930Y-80761342D01*
X133857826Y-80691068D01*
X133887320Y-80626488D01*
X133908483Y-80607064D01*
X133968234Y-80563653D01*
X133968237Y-80563651D01*
X133971797Y-80561064D01*
X133974964Y-80558006D01*
X134170695Y-80368991D01*
X134170698Y-80368987D01*
X134173857Y-80365937D01*
X134178105Y-80360501D01*
X134344086Y-80148054D01*
X134346794Y-80144588D01*
X134431144Y-79998489D01*
X134485037Y-79905145D01*
X134485040Y-79905140D01*
X134487242Y-79901325D01*
X134488892Y-79897241D01*
X134488895Y-79897235D01*
X134583018Y-79664269D01*
X134592467Y-79640883D01*
X134593532Y-79636612D01*
X134659358Y-79372600D01*
X134659359Y-79372595D01*
X134660422Y-79368331D01*
X134665145Y-79323400D01*
X134689324Y-79093343D01*
X134689324Y-79093340D01*
X134689783Y-79088974D01*
X134688611Y-79055408D01*
X134680134Y-78812646D01*
X134680133Y-78812640D01*
X134679980Y-78808249D01*
X134677276Y-78792909D01*
X134631965Y-78535943D01*
X134631203Y-78531620D01*
X134629848Y-78527449D01*
X134629846Y-78527442D01*
X134545763Y-78268662D01*
X134544402Y-78264473D01*
X134510510Y-78194983D01*
X134476340Y-78124925D01*
X134421265Y-78012005D01*
X134418810Y-78008366D01*
X134418807Y-78008360D01*
X134266650Y-77782778D01*
X134266645Y-77782771D01*
X134264190Y-77779132D01*
X134086441Y-77581721D01*
X134079182Y-77573659D01*
X134079181Y-77573658D01*
X134076234Y-77570385D01*
X133974838Y-77485304D01*
X133864426Y-77392657D01*
X133864421Y-77392653D01*
X133861055Y-77389829D01*
X133622842Y-77240977D01*
X133366231Y-77126726D01*
X133096216Y-77049301D01*
X133091866Y-77048690D01*
X133091863Y-77048689D01*
X132988916Y-77034221D01*
X132818054Y-77010208D01*
X132607460Y-77010208D01*
X132605274Y-77010361D01*
X132605270Y-77010361D01*
X132401779Y-77024590D01*
X132401774Y-77024591D01*
X132397394Y-77024897D01*
X132122637Y-77083299D01*
X132118508Y-77084802D01*
X132118504Y-77084803D01*
X131862826Y-77177862D01*
X131862822Y-77177864D01*
X131858681Y-77179371D01*
X131854791Y-77181439D01*
X131854785Y-77181442D01*
X131614556Y-77309174D01*
X131614550Y-77309178D01*
X131610664Y-77311244D01*
X131607104Y-77313831D01*
X131607100Y-77313833D01*
X131388857Y-77472396D01*
X131383415Y-77476350D01*
X131380251Y-77479406D01*
X131380248Y-77479408D01*
X131184517Y-77668423D01*
X131184514Y-77668427D01*
X131181355Y-77671477D01*
X131178649Y-77674941D01*
X131178645Y-77674945D01*
X131094397Y-77782778D01*
X131008418Y-77892826D01*
X130965197Y-77967687D01*
X130871255Y-78130400D01*
X130867970Y-78136089D01*
X130866320Y-78140173D01*
X130866317Y-78140179D01*
X130844175Y-78194983D01*
X130762745Y-78396531D01*
X130761681Y-78400800D01*
X130761680Y-78400802D01*
X130712790Y-78596891D01*
X130694790Y-78669083D01*
X130694331Y-78673448D01*
X130694330Y-78673455D01*
X130692183Y-78693885D01*
X130690645Y-78708526D01*
X130690183Y-78712918D01*
X130663170Y-78778575D01*
X130604949Y-78819205D01*
X130534004Y-78821908D01*
X130475778Y-78788843D01*
X128610530Y-76923595D01*
X128576504Y-76861283D01*
X128581569Y-76790468D01*
X128624116Y-76733632D01*
X128690636Y-76708821D01*
X128699625Y-76708500D01*
X158877500Y-76708500D01*
X158945621Y-76728502D01*
G37*
%TD.AperFunction*%
%TA.AperFunction,Conductor*%
G36*
X128895697Y-81389402D02*
G01*
X128916671Y-81406305D01*
X130766025Y-83255659D01*
X130800051Y-83317971D01*
X130798348Y-83378423D01*
X130780031Y-83444473D01*
X130754545Y-83682949D01*
X130754842Y-83688101D01*
X130754842Y-83688105D01*
X130755998Y-83708156D01*
X130768351Y-83922385D01*
X130769486Y-83927422D01*
X130769487Y-83927428D01*
X130810785Y-84110682D01*
X130821077Y-84156351D01*
X130852953Y-84234852D01*
X130890507Y-84327334D01*
X130911309Y-84378564D01*
X131036621Y-84583056D01*
X131040005Y-84586962D01*
X131040006Y-84586964D01*
X131072835Y-84624863D01*
X131193650Y-84764335D01*
X131197625Y-84767635D01*
X131197629Y-84767639D01*
X131270884Y-84828456D01*
X131310519Y-84887359D01*
X131312017Y-84958339D01*
X131274902Y-85018862D01*
X131210958Y-85049711D01*
X131190399Y-85051400D01*
X125055725Y-85051400D01*
X124987604Y-85031398D01*
X124966630Y-85014495D01*
X123468705Y-83516570D01*
X123434679Y-83454258D01*
X123431800Y-83427475D01*
X123431800Y-83173144D01*
X123451802Y-83105023D01*
X123482234Y-83072319D01*
X123504461Y-83055661D01*
X123572087Y-82965429D01*
X123628945Y-82922914D01*
X123699764Y-82917888D01*
X123762057Y-82951948D01*
X123773738Y-82965429D01*
X123835714Y-83048123D01*
X123848276Y-83060685D01*
X123950351Y-83137186D01*
X123965946Y-83145724D01*
X124086394Y-83190878D01*
X124101649Y-83194505D01*
X124152514Y-83200031D01*
X124159328Y-83200400D01*
X124441885Y-83200400D01*
X124457124Y-83195925D01*
X124458329Y-83194535D01*
X124460000Y-83186852D01*
X124460000Y-83182284D01*
X124968000Y-83182284D01*
X124972475Y-83197523D01*
X124973865Y-83198728D01*
X124981548Y-83200399D01*
X125268669Y-83200399D01*
X125275490Y-83200029D01*
X125326352Y-83194505D01*
X125341604Y-83190879D01*
X125462054Y-83145724D01*
X125477649Y-83137186D01*
X125579724Y-83060685D01*
X125592285Y-83048124D01*
X125668786Y-82946049D01*
X125677324Y-82930454D01*
X125722478Y-82810006D01*
X125726105Y-82794751D01*
X125731631Y-82743886D01*
X125732000Y-82737072D01*
X125732000Y-82494515D01*
X125727525Y-82479276D01*
X125726135Y-82478071D01*
X125718452Y-82476400D01*
X124986115Y-82476400D01*
X124970876Y-82480875D01*
X124969671Y-82482265D01*
X124968000Y-82489948D01*
X124968000Y-83182284D01*
X124460000Y-83182284D01*
X124460000Y-82094400D01*
X124480002Y-82026279D01*
X124533658Y-81979786D01*
X124586000Y-81968400D01*
X125713884Y-81968400D01*
X125729123Y-81963925D01*
X125730328Y-81962535D01*
X125731999Y-81954852D01*
X125731999Y-81707731D01*
X125731629Y-81700910D01*
X125726105Y-81650048D01*
X125722478Y-81634794D01*
X125686803Y-81539629D01*
X125681620Y-81468822D01*
X125715541Y-81406453D01*
X125777796Y-81372324D01*
X125804785Y-81369400D01*
X128827576Y-81369400D01*
X128895697Y-81389402D01*
G37*
%TD.AperFunction*%
%TA.AperFunction,Conductor*%
G36*
X120844059Y-78701654D02*
G01*
X120889295Y-78753858D01*
X120900821Y-78778575D01*
X120905404Y-78788404D01*
X121036979Y-78976314D01*
X121199186Y-79138521D01*
X121387096Y-79270096D01*
X121392074Y-79272417D01*
X121392077Y-79272419D01*
X121588383Y-79363958D01*
X121594999Y-79367043D01*
X121600307Y-79368465D01*
X121600309Y-79368466D01*
X121811263Y-79424991D01*
X121811265Y-79424991D01*
X121816578Y-79426415D01*
X121946836Y-79437811D01*
X121949910Y-79438080D01*
X122016028Y-79463944D01*
X122057667Y-79521447D01*
X122061608Y-79592334D01*
X122026599Y-79654099D01*
X121983158Y-79681583D01*
X121883146Y-79719076D01*
X121867551Y-79727614D01*
X121765476Y-79804115D01*
X121752915Y-79816676D01*
X121676414Y-79918751D01*
X121667876Y-79934346D01*
X121622722Y-80054794D01*
X121619095Y-80070049D01*
X121613569Y-80120914D01*
X121613200Y-80127728D01*
X121613200Y-80370285D01*
X121617675Y-80385524D01*
X121619065Y-80386729D01*
X121626748Y-80388400D01*
X122759200Y-80388400D01*
X122827321Y-80408402D01*
X122873814Y-80462058D01*
X122885200Y-80514400D01*
X122885200Y-80770400D01*
X122865198Y-80838521D01*
X122811542Y-80885014D01*
X122759200Y-80896400D01*
X121631316Y-80896400D01*
X121616077Y-80900875D01*
X121614872Y-80902265D01*
X121613201Y-80909948D01*
X121613201Y-80950476D01*
X121593199Y-81018597D01*
X121539543Y-81065090D01*
X121469269Y-81075194D01*
X121404689Y-81045700D01*
X121398106Y-81039571D01*
X121062897Y-80704362D01*
X121057043Y-80698096D01*
X121024552Y-80660851D01*
X121019558Y-80655126D01*
X120968022Y-80618906D01*
X120962726Y-80614973D01*
X120919137Y-80580794D01*
X120919134Y-80580792D01*
X120913160Y-80576108D01*
X120906236Y-80572982D01*
X120903201Y-80571144D01*
X120890502Y-80563900D01*
X120887354Y-80562212D01*
X120881139Y-80557844D01*
X120822450Y-80534962D01*
X120816405Y-80532422D01*
X120758965Y-80506487D01*
X120751492Y-80505102D01*
X120748074Y-80504031D01*
X120734085Y-80500046D01*
X120730593Y-80499149D01*
X120723511Y-80496388D01*
X120715978Y-80495396D01*
X120715977Y-80495396D01*
X120661070Y-80488167D01*
X120654557Y-80487135D01*
X120600082Y-80477039D01*
X120600080Y-80477039D01*
X120592613Y-80475655D01*
X120585033Y-80476092D01*
X120585032Y-80476092D01*
X120531288Y-80479191D01*
X120524035Y-80479400D01*
X120330100Y-80479400D01*
X120261979Y-80459398D01*
X120215486Y-80405742D01*
X120204100Y-80353400D01*
X120204100Y-79306982D01*
X120224102Y-79238861D01*
X120257827Y-79203771D01*
X120351014Y-79138521D01*
X120513221Y-78976314D01*
X120644796Y-78788404D01*
X120649380Y-78778575D01*
X120660905Y-78753858D01*
X120707822Y-78700573D01*
X120776099Y-78681112D01*
X120844059Y-78701654D01*
G37*
%TD.AperFunction*%
%TA.AperFunction,Conductor*%
G36*
X127132796Y-77427002D02*
G01*
X127153770Y-77443905D01*
X129496940Y-79787075D01*
X129530965Y-79849386D01*
X129525900Y-79920201D01*
X129483353Y-79977037D01*
X129416833Y-80001848D01*
X129380047Y-79997558D01*
X129379875Y-79998489D01*
X129379867Y-79998488D01*
X129379866Y-79998487D01*
X129373373Y-79997284D01*
X129370377Y-79996430D01*
X129370177Y-79996407D01*
X129368992Y-79996036D01*
X129354986Y-79992046D01*
X129351494Y-79991149D01*
X129344412Y-79988388D01*
X129336879Y-79987396D01*
X129336878Y-79987396D01*
X129281971Y-79980167D01*
X129275458Y-79979135D01*
X129220983Y-79969039D01*
X129220981Y-79969039D01*
X129213514Y-79967655D01*
X129205934Y-79968092D01*
X129205933Y-79968092D01*
X129152189Y-79971191D01*
X129144936Y-79971400D01*
X125771896Y-79971400D01*
X125703775Y-79951398D01*
X125671070Y-79920965D01*
X125597079Y-79822239D01*
X125587261Y-79809139D01*
X125470705Y-79721785D01*
X125334316Y-79670655D01*
X125272134Y-79663900D01*
X124882452Y-79663900D01*
X124814331Y-79643898D01*
X124767838Y-79590242D01*
X124757734Y-79519968D01*
X124787228Y-79455388D01*
X124849841Y-79416193D01*
X125029716Y-79367995D01*
X125040015Y-79364246D01*
X125237872Y-79271985D01*
X125247358Y-79266507D01*
X125299944Y-79229687D01*
X125308319Y-79219209D01*
X125301251Y-79205761D01*
X124314985Y-78219495D01*
X124280959Y-78157183D01*
X124286024Y-78086368D01*
X124314985Y-78041305D01*
X124496005Y-77860285D01*
X124558317Y-77826259D01*
X124629132Y-77831324D01*
X124674195Y-77860285D01*
X125661183Y-78847273D01*
X125672957Y-78853703D01*
X125684973Y-78844406D01*
X125721207Y-78792658D01*
X125726685Y-78783172D01*
X125818946Y-78585315D01*
X125822694Y-78575019D01*
X125879198Y-78364145D01*
X125881100Y-78353358D01*
X125900127Y-78135875D01*
X125900127Y-78124925D01*
X125881100Y-77907442D01*
X125879198Y-77896655D01*
X125822694Y-77685781D01*
X125818945Y-77675480D01*
X125777336Y-77586249D01*
X125766675Y-77516058D01*
X125795655Y-77451245D01*
X125855075Y-77412389D01*
X125891531Y-77407000D01*
X127064675Y-77407000D01*
X127132796Y-77427002D01*
G37*
%TD.AperFunction*%
%TD*%
M02*
