%TF.GenerationSoftware,KiCad,Pcbnew,(6.0.5)*%
%TF.CreationDate,2022-06-11T19:37:37-07:00*%
%TF.ProjectId,L0003-Wheatstone-Bridge,4c303030-332d-4576-9865-617473746f6e,rev?*%
%TF.SameCoordinates,Original*%
%TF.FileFunction,Soldermask,Top*%
%TF.FilePolarity,Negative*%
%FSLAX46Y46*%
G04 Gerber Fmt 4.6, Leading zero omitted, Abs format (unit mm)*
G04 Created by KiCad (PCBNEW (6.0.5)) date 2022-06-11 19:37:37*
%MOMM*%
%LPD*%
G01*
G04 APERTURE LIST*
%ADD10C,0.100000*%
%ADD11C,2.999999*%
%ADD12R,1.900000X1.900000*%
%ADD13C,1.900000*%
%ADD14R,1.295400X0.965200*%
%ADD15R,1.299997X1.405349*%
%ADD16R,1.605000X1.605000*%
%ADD17C,1.605000*%
%ADD18R,0.940000X1.020000*%
%ADD19R,1.268000X1.268000*%
%ADD20C,1.268000*%
%ADD21R,1.041400X0.584200*%
%ADD22R,0.889000X1.473200*%
%ADD23R,1.100000X1.000000*%
%ADD24O,2.200000X4.400000*%
%ADD25O,1.900000X3.800000*%
%ADD26O,3.800000X1.900000*%
%ADD27C,2.100000*%
G04 APERTURE END LIST*
%TO.C,U1*%
G36*
X111074200Y-78849200D02*
G01*
X107873800Y-78849200D01*
X107873800Y-76664800D01*
X111074200Y-76664800D01*
X111074200Y-78849200D01*
G37*
D10*
X111074200Y-78849200D02*
X107873800Y-78849200D01*
X107873800Y-76664800D01*
X111074200Y-76664800D01*
X111074200Y-78849200D01*
%TD*%
D11*
%TO.C,P3*%
X146927000Y-79450502D03*
X146927000Y-93050475D03*
D12*
X151967000Y-84150500D03*
D13*
X151967000Y-88350499D03*
X146467001Y-84150500D03*
X146467001Y-88350499D03*
%TD*%
D11*
%TO.C,P4*%
X130544006Y-79628002D03*
X130544006Y-93227975D03*
D12*
X135584006Y-84328000D03*
D13*
X135584006Y-88527999D03*
X130084007Y-84328000D03*
X130084007Y-88527999D03*
%TD*%
D14*
%TO.C,D1*%
X112649000Y-90043000D03*
X112649000Y-86995000D03*
%TD*%
D15*
%TO.C,C2*%
X104648000Y-87369278D03*
X104648000Y-89668722D03*
%TD*%
D16*
%TO.C,P2*%
X115570000Y-78105000D03*
D17*
X118110000Y-78105000D03*
X120650000Y-78105000D03*
X123190000Y-78105000D03*
%TD*%
D18*
%TO.C,R3*%
X120368000Y-82677000D03*
X121948000Y-82677000D03*
%TD*%
%TO.C,R4*%
X117376000Y-82931000D03*
X115796000Y-82931000D03*
%TD*%
%TO.C,R5*%
X115796000Y-81026000D03*
X117376000Y-81026000D03*
%TD*%
D19*
%TO.C,R2*%
X116586000Y-87249000D03*
D20*
X121666000Y-89789000D03*
X116586000Y-92329000D03*
%TD*%
D18*
%TO.C,R1*%
X110137000Y-93980000D03*
X108557000Y-93980000D03*
%TD*%
D21*
%TO.C,D2*%
X108585000Y-90360500D03*
X108585000Y-86677500D03*
%TD*%
D22*
%TO.C,U1*%
X107174000Y-84295000D03*
X109474000Y-84295000D03*
X111774000Y-84295000D03*
%TD*%
D23*
%TO.C,C1*%
X99099000Y-89027000D03*
X100799000Y-89027000D03*
%TD*%
D24*
%TO.C,P1*%
X103289000Y-81026000D03*
D25*
X97334000Y-81026000D03*
D26*
X100584000Y-85716000D03*
%TD*%
D27*
%TO.C,H1*%
X156845000Y-92710000D03*
%TD*%
%TO.C,H2*%
X156845000Y-78994000D03*
%TD*%
%TO.C,H3*%
X97790000Y-92710000D03*
%TD*%
M02*
