%TF.GenerationSoftware,KiCad,Pcbnew,5.1.10*%
%TF.CreationDate,2021-11-16T14:47:03-07:00*%
%TF.ProjectId,L0003-Wheatstone-Bridge,4c303030-332d-4576-9865-617473746f6e,rev?*%
%TF.SameCoordinates,Original*%
%TF.FileFunction,Soldermask,Top*%
%TF.FilePolarity,Negative*%
%FSLAX46Y46*%
G04 Gerber Fmt 4.6, Leading zero omitted, Abs format (unit mm)*
G04 Created by KiCad (PCBNEW 5.1.10) date 2021-11-16 14:47:03*
%MOMM*%
%LPD*%
G01*
G04 APERTURE LIST*
%ADD10C,0.100000*%
%ADD11R,0.889000X1.473200*%
%ADD12R,1.000000X1.100000*%
%ADD13R,1.295400X0.965200*%
%ADD14C,2.100000*%
%ADD15O,2.200000X4.400000*%
%ADD16O,1.900000X3.800000*%
%ADD17O,3.800000X1.900000*%
%ADD18C,1.605000*%
%ADD19R,1.605000X1.605000*%
%ADD20R,1.020000X0.940000*%
%ADD21R,1.268000X1.268000*%
%ADD22C,1.268000*%
%ADD23R,0.940000X1.020000*%
G04 APERTURE END LIST*
D10*
%TO.C,U1*%
G36*
X111074200Y-76664800D02*
G01*
X107873800Y-76664800D01*
X107873800Y-78849200D01*
X111074200Y-78849200D01*
X111074200Y-76664800D01*
G37*
X111074200Y-76664800D02*
X107873800Y-76664800D01*
X107873800Y-78849200D01*
X111074200Y-78849200D01*
X111074200Y-76664800D01*
%TD*%
D11*
%TO.C,U1*%
X111774000Y-84295000D03*
X109474000Y-84295000D03*
X107174000Y-84295000D03*
%TD*%
D12*
%TO.C,C1*%
X107218480Y-88586680D03*
X107218480Y-86886680D03*
%TD*%
D13*
%TO.C,D1*%
X115824000Y-87122000D03*
X115824000Y-84074000D03*
%TD*%
D14*
%TO.C,H1*%
X133858000Y-92710000D03*
%TD*%
%TO.C,H2*%
X133858000Y-78740000D03*
%TD*%
%TO.C,H3*%
X97790000Y-92710000D03*
%TD*%
D15*
%TO.C,P1*%
X103289000Y-81026000D03*
D16*
X97334000Y-81026000D03*
D17*
X100584000Y-85716000D03*
%TD*%
D18*
%TO.C,P2*%
X127508000Y-77978000D03*
X124968000Y-77978000D03*
X122428000Y-77978000D03*
D19*
X119888000Y-77978000D03*
%TD*%
D20*
%TO.C,R1*%
X115824000Y-89126000D03*
X115824000Y-90706000D03*
%TD*%
D21*
%TO.C,R2*%
X119888000Y-87122000D03*
D22*
X124968000Y-89662000D03*
X119888000Y-92202000D03*
%TD*%
D20*
%TO.C,R3*%
X128778000Y-86357400D03*
X128778000Y-87937400D03*
%TD*%
D23*
%TO.C,R4*%
X123154500Y-83629500D03*
X121574500Y-83629500D03*
%TD*%
%TO.C,R5*%
X129042100Y-83997800D03*
X130622100Y-83997800D03*
%TD*%
D12*
%TO.C,C2*%
X111719360Y-89252160D03*
X111719360Y-87552160D03*
%TD*%
M02*
