%TF.GenerationSoftware,KiCad,Pcbnew,(6.0.6)*%
%TF.CreationDate,2022-09-08T14:41:25-07:00*%
%TF.ProjectId,L0003-Wheatstone-Bridge,4c303030-332d-4576-9865-617473746f6e,rev?*%
%TF.SameCoordinates,Original*%
%TF.FileFunction,Legend,Top*%
%TF.FilePolarity,Positive*%
%FSLAX46Y46*%
G04 Gerber Fmt 4.6, Leading zero omitted, Abs format (unit mm)*
G04 Created by KiCad (PCBNEW (6.0.6)) date 2022-09-08 14:41:25*
%MOMM*%
%LPD*%
G01*
G04 APERTURE LIST*
%ADD10C,0.150000*%
%ADD11C,0.076200*%
%ADD12C,0.120000*%
%ADD13C,0.127000*%
%ADD14C,0.200000*%
%ADD15C,0.010000*%
G04 APERTURE END LIST*
D10*
%TO.C,U1*%
X112826895Y-77836780D02*
X112826895Y-78646304D01*
X112874514Y-78741542D01*
X112922133Y-78789161D01*
X113017371Y-78836780D01*
X113207847Y-78836780D01*
X113303085Y-78789161D01*
X113350704Y-78741542D01*
X113398323Y-78646304D01*
X113398323Y-77836780D01*
X114398323Y-78836780D02*
X113826895Y-78836780D01*
X114112609Y-78836780D02*
X114112609Y-77836780D01*
X114017371Y-77979638D01*
X113922133Y-78074876D01*
X113826895Y-78122495D01*
%TO.C,P4*%
X126871510Y-78531985D02*
X126871510Y-77531985D01*
X127252463Y-77531985D01*
X127347701Y-77579605D01*
X127395320Y-77627224D01*
X127442939Y-77722462D01*
X127442939Y-77865319D01*
X127395320Y-77960557D01*
X127347701Y-78008176D01*
X127252463Y-78055795D01*
X126871510Y-78055795D01*
X128300082Y-77865319D02*
X128300082Y-78531985D01*
X128061986Y-77484366D02*
X127823891Y-78198652D01*
X128442939Y-78198652D01*
%TO.C,P3*%
X140816110Y-93771986D02*
X140816110Y-92771986D01*
X141197063Y-92771986D01*
X141292301Y-92819606D01*
X141339920Y-92867225D01*
X141387539Y-92962463D01*
X141387539Y-93105320D01*
X141339920Y-93200558D01*
X141292301Y-93248177D01*
X141197063Y-93295796D01*
X140816110Y-93295796D01*
X141720872Y-92771986D02*
X142339920Y-92771986D01*
X142006586Y-93152939D01*
X142149444Y-93152939D01*
X142244682Y-93200558D01*
X142292301Y-93248177D01*
X142339920Y-93343415D01*
X142339920Y-93581510D01*
X142292301Y-93676748D01*
X142244682Y-93724367D01*
X142149444Y-93771986D01*
X141863729Y-93771986D01*
X141768491Y-93724367D01*
X141720872Y-93676748D01*
%TO.C,D1*%
X109142304Y-92427330D02*
X109142304Y-91427330D01*
X109380400Y-91427330D01*
X109523257Y-91474950D01*
X109618495Y-91570188D01*
X109666114Y-91665426D01*
X109713733Y-91855902D01*
X109713733Y-91998759D01*
X109666114Y-92189235D01*
X109618495Y-92284473D01*
X109523257Y-92379711D01*
X109380400Y-92427330D01*
X109142304Y-92427330D01*
X110666114Y-92427330D02*
X110094685Y-92427330D01*
X110380400Y-92427330D02*
X110380400Y-91427330D01*
X110285161Y-91570188D01*
X110189923Y-91665426D01*
X110094685Y-91713045D01*
D11*
%TO.C,R6*%
X120618266Y-84131104D02*
X120351600Y-83750152D01*
X120161123Y-84131104D02*
X120161123Y-83331104D01*
X120465885Y-83331104D01*
X120542076Y-83369200D01*
X120580171Y-83407295D01*
X120618266Y-83483485D01*
X120618266Y-83597771D01*
X120580171Y-83673961D01*
X120542076Y-83712057D01*
X120465885Y-83750152D01*
X120161123Y-83750152D01*
X121303980Y-83331104D02*
X121151600Y-83331104D01*
X121075409Y-83369200D01*
X121037314Y-83407295D01*
X120961123Y-83521580D01*
X120923028Y-83673961D01*
X120923028Y-83978723D01*
X120961123Y-84054914D01*
X120999219Y-84093009D01*
X121075409Y-84131104D01*
X121227790Y-84131104D01*
X121303980Y-84093009D01*
X121342076Y-84054914D01*
X121380171Y-83978723D01*
X121380171Y-83788247D01*
X121342076Y-83712057D01*
X121303980Y-83673961D01*
X121227790Y-83635866D01*
X121075409Y-83635866D01*
X120999219Y-83673961D01*
X120961123Y-83712057D01*
X120923028Y-83788247D01*
%TO.C,R5*%
X122802666Y-83978704D02*
X122536000Y-83597752D01*
X122345523Y-83978704D02*
X122345523Y-83178704D01*
X122650285Y-83178704D01*
X122726476Y-83216800D01*
X122764571Y-83254895D01*
X122802666Y-83331085D01*
X122802666Y-83445371D01*
X122764571Y-83521561D01*
X122726476Y-83559657D01*
X122650285Y-83597752D01*
X122345523Y-83597752D01*
X123526476Y-83178704D02*
X123145523Y-83178704D01*
X123107428Y-83559657D01*
X123145523Y-83521561D01*
X123221714Y-83483466D01*
X123412190Y-83483466D01*
X123488380Y-83521561D01*
X123526476Y-83559657D01*
X123564571Y-83635847D01*
X123564571Y-83826323D01*
X123526476Y-83902514D01*
X123488380Y-83940609D01*
X123412190Y-83978704D01*
X123221714Y-83978704D01*
X123145523Y-83940609D01*
X123107428Y-83902514D01*
%TO.C,R4*%
X120516666Y-81387904D02*
X120250000Y-81006952D01*
X120059523Y-81387904D02*
X120059523Y-80587904D01*
X120364285Y-80587904D01*
X120440476Y-80626000D01*
X120478571Y-80664095D01*
X120516666Y-80740285D01*
X120516666Y-80854571D01*
X120478571Y-80930761D01*
X120440476Y-80968857D01*
X120364285Y-81006952D01*
X120059523Y-81006952D01*
X121202380Y-80854571D02*
X121202380Y-81387904D01*
X121011904Y-80549809D02*
X120821428Y-81121238D01*
X121316666Y-81121238D01*
%TO.C,R3*%
X126257066Y-83165904D02*
X125990400Y-82784952D01*
X125799923Y-83165904D02*
X125799923Y-82365904D01*
X126104685Y-82365904D01*
X126180876Y-82404000D01*
X126218971Y-82442095D01*
X126257066Y-82518285D01*
X126257066Y-82632571D01*
X126218971Y-82708761D01*
X126180876Y-82746857D01*
X126104685Y-82784952D01*
X125799923Y-82784952D01*
X126523733Y-82365904D02*
X127018971Y-82365904D01*
X126752304Y-82670666D01*
X126866590Y-82670666D01*
X126942780Y-82708761D01*
X126980876Y-82746857D01*
X127018971Y-82823047D01*
X127018971Y-83013523D01*
X126980876Y-83089714D01*
X126942780Y-83127809D01*
X126866590Y-83165904D01*
X126638019Y-83165904D01*
X126561828Y-83127809D01*
X126523733Y-83089714D01*
D10*
%TO.C,R2*%
X115860408Y-91029119D02*
X115526826Y-90552572D01*
X115288552Y-91029119D02*
X115288552Y-90028371D01*
X115669790Y-90028371D01*
X115765099Y-90076026D01*
X115812754Y-90123680D01*
X115860408Y-90218990D01*
X115860408Y-90361954D01*
X115812754Y-90457263D01*
X115765099Y-90504918D01*
X115669790Y-90552572D01*
X115288552Y-90552572D01*
X116241646Y-90123680D02*
X116289300Y-90076026D01*
X116384610Y-90028371D01*
X116622883Y-90028371D01*
X116718192Y-90076026D01*
X116765847Y-90123680D01*
X116813502Y-90218990D01*
X116813502Y-90314299D01*
X116765847Y-90457263D01*
X116193991Y-91029119D01*
X116813502Y-91029119D01*
D11*
%TO.C,R1*%
X106546666Y-93071904D02*
X106280000Y-92690952D01*
X106089523Y-93071904D02*
X106089523Y-92271904D01*
X106394285Y-92271904D01*
X106470476Y-92310000D01*
X106508571Y-92348095D01*
X106546666Y-92424285D01*
X106546666Y-92538571D01*
X106508571Y-92614761D01*
X106470476Y-92652857D01*
X106394285Y-92690952D01*
X106089523Y-92690952D01*
X107308571Y-93071904D02*
X106851428Y-93071904D01*
X107080000Y-93071904D02*
X107080000Y-92271904D01*
X107003809Y-92386190D01*
X106927619Y-92462380D01*
X106851428Y-92500476D01*
D10*
%TO.C,P1*%
X97061466Y-87704533D02*
X97061466Y-86304533D01*
X97594800Y-86304533D01*
X97728133Y-86371200D01*
X97794800Y-86437866D01*
X97861466Y-86571200D01*
X97861466Y-86771200D01*
X97794800Y-86904533D01*
X97728133Y-86971200D01*
X97594800Y-87037866D01*
X97061466Y-87037866D01*
X99194800Y-87704533D02*
X98394800Y-87704533D01*
X98794800Y-87704533D02*
X98794800Y-86304533D01*
X98661466Y-86504533D01*
X98528133Y-86637866D01*
X98394800Y-86704533D01*
%TO.C,C2*%
X106868933Y-91441542D02*
X106821314Y-91489161D01*
X106678457Y-91536780D01*
X106583219Y-91536780D01*
X106440361Y-91489161D01*
X106345123Y-91393923D01*
X106297504Y-91298685D01*
X106249885Y-91108209D01*
X106249885Y-90965352D01*
X106297504Y-90774876D01*
X106345123Y-90679638D01*
X106440361Y-90584400D01*
X106583219Y-90536780D01*
X106678457Y-90536780D01*
X106821314Y-90584400D01*
X106868933Y-90632019D01*
X107249885Y-90632019D02*
X107297504Y-90584400D01*
X107392742Y-90536780D01*
X107630838Y-90536780D01*
X107726076Y-90584400D01*
X107773695Y-90632019D01*
X107821314Y-90727257D01*
X107821314Y-90822495D01*
X107773695Y-90965352D01*
X107202266Y-91536780D01*
X107821314Y-91536780D01*
D11*
%TO.C,C1*%
X111220266Y-78212914D02*
X111182171Y-78251009D01*
X111067885Y-78289104D01*
X110991695Y-78289104D01*
X110877409Y-78251009D01*
X110801219Y-78174819D01*
X110763123Y-78098628D01*
X110725028Y-77946247D01*
X110725028Y-77831961D01*
X110763123Y-77679580D01*
X110801219Y-77603390D01*
X110877409Y-77527200D01*
X110991695Y-77489104D01*
X111067885Y-77489104D01*
X111182171Y-77527200D01*
X111220266Y-77565295D01*
X111982171Y-78289104D02*
X111525028Y-78289104D01*
X111753600Y-78289104D02*
X111753600Y-77489104D01*
X111677409Y-77603390D01*
X111601219Y-77679580D01*
X111525028Y-77717676D01*
D10*
%TO.C,D2*%
X114781104Y-86710780D02*
X114781104Y-85710780D01*
X115019200Y-85710780D01*
X115162057Y-85758400D01*
X115257295Y-85853638D01*
X115304914Y-85948876D01*
X115352533Y-86139352D01*
X115352533Y-86282209D01*
X115304914Y-86472685D01*
X115257295Y-86567923D01*
X115162057Y-86663161D01*
X115019200Y-86710780D01*
X114781104Y-86710780D01*
X115733485Y-85806019D02*
X115781104Y-85758400D01*
X115876342Y-85710780D01*
X116114438Y-85710780D01*
X116209676Y-85758400D01*
X116257295Y-85806019D01*
X116304914Y-85901257D01*
X116304914Y-85996495D01*
X116257295Y-86139352D01*
X115685866Y-86710780D01*
X116304914Y-86710780D01*
%TO.C,P2*%
X125901523Y-80676704D02*
X125901523Y-79876704D01*
X126206285Y-79876704D01*
X126282476Y-79914800D01*
X126320571Y-79952895D01*
X126358666Y-80029085D01*
X126358666Y-80143371D01*
X126320571Y-80219561D01*
X126282476Y-80257657D01*
X126206285Y-80295752D01*
X125901523Y-80295752D01*
X126663428Y-79952895D02*
X126701523Y-79914800D01*
X126777714Y-79876704D01*
X126968190Y-79876704D01*
X127044380Y-79914800D01*
X127082476Y-79952895D01*
X127120571Y-80029085D01*
X127120571Y-80105276D01*
X127082476Y-80219561D01*
X126625333Y-80676704D01*
X127120571Y-80676704D01*
D12*
%TO.C,U1*%
X113686200Y-79225399D02*
X109732200Y-79225399D01*
X113686200Y-86179401D02*
X113686200Y-79225399D01*
X109732200Y-86179401D02*
X113686200Y-86179401D01*
X109732200Y-79225399D02*
X109732200Y-86179401D01*
X108254800Y-79248000D02*
G75*
G03*
X108254800Y-79248000I-127000J0D01*
G01*
%TO.C,P4*%
X139967606Y-77618722D02*
X133840614Y-77618722D01*
X139967606Y-94018689D02*
X139967606Y-77618722D01*
X128967605Y-94018689D02*
X131514629Y-94018689D01*
X137717606Y-77364722D02*
X137082606Y-75840722D01*
X128967605Y-77618722D02*
X128967605Y-94018689D01*
X131514598Y-77618722D02*
X128967605Y-77618722D01*
X137082606Y-75840722D02*
X138352606Y-75840722D01*
X133840583Y-94018689D02*
X139967606Y-94018689D01*
X138352606Y-75840722D02*
X137717606Y-77364722D01*
%TO.C,P3*%
X153785206Y-77771122D02*
X147658214Y-77771122D01*
X153785206Y-94171089D02*
X153785206Y-77771122D01*
X142785205Y-94171089D02*
X145332229Y-94171089D01*
X151535206Y-77517122D02*
X150900206Y-75993122D01*
X142785205Y-77771122D02*
X142785205Y-94171089D01*
X145332198Y-77771122D02*
X142785205Y-77771122D01*
X150900206Y-75993122D02*
X152170206Y-75993122D01*
X147658183Y-94171089D02*
X153785206Y-94171089D01*
X152170206Y-75993122D02*
X151535206Y-77517122D01*
%TO.C,D1*%
X113522365Y-92748100D02*
X111521635Y-92748100D01*
X111521635Y-94703900D02*
X113522365Y-94703900D01*
X113080800Y-91694000D02*
X113080800Y-91084400D01*
X112217200Y-91135200D02*
X112217200Y-92151200D01*
X112268000Y-91694000D02*
X111607600Y-91694000D01*
X113080800Y-92151200D02*
X112268000Y-91694000D01*
X113080800Y-91694000D02*
X113080800Y-92151200D01*
X113741200Y-91694000D02*
X113080800Y-91694000D01*
X113080800Y-91084400D02*
X112268000Y-91694000D01*
D13*
%TO.C,R6*%
X119214800Y-83079200D02*
X117614800Y-83079200D01*
X119214800Y-84459200D02*
X117614800Y-84459200D01*
%TO.C,R5*%
X121941200Y-80632400D02*
X121941200Y-82232400D01*
X123321200Y-80632400D02*
X123321200Y-82232400D01*
%TO.C,R4*%
X119113200Y-80336000D02*
X117513200Y-80336000D01*
X119113200Y-81716000D02*
X117513200Y-81716000D01*
%TO.C,R3*%
X125404000Y-82232400D02*
X125404000Y-80632400D01*
X124024000Y-82232400D02*
X124024000Y-80632400D01*
%TO.C,R2*%
X117561400Y-85049400D02*
X117561400Y-94579400D01*
X117561400Y-94579400D02*
X127091400Y-94579400D01*
X127091400Y-85049400D02*
X117561400Y-85049400D01*
X127091400Y-94579400D02*
X127091400Y-85049400D01*
D14*
X117026400Y-92214400D02*
G75*
G03*
X117026400Y-92214400I-100000J0D01*
G01*
D13*
%TO.C,R1*%
X105880000Y-94670000D02*
X107480000Y-94670000D01*
X105880000Y-93290000D02*
X107480000Y-93290000D01*
D12*
%TO.C,P1*%
X103639500Y-81066400D02*
X103639500Y-81777600D01*
D13*
X106098500Y-78902000D02*
X106098500Y-77022000D01*
X91883500Y-77022000D02*
X91883500Y-85822000D01*
D12*
X97899100Y-81168000D02*
X97899100Y-81726800D01*
D13*
X91883500Y-85822000D02*
X100403500Y-85822000D01*
X106098500Y-85822000D02*
X104843500Y-85822000D01*
X106098500Y-83942000D02*
X106098500Y-85822000D01*
X106098500Y-77022000D02*
X91883500Y-77022000D01*
D12*
X103995100Y-81422000D02*
X103233100Y-81422000D01*
D14*
X107173500Y-81422000D02*
G75*
G03*
X107173500Y-81422000I-100000J0D01*
G01*
%TO.C,LOGO1*%
G36*
X99273268Y-91760246D02*
G01*
X99286274Y-91729138D01*
X99305473Y-91700814D01*
X99330633Y-91676367D01*
X99361526Y-91656892D01*
X99364700Y-91655364D01*
X99379282Y-91648908D01*
X99391411Y-91644941D01*
X99404104Y-91642879D01*
X99420383Y-91642139D01*
X99433452Y-91642088D01*
X99456350Y-91642711D01*
X99473914Y-91644731D01*
X99489227Y-91648614D01*
X99498157Y-91651850D01*
X99524473Y-91666015D01*
X99549639Y-91686528D01*
X99571490Y-91711332D01*
X99586836Y-91736228D01*
X99593110Y-91749554D01*
X99597128Y-91760510D01*
X99599381Y-91771704D01*
X99600361Y-91785746D01*
X99600563Y-91805245D01*
X99600556Y-91808866D01*
X99600287Y-91829773D01*
X99599300Y-91844785D01*
X99597138Y-91856470D01*
X99593345Y-91867397D01*
X99588116Y-91878791D01*
X99570669Y-91906536D01*
X99547299Y-91931803D01*
X99520442Y-91952159D01*
X99507536Y-91959230D01*
X99493395Y-91965385D01*
X99480251Y-91969248D01*
X99465073Y-91971440D01*
X99444830Y-91972583D01*
X99441919Y-91972679D01*
X99414470Y-91972549D01*
X99393065Y-91970349D01*
X99383863Y-91968133D01*
X99350113Y-91952732D01*
X99319455Y-91929493D01*
X99309182Y-91919225D01*
X99287772Y-91890619D01*
X99273706Y-91859324D01*
X99266754Y-91826433D01*
X99266699Y-91800047D01*
X99307275Y-91800047D01*
X99309298Y-91832164D01*
X99318855Y-91861951D01*
X99335527Y-91888422D01*
X99358899Y-91910594D01*
X99379499Y-91923270D01*
X99393636Y-91930029D01*
X99404900Y-91933865D01*
X99416612Y-91935417D01*
X99432093Y-91935326D01*
X99440192Y-91934967D01*
X99460308Y-91933373D01*
X99475092Y-91930416D01*
X99487659Y-91925347D01*
X99493463Y-91922152D01*
X99516804Y-91904656D01*
X99537453Y-91882060D01*
X99552643Y-91857423D01*
X99553284Y-91856025D01*
X99560769Y-91830262D01*
X99562294Y-91801585D01*
X99557940Y-91773013D01*
X99550429Y-91752556D01*
X99532543Y-91724915D01*
X99509463Y-91703239D01*
X99482364Y-91688058D01*
X99452419Y-91679898D01*
X99420805Y-91679287D01*
X99397503Y-91683865D01*
X99375050Y-91693956D01*
X99353108Y-91710051D01*
X99333799Y-91730064D01*
X99319245Y-91751915D01*
X99313201Y-91766585D01*
X99307275Y-91800047D01*
X99266699Y-91800047D01*
X99266684Y-91793043D01*
X99273268Y-91760246D01*
G37*
D15*
X99273268Y-91760246D02*
X99286274Y-91729138D01*
X99305473Y-91700814D01*
X99330633Y-91676367D01*
X99361526Y-91656892D01*
X99364700Y-91655364D01*
X99379282Y-91648908D01*
X99391411Y-91644941D01*
X99404104Y-91642879D01*
X99420383Y-91642139D01*
X99433452Y-91642088D01*
X99456350Y-91642711D01*
X99473914Y-91644731D01*
X99489227Y-91648614D01*
X99498157Y-91651850D01*
X99524473Y-91666015D01*
X99549639Y-91686528D01*
X99571490Y-91711332D01*
X99586836Y-91736228D01*
X99593110Y-91749554D01*
X99597128Y-91760510D01*
X99599381Y-91771704D01*
X99600361Y-91785746D01*
X99600563Y-91805245D01*
X99600556Y-91808866D01*
X99600287Y-91829773D01*
X99599300Y-91844785D01*
X99597138Y-91856470D01*
X99593345Y-91867397D01*
X99588116Y-91878791D01*
X99570669Y-91906536D01*
X99547299Y-91931803D01*
X99520442Y-91952159D01*
X99507536Y-91959230D01*
X99493395Y-91965385D01*
X99480251Y-91969248D01*
X99465073Y-91971440D01*
X99444830Y-91972583D01*
X99441919Y-91972679D01*
X99414470Y-91972549D01*
X99393065Y-91970349D01*
X99383863Y-91968133D01*
X99350113Y-91952732D01*
X99319455Y-91929493D01*
X99309182Y-91919225D01*
X99287772Y-91890619D01*
X99273706Y-91859324D01*
X99266754Y-91826433D01*
X99266699Y-91800047D01*
X99307275Y-91800047D01*
X99309298Y-91832164D01*
X99318855Y-91861951D01*
X99335527Y-91888422D01*
X99358899Y-91910594D01*
X99379499Y-91923270D01*
X99393636Y-91930029D01*
X99404900Y-91933865D01*
X99416612Y-91935417D01*
X99432093Y-91935326D01*
X99440192Y-91934967D01*
X99460308Y-91933373D01*
X99475092Y-91930416D01*
X99487659Y-91925347D01*
X99493463Y-91922152D01*
X99516804Y-91904656D01*
X99537453Y-91882060D01*
X99552643Y-91857423D01*
X99553284Y-91856025D01*
X99560769Y-91830262D01*
X99562294Y-91801585D01*
X99557940Y-91773013D01*
X99550429Y-91752556D01*
X99532543Y-91724915D01*
X99509463Y-91703239D01*
X99482364Y-91688058D01*
X99452419Y-91679898D01*
X99420805Y-91679287D01*
X99397503Y-91683865D01*
X99375050Y-91693956D01*
X99353108Y-91710051D01*
X99333799Y-91730064D01*
X99319245Y-91751915D01*
X99313201Y-91766585D01*
X99307275Y-91800047D01*
X99266699Y-91800047D01*
X99266684Y-91793043D01*
X99273268Y-91760246D01*
G36*
X100412419Y-91642337D02*
G01*
X100426722Y-91643767D01*
X100438853Y-91646876D01*
X100451957Y-91652327D01*
X100459477Y-91655950D01*
X100487552Y-91669771D01*
X100487552Y-91694906D01*
X100486982Y-91710386D01*
X100484877Y-91718080D01*
X100480650Y-91718614D01*
X100473712Y-91712616D01*
X100472333Y-91711116D01*
X100457644Y-91699350D01*
X100437497Y-91689159D01*
X100414895Y-91681824D01*
X100396618Y-91678838D01*
X100366622Y-91680596D01*
X100337993Y-91690013D01*
X100312017Y-91706281D01*
X100289982Y-91728592D01*
X100273172Y-91756139D01*
X100273041Y-91756423D01*
X100267307Y-91770389D01*
X100264311Y-91782792D01*
X100263473Y-91797198D01*
X100263960Y-91812390D01*
X100266822Y-91838480D01*
X100273264Y-91859684D01*
X100284560Y-91879262D01*
X100295562Y-91893192D01*
X100317160Y-91913844D01*
X100341024Y-91927133D01*
X100369047Y-91933996D01*
X100380091Y-91935048D01*
X100408539Y-91934648D01*
X100433050Y-91928812D01*
X100456595Y-91916630D01*
X100468977Y-91907842D01*
X100487963Y-91893350D01*
X100486699Y-91919819D01*
X100485436Y-91946288D01*
X100460682Y-91958928D01*
X100446958Y-91965332D01*
X100434451Y-91969306D01*
X100420092Y-91971520D01*
X100400816Y-91972641D01*
X100397182Y-91972760D01*
X100372714Y-91972644D01*
X100352637Y-91970822D01*
X100341502Y-91968343D01*
X100305604Y-91952328D01*
X100275132Y-91930018D01*
X100250538Y-91901806D01*
X100236068Y-91876686D01*
X100229565Y-91861877D01*
X100225656Y-91849258D01*
X100223700Y-91835601D01*
X100223056Y-91817678D01*
X100223022Y-91811057D01*
X100226139Y-91772830D01*
X100235899Y-91739468D01*
X100252740Y-91710072D01*
X100277103Y-91683745D01*
X100290803Y-91672533D01*
X100313545Y-91657746D01*
X100336802Y-91648221D01*
X100363086Y-91643204D01*
X100392802Y-91641926D01*
X100412419Y-91642337D01*
G37*
X100412419Y-91642337D02*
X100426722Y-91643767D01*
X100438853Y-91646876D01*
X100451957Y-91652327D01*
X100459477Y-91655950D01*
X100487552Y-91669771D01*
X100487552Y-91694906D01*
X100486982Y-91710386D01*
X100484877Y-91718080D01*
X100480650Y-91718614D01*
X100473712Y-91712616D01*
X100472333Y-91711116D01*
X100457644Y-91699350D01*
X100437497Y-91689159D01*
X100414895Y-91681824D01*
X100396618Y-91678838D01*
X100366622Y-91680596D01*
X100337993Y-91690013D01*
X100312017Y-91706281D01*
X100289982Y-91728592D01*
X100273172Y-91756139D01*
X100273041Y-91756423D01*
X100267307Y-91770389D01*
X100264311Y-91782792D01*
X100263473Y-91797198D01*
X100263960Y-91812390D01*
X100266822Y-91838480D01*
X100273264Y-91859684D01*
X100284560Y-91879262D01*
X100295562Y-91893192D01*
X100317160Y-91913844D01*
X100341024Y-91927133D01*
X100369047Y-91933996D01*
X100380091Y-91935048D01*
X100408539Y-91934648D01*
X100433050Y-91928812D01*
X100456595Y-91916630D01*
X100468977Y-91907842D01*
X100487963Y-91893350D01*
X100486699Y-91919819D01*
X100485436Y-91946288D01*
X100460682Y-91958928D01*
X100446958Y-91965332D01*
X100434451Y-91969306D01*
X100420092Y-91971520D01*
X100400816Y-91972641D01*
X100397182Y-91972760D01*
X100372714Y-91972644D01*
X100352637Y-91970822D01*
X100341502Y-91968343D01*
X100305604Y-91952328D01*
X100275132Y-91930018D01*
X100250538Y-91901806D01*
X100236068Y-91876686D01*
X100229565Y-91861877D01*
X100225656Y-91849258D01*
X100223700Y-91835601D01*
X100223056Y-91817678D01*
X100223022Y-91811057D01*
X100226139Y-91772830D01*
X100235899Y-91739468D01*
X100252740Y-91710072D01*
X100277103Y-91683745D01*
X100290803Y-91672533D01*
X100313545Y-91657746D01*
X100336802Y-91648221D01*
X100363086Y-91643204D01*
X100392802Y-91641926D01*
X100412419Y-91642337D01*
G36*
X98506193Y-91648074D02*
G01*
X98541951Y-91649725D01*
X98570512Y-91654911D01*
X98592520Y-91663979D01*
X98608622Y-91677275D01*
X98619463Y-91695149D01*
X98624518Y-91711703D01*
X98627028Y-91739817D01*
X98622712Y-91765988D01*
X98612242Y-91788959D01*
X98596289Y-91807472D01*
X98575527Y-91820269D01*
X98564561Y-91823886D01*
X98556171Y-91826591D01*
X98552919Y-91828773D01*
X98555261Y-91832679D01*
X98561777Y-91842352D01*
X98571697Y-91856682D01*
X98584256Y-91874561D01*
X98598683Y-91894880D01*
X98598762Y-91894989D01*
X98613445Y-91915612D01*
X98626517Y-91934068D01*
X98637144Y-91949169D01*
X98644491Y-91959729D01*
X98647695Y-91964516D01*
X98647332Y-91967601D01*
X98640935Y-91969270D01*
X98627350Y-91969805D01*
X98626038Y-91969807D01*
X98601291Y-91969807D01*
X98553174Y-91899957D01*
X98538354Y-91878692D01*
X98525026Y-91860035D01*
X98513966Y-91845038D01*
X98505954Y-91834753D01*
X98501767Y-91830229D01*
X98501471Y-91830107D01*
X98500278Y-91834108D01*
X98499253Y-91845179D01*
X98498468Y-91861927D01*
X98497994Y-91882955D01*
X98497886Y-91899957D01*
X98497886Y-91969807D01*
X98459786Y-91969807D01*
X98459786Y-91792007D01*
X98497886Y-91792007D01*
X98518966Y-91792007D01*
X98535784Y-91790513D01*
X98552523Y-91786772D01*
X98557229Y-91785132D01*
X98573012Y-91774941D01*
X98582936Y-91760567D01*
X98587158Y-91743784D01*
X98585837Y-91726364D01*
X98579131Y-91710083D01*
X98567196Y-91696713D01*
X98550191Y-91688029D01*
X98548553Y-91687573D01*
X98532778Y-91684330D01*
X98517137Y-91682437D01*
X98513761Y-91682281D01*
X98497886Y-91681941D01*
X98497886Y-91792007D01*
X98459786Y-91792007D01*
X98459786Y-91648074D01*
X98506193Y-91648074D01*
G37*
X98506193Y-91648074D02*
X98541951Y-91649725D01*
X98570512Y-91654911D01*
X98592520Y-91663979D01*
X98608622Y-91677275D01*
X98619463Y-91695149D01*
X98624518Y-91711703D01*
X98627028Y-91739817D01*
X98622712Y-91765988D01*
X98612242Y-91788959D01*
X98596289Y-91807472D01*
X98575527Y-91820269D01*
X98564561Y-91823886D01*
X98556171Y-91826591D01*
X98552919Y-91828773D01*
X98555261Y-91832679D01*
X98561777Y-91842352D01*
X98571697Y-91856682D01*
X98584256Y-91874561D01*
X98598683Y-91894880D01*
X98598762Y-91894989D01*
X98613445Y-91915612D01*
X98626517Y-91934068D01*
X98637144Y-91949169D01*
X98644491Y-91959729D01*
X98647695Y-91964516D01*
X98647332Y-91967601D01*
X98640935Y-91969270D01*
X98627350Y-91969805D01*
X98626038Y-91969807D01*
X98601291Y-91969807D01*
X98553174Y-91899957D01*
X98538354Y-91878692D01*
X98525026Y-91860035D01*
X98513966Y-91845038D01*
X98505954Y-91834753D01*
X98501767Y-91830229D01*
X98501471Y-91830107D01*
X98500278Y-91834108D01*
X98499253Y-91845179D01*
X98498468Y-91861927D01*
X98497994Y-91882955D01*
X98497886Y-91899957D01*
X98497886Y-91969807D01*
X98459786Y-91969807D01*
X98459786Y-91792007D01*
X98497886Y-91792007D01*
X98518966Y-91792007D01*
X98535784Y-91790513D01*
X98552523Y-91786772D01*
X98557229Y-91785132D01*
X98573012Y-91774941D01*
X98582936Y-91760567D01*
X98587158Y-91743784D01*
X98585837Y-91726364D01*
X98579131Y-91710083D01*
X98567196Y-91696713D01*
X98550191Y-91688029D01*
X98548553Y-91687573D01*
X98532778Y-91684330D01*
X98517137Y-91682437D01*
X98513761Y-91682281D01*
X98497886Y-91681941D01*
X98497886Y-91792007D01*
X98459786Y-91792007D01*
X98459786Y-91648074D01*
X98506193Y-91648074D01*
G36*
X101177585Y-91777088D02*
G01*
X101306801Y-91648074D01*
X101361647Y-91648074D01*
X101286924Y-91723216D01*
X101212201Y-91798357D01*
X101287901Y-91880907D01*
X101308092Y-91903035D01*
X101326263Y-91923161D01*
X101341663Y-91940436D01*
X101353541Y-91954011D01*
X101361145Y-91963036D01*
X101363727Y-91966632D01*
X101359942Y-91968269D01*
X101349945Y-91969395D01*
X101337394Y-91969753D01*
X101310935Y-91969699D01*
X101247435Y-91897884D01*
X101229062Y-91877252D01*
X101212495Y-91858929D01*
X101198567Y-91843814D01*
X101188114Y-91832808D01*
X101181970Y-91826811D01*
X101180760Y-91825971D01*
X101179719Y-91829942D01*
X101178821Y-91841007D01*
X101178127Y-91857795D01*
X101177697Y-91878932D01*
X101177585Y-91897841D01*
X101177585Y-91969807D01*
X101135252Y-91969807D01*
X101135252Y-91648074D01*
X101177585Y-91648074D01*
X101177585Y-91777088D01*
G37*
X101177585Y-91777088D02*
X101306801Y-91648074D01*
X101361647Y-91648074D01*
X101286924Y-91723216D01*
X101212201Y-91798357D01*
X101287901Y-91880907D01*
X101308092Y-91903035D01*
X101326263Y-91923161D01*
X101341663Y-91940436D01*
X101353541Y-91954011D01*
X101361145Y-91963036D01*
X101363727Y-91966632D01*
X101359942Y-91968269D01*
X101349945Y-91969395D01*
X101337394Y-91969753D01*
X101310935Y-91969699D01*
X101247435Y-91897884D01*
X101229062Y-91877252D01*
X101212495Y-91858929D01*
X101198567Y-91843814D01*
X101188114Y-91832808D01*
X101181970Y-91826811D01*
X101180760Y-91825971D01*
X101179719Y-91829942D01*
X101178821Y-91841007D01*
X101178127Y-91857795D01*
X101177697Y-91878932D01*
X101177585Y-91897841D01*
X101177585Y-91969807D01*
X101135252Y-91969807D01*
X101135252Y-91648074D01*
X101177585Y-91648074D01*
X101177585Y-91777088D01*
G36*
X102155486Y-91681941D02*
G01*
X102028486Y-91681941D01*
X102028486Y-91775074D01*
X102151252Y-91775074D01*
X102151252Y-91813174D01*
X102028486Y-91813174D01*
X102028486Y-91931707D01*
X102155486Y-91931707D01*
X102155486Y-91969807D01*
X101986152Y-91969807D01*
X101986152Y-91648074D01*
X102155486Y-91648074D01*
X102155486Y-91681941D01*
G37*
X102155486Y-91681941D02*
X102028486Y-91681941D01*
X102028486Y-91775074D01*
X102151252Y-91775074D01*
X102151252Y-91813174D01*
X102028486Y-91813174D01*
X102028486Y-91931707D01*
X102155486Y-91931707D01*
X102155486Y-91969807D01*
X101986152Y-91969807D01*
X101986152Y-91648074D01*
X102155486Y-91648074D01*
X102155486Y-91681941D01*
G36*
X102972519Y-91681941D02*
G01*
X102896319Y-91681941D01*
X102896319Y-91969807D01*
X102853986Y-91969807D01*
X102853986Y-91681941D01*
X102777786Y-91681941D01*
X102777786Y-91648074D01*
X102972519Y-91648074D01*
X102972519Y-91681941D01*
G37*
X102972519Y-91681941D02*
X102896319Y-91681941D01*
X102896319Y-91969807D01*
X102853986Y-91969807D01*
X102853986Y-91681941D01*
X102777786Y-91681941D01*
X102777786Y-91648074D01*
X102972519Y-91648074D01*
X102972519Y-91681941D01*
G36*
X103651032Y-91648697D02*
G01*
X103673993Y-91649549D01*
X103690569Y-91650796D01*
X103702843Y-91652785D01*
X103712895Y-91655865D01*
X103722809Y-91660386D01*
X103723770Y-91660878D01*
X103743480Y-91674973D01*
X103756491Y-91693756D01*
X103763076Y-91717727D01*
X103764059Y-91734465D01*
X103760704Y-91763681D01*
X103750818Y-91787533D01*
X103734330Y-91806133D01*
X103711168Y-91819594D01*
X103708119Y-91820800D01*
X103689011Y-91828053D01*
X103737146Y-91895755D01*
X103751962Y-91916757D01*
X103764931Y-91935454D01*
X103775303Y-91950740D01*
X103782330Y-91961507D01*
X103785259Y-91966648D01*
X103785300Y-91966843D01*
X103781488Y-91968471D01*
X103771607Y-91969176D01*
X103761385Y-91968960D01*
X103737451Y-91967691D01*
X103690476Y-91899057D01*
X103675889Y-91877961D01*
X103662822Y-91859475D01*
X103652052Y-91844665D01*
X103644356Y-91834597D01*
X103640511Y-91830337D01*
X103640327Y-91830265D01*
X103639271Y-91834211D01*
X103638363Y-91845233D01*
X103637668Y-91861938D01*
X103637248Y-91882937D01*
X103637152Y-91899957D01*
X103637152Y-91969807D01*
X103599052Y-91969807D01*
X103599052Y-91792007D01*
X103637152Y-91792007D01*
X103659377Y-91792001D01*
X103676782Y-91790384D01*
X103692624Y-91786236D01*
X103696419Y-91784592D01*
X103711961Y-91772408D01*
X103721717Y-91755410D01*
X103724495Y-91735896D01*
X103724035Y-91731384D01*
X103719463Y-91713270D01*
X103711172Y-91700330D01*
X103697885Y-91691572D01*
X103678329Y-91686002D01*
X103662901Y-91683760D01*
X103637152Y-91680847D01*
X103637152Y-91792007D01*
X103599052Y-91792007D01*
X103599052Y-91647203D01*
X103651032Y-91648697D01*
G37*
X103651032Y-91648697D02*
X103673993Y-91649549D01*
X103690569Y-91650796D01*
X103702843Y-91652785D01*
X103712895Y-91655865D01*
X103722809Y-91660386D01*
X103723770Y-91660878D01*
X103743480Y-91674973D01*
X103756491Y-91693756D01*
X103763076Y-91717727D01*
X103764059Y-91734465D01*
X103760704Y-91763681D01*
X103750818Y-91787533D01*
X103734330Y-91806133D01*
X103711168Y-91819594D01*
X103708119Y-91820800D01*
X103689011Y-91828053D01*
X103737146Y-91895755D01*
X103751962Y-91916757D01*
X103764931Y-91935454D01*
X103775303Y-91950740D01*
X103782330Y-91961507D01*
X103785259Y-91966648D01*
X103785300Y-91966843D01*
X103781488Y-91968471D01*
X103771607Y-91969176D01*
X103761385Y-91968960D01*
X103737451Y-91967691D01*
X103690476Y-91899057D01*
X103675889Y-91877961D01*
X103662822Y-91859475D01*
X103652052Y-91844665D01*
X103644356Y-91834597D01*
X103640511Y-91830337D01*
X103640327Y-91830265D01*
X103639271Y-91834211D01*
X103638363Y-91845233D01*
X103637668Y-91861938D01*
X103637248Y-91882937D01*
X103637152Y-91899957D01*
X103637152Y-91969807D01*
X103599052Y-91969807D01*
X103599052Y-91792007D01*
X103637152Y-91792007D01*
X103659377Y-91792001D01*
X103676782Y-91790384D01*
X103692624Y-91786236D01*
X103696419Y-91784592D01*
X103711961Y-91772408D01*
X103721717Y-91755410D01*
X103724495Y-91735896D01*
X103724035Y-91731384D01*
X103719463Y-91713270D01*
X103711172Y-91700330D01*
X103697885Y-91691572D01*
X103678329Y-91686002D01*
X103662901Y-91683760D01*
X103637152Y-91680847D01*
X103637152Y-91792007D01*
X103599052Y-91792007D01*
X103599052Y-91647203D01*
X103651032Y-91648697D01*
G36*
X104418945Y-91648350D02*
G01*
X104424292Y-91649878D01*
X104429491Y-91653805D01*
X104435360Y-91661034D01*
X104442713Y-91672471D01*
X104452368Y-91689017D01*
X104465141Y-91711577D01*
X104471750Y-91723273D01*
X104484570Y-91745714D01*
X104494009Y-91761579D01*
X104500715Y-91771739D01*
X104505335Y-91777064D01*
X104508517Y-91778426D01*
X104510909Y-91776695D01*
X104511182Y-91776309D01*
X104514969Y-91770120D01*
X104522060Y-91758015D01*
X104531611Y-91741455D01*
X104542776Y-91721903D01*
X104549465Y-91710107D01*
X104561073Y-91690013D01*
X104571568Y-91672635D01*
X104580125Y-91659279D01*
X104585922Y-91651248D01*
X104587735Y-91649528D01*
X104594826Y-91648610D01*
X104606714Y-91648593D01*
X104612282Y-91648879D01*
X104631719Y-91650191D01*
X104579047Y-91741207D01*
X104526375Y-91832224D01*
X104526263Y-91901016D01*
X104526152Y-91969807D01*
X104488052Y-91969807D01*
X104488052Y-91834146D01*
X104435365Y-91742168D01*
X104382678Y-91650191D01*
X104404545Y-91648879D01*
X104412635Y-91648318D01*
X104418945Y-91648350D01*
G37*
X104418945Y-91648350D02*
X104424292Y-91649878D01*
X104429491Y-91653805D01*
X104435360Y-91661034D01*
X104442713Y-91672471D01*
X104452368Y-91689017D01*
X104465141Y-91711577D01*
X104471750Y-91723273D01*
X104484570Y-91745714D01*
X104494009Y-91761579D01*
X104500715Y-91771739D01*
X104505335Y-91777064D01*
X104508517Y-91778426D01*
X104510909Y-91776695D01*
X104511182Y-91776309D01*
X104514969Y-91770120D01*
X104522060Y-91758015D01*
X104531611Y-91741455D01*
X104542776Y-91721903D01*
X104549465Y-91710107D01*
X104561073Y-91690013D01*
X104571568Y-91672635D01*
X104580125Y-91659279D01*
X104585922Y-91651248D01*
X104587735Y-91649528D01*
X104594826Y-91648610D01*
X104606714Y-91648593D01*
X104612282Y-91648879D01*
X104631719Y-91650191D01*
X104579047Y-91741207D01*
X104526375Y-91832224D01*
X104526263Y-91901016D01*
X104526152Y-91969807D01*
X104488052Y-91969807D01*
X104488052Y-91834146D01*
X104435365Y-91742168D01*
X104382678Y-91650191D01*
X104404545Y-91648879D01*
X104412635Y-91648318D01*
X104418945Y-91648350D01*
G36*
X98600205Y-90846901D02*
G01*
X98626701Y-90849587D01*
X98648169Y-90853999D01*
X98669848Y-90860426D01*
X98689995Y-90867600D01*
X98707082Y-90874851D01*
X98719584Y-90881508D01*
X98725975Y-90886901D01*
X98726486Y-90888394D01*
X98724603Y-90894012D01*
X98719456Y-90905502D01*
X98711791Y-90921280D01*
X98702359Y-90939764D01*
X98700632Y-90943063D01*
X98674778Y-90992286D01*
X98663590Y-90984847D01*
X98635495Y-90969286D01*
X98608598Y-90960429D01*
X98583806Y-90958378D01*
X98562029Y-90963235D01*
X98547804Y-90971816D01*
X98539001Y-90981793D01*
X98533655Y-90992686D01*
X98533594Y-90992937D01*
X98533037Y-91001563D01*
X98536893Y-91009662D01*
X98545066Y-91018768D01*
X98553966Y-91026185D01*
X98565784Y-91032960D01*
X98582236Y-91039911D01*
X98605037Y-91047857D01*
X98607959Y-91048812D01*
X98640693Y-91060153D01*
X98666624Y-91070870D01*
X98687300Y-91081758D01*
X98704266Y-91093610D01*
X98716266Y-91104376D01*
X98730914Y-91122375D01*
X98740648Y-91143200D01*
X98746025Y-91168529D01*
X98747602Y-91199036D01*
X98744513Y-91240479D01*
X98735244Y-91276214D01*
X98719603Y-91306517D01*
X98697402Y-91331664D01*
X98668450Y-91351928D01*
X98632558Y-91367586D01*
X98630931Y-91368135D01*
X98608198Y-91373716D01*
X98580428Y-91377528D01*
X98550911Y-91379335D01*
X98522934Y-91378902D01*
X98505800Y-91377103D01*
X98488252Y-91373547D01*
X98468097Y-91368340D01*
X98455000Y-91364334D01*
X98439895Y-91358591D01*
X98422721Y-91350994D01*
X98405473Y-91342562D01*
X98390144Y-91334315D01*
X98378727Y-91327271D01*
X98373282Y-91322560D01*
X98374569Y-91318189D01*
X98379001Y-91307994D01*
X98385752Y-91293626D01*
X98393994Y-91276738D01*
X98402902Y-91258982D01*
X98411648Y-91242011D01*
X98419406Y-91227477D01*
X98425350Y-91217033D01*
X98428179Y-91212808D01*
X98431922Y-91214325D01*
X98440485Y-91219633D01*
X98449846Y-91226060D01*
X98475202Y-91242580D01*
X98497567Y-91253473D01*
X98519262Y-91259700D01*
X98536366Y-91261878D01*
X98555726Y-91262331D01*
X98570207Y-91260129D01*
X98579944Y-91256440D01*
X98595300Y-91245591D01*
X98604616Y-91231523D01*
X98607369Y-91216043D01*
X98603039Y-91200960D01*
X98597950Y-91194018D01*
X98590071Y-91186535D01*
X98580697Y-91180111D01*
X98568276Y-91174017D01*
X98551253Y-91167529D01*
X98528075Y-91159918D01*
X98519061Y-91157114D01*
X98484732Y-91145515D01*
X98457645Y-91133862D01*
X98436607Y-91121394D01*
X98420425Y-91107346D01*
X98407903Y-91090958D01*
X98403518Y-91083325D01*
X98399392Y-91074411D01*
X98396698Y-91064894D01*
X98395146Y-91052708D01*
X98394451Y-91035791D01*
X98394317Y-91017307D01*
X98394596Y-90994183D01*
X98395647Y-90977109D01*
X98397788Y-90963681D01*
X98401340Y-90951495D01*
X98403996Y-90944487D01*
X98420684Y-90914092D01*
X98444497Y-90888009D01*
X98475057Y-90866628D01*
X98484239Y-90861799D01*
X98498111Y-90855080D01*
X98508992Y-90850581D01*
X98519200Y-90847863D01*
X98531053Y-90846486D01*
X98546867Y-90846009D01*
X98567516Y-90845990D01*
X98600205Y-90846901D01*
G37*
X98600205Y-90846901D02*
X98626701Y-90849587D01*
X98648169Y-90853999D01*
X98669848Y-90860426D01*
X98689995Y-90867600D01*
X98707082Y-90874851D01*
X98719584Y-90881508D01*
X98725975Y-90886901D01*
X98726486Y-90888394D01*
X98724603Y-90894012D01*
X98719456Y-90905502D01*
X98711791Y-90921280D01*
X98702359Y-90939764D01*
X98700632Y-90943063D01*
X98674778Y-90992286D01*
X98663590Y-90984847D01*
X98635495Y-90969286D01*
X98608598Y-90960429D01*
X98583806Y-90958378D01*
X98562029Y-90963235D01*
X98547804Y-90971816D01*
X98539001Y-90981793D01*
X98533655Y-90992686D01*
X98533594Y-90992937D01*
X98533037Y-91001563D01*
X98536893Y-91009662D01*
X98545066Y-91018768D01*
X98553966Y-91026185D01*
X98565784Y-91032960D01*
X98582236Y-91039911D01*
X98605037Y-91047857D01*
X98607959Y-91048812D01*
X98640693Y-91060153D01*
X98666624Y-91070870D01*
X98687300Y-91081758D01*
X98704266Y-91093610D01*
X98716266Y-91104376D01*
X98730914Y-91122375D01*
X98740648Y-91143200D01*
X98746025Y-91168529D01*
X98747602Y-91199036D01*
X98744513Y-91240479D01*
X98735244Y-91276214D01*
X98719603Y-91306517D01*
X98697402Y-91331664D01*
X98668450Y-91351928D01*
X98632558Y-91367586D01*
X98630931Y-91368135D01*
X98608198Y-91373716D01*
X98580428Y-91377528D01*
X98550911Y-91379335D01*
X98522934Y-91378902D01*
X98505800Y-91377103D01*
X98488252Y-91373547D01*
X98468097Y-91368340D01*
X98455000Y-91364334D01*
X98439895Y-91358591D01*
X98422721Y-91350994D01*
X98405473Y-91342562D01*
X98390144Y-91334315D01*
X98378727Y-91327271D01*
X98373282Y-91322560D01*
X98374569Y-91318189D01*
X98379001Y-91307994D01*
X98385752Y-91293626D01*
X98393994Y-91276738D01*
X98402902Y-91258982D01*
X98411648Y-91242011D01*
X98419406Y-91227477D01*
X98425350Y-91217033D01*
X98428179Y-91212808D01*
X98431922Y-91214325D01*
X98440485Y-91219633D01*
X98449846Y-91226060D01*
X98475202Y-91242580D01*
X98497567Y-91253473D01*
X98519262Y-91259700D01*
X98536366Y-91261878D01*
X98555726Y-91262331D01*
X98570207Y-91260129D01*
X98579944Y-91256440D01*
X98595300Y-91245591D01*
X98604616Y-91231523D01*
X98607369Y-91216043D01*
X98603039Y-91200960D01*
X98597950Y-91194018D01*
X98590071Y-91186535D01*
X98580697Y-91180111D01*
X98568276Y-91174017D01*
X98551253Y-91167529D01*
X98528075Y-91159918D01*
X98519061Y-91157114D01*
X98484732Y-91145515D01*
X98457645Y-91133862D01*
X98436607Y-91121394D01*
X98420425Y-91107346D01*
X98407903Y-91090958D01*
X98403518Y-91083325D01*
X98399392Y-91074411D01*
X98396698Y-91064894D01*
X98395146Y-91052708D01*
X98394451Y-91035791D01*
X98394317Y-91017307D01*
X98394596Y-90994183D01*
X98395647Y-90977109D01*
X98397788Y-90963681D01*
X98401340Y-90951495D01*
X98403996Y-90944487D01*
X98420684Y-90914092D01*
X98444497Y-90888009D01*
X98475057Y-90866628D01*
X98484239Y-90861799D01*
X98498111Y-90855080D01*
X98508992Y-90850581D01*
X98519200Y-90847863D01*
X98531053Y-90846486D01*
X98546867Y-90846009D01*
X98567516Y-90845990D01*
X98600205Y-90846901D01*
G36*
X99277656Y-91026957D02*
G01*
X99278935Y-91197473D01*
X99289623Y-91218229D01*
X99303721Y-91237935D01*
X99322515Y-91250949D01*
X99346506Y-91257545D01*
X99363210Y-91258538D01*
X99383790Y-91256975D01*
X99400058Y-91251863D01*
X99405537Y-91249013D01*
X99415634Y-91242661D01*
X99424098Y-91235631D01*
X99431071Y-91227153D01*
X99436696Y-91216460D01*
X99441117Y-91202785D01*
X99444474Y-91185359D01*
X99446911Y-91163415D01*
X99448570Y-91136184D01*
X99449594Y-91102900D01*
X99450126Y-91062794D01*
X99450306Y-91015099D01*
X99450312Y-91007782D01*
X99450386Y-90856441D01*
X99585852Y-90856441D01*
X99585817Y-91014132D01*
X99585678Y-91065072D01*
X99585248Y-91108374D01*
X99584470Y-91144861D01*
X99583290Y-91175361D01*
X99581651Y-91200696D01*
X99579498Y-91221693D01*
X99576775Y-91239175D01*
X99573425Y-91253969D01*
X99569395Y-91266898D01*
X99568580Y-91269123D01*
X99554056Y-91296554D01*
X99532514Y-91321643D01*
X99505315Y-91343279D01*
X99473819Y-91360351D01*
X99444551Y-91370478D01*
X99423871Y-91374437D01*
X99397909Y-91377346D01*
X99369806Y-91379037D01*
X99342701Y-91379338D01*
X99319734Y-91378082D01*
X99314919Y-91377491D01*
X99272266Y-91368153D01*
X99234940Y-91353155D01*
X99203406Y-91332806D01*
X99178130Y-91307411D01*
X99159580Y-91277276D01*
X99158455Y-91274793D01*
X99154447Y-91264724D01*
X99151104Y-91253674D01*
X99148368Y-91240814D01*
X99146182Y-91225316D01*
X99144488Y-91206349D01*
X99143229Y-91183087D01*
X99142346Y-91154698D01*
X99141783Y-91120355D01*
X99141482Y-91079229D01*
X99141384Y-91030490D01*
X99141384Y-91028949D01*
X99141352Y-90856441D01*
X99276376Y-90856441D01*
X99277656Y-91026957D01*
G37*
X99277656Y-91026957D02*
X99278935Y-91197473D01*
X99289623Y-91218229D01*
X99303721Y-91237935D01*
X99322515Y-91250949D01*
X99346506Y-91257545D01*
X99363210Y-91258538D01*
X99383790Y-91256975D01*
X99400058Y-91251863D01*
X99405537Y-91249013D01*
X99415634Y-91242661D01*
X99424098Y-91235631D01*
X99431071Y-91227153D01*
X99436696Y-91216460D01*
X99441117Y-91202785D01*
X99444474Y-91185359D01*
X99446911Y-91163415D01*
X99448570Y-91136184D01*
X99449594Y-91102900D01*
X99450126Y-91062794D01*
X99450306Y-91015099D01*
X99450312Y-91007782D01*
X99450386Y-90856441D01*
X99585852Y-90856441D01*
X99585817Y-91014132D01*
X99585678Y-91065072D01*
X99585248Y-91108374D01*
X99584470Y-91144861D01*
X99583290Y-91175361D01*
X99581651Y-91200696D01*
X99579498Y-91221693D01*
X99576775Y-91239175D01*
X99573425Y-91253969D01*
X99569395Y-91266898D01*
X99568580Y-91269123D01*
X99554056Y-91296554D01*
X99532514Y-91321643D01*
X99505315Y-91343279D01*
X99473819Y-91360351D01*
X99444551Y-91370478D01*
X99423871Y-91374437D01*
X99397909Y-91377346D01*
X99369806Y-91379037D01*
X99342701Y-91379338D01*
X99319734Y-91378082D01*
X99314919Y-91377491D01*
X99272266Y-91368153D01*
X99234940Y-91353155D01*
X99203406Y-91332806D01*
X99178130Y-91307411D01*
X99159580Y-91277276D01*
X99158455Y-91274793D01*
X99154447Y-91264724D01*
X99151104Y-91253674D01*
X99148368Y-91240814D01*
X99146182Y-91225316D01*
X99144488Y-91206349D01*
X99143229Y-91183087D01*
X99142346Y-91154698D01*
X99141783Y-91120355D01*
X99141482Y-91079229D01*
X99141384Y-91030490D01*
X99141384Y-91028949D01*
X99141352Y-90856441D01*
X99276376Y-90856441D01*
X99277656Y-91026957D01*
G36*
X100252798Y-91008566D02*
G01*
X100371136Y-91160692D01*
X100372247Y-91008566D01*
X100373358Y-90856441D01*
X100508719Y-90856441D01*
X100508719Y-91364441D01*
X100370408Y-91364441D01*
X100254355Y-91214762D01*
X100138302Y-91065084D01*
X100137190Y-91214762D01*
X100136079Y-91364441D01*
X100000719Y-91364441D01*
X100000719Y-90856441D01*
X100134461Y-90856441D01*
X100252798Y-91008566D01*
G37*
X100252798Y-91008566D02*
X100371136Y-91160692D01*
X100372247Y-91008566D01*
X100373358Y-90856441D01*
X100508719Y-90856441D01*
X100508719Y-91364441D01*
X100370408Y-91364441D01*
X100254355Y-91214762D01*
X100138302Y-91065084D01*
X100137190Y-91214762D01*
X100136079Y-91364441D01*
X100000719Y-91364441D01*
X100000719Y-90856441D01*
X100134461Y-90856441D01*
X100252798Y-91008566D01*
G36*
X101597744Y-90856514D02*
G01*
X101638017Y-90856727D01*
X101671119Y-90857433D01*
X101698342Y-90858821D01*
X101720977Y-90861080D01*
X101740314Y-90864400D01*
X101757644Y-90868970D01*
X101774258Y-90874980D01*
X101791448Y-90882620D01*
X101798359Y-90885971D01*
X101834981Y-90908502D01*
X101867570Y-90937470D01*
X101895009Y-90971508D01*
X101916176Y-91009254D01*
X101928882Y-91045045D01*
X101932019Y-91061982D01*
X101934278Y-91083870D01*
X101935320Y-91107212D01*
X101935352Y-91111777D01*
X101932935Y-91154489D01*
X101925204Y-91191822D01*
X101911445Y-91225506D01*
X101890940Y-91257274D01*
X101862973Y-91288856D01*
X101861465Y-91290364D01*
X101833537Y-91315668D01*
X101808107Y-91333471D01*
X101799886Y-91337913D01*
X101784418Y-91345295D01*
X101770148Y-91351175D01*
X101755849Y-91355723D01*
X101740292Y-91359106D01*
X101722249Y-91361492D01*
X101700494Y-91363050D01*
X101673797Y-91363948D01*
X101640931Y-91364355D01*
X101606379Y-91364441D01*
X101490852Y-91364441D01*
X101490852Y-91251202D01*
X101626319Y-91251202D01*
X101662254Y-91249316D01*
X101682562Y-91247711D01*
X101698160Y-91244771D01*
X101712795Y-91239539D01*
X101726624Y-91232910D01*
X101753965Y-91214867D01*
X101774364Y-91192121D01*
X101787922Y-91164498D01*
X101794739Y-91131824D01*
X101795652Y-91112557D01*
X101792104Y-91077433D01*
X101781696Y-91046282D01*
X101764785Y-91019818D01*
X101741728Y-90998754D01*
X101737335Y-90995833D01*
X101721317Y-90986740D01*
X101705344Y-90980411D01*
X101686764Y-90976072D01*
X101662927Y-90972948D01*
X101657011Y-90972374D01*
X101626319Y-90969525D01*
X101626319Y-91251202D01*
X101490852Y-91251202D01*
X101490852Y-90856441D01*
X101597744Y-90856514D01*
G37*
X101597744Y-90856514D02*
X101638017Y-90856727D01*
X101671119Y-90857433D01*
X101698342Y-90858821D01*
X101720977Y-90861080D01*
X101740314Y-90864400D01*
X101757644Y-90868970D01*
X101774258Y-90874980D01*
X101791448Y-90882620D01*
X101798359Y-90885971D01*
X101834981Y-90908502D01*
X101867570Y-90937470D01*
X101895009Y-90971508D01*
X101916176Y-91009254D01*
X101928882Y-91045045D01*
X101932019Y-91061982D01*
X101934278Y-91083870D01*
X101935320Y-91107212D01*
X101935352Y-91111777D01*
X101932935Y-91154489D01*
X101925204Y-91191822D01*
X101911445Y-91225506D01*
X101890940Y-91257274D01*
X101862973Y-91288856D01*
X101861465Y-91290364D01*
X101833537Y-91315668D01*
X101808107Y-91333471D01*
X101799886Y-91337913D01*
X101784418Y-91345295D01*
X101770148Y-91351175D01*
X101755849Y-91355723D01*
X101740292Y-91359106D01*
X101722249Y-91361492D01*
X101700494Y-91363050D01*
X101673797Y-91363948D01*
X101640931Y-91364355D01*
X101606379Y-91364441D01*
X101490852Y-91364441D01*
X101490852Y-91251202D01*
X101626319Y-91251202D01*
X101662254Y-91249316D01*
X101682562Y-91247711D01*
X101698160Y-91244771D01*
X101712795Y-91239539D01*
X101726624Y-91232910D01*
X101753965Y-91214867D01*
X101774364Y-91192121D01*
X101787922Y-91164498D01*
X101794739Y-91131824D01*
X101795652Y-91112557D01*
X101792104Y-91077433D01*
X101781696Y-91046282D01*
X101764785Y-91019818D01*
X101741728Y-90998754D01*
X101737335Y-90995833D01*
X101721317Y-90986740D01*
X101705344Y-90980411D01*
X101686764Y-90976072D01*
X101662927Y-90972948D01*
X101657011Y-90972374D01*
X101626319Y-90969525D01*
X101626319Y-91251202D01*
X101490852Y-91251202D01*
X101490852Y-90856441D01*
X101597744Y-90856514D01*
G36*
X102621152Y-90970741D02*
G01*
X102464519Y-90970741D01*
X102464519Y-91051174D01*
X102612686Y-91051174D01*
X102612686Y-91169707D01*
X102464519Y-91169707D01*
X102464519Y-91250141D01*
X102621152Y-91250141D01*
X102621152Y-91364441D01*
X102329052Y-91364441D01*
X102329052Y-90856441D01*
X102621152Y-90856441D01*
X102621152Y-90970741D01*
G37*
X102621152Y-90970741D02*
X102464519Y-90970741D01*
X102464519Y-91051174D01*
X102612686Y-91051174D01*
X102612686Y-91169707D01*
X102464519Y-91169707D01*
X102464519Y-91250141D01*
X102621152Y-91250141D01*
X102621152Y-91364441D01*
X102329052Y-91364441D01*
X102329052Y-90856441D01*
X102621152Y-90856441D01*
X102621152Y-90970741D01*
G36*
X103467615Y-90856496D02*
G01*
X103486926Y-90856740D01*
X103499999Y-90857287D01*
X103507951Y-90858252D01*
X103511894Y-90859752D01*
X103512943Y-90861901D01*
X103512554Y-90863849D01*
X103510504Y-90868955D01*
X103505409Y-90881161D01*
X103497559Y-90899785D01*
X103487244Y-90924143D01*
X103474754Y-90953554D01*
X103460378Y-90987334D01*
X103444407Y-91024803D01*
X103427130Y-91065276D01*
X103408837Y-91108072D01*
X103405108Y-91116791D01*
X103300064Y-91362324D01*
X103190536Y-91364412D01*
X103086819Y-91116867D01*
X103068662Y-91073482D01*
X103051474Y-91032317D01*
X103035535Y-90994050D01*
X103021126Y-90959360D01*
X103008529Y-90928927D01*
X102998024Y-90903430D01*
X102989892Y-90883547D01*
X102984415Y-90869958D01*
X102981873Y-90863342D01*
X102981733Y-90862881D01*
X102982199Y-90860527D01*
X102985478Y-90858816D01*
X102992662Y-90857652D01*
X103004846Y-90856936D01*
X103023123Y-90856571D01*
X103048586Y-90856459D01*
X103053700Y-90856458D01*
X103127036Y-90856476D01*
X103186263Y-91006569D01*
X103199530Y-91039958D01*
X103211885Y-91070610D01*
X103222979Y-91097693D01*
X103232464Y-91120372D01*
X103239989Y-91137815D01*
X103245206Y-91149187D01*
X103247764Y-91153655D01*
X103247917Y-91153660D01*
X103249975Y-91149170D01*
X103254782Y-91137691D01*
X103261979Y-91120108D01*
X103271206Y-91097307D01*
X103282106Y-91070176D01*
X103294320Y-91039600D01*
X103307489Y-91006465D01*
X103308645Y-91003549D01*
X103366947Y-90856441D01*
X103440952Y-90856441D01*
X103467615Y-90856496D01*
G37*
X103467615Y-90856496D02*
X103486926Y-90856740D01*
X103499999Y-90857287D01*
X103507951Y-90858252D01*
X103511894Y-90859752D01*
X103512943Y-90861901D01*
X103512554Y-90863849D01*
X103510504Y-90868955D01*
X103505409Y-90881161D01*
X103497559Y-90899785D01*
X103487244Y-90924143D01*
X103474754Y-90953554D01*
X103460378Y-90987334D01*
X103444407Y-91024803D01*
X103427130Y-91065276D01*
X103408837Y-91108072D01*
X103405108Y-91116791D01*
X103300064Y-91362324D01*
X103190536Y-91364412D01*
X103086819Y-91116867D01*
X103068662Y-91073482D01*
X103051474Y-91032317D01*
X103035535Y-90994050D01*
X103021126Y-90959360D01*
X103008529Y-90928927D01*
X102998024Y-90903430D01*
X102989892Y-90883547D01*
X102984415Y-90869958D01*
X102981873Y-90863342D01*
X102981733Y-90862881D01*
X102982199Y-90860527D01*
X102985478Y-90858816D01*
X102992662Y-90857652D01*
X103004846Y-90856936D01*
X103023123Y-90856571D01*
X103048586Y-90856459D01*
X103053700Y-90856458D01*
X103127036Y-90856476D01*
X103186263Y-91006569D01*
X103199530Y-91039958D01*
X103211885Y-91070610D01*
X103222979Y-91097693D01*
X103232464Y-91120372D01*
X103239989Y-91137815D01*
X103245206Y-91149187D01*
X103247764Y-91153655D01*
X103247917Y-91153660D01*
X103249975Y-91149170D01*
X103254782Y-91137691D01*
X103261979Y-91120108D01*
X103271206Y-91097307D01*
X103282106Y-91070176D01*
X103294320Y-91039600D01*
X103307489Y-91006465D01*
X103308645Y-91003549D01*
X103366947Y-90856441D01*
X103440952Y-90856441D01*
X103467615Y-90856496D01*
G36*
X104013919Y-91364441D02*
G01*
X103878452Y-91364441D01*
X103878452Y-90856441D01*
X104013919Y-90856441D01*
X104013919Y-91364441D01*
G37*
X104013919Y-91364441D02*
X103878452Y-91364441D01*
X103878452Y-90856441D01*
X104013919Y-90856441D01*
X104013919Y-91364441D01*
G36*
X104564252Y-91250141D02*
G01*
X104725119Y-91250141D01*
X104725119Y-91364441D01*
X104428785Y-91364441D01*
X104428785Y-90856441D01*
X104564252Y-90856441D01*
X104564252Y-91250141D01*
G37*
X104564252Y-91250141D02*
X104725119Y-91250141D01*
X104725119Y-91364441D01*
X104428785Y-91364441D01*
X104428785Y-90856441D01*
X104564252Y-90856441D01*
X104564252Y-91250141D01*
G36*
X99068367Y-88267631D02*
G01*
X99078436Y-88272923D01*
X99091967Y-88280502D01*
X99096479Y-88283106D01*
X99112664Y-88292504D01*
X99127842Y-88301303D01*
X99139085Y-88307808D01*
X99140294Y-88308506D01*
X99154162Y-88316509D01*
X99167810Y-88324391D01*
X99175901Y-88329039D01*
X99189869Y-88337033D01*
X99208233Y-88347527D01*
X99229514Y-88359677D01*
X99249302Y-88370964D01*
X99271262Y-88383515D01*
X99290959Y-88394826D01*
X99307098Y-88404150D01*
X99318381Y-88410736D01*
X99323385Y-88413753D01*
X99331241Y-88418411D01*
X99342412Y-88424518D01*
X99344552Y-88425642D01*
X99353896Y-88430676D01*
X99368637Y-88438806D01*
X99386814Y-88448942D01*
X99406462Y-88459995D01*
X99408052Y-88460894D01*
X99427729Y-88471950D01*
X99446092Y-88482142D01*
X99461182Y-88490390D01*
X99471038Y-88495613D01*
X99471552Y-88495874D01*
X99483651Y-88502146D01*
X99493825Y-88507721D01*
X99494836Y-88508309D01*
X99501616Y-88512103D01*
X99514194Y-88518969D01*
X99530895Y-88527999D01*
X99550043Y-88538283D01*
X99554102Y-88540455D01*
X99574541Y-88551404D01*
X99593847Y-88561783D01*
X99609992Y-88570498D01*
X99620945Y-88576456D01*
X99621836Y-88576945D01*
X99638990Y-88586180D01*
X99662661Y-88598609D01*
X99691768Y-88613687D01*
X99725232Y-88630868D01*
X99761973Y-88649609D01*
X99800911Y-88669365D01*
X99840966Y-88689589D01*
X99881058Y-88709738D01*
X99920107Y-88729266D01*
X99957034Y-88747629D01*
X99990758Y-88764282D01*
X100020200Y-88778678D01*
X100044279Y-88790275D01*
X100049402Y-88792705D01*
X100086885Y-88810281D01*
X100130090Y-88830322D01*
X100176986Y-88851892D01*
X100225539Y-88874054D01*
X100265302Y-88892077D01*
X100317012Y-88915026D01*
X100373353Y-88939313D01*
X100431891Y-88963925D01*
X100490195Y-88987854D01*
X100545832Y-89010089D01*
X100596371Y-89029621D01*
X100597619Y-89030092D01*
X100619504Y-89038398D01*
X100639092Y-89045906D01*
X100654775Y-89051994D01*
X100664947Y-89056041D01*
X100667469Y-89057108D01*
X100679832Y-89062134D01*
X100698955Y-89069194D01*
X100723498Y-89077850D01*
X100752123Y-89087662D01*
X100783492Y-89098192D01*
X100816265Y-89109002D01*
X100849105Y-89119653D01*
X100880673Y-89129705D01*
X100909630Y-89138722D01*
X100934637Y-89146264D01*
X100954357Y-89151892D01*
X100965249Y-89154681D01*
X100987862Y-89159905D01*
X101023869Y-89234531D01*
X101037586Y-89262908D01*
X101053659Y-89296076D01*
X101070722Y-89331218D01*
X101087407Y-89365522D01*
X101101204Y-89393824D01*
X101114706Y-89421527D01*
X101128305Y-89449498D01*
X101141087Y-89475856D01*
X101152141Y-89498720D01*
X101160554Y-89516209D01*
X101161749Y-89518707D01*
X101170340Y-89536684D01*
X101181439Y-89559907D01*
X101193901Y-89585983D01*
X101206584Y-89612520D01*
X101213341Y-89626657D01*
X101226028Y-89653051D01*
X101241152Y-89684280D01*
X101257379Y-89717600D01*
X101273373Y-89750268D01*
X101285734Y-89775368D01*
X101297588Y-89799570D01*
X101308048Y-89821334D01*
X101316561Y-89839477D01*
X101322575Y-89852817D01*
X101325538Y-89860169D01*
X101325752Y-89861093D01*
X101328683Y-89865609D01*
X101329985Y-89865841D01*
X101333926Y-89869180D01*
X101334219Y-89871095D01*
X101335982Y-89877208D01*
X101340647Y-89888616D01*
X101347280Y-89903066D01*
X101348710Y-89906020D01*
X101355216Y-89919396D01*
X101364511Y-89938585D01*
X101375717Y-89961766D01*
X101387954Y-89987121D01*
X101399890Y-90011890D01*
X101414264Y-90041675D01*
X101430337Y-90074871D01*
X101446640Y-90108446D01*
X101461701Y-90139371D01*
X101470065Y-90156487D01*
X101480828Y-90178716D01*
X101490154Y-90198449D01*
X101497445Y-90214383D01*
X101502105Y-90225212D01*
X101503552Y-90229512D01*
X101506545Y-90233937D01*
X101507785Y-90234140D01*
X101511762Y-90237459D01*
X101512019Y-90239187D01*
X101513757Y-90245473D01*
X101518288Y-90256530D01*
X101524585Y-90270271D01*
X101531625Y-90284606D01*
X101538380Y-90297448D01*
X101543825Y-90306709D01*
X101546936Y-90310301D01*
X101546944Y-90310301D01*
X101549958Y-90307026D01*
X101550119Y-90305516D01*
X101551899Y-90300222D01*
X101556810Y-90288767D01*
X101564210Y-90272571D01*
X101573458Y-90253054D01*
X101579324Y-90240958D01*
X101591877Y-90215203D01*
X101606549Y-90184980D01*
X101621803Y-90153457D01*
X101636105Y-90123803D01*
X101641064Y-90113490D01*
X101653801Y-90087091D01*
X101667352Y-90059202D01*
X101680446Y-90032425D01*
X101691813Y-90009364D01*
X101696526Y-89999892D01*
X101705435Y-89981596D01*
X101712728Y-89965715D01*
X101717652Y-89953957D01*
X101719452Y-89948034D01*
X101721856Y-89942633D01*
X101723686Y-89942040D01*
X101727773Y-89938800D01*
X101727919Y-89937665D01*
X101729709Y-89932746D01*
X101734726Y-89921384D01*
X101742435Y-89904722D01*
X101752306Y-89883904D01*
X101763803Y-89860071D01*
X101769837Y-89847706D01*
X101783052Y-89820641D01*
X101795975Y-89794015D01*
X101807801Y-89769500D01*
X101817726Y-89748765D01*
X101824945Y-89733482D01*
X101826386Y-89730374D01*
X101832033Y-89718224D01*
X101838869Y-89703723D01*
X101847232Y-89686171D01*
X101857460Y-89664867D01*
X101869891Y-89639110D01*
X101884862Y-89608200D01*
X101902711Y-89571436D01*
X101923776Y-89528116D01*
X101935566Y-89503891D01*
X101949056Y-89476114D01*
X101963246Y-89446781D01*
X101976976Y-89418302D01*
X101989080Y-89393089D01*
X101996813Y-89376891D01*
X102008491Y-89352401D01*
X102022119Y-89323934D01*
X102035950Y-89295130D01*
X102047550Y-89271057D01*
X102058350Y-89248598D01*
X102068993Y-89226288D01*
X102078362Y-89206479D01*
X102085342Y-89191522D01*
X102086234Y-89189579D01*
X102090733Y-89179605D01*
X102094542Y-89172282D01*
X102099005Y-89166818D01*
X102105468Y-89162421D01*
X102115275Y-89158299D01*
X102129770Y-89153661D01*
X102150297Y-89147714D01*
X102163952Y-89143798D01*
X102216408Y-89127911D01*
X102275122Y-89108741D01*
X102338778Y-89086785D01*
X102406060Y-89062543D01*
X102475651Y-89036513D01*
X102546234Y-89009194D01*
X102616494Y-88981084D01*
X102685113Y-88952683D01*
X102750776Y-88924489D01*
X102795960Y-88904382D01*
X102813878Y-88896329D01*
X102828768Y-88889743D01*
X102839064Y-88885307D01*
X102843193Y-88883707D01*
X102847421Y-88882031D01*
X102857679Y-88877491D01*
X102872334Y-88870820D01*
X102886403Y-88864314D01*
X102904276Y-88856004D01*
X102927596Y-88845174D01*
X102954129Y-88832862D01*
X102981638Y-88820105D01*
X103002152Y-88810598D01*
X103020542Y-88801908D01*
X103045417Y-88789897D01*
X103075720Y-88775094D01*
X103110395Y-88758027D01*
X103148384Y-88739224D01*
X103188632Y-88719214D01*
X103230080Y-88698525D01*
X103271674Y-88677684D01*
X103312355Y-88657220D01*
X103351068Y-88637660D01*
X103386755Y-88619535D01*
X103418360Y-88603370D01*
X103444826Y-88589695D01*
X103459352Y-88582085D01*
X103489394Y-88566091D01*
X103525130Y-88546852D01*
X103564884Y-88525287D01*
X103606977Y-88502315D01*
X103649731Y-88478854D01*
X103691468Y-88455823D01*
X103730511Y-88434140D01*
X103765182Y-88414724D01*
X103768386Y-88412919D01*
X103792563Y-88399276D01*
X103811531Y-88388538D01*
X103827464Y-88379466D01*
X103842536Y-88370821D01*
X103858919Y-88361364D01*
X103864188Y-88358314D01*
X103904399Y-88335075D01*
X103937870Y-88315833D01*
X103965153Y-88300283D01*
X103986802Y-88288122D01*
X104003369Y-88279047D01*
X104015407Y-88272754D01*
X104023471Y-88268939D01*
X104028111Y-88267300D01*
X104029788Y-88267399D01*
X104029882Y-88272648D01*
X104026055Y-88281301D01*
X104025782Y-88281756D01*
X104020168Y-88291140D01*
X104012053Y-88304929D01*
X104003163Y-88320192D01*
X104002884Y-88320674D01*
X103991996Y-88339000D01*
X103979328Y-88359633D01*
X103968684Y-88376448D01*
X103960078Y-88390302D01*
X103953655Y-88401673D01*
X103950546Y-88408524D01*
X103950419Y-88409257D01*
X103948057Y-88413627D01*
X103947148Y-88413807D01*
X103943347Y-88417207D01*
X103937720Y-88425737D01*
X103935547Y-88429682D01*
X103929902Y-88440005D01*
X103925808Y-88446719D01*
X103925059Y-88447674D01*
X103921399Y-88452663D01*
X103917913Y-88458257D01*
X103913836Y-88464984D01*
X103906318Y-88477212D01*
X103896398Y-88493260D01*
X103885114Y-88511444D01*
X103884047Y-88513161D01*
X103872795Y-88531555D01*
X103863005Y-88548120D01*
X103855670Y-88561134D01*
X103851787Y-88568874D01*
X103851641Y-88569253D01*
X103847529Y-88576667D01*
X103844233Y-88578907D01*
X103840487Y-88582161D01*
X103840352Y-88583308D01*
X103838134Y-88588910D01*
X103832363Y-88599072D01*
X103825536Y-88609709D01*
X103817748Y-88622025D01*
X103812381Y-88631946D01*
X103810719Y-88636706D01*
X103808084Y-88642467D01*
X103806970Y-88643113D01*
X103803246Y-88647150D01*
X103796435Y-88656768D01*
X103787731Y-88670238D01*
X103783370Y-88677332D01*
X103774236Y-88691809D01*
X103766449Y-88703022D01*
X103761181Y-88709333D01*
X103759895Y-88710140D01*
X103754945Y-88711868D01*
X103743858Y-88716610D01*
X103728121Y-88723704D01*
X103709224Y-88732489D01*
X103702769Y-88735541D01*
X103683379Y-88744695D01*
X103666893Y-88752383D01*
X103654730Y-88757950D01*
X103648311Y-88760741D01*
X103647693Y-88760941D01*
X103643423Y-88762614D01*
X103633290Y-88767101D01*
X103619086Y-88773597D01*
X103610944Y-88777384D01*
X103587189Y-88788441D01*
X103556875Y-88802472D01*
X103521150Y-88818948D01*
X103481161Y-88837340D01*
X103446652Y-88853178D01*
X103398319Y-88875356D01*
X103355211Y-88895184D01*
X103316265Y-88913166D01*
X103280421Y-88929807D01*
X103246620Y-88945611D01*
X103213799Y-88961083D01*
X103180898Y-88976728D01*
X103146857Y-88993050D01*
X103110614Y-89010553D01*
X103071110Y-89029742D01*
X103027282Y-89051122D01*
X102978072Y-89075198D01*
X102922417Y-89102473D01*
X102917486Y-89104891D01*
X102886164Y-89120228D01*
X102854759Y-89135566D01*
X102824803Y-89150159D01*
X102797826Y-89163262D01*
X102775361Y-89174131D01*
X102758937Y-89182020D01*
X102758736Y-89182116D01*
X102741569Y-89190356D01*
X102718523Y-89201492D01*
X102691319Y-89214688D01*
X102661680Y-89229109D01*
X102631324Y-89243919D01*
X102612686Y-89253034D01*
X102578811Y-89269616D01*
X102540937Y-89288152D01*
X102501763Y-89307321D01*
X102463987Y-89325803D01*
X102430309Y-89342278D01*
X102421426Y-89346622D01*
X102391076Y-89361606D01*
X102367539Y-89373595D01*
X102349925Y-89383106D01*
X102337344Y-89390657D01*
X102328905Y-89396763D01*
X102323717Y-89401943D01*
X102322088Y-89404306D01*
X102316270Y-89412839D01*
X102311893Y-89417021D01*
X102311491Y-89417107D01*
X102307882Y-89420564D01*
X102305965Y-89424954D01*
X102301863Y-89432303D01*
X102293892Y-89443035D01*
X102286787Y-89451413D01*
X102276572Y-89463573D01*
X102268128Y-89474963D01*
X102264651Y-89480607D01*
X102257708Y-89491549D01*
X102249540Y-89501774D01*
X102241976Y-89510988D01*
X102232175Y-89524130D01*
X102224140Y-89535612D01*
X102215405Y-89548287D01*
X102208125Y-89558439D01*
X102204169Y-89563516D01*
X102200964Y-89567246D01*
X102196377Y-89573016D01*
X102189753Y-89581697D01*
X102180439Y-89594162D01*
X102167781Y-89611282D01*
X102151123Y-89633931D01*
X102140927Y-89647824D01*
X102126214Y-89667787D01*
X102112324Y-89686465D01*
X102100439Y-89702279D01*
X102091742Y-89713654D01*
X102088862Y-89717302D01*
X102079898Y-89728730D01*
X102072222Y-89739093D01*
X102070819Y-89741113D01*
X102058761Y-89758778D01*
X102050789Y-89770152D01*
X102046346Y-89776025D01*
X102045506Y-89776941D01*
X102041560Y-89781755D01*
X102033123Y-89792849D01*
X102020639Y-89809622D01*
X102004554Y-89831475D01*
X101985315Y-89857810D01*
X101982550Y-89861607D01*
X101971286Y-89877034D01*
X101961632Y-89890167D01*
X101954829Y-89899323D01*
X101952414Y-89902480D01*
X101948062Y-89908149D01*
X101939458Y-89919579D01*
X101927380Y-89935723D01*
X101912607Y-89955533D01*
X101895917Y-89977958D01*
X101878088Y-90001952D01*
X101859898Y-90026465D01*
X101842127Y-90050449D01*
X101825552Y-90072855D01*
X101810950Y-90092636D01*
X101799102Y-90108742D01*
X101790785Y-90120125D01*
X101788167Y-90123755D01*
X101781900Y-90132322D01*
X101772756Y-90144590D01*
X101762415Y-90158332D01*
X101752555Y-90171324D01*
X101744856Y-90181341D01*
X101741597Y-90185457D01*
X101737644Y-90190798D01*
X101730348Y-90201092D01*
X101721148Y-90214305D01*
X101719255Y-90217047D01*
X101709104Y-90231424D01*
X101699775Y-90244032D01*
X101693101Y-90252399D01*
X101692538Y-90253031D01*
X101685341Y-90262006D01*
X101676741Y-90274148D01*
X101673885Y-90278496D01*
X101666415Y-90289748D01*
X101660187Y-90298442D01*
X101658465Y-90300574D01*
X101655665Y-90303793D01*
X101652579Y-90307539D01*
X101648203Y-90313105D01*
X101641530Y-90321787D01*
X101631554Y-90334877D01*
X101620440Y-90349499D01*
X101595512Y-90382307D01*
X101545466Y-90382307D01*
X101520577Y-90381925D01*
X101503509Y-90380739D01*
X101493651Y-90378690D01*
X101490936Y-90377015D01*
X101477190Y-90360498D01*
X101468843Y-90349737D01*
X101465543Y-90344275D01*
X101465457Y-90343797D01*
X101462970Y-90339075D01*
X101457780Y-90332423D01*
X101449102Y-90321739D01*
X101443155Y-90313784D01*
X101438897Y-90307941D01*
X101430550Y-90296615D01*
X101418999Y-90280995D01*
X101405125Y-90262269D01*
X101389814Y-90241627D01*
X101373947Y-90220259D01*
X101358408Y-90199354D01*
X101344081Y-90180100D01*
X101331848Y-90163688D01*
X101322592Y-90151306D01*
X101317198Y-90144144D01*
X101316412Y-90143124D01*
X101312305Y-90137645D01*
X101304949Y-90127614D01*
X101297189Y-90116933D01*
X101286964Y-90102814D01*
X101278604Y-90091319D01*
X101270814Y-90080696D01*
X101262302Y-90069191D01*
X101251775Y-90055053D01*
X101237939Y-90036529D01*
X101231814Y-90028334D01*
X101218312Y-90010251D01*
X101206071Y-89993814D01*
X101196273Y-89980613D01*
X101190100Y-89972241D01*
X101189331Y-89971184D01*
X101179115Y-89957194D01*
X101166008Y-89939430D01*
X101150859Y-89919025D01*
X101134516Y-89897110D01*
X101117829Y-89874816D01*
X101101648Y-89853277D01*
X101086821Y-89833624D01*
X101074199Y-89816989D01*
X101064630Y-89804503D01*
X101058964Y-89797300D01*
X101058073Y-89796251D01*
X101052451Y-89789138D01*
X101050585Y-89785257D01*
X101048130Y-89780286D01*
X101043177Y-89773711D01*
X101031818Y-89760077D01*
X101023932Y-89749958D01*
X101017367Y-89740545D01*
X101014942Y-89736832D01*
X101008384Y-89727073D01*
X101003349Y-89720245D01*
X101003058Y-89719901D01*
X100999377Y-89715159D01*
X100991816Y-89705107D01*
X100981501Y-89691265D01*
X100969558Y-89675151D01*
X100957111Y-89658284D01*
X100945286Y-89642185D01*
X100935208Y-89628371D01*
X100932894Y-89625176D01*
X100925622Y-89615378D01*
X100916469Y-89603364D01*
X100914060Y-89600253D01*
X100907027Y-89590680D01*
X100902874Y-89584015D01*
X100902399Y-89582683D01*
X100899766Y-89578231D01*
X100893215Y-89570272D01*
X100890603Y-89567391D01*
X100880176Y-89554778D01*
X100870416Y-89540916D01*
X100869566Y-89539553D01*
X100860816Y-89526681D01*
X100851469Y-89514914D01*
X100850244Y-89513558D01*
X100840926Y-89502213D01*
X100831914Y-89489356D01*
X100831364Y-89488479D01*
X100823380Y-89476703D01*
X100815506Y-89466701D01*
X100814682Y-89465791D01*
X100807716Y-89457384D01*
X100798689Y-89445354D01*
X100793683Y-89438274D01*
X100784349Y-89425256D01*
X100775338Y-89413510D01*
X100771633Y-89409051D01*
X100765421Y-89401022D01*
X100762722Y-89395671D01*
X100762719Y-89395575D01*
X100759160Y-89392408D01*
X100749621Y-89386677D01*
X100735810Y-89379368D01*
X100727794Y-89375409D01*
X100713189Y-89368358D01*
X100692740Y-89358484D01*
X100668227Y-89346648D01*
X100641429Y-89333708D01*
X100614126Y-89320524D01*
X100608852Y-89317978D01*
X100584383Y-89306187D01*
X100562608Y-89295744D01*
X100544636Y-89287175D01*
X100531573Y-89281008D01*
X100524527Y-89277769D01*
X100523615Y-89277407D01*
X100519616Y-89275650D01*
X100509136Y-89270737D01*
X100493312Y-89263212D01*
X100473279Y-89253614D01*
X100450174Y-89242486D01*
X100442531Y-89238793D01*
X100415173Y-89225583D01*
X100387212Y-89212112D01*
X100360707Y-89199371D01*
X100337714Y-89188347D01*
X100320336Y-89180052D01*
X100297883Y-89169377D01*
X100271712Y-89156935D01*
X100245751Y-89144594D01*
X100231436Y-89137789D01*
X100208888Y-89127033D01*
X100182108Y-89114202D01*
X100154479Y-89100919D01*
X100129836Y-89089026D01*
X100082966Y-89066379D01*
X100036172Y-89043824D01*
X99991269Y-89022233D01*
X99950074Y-89002480D01*
X99914402Y-88985439D01*
X99909702Y-88983200D01*
X99886687Y-88972223D01*
X99859615Y-88959285D01*
X99832060Y-88946093D01*
X99810219Y-88935618D01*
X99786757Y-88924377D01*
X99762125Y-88912617D01*
X99739270Y-88901742D01*
X99721319Y-88893242D01*
X99634122Y-88851850D01*
X99546620Y-88809729D01*
X99524270Y-88798882D01*
X99499708Y-88786997D01*
X99475379Y-88775319D01*
X99453293Y-88764806D01*
X99435458Y-88756416D01*
X99426903Y-88752466D01*
X99393948Y-88737102D01*
X99366237Y-88723434D01*
X99344448Y-88711821D01*
X99329259Y-88702622D01*
X99321823Y-88696738D01*
X99314544Y-88687358D01*
X99306595Y-88674935D01*
X99304796Y-88671758D01*
X99296884Y-88657870D01*
X99286900Y-88641125D01*
X99275932Y-88623255D01*
X99265067Y-88605991D01*
X99255392Y-88591064D01*
X99247995Y-88580203D01*
X99244278Y-88575430D01*
X99239533Y-88568826D01*
X99238719Y-88566031D01*
X99236547Y-88561428D01*
X99230497Y-88550868D01*
X99221272Y-88535516D01*
X99209571Y-88516536D01*
X99196096Y-88495094D01*
X99194963Y-88493308D01*
X99175050Y-88461851D01*
X99158287Y-88435128D01*
X99143210Y-88410771D01*
X99128357Y-88386416D01*
X99112262Y-88359695D01*
X99110441Y-88356657D01*
X99105474Y-88349127D01*
X99102933Y-88346074D01*
X99099489Y-88341304D01*
X99093959Y-88332086D01*
X99092350Y-88329218D01*
X99085709Y-88318165D01*
X99079778Y-88309802D01*
X99078910Y-88308807D01*
X99074315Y-88301086D01*
X99073619Y-88297606D01*
X99070645Y-88290461D01*
X99067269Y-88286807D01*
X99062941Y-88280479D01*
X99060888Y-88272603D01*
X99061714Y-88266730D01*
X99063670Y-88265641D01*
X99068367Y-88267631D01*
G37*
X99068367Y-88267631D02*
X99078436Y-88272923D01*
X99091967Y-88280502D01*
X99096479Y-88283106D01*
X99112664Y-88292504D01*
X99127842Y-88301303D01*
X99139085Y-88307808D01*
X99140294Y-88308506D01*
X99154162Y-88316509D01*
X99167810Y-88324391D01*
X99175901Y-88329039D01*
X99189869Y-88337033D01*
X99208233Y-88347527D01*
X99229514Y-88359677D01*
X99249302Y-88370964D01*
X99271262Y-88383515D01*
X99290959Y-88394826D01*
X99307098Y-88404150D01*
X99318381Y-88410736D01*
X99323385Y-88413753D01*
X99331241Y-88418411D01*
X99342412Y-88424518D01*
X99344552Y-88425642D01*
X99353896Y-88430676D01*
X99368637Y-88438806D01*
X99386814Y-88448942D01*
X99406462Y-88459995D01*
X99408052Y-88460894D01*
X99427729Y-88471950D01*
X99446092Y-88482142D01*
X99461182Y-88490390D01*
X99471038Y-88495613D01*
X99471552Y-88495874D01*
X99483651Y-88502146D01*
X99493825Y-88507721D01*
X99494836Y-88508309D01*
X99501616Y-88512103D01*
X99514194Y-88518969D01*
X99530895Y-88527999D01*
X99550043Y-88538283D01*
X99554102Y-88540455D01*
X99574541Y-88551404D01*
X99593847Y-88561783D01*
X99609992Y-88570498D01*
X99620945Y-88576456D01*
X99621836Y-88576945D01*
X99638990Y-88586180D01*
X99662661Y-88598609D01*
X99691768Y-88613687D01*
X99725232Y-88630868D01*
X99761973Y-88649609D01*
X99800911Y-88669365D01*
X99840966Y-88689589D01*
X99881058Y-88709738D01*
X99920107Y-88729266D01*
X99957034Y-88747629D01*
X99990758Y-88764282D01*
X100020200Y-88778678D01*
X100044279Y-88790275D01*
X100049402Y-88792705D01*
X100086885Y-88810281D01*
X100130090Y-88830322D01*
X100176986Y-88851892D01*
X100225539Y-88874054D01*
X100265302Y-88892077D01*
X100317012Y-88915026D01*
X100373353Y-88939313D01*
X100431891Y-88963925D01*
X100490195Y-88987854D01*
X100545832Y-89010089D01*
X100596371Y-89029621D01*
X100597619Y-89030092D01*
X100619504Y-89038398D01*
X100639092Y-89045906D01*
X100654775Y-89051994D01*
X100664947Y-89056041D01*
X100667469Y-89057108D01*
X100679832Y-89062134D01*
X100698955Y-89069194D01*
X100723498Y-89077850D01*
X100752123Y-89087662D01*
X100783492Y-89098192D01*
X100816265Y-89109002D01*
X100849105Y-89119653D01*
X100880673Y-89129705D01*
X100909630Y-89138722D01*
X100934637Y-89146264D01*
X100954357Y-89151892D01*
X100965249Y-89154681D01*
X100987862Y-89159905D01*
X101023869Y-89234531D01*
X101037586Y-89262908D01*
X101053659Y-89296076D01*
X101070722Y-89331218D01*
X101087407Y-89365522D01*
X101101204Y-89393824D01*
X101114706Y-89421527D01*
X101128305Y-89449498D01*
X101141087Y-89475856D01*
X101152141Y-89498720D01*
X101160554Y-89516209D01*
X101161749Y-89518707D01*
X101170340Y-89536684D01*
X101181439Y-89559907D01*
X101193901Y-89585983D01*
X101206584Y-89612520D01*
X101213341Y-89626657D01*
X101226028Y-89653051D01*
X101241152Y-89684280D01*
X101257379Y-89717600D01*
X101273373Y-89750268D01*
X101285734Y-89775368D01*
X101297588Y-89799570D01*
X101308048Y-89821334D01*
X101316561Y-89839477D01*
X101322575Y-89852817D01*
X101325538Y-89860169D01*
X101325752Y-89861093D01*
X101328683Y-89865609D01*
X101329985Y-89865841D01*
X101333926Y-89869180D01*
X101334219Y-89871095D01*
X101335982Y-89877208D01*
X101340647Y-89888616D01*
X101347280Y-89903066D01*
X101348710Y-89906020D01*
X101355216Y-89919396D01*
X101364511Y-89938585D01*
X101375717Y-89961766D01*
X101387954Y-89987121D01*
X101399890Y-90011890D01*
X101414264Y-90041675D01*
X101430337Y-90074871D01*
X101446640Y-90108446D01*
X101461701Y-90139371D01*
X101470065Y-90156487D01*
X101480828Y-90178716D01*
X101490154Y-90198449D01*
X101497445Y-90214383D01*
X101502105Y-90225212D01*
X101503552Y-90229512D01*
X101506545Y-90233937D01*
X101507785Y-90234140D01*
X101511762Y-90237459D01*
X101512019Y-90239187D01*
X101513757Y-90245473D01*
X101518288Y-90256530D01*
X101524585Y-90270271D01*
X101531625Y-90284606D01*
X101538380Y-90297448D01*
X101543825Y-90306709D01*
X101546936Y-90310301D01*
X101546944Y-90310301D01*
X101549958Y-90307026D01*
X101550119Y-90305516D01*
X101551899Y-90300222D01*
X101556810Y-90288767D01*
X101564210Y-90272571D01*
X101573458Y-90253054D01*
X101579324Y-90240958D01*
X101591877Y-90215203D01*
X101606549Y-90184980D01*
X101621803Y-90153457D01*
X101636105Y-90123803D01*
X101641064Y-90113490D01*
X101653801Y-90087091D01*
X101667352Y-90059202D01*
X101680446Y-90032425D01*
X101691813Y-90009364D01*
X101696526Y-89999892D01*
X101705435Y-89981596D01*
X101712728Y-89965715D01*
X101717652Y-89953957D01*
X101719452Y-89948034D01*
X101721856Y-89942633D01*
X101723686Y-89942040D01*
X101727773Y-89938800D01*
X101727919Y-89937665D01*
X101729709Y-89932746D01*
X101734726Y-89921384D01*
X101742435Y-89904722D01*
X101752306Y-89883904D01*
X101763803Y-89860071D01*
X101769837Y-89847706D01*
X101783052Y-89820641D01*
X101795975Y-89794015D01*
X101807801Y-89769500D01*
X101817726Y-89748765D01*
X101824945Y-89733482D01*
X101826386Y-89730374D01*
X101832033Y-89718224D01*
X101838869Y-89703723D01*
X101847232Y-89686171D01*
X101857460Y-89664867D01*
X101869891Y-89639110D01*
X101884862Y-89608200D01*
X101902711Y-89571436D01*
X101923776Y-89528116D01*
X101935566Y-89503891D01*
X101949056Y-89476114D01*
X101963246Y-89446781D01*
X101976976Y-89418302D01*
X101989080Y-89393089D01*
X101996813Y-89376891D01*
X102008491Y-89352401D01*
X102022119Y-89323934D01*
X102035950Y-89295130D01*
X102047550Y-89271057D01*
X102058350Y-89248598D01*
X102068993Y-89226288D01*
X102078362Y-89206479D01*
X102085342Y-89191522D01*
X102086234Y-89189579D01*
X102090733Y-89179605D01*
X102094542Y-89172282D01*
X102099005Y-89166818D01*
X102105468Y-89162421D01*
X102115275Y-89158299D01*
X102129770Y-89153661D01*
X102150297Y-89147714D01*
X102163952Y-89143798D01*
X102216408Y-89127911D01*
X102275122Y-89108741D01*
X102338778Y-89086785D01*
X102406060Y-89062543D01*
X102475651Y-89036513D01*
X102546234Y-89009194D01*
X102616494Y-88981084D01*
X102685113Y-88952683D01*
X102750776Y-88924489D01*
X102795960Y-88904382D01*
X102813878Y-88896329D01*
X102828768Y-88889743D01*
X102839064Y-88885307D01*
X102843193Y-88883707D01*
X102847421Y-88882031D01*
X102857679Y-88877491D01*
X102872334Y-88870820D01*
X102886403Y-88864314D01*
X102904276Y-88856004D01*
X102927596Y-88845174D01*
X102954129Y-88832862D01*
X102981638Y-88820105D01*
X103002152Y-88810598D01*
X103020542Y-88801908D01*
X103045417Y-88789897D01*
X103075720Y-88775094D01*
X103110395Y-88758027D01*
X103148384Y-88739224D01*
X103188632Y-88719214D01*
X103230080Y-88698525D01*
X103271674Y-88677684D01*
X103312355Y-88657220D01*
X103351068Y-88637660D01*
X103386755Y-88619535D01*
X103418360Y-88603370D01*
X103444826Y-88589695D01*
X103459352Y-88582085D01*
X103489394Y-88566091D01*
X103525130Y-88546852D01*
X103564884Y-88525287D01*
X103606977Y-88502315D01*
X103649731Y-88478854D01*
X103691468Y-88455823D01*
X103730511Y-88434140D01*
X103765182Y-88414724D01*
X103768386Y-88412919D01*
X103792563Y-88399276D01*
X103811531Y-88388538D01*
X103827464Y-88379466D01*
X103842536Y-88370821D01*
X103858919Y-88361364D01*
X103864188Y-88358314D01*
X103904399Y-88335075D01*
X103937870Y-88315833D01*
X103965153Y-88300283D01*
X103986802Y-88288122D01*
X104003369Y-88279047D01*
X104015407Y-88272754D01*
X104023471Y-88268939D01*
X104028111Y-88267300D01*
X104029788Y-88267399D01*
X104029882Y-88272648D01*
X104026055Y-88281301D01*
X104025782Y-88281756D01*
X104020168Y-88291140D01*
X104012053Y-88304929D01*
X104003163Y-88320192D01*
X104002884Y-88320674D01*
X103991996Y-88339000D01*
X103979328Y-88359633D01*
X103968684Y-88376448D01*
X103960078Y-88390302D01*
X103953655Y-88401673D01*
X103950546Y-88408524D01*
X103950419Y-88409257D01*
X103948057Y-88413627D01*
X103947148Y-88413807D01*
X103943347Y-88417207D01*
X103937720Y-88425737D01*
X103935547Y-88429682D01*
X103929902Y-88440005D01*
X103925808Y-88446719D01*
X103925059Y-88447674D01*
X103921399Y-88452663D01*
X103917913Y-88458257D01*
X103913836Y-88464984D01*
X103906318Y-88477212D01*
X103896398Y-88493260D01*
X103885114Y-88511444D01*
X103884047Y-88513161D01*
X103872795Y-88531555D01*
X103863005Y-88548120D01*
X103855670Y-88561134D01*
X103851787Y-88568874D01*
X103851641Y-88569253D01*
X103847529Y-88576667D01*
X103844233Y-88578907D01*
X103840487Y-88582161D01*
X103840352Y-88583308D01*
X103838134Y-88588910D01*
X103832363Y-88599072D01*
X103825536Y-88609709D01*
X103817748Y-88622025D01*
X103812381Y-88631946D01*
X103810719Y-88636706D01*
X103808084Y-88642467D01*
X103806970Y-88643113D01*
X103803246Y-88647150D01*
X103796435Y-88656768D01*
X103787731Y-88670238D01*
X103783370Y-88677332D01*
X103774236Y-88691809D01*
X103766449Y-88703022D01*
X103761181Y-88709333D01*
X103759895Y-88710140D01*
X103754945Y-88711868D01*
X103743858Y-88716610D01*
X103728121Y-88723704D01*
X103709224Y-88732489D01*
X103702769Y-88735541D01*
X103683379Y-88744695D01*
X103666893Y-88752383D01*
X103654730Y-88757950D01*
X103648311Y-88760741D01*
X103647693Y-88760941D01*
X103643423Y-88762614D01*
X103633290Y-88767101D01*
X103619086Y-88773597D01*
X103610944Y-88777384D01*
X103587189Y-88788441D01*
X103556875Y-88802472D01*
X103521150Y-88818948D01*
X103481161Y-88837340D01*
X103446652Y-88853178D01*
X103398319Y-88875356D01*
X103355211Y-88895184D01*
X103316265Y-88913166D01*
X103280421Y-88929807D01*
X103246620Y-88945611D01*
X103213799Y-88961083D01*
X103180898Y-88976728D01*
X103146857Y-88993050D01*
X103110614Y-89010553D01*
X103071110Y-89029742D01*
X103027282Y-89051122D01*
X102978072Y-89075198D01*
X102922417Y-89102473D01*
X102917486Y-89104891D01*
X102886164Y-89120228D01*
X102854759Y-89135566D01*
X102824803Y-89150159D01*
X102797826Y-89163262D01*
X102775361Y-89174131D01*
X102758937Y-89182020D01*
X102758736Y-89182116D01*
X102741569Y-89190356D01*
X102718523Y-89201492D01*
X102691319Y-89214688D01*
X102661680Y-89229109D01*
X102631324Y-89243919D01*
X102612686Y-89253034D01*
X102578811Y-89269616D01*
X102540937Y-89288152D01*
X102501763Y-89307321D01*
X102463987Y-89325803D01*
X102430309Y-89342278D01*
X102421426Y-89346622D01*
X102391076Y-89361606D01*
X102367539Y-89373595D01*
X102349925Y-89383106D01*
X102337344Y-89390657D01*
X102328905Y-89396763D01*
X102323717Y-89401943D01*
X102322088Y-89404306D01*
X102316270Y-89412839D01*
X102311893Y-89417021D01*
X102311491Y-89417107D01*
X102307882Y-89420564D01*
X102305965Y-89424954D01*
X102301863Y-89432303D01*
X102293892Y-89443035D01*
X102286787Y-89451413D01*
X102276572Y-89463573D01*
X102268128Y-89474963D01*
X102264651Y-89480607D01*
X102257708Y-89491549D01*
X102249540Y-89501774D01*
X102241976Y-89510988D01*
X102232175Y-89524130D01*
X102224140Y-89535612D01*
X102215405Y-89548287D01*
X102208125Y-89558439D01*
X102204169Y-89563516D01*
X102200964Y-89567246D01*
X102196377Y-89573016D01*
X102189753Y-89581697D01*
X102180439Y-89594162D01*
X102167781Y-89611282D01*
X102151123Y-89633931D01*
X102140927Y-89647824D01*
X102126214Y-89667787D01*
X102112324Y-89686465D01*
X102100439Y-89702279D01*
X102091742Y-89713654D01*
X102088862Y-89717302D01*
X102079898Y-89728730D01*
X102072222Y-89739093D01*
X102070819Y-89741113D01*
X102058761Y-89758778D01*
X102050789Y-89770152D01*
X102046346Y-89776025D01*
X102045506Y-89776941D01*
X102041560Y-89781755D01*
X102033123Y-89792849D01*
X102020639Y-89809622D01*
X102004554Y-89831475D01*
X101985315Y-89857810D01*
X101982550Y-89861607D01*
X101971286Y-89877034D01*
X101961632Y-89890167D01*
X101954829Y-89899323D01*
X101952414Y-89902480D01*
X101948062Y-89908149D01*
X101939458Y-89919579D01*
X101927380Y-89935723D01*
X101912607Y-89955533D01*
X101895917Y-89977958D01*
X101878088Y-90001952D01*
X101859898Y-90026465D01*
X101842127Y-90050449D01*
X101825552Y-90072855D01*
X101810950Y-90092636D01*
X101799102Y-90108742D01*
X101790785Y-90120125D01*
X101788167Y-90123755D01*
X101781900Y-90132322D01*
X101772756Y-90144590D01*
X101762415Y-90158332D01*
X101752555Y-90171324D01*
X101744856Y-90181341D01*
X101741597Y-90185457D01*
X101737644Y-90190798D01*
X101730348Y-90201092D01*
X101721148Y-90214305D01*
X101719255Y-90217047D01*
X101709104Y-90231424D01*
X101699775Y-90244032D01*
X101693101Y-90252399D01*
X101692538Y-90253031D01*
X101685341Y-90262006D01*
X101676741Y-90274148D01*
X101673885Y-90278496D01*
X101666415Y-90289748D01*
X101660187Y-90298442D01*
X101658465Y-90300574D01*
X101655665Y-90303793D01*
X101652579Y-90307539D01*
X101648203Y-90313105D01*
X101641530Y-90321787D01*
X101631554Y-90334877D01*
X101620440Y-90349499D01*
X101595512Y-90382307D01*
X101545466Y-90382307D01*
X101520577Y-90381925D01*
X101503509Y-90380739D01*
X101493651Y-90378690D01*
X101490936Y-90377015D01*
X101477190Y-90360498D01*
X101468843Y-90349737D01*
X101465543Y-90344275D01*
X101465457Y-90343797D01*
X101462970Y-90339075D01*
X101457780Y-90332423D01*
X101449102Y-90321739D01*
X101443155Y-90313784D01*
X101438897Y-90307941D01*
X101430550Y-90296615D01*
X101418999Y-90280995D01*
X101405125Y-90262269D01*
X101389814Y-90241627D01*
X101373947Y-90220259D01*
X101358408Y-90199354D01*
X101344081Y-90180100D01*
X101331848Y-90163688D01*
X101322592Y-90151306D01*
X101317198Y-90144144D01*
X101316412Y-90143124D01*
X101312305Y-90137645D01*
X101304949Y-90127614D01*
X101297189Y-90116933D01*
X101286964Y-90102814D01*
X101278604Y-90091319D01*
X101270814Y-90080696D01*
X101262302Y-90069191D01*
X101251775Y-90055053D01*
X101237939Y-90036529D01*
X101231814Y-90028334D01*
X101218312Y-90010251D01*
X101206071Y-89993814D01*
X101196273Y-89980613D01*
X101190100Y-89972241D01*
X101189331Y-89971184D01*
X101179115Y-89957194D01*
X101166008Y-89939430D01*
X101150859Y-89919025D01*
X101134516Y-89897110D01*
X101117829Y-89874816D01*
X101101648Y-89853277D01*
X101086821Y-89833624D01*
X101074199Y-89816989D01*
X101064630Y-89804503D01*
X101058964Y-89797300D01*
X101058073Y-89796251D01*
X101052451Y-89789138D01*
X101050585Y-89785257D01*
X101048130Y-89780286D01*
X101043177Y-89773711D01*
X101031818Y-89760077D01*
X101023932Y-89749958D01*
X101017367Y-89740545D01*
X101014942Y-89736832D01*
X101008384Y-89727073D01*
X101003349Y-89720245D01*
X101003058Y-89719901D01*
X100999377Y-89715159D01*
X100991816Y-89705107D01*
X100981501Y-89691265D01*
X100969558Y-89675151D01*
X100957111Y-89658284D01*
X100945286Y-89642185D01*
X100935208Y-89628371D01*
X100932894Y-89625176D01*
X100925622Y-89615378D01*
X100916469Y-89603364D01*
X100914060Y-89600253D01*
X100907027Y-89590680D01*
X100902874Y-89584015D01*
X100902399Y-89582683D01*
X100899766Y-89578231D01*
X100893215Y-89570272D01*
X100890603Y-89567391D01*
X100880176Y-89554778D01*
X100870416Y-89540916D01*
X100869566Y-89539553D01*
X100860816Y-89526681D01*
X100851469Y-89514914D01*
X100850244Y-89513558D01*
X100840926Y-89502213D01*
X100831914Y-89489356D01*
X100831364Y-89488479D01*
X100823380Y-89476703D01*
X100815506Y-89466701D01*
X100814682Y-89465791D01*
X100807716Y-89457384D01*
X100798689Y-89445354D01*
X100793683Y-89438274D01*
X100784349Y-89425256D01*
X100775338Y-89413510D01*
X100771633Y-89409051D01*
X100765421Y-89401022D01*
X100762722Y-89395671D01*
X100762719Y-89395575D01*
X100759160Y-89392408D01*
X100749621Y-89386677D01*
X100735810Y-89379368D01*
X100727794Y-89375409D01*
X100713189Y-89368358D01*
X100692740Y-89358484D01*
X100668227Y-89346648D01*
X100641429Y-89333708D01*
X100614126Y-89320524D01*
X100608852Y-89317978D01*
X100584383Y-89306187D01*
X100562608Y-89295744D01*
X100544636Y-89287175D01*
X100531573Y-89281008D01*
X100524527Y-89277769D01*
X100523615Y-89277407D01*
X100519616Y-89275650D01*
X100509136Y-89270737D01*
X100493312Y-89263212D01*
X100473279Y-89253614D01*
X100450174Y-89242486D01*
X100442531Y-89238793D01*
X100415173Y-89225583D01*
X100387212Y-89212112D01*
X100360707Y-89199371D01*
X100337714Y-89188347D01*
X100320336Y-89180052D01*
X100297883Y-89169377D01*
X100271712Y-89156935D01*
X100245751Y-89144594D01*
X100231436Y-89137789D01*
X100208888Y-89127033D01*
X100182108Y-89114202D01*
X100154479Y-89100919D01*
X100129836Y-89089026D01*
X100082966Y-89066379D01*
X100036172Y-89043824D01*
X99991269Y-89022233D01*
X99950074Y-89002480D01*
X99914402Y-88985439D01*
X99909702Y-88983200D01*
X99886687Y-88972223D01*
X99859615Y-88959285D01*
X99832060Y-88946093D01*
X99810219Y-88935618D01*
X99786757Y-88924377D01*
X99762125Y-88912617D01*
X99739270Y-88901742D01*
X99721319Y-88893242D01*
X99634122Y-88851850D01*
X99546620Y-88809729D01*
X99524270Y-88798882D01*
X99499708Y-88786997D01*
X99475379Y-88775319D01*
X99453293Y-88764806D01*
X99435458Y-88756416D01*
X99426903Y-88752466D01*
X99393948Y-88737102D01*
X99366237Y-88723434D01*
X99344448Y-88711821D01*
X99329259Y-88702622D01*
X99321823Y-88696738D01*
X99314544Y-88687358D01*
X99306595Y-88674935D01*
X99304796Y-88671758D01*
X99296884Y-88657870D01*
X99286900Y-88641125D01*
X99275932Y-88623255D01*
X99265067Y-88605991D01*
X99255392Y-88591064D01*
X99247995Y-88580203D01*
X99244278Y-88575430D01*
X99239533Y-88568826D01*
X99238719Y-88566031D01*
X99236547Y-88561428D01*
X99230497Y-88550868D01*
X99221272Y-88535516D01*
X99209571Y-88516536D01*
X99196096Y-88495094D01*
X99194963Y-88493308D01*
X99175050Y-88461851D01*
X99158287Y-88435128D01*
X99143210Y-88410771D01*
X99128357Y-88386416D01*
X99112262Y-88359695D01*
X99110441Y-88356657D01*
X99105474Y-88349127D01*
X99102933Y-88346074D01*
X99099489Y-88341304D01*
X99093959Y-88332086D01*
X99092350Y-88329218D01*
X99085709Y-88318165D01*
X99079778Y-88309802D01*
X99078910Y-88308807D01*
X99074315Y-88301086D01*
X99073619Y-88297606D01*
X99070645Y-88290461D01*
X99067269Y-88286807D01*
X99062941Y-88280479D01*
X99060888Y-88272603D01*
X99061714Y-88266730D01*
X99063670Y-88265641D01*
X99068367Y-88267631D01*
G36*
X99572067Y-89076058D02*
G01*
X99589188Y-89080436D01*
X99613497Y-89087673D01*
X99617143Y-89088801D01*
X99640262Y-89095956D01*
X99667919Y-89104486D01*
X99696553Y-89113293D01*
X99721319Y-89120888D01*
X99744665Y-89128040D01*
X99767572Y-89135071D01*
X99787604Y-89141230D01*
X99802326Y-89145771D01*
X99803869Y-89146249D01*
X99821793Y-89151775D01*
X99845975Y-89159192D01*
X99874567Y-89167937D01*
X99905723Y-89177445D01*
X99937598Y-89187153D01*
X99968345Y-89196498D01*
X99983786Y-89201181D01*
X100007454Y-89208382D01*
X100033302Y-89216291D01*
X100057152Y-89223629D01*
X100066336Y-89226471D01*
X100087854Y-89233111D01*
X100113301Y-89240909D01*
X100138497Y-89248586D01*
X100148886Y-89251735D01*
X100173128Y-89259109D01*
X100200997Y-89267650D01*
X100228043Y-89275992D01*
X100239902Y-89279673D01*
X100268555Y-89288575D01*
X100299093Y-89298037D01*
X100330123Y-89307630D01*
X100360252Y-89316925D01*
X100388088Y-89325492D01*
X100412238Y-89332902D01*
X100431308Y-89338727D01*
X100443907Y-89342536D01*
X100445219Y-89342927D01*
X100461118Y-89347677D01*
X100479216Y-89353125D01*
X100486494Y-89355328D01*
X100504342Y-89360730D01*
X100523237Y-89366426D01*
X100529886Y-89368424D01*
X100557772Y-89376818D01*
X100581840Y-89384139D01*
X100606090Y-89391612D01*
X100633602Y-89400174D01*
X100662667Y-89409225D01*
X100685055Y-89416138D01*
X100702160Y-89421330D01*
X100715376Y-89425218D01*
X100726098Y-89428218D01*
X100735721Y-89430749D01*
X100736260Y-89430887D01*
X100747147Y-89434224D01*
X100753543Y-89437279D01*
X100754252Y-89438225D01*
X100756833Y-89442776D01*
X100763346Y-89451054D01*
X100766952Y-89455207D01*
X100774595Y-89464265D01*
X100779121Y-89470592D01*
X100779652Y-89471888D01*
X100782250Y-89476341D01*
X100788605Y-89483987D01*
X100789599Y-89485071D01*
X100798107Y-89495307D01*
X100807803Y-89508434D01*
X100811328Y-89513602D01*
X100818625Y-89523800D01*
X100824291Y-89530242D01*
X100826134Y-89531407D01*
X100830176Y-89534728D01*
X100832980Y-89539387D01*
X100837929Y-89547264D01*
X100846138Y-89558174D01*
X100850707Y-89563728D01*
X100859735Y-89574794D01*
X100871626Y-89589965D01*
X100884251Y-89606511D01*
X100888240Y-89611841D01*
X100898833Y-89625916D01*
X100907608Y-89637284D01*
X100913296Y-89644311D01*
X100914611Y-89645707D01*
X100918218Y-89649813D01*
X100925627Y-89659081D01*
X100935564Y-89671898D01*
X100941499Y-89679686D01*
X100953013Y-89694698D01*
X100963430Y-89707953D01*
X100971131Y-89717406D01*
X100973304Y-89719902D01*
X100980761Y-89728865D01*
X100989523Y-89740475D01*
X100991374Y-89743074D01*
X100999254Y-89754095D01*
X101006823Y-89764088D01*
X101016200Y-89775786D01*
X101025483Y-89787070D01*
X101034505Y-89798304D01*
X101045334Y-89812233D01*
X101050883Y-89819537D01*
X101062644Y-89834776D01*
X101075700Y-89851118D01*
X101081059Y-89857637D01*
X101092894Y-89872249D01*
X101105870Y-89888871D01*
X101112468Y-89897591D01*
X101130955Y-89922140D01*
X101150118Y-89946929D01*
X101172310Y-89975001D01*
X101173352Y-89976308D01*
X101184713Y-89990618D01*
X101195583Y-90004417D01*
X101202985Y-90013915D01*
X101212561Y-90026216D01*
X101223398Y-90039983D01*
X101226269Y-90043601D01*
X101237407Y-90057712D01*
X101251946Y-90076286D01*
X101268413Y-90097422D01*
X101285331Y-90119221D01*
X101301225Y-90139782D01*
X101314622Y-90157207D01*
X101322964Y-90168160D01*
X101333758Y-90182066D01*
X101344495Y-90195290D01*
X101350579Y-90202390D01*
X101360874Y-90214787D01*
X101371069Y-90228345D01*
X101372160Y-90229907D01*
X101381349Y-90242203D01*
X101390752Y-90253323D01*
X101392170Y-90254826D01*
X101400110Y-90264625D01*
X101401344Y-90270469D01*
X101396660Y-90271959D01*
X101393031Y-90268976D01*
X101383834Y-90260359D01*
X101369457Y-90246492D01*
X101350289Y-90227761D01*
X101326716Y-90204550D01*
X101299126Y-90177243D01*
X101267907Y-90146225D01*
X101233446Y-90111881D01*
X101196132Y-90074596D01*
X101156351Y-90034753D01*
X101114492Y-89992737D01*
X101070942Y-89948933D01*
X101062767Y-89940701D01*
X100734165Y-89609724D01*
X100658483Y-89593367D01*
X100632789Y-89587843D01*
X100608603Y-89582695D01*
X100587692Y-89578296D01*
X100571822Y-89575017D01*
X100563752Y-89573416D01*
X100550965Y-89570877D01*
X100533001Y-89567152D01*
X100512948Y-89562884D01*
X100504486Y-89561050D01*
X100482181Y-89556212D01*
X100458430Y-89551100D01*
X100437474Y-89546628D01*
X100432519Y-89545580D01*
X100402654Y-89539267D01*
X100378495Y-89534129D01*
X100357459Y-89529605D01*
X100336966Y-89525138D01*
X100314432Y-89520169D01*
X100288586Y-89514430D01*
X100265110Y-89509253D01*
X100242944Y-89504448D01*
X100224181Y-89500463D01*
X100210912Y-89497745D01*
X100208152Y-89497213D01*
X100199800Y-89495606D01*
X100189276Y-89493482D01*
X100175508Y-89490615D01*
X100157423Y-89486777D01*
X100133950Y-89481743D01*
X100104018Y-89475284D01*
X100079036Y-89469879D01*
X100039612Y-89461373D01*
X100006528Y-89454309D01*
X99977862Y-89448276D01*
X99962619Y-89445113D01*
X99946255Y-89441673D01*
X99924340Y-89436976D01*
X99899587Y-89431609D01*
X99874708Y-89426157D01*
X99871602Y-89425472D01*
X99847554Y-89420251D01*
X99823895Y-89415272D01*
X99803103Y-89411047D01*
X99787655Y-89408087D01*
X99785674Y-89407736D01*
X99759013Y-89403088D01*
X99742064Y-89375173D01*
X99733164Y-89360501D01*
X99725429Y-89347724D01*
X99720385Y-89339363D01*
X99720041Y-89338791D01*
X99715149Y-89331267D01*
X99712713Y-89328207D01*
X99709472Y-89323678D01*
X99703424Y-89314157D01*
X99697813Y-89304924D01*
X99689910Y-89291706D01*
X99683087Y-89280316D01*
X99680069Y-89275291D01*
X99675032Y-89266819D01*
X99667761Y-89254472D01*
X99663219Y-89246720D01*
X99656211Y-89235634D01*
X99650578Y-89228331D01*
X99648294Y-89226611D01*
X99645473Y-89223164D01*
X99645119Y-89220257D01*
X99643077Y-89214620D01*
X99641344Y-89213907D01*
X99637618Y-89210319D01*
X99634914Y-89203324D01*
X99631514Y-89195395D01*
X99628105Y-89192741D01*
X99624163Y-89189447D01*
X99623952Y-89187942D01*
X99621814Y-89182933D01*
X99616072Y-89172471D01*
X99607736Y-89158205D01*
X99597817Y-89141780D01*
X99587325Y-89124845D01*
X99577268Y-89109046D01*
X99568658Y-89096031D01*
X99562504Y-89087447D01*
X99561798Y-89086574D01*
X99556999Y-89079795D01*
X99556656Y-89075764D01*
X99561451Y-89074509D01*
X99572067Y-89076058D01*
G37*
X99572067Y-89076058D02*
X99589188Y-89080436D01*
X99613497Y-89087673D01*
X99617143Y-89088801D01*
X99640262Y-89095956D01*
X99667919Y-89104486D01*
X99696553Y-89113293D01*
X99721319Y-89120888D01*
X99744665Y-89128040D01*
X99767572Y-89135071D01*
X99787604Y-89141230D01*
X99802326Y-89145771D01*
X99803869Y-89146249D01*
X99821793Y-89151775D01*
X99845975Y-89159192D01*
X99874567Y-89167937D01*
X99905723Y-89177445D01*
X99937598Y-89187153D01*
X99968345Y-89196498D01*
X99983786Y-89201181D01*
X100007454Y-89208382D01*
X100033302Y-89216291D01*
X100057152Y-89223629D01*
X100066336Y-89226471D01*
X100087854Y-89233111D01*
X100113301Y-89240909D01*
X100138497Y-89248586D01*
X100148886Y-89251735D01*
X100173128Y-89259109D01*
X100200997Y-89267650D01*
X100228043Y-89275992D01*
X100239902Y-89279673D01*
X100268555Y-89288575D01*
X100299093Y-89298037D01*
X100330123Y-89307630D01*
X100360252Y-89316925D01*
X100388088Y-89325492D01*
X100412238Y-89332902D01*
X100431308Y-89338727D01*
X100443907Y-89342536D01*
X100445219Y-89342927D01*
X100461118Y-89347677D01*
X100479216Y-89353125D01*
X100486494Y-89355328D01*
X100504342Y-89360730D01*
X100523237Y-89366426D01*
X100529886Y-89368424D01*
X100557772Y-89376818D01*
X100581840Y-89384139D01*
X100606090Y-89391612D01*
X100633602Y-89400174D01*
X100662667Y-89409225D01*
X100685055Y-89416138D01*
X100702160Y-89421330D01*
X100715376Y-89425218D01*
X100726098Y-89428218D01*
X100735721Y-89430749D01*
X100736260Y-89430887D01*
X100747147Y-89434224D01*
X100753543Y-89437279D01*
X100754252Y-89438225D01*
X100756833Y-89442776D01*
X100763346Y-89451054D01*
X100766952Y-89455207D01*
X100774595Y-89464265D01*
X100779121Y-89470592D01*
X100779652Y-89471888D01*
X100782250Y-89476341D01*
X100788605Y-89483987D01*
X100789599Y-89485071D01*
X100798107Y-89495307D01*
X100807803Y-89508434D01*
X100811328Y-89513602D01*
X100818625Y-89523800D01*
X100824291Y-89530242D01*
X100826134Y-89531407D01*
X100830176Y-89534728D01*
X100832980Y-89539387D01*
X100837929Y-89547264D01*
X100846138Y-89558174D01*
X100850707Y-89563728D01*
X100859735Y-89574794D01*
X100871626Y-89589965D01*
X100884251Y-89606511D01*
X100888240Y-89611841D01*
X100898833Y-89625916D01*
X100907608Y-89637284D01*
X100913296Y-89644311D01*
X100914611Y-89645707D01*
X100918218Y-89649813D01*
X100925627Y-89659081D01*
X100935564Y-89671898D01*
X100941499Y-89679686D01*
X100953013Y-89694698D01*
X100963430Y-89707953D01*
X100971131Y-89717406D01*
X100973304Y-89719902D01*
X100980761Y-89728865D01*
X100989523Y-89740475D01*
X100991374Y-89743074D01*
X100999254Y-89754095D01*
X101006823Y-89764088D01*
X101016200Y-89775786D01*
X101025483Y-89787070D01*
X101034505Y-89798304D01*
X101045334Y-89812233D01*
X101050883Y-89819537D01*
X101062644Y-89834776D01*
X101075700Y-89851118D01*
X101081059Y-89857637D01*
X101092894Y-89872249D01*
X101105870Y-89888871D01*
X101112468Y-89897591D01*
X101130955Y-89922140D01*
X101150118Y-89946929D01*
X101172310Y-89975001D01*
X101173352Y-89976308D01*
X101184713Y-89990618D01*
X101195583Y-90004417D01*
X101202985Y-90013915D01*
X101212561Y-90026216D01*
X101223398Y-90039983D01*
X101226269Y-90043601D01*
X101237407Y-90057712D01*
X101251946Y-90076286D01*
X101268413Y-90097422D01*
X101285331Y-90119221D01*
X101301225Y-90139782D01*
X101314622Y-90157207D01*
X101322964Y-90168160D01*
X101333758Y-90182066D01*
X101344495Y-90195290D01*
X101350579Y-90202390D01*
X101360874Y-90214787D01*
X101371069Y-90228345D01*
X101372160Y-90229907D01*
X101381349Y-90242203D01*
X101390752Y-90253323D01*
X101392170Y-90254826D01*
X101400110Y-90264625D01*
X101401344Y-90270469D01*
X101396660Y-90271959D01*
X101393031Y-90268976D01*
X101383834Y-90260359D01*
X101369457Y-90246492D01*
X101350289Y-90227761D01*
X101326716Y-90204550D01*
X101299126Y-90177243D01*
X101267907Y-90146225D01*
X101233446Y-90111881D01*
X101196132Y-90074596D01*
X101156351Y-90034753D01*
X101114492Y-89992737D01*
X101070942Y-89948933D01*
X101062767Y-89940701D01*
X100734165Y-89609724D01*
X100658483Y-89593367D01*
X100632789Y-89587843D01*
X100608603Y-89582695D01*
X100587692Y-89578296D01*
X100571822Y-89575017D01*
X100563752Y-89573416D01*
X100550965Y-89570877D01*
X100533001Y-89567152D01*
X100512948Y-89562884D01*
X100504486Y-89561050D01*
X100482181Y-89556212D01*
X100458430Y-89551100D01*
X100437474Y-89546628D01*
X100432519Y-89545580D01*
X100402654Y-89539267D01*
X100378495Y-89534129D01*
X100357459Y-89529605D01*
X100336966Y-89525138D01*
X100314432Y-89520169D01*
X100288586Y-89514430D01*
X100265110Y-89509253D01*
X100242944Y-89504448D01*
X100224181Y-89500463D01*
X100210912Y-89497745D01*
X100208152Y-89497213D01*
X100199800Y-89495606D01*
X100189276Y-89493482D01*
X100175508Y-89490615D01*
X100157423Y-89486777D01*
X100133950Y-89481743D01*
X100104018Y-89475284D01*
X100079036Y-89469879D01*
X100039612Y-89461373D01*
X100006528Y-89454309D01*
X99977862Y-89448276D01*
X99962619Y-89445113D01*
X99946255Y-89441673D01*
X99924340Y-89436976D01*
X99899587Y-89431609D01*
X99874708Y-89426157D01*
X99871602Y-89425472D01*
X99847554Y-89420251D01*
X99823895Y-89415272D01*
X99803103Y-89411047D01*
X99787655Y-89408087D01*
X99785674Y-89407736D01*
X99759013Y-89403088D01*
X99742064Y-89375173D01*
X99733164Y-89360501D01*
X99725429Y-89347724D01*
X99720385Y-89339363D01*
X99720041Y-89338791D01*
X99715149Y-89331267D01*
X99712713Y-89328207D01*
X99709472Y-89323678D01*
X99703424Y-89314157D01*
X99697813Y-89304924D01*
X99689910Y-89291706D01*
X99683087Y-89280316D01*
X99680069Y-89275291D01*
X99675032Y-89266819D01*
X99667761Y-89254472D01*
X99663219Y-89246720D01*
X99656211Y-89235634D01*
X99650578Y-89228331D01*
X99648294Y-89226611D01*
X99645473Y-89223164D01*
X99645119Y-89220257D01*
X99643077Y-89214620D01*
X99641344Y-89213907D01*
X99637618Y-89210319D01*
X99634914Y-89203324D01*
X99631514Y-89195395D01*
X99628105Y-89192741D01*
X99624163Y-89189447D01*
X99623952Y-89187942D01*
X99621814Y-89182933D01*
X99616072Y-89172471D01*
X99607736Y-89158205D01*
X99597817Y-89141780D01*
X99587325Y-89124845D01*
X99577268Y-89109046D01*
X99568658Y-89096031D01*
X99562504Y-89087447D01*
X99561798Y-89086574D01*
X99556999Y-89079795D01*
X99556656Y-89075764D01*
X99561451Y-89074509D01*
X99572067Y-89076058D01*
G36*
X103534886Y-89078441D02*
G01*
X103531741Y-89086603D01*
X103524392Y-89100142D01*
X103512552Y-89119733D01*
X103508036Y-89126967D01*
X103497421Y-89144236D01*
X103488708Y-89159096D01*
X103482780Y-89169991D01*
X103480521Y-89175365D01*
X103480519Y-89175421D01*
X103477837Y-89179842D01*
X103476744Y-89180041D01*
X103472922Y-89183604D01*
X103470558Y-89189650D01*
X103465818Y-89200399D01*
X103460574Y-89207857D01*
X103452349Y-89218485D01*
X103446879Y-89226823D01*
X103442786Y-89233640D01*
X103435121Y-89246307D01*
X103424722Y-89263448D01*
X103412427Y-89283684D01*
X103399073Y-89305637D01*
X103385499Y-89327932D01*
X103372542Y-89349190D01*
X103361041Y-89368034D01*
X103351832Y-89383087D01*
X103351275Y-89383995D01*
X103343460Y-89395640D01*
X103336100Y-89402243D01*
X103325885Y-89406052D01*
X103315633Y-89408189D01*
X103302822Y-89410708D01*
X103284012Y-89414570D01*
X103261472Y-89419300D01*
X103237473Y-89424426D01*
X103230752Y-89425878D01*
X103206523Y-89431121D01*
X103182897Y-89436220D01*
X103162225Y-89440670D01*
X103146854Y-89443964D01*
X103143969Y-89444579D01*
X103112660Y-89451237D01*
X103088271Y-89456427D01*
X103069439Y-89460440D01*
X103054802Y-89463566D01*
X103042996Y-89466096D01*
X103032661Y-89468322D01*
X103025436Y-89469883D01*
X102990820Y-89477366D01*
X102963390Y-89483275D01*
X102942057Y-89487841D01*
X102925734Y-89491295D01*
X102913335Y-89493866D01*
X102903771Y-89495785D01*
X102896319Y-89497213D01*
X102885265Y-89499429D01*
X102868044Y-89503057D01*
X102846747Y-89507651D01*
X102823466Y-89512761D01*
X102815886Y-89514445D01*
X102792409Y-89519634D01*
X102770244Y-89524465D01*
X102751480Y-89528485D01*
X102738211Y-89531243D01*
X102735452Y-89531789D01*
X102719012Y-89535154D01*
X102702503Y-89538817D01*
X102699469Y-89539535D01*
X102686969Y-89542388D01*
X102669650Y-89546149D01*
X102650993Y-89550065D01*
X102648669Y-89550543D01*
X102627065Y-89555024D01*
X102602371Y-89560230D01*
X102579766Y-89565069D01*
X102578819Y-89565274D01*
X102556444Y-89570078D01*
X102531730Y-89575319D01*
X102509858Y-89579900D01*
X102508969Y-89580084D01*
X102488647Y-89584365D01*
X102467542Y-89588924D01*
X102450127Y-89592795D01*
X102449702Y-89592892D01*
X102430405Y-89597162D01*
X102409044Y-89601700D01*
X102398006Y-89603960D01*
X102371710Y-89609234D01*
X102040454Y-89940737D01*
X101996418Y-89984776D01*
X101954040Y-90027100D01*
X101913702Y-90067328D01*
X101875792Y-90105079D01*
X101840693Y-90139971D01*
X101808792Y-90171622D01*
X101780473Y-90199651D01*
X101756121Y-90223675D01*
X101736123Y-90243314D01*
X101720863Y-90258185D01*
X101710726Y-90267907D01*
X101706098Y-90272099D01*
X101705858Y-90272240D01*
X101702602Y-90269004D01*
X101702519Y-90268080D01*
X101705136Y-90262461D01*
X101711587Y-90253948D01*
X101713125Y-90252205D01*
X101719818Y-90244337D01*
X101730497Y-90231232D01*
X101743986Y-90214369D01*
X101759111Y-90195222D01*
X101774697Y-90175269D01*
X101786448Y-90160057D01*
X101795427Y-90148421D01*
X101807162Y-90133291D01*
X101820590Y-90116029D01*
X101834648Y-90097996D01*
X101848273Y-90080552D01*
X101860403Y-90065060D01*
X101869976Y-90052880D01*
X101875928Y-90045373D01*
X101877186Y-90043830D01*
X101881955Y-90037954D01*
X101891297Y-90026196D01*
X101904583Y-90009353D01*
X101921186Y-89988225D01*
X101940477Y-89963611D01*
X101961830Y-89936308D01*
X101976690Y-89917275D01*
X101991076Y-89898874D01*
X102006912Y-89878674D01*
X102021133Y-89860585D01*
X102023163Y-89858008D01*
X102035049Y-89842932D01*
X102043374Y-89832350D01*
X102049814Y-89824101D01*
X102056043Y-89816025D01*
X102063737Y-89805964D01*
X102074570Y-89791755D01*
X102076183Y-89789641D01*
X102087430Y-89774994D01*
X102097250Y-89762399D01*
X102104161Y-89753746D01*
X102106017Y-89751541D01*
X102111684Y-89744683D01*
X102120173Y-89733916D01*
X102126157Y-89726141D01*
X102134454Y-89715357D01*
X102140623Y-89707540D01*
X102142786Y-89704974D01*
X102146185Y-89700837D01*
X102153351Y-89691708D01*
X102162921Y-89679330D01*
X102165982Y-89675341D01*
X102177280Y-89660840D01*
X102187878Y-89647661D01*
X102195753Y-89638310D01*
X102196674Y-89637284D01*
X102203205Y-89629436D01*
X102206256Y-89624419D01*
X102206286Y-89624184D01*
X102208809Y-89619635D01*
X102215064Y-89611568D01*
X102216979Y-89609324D01*
X102224398Y-89600365D01*
X102235042Y-89586986D01*
X102247052Y-89571536D01*
X102251844Y-89565274D01*
X102262585Y-89551261D01*
X102271413Y-89539922D01*
X102277069Y-89532867D01*
X102278357Y-89531407D01*
X102280888Y-89528514D01*
X102286487Y-89521507D01*
X102295661Y-89509736D01*
X102308917Y-89492552D01*
X102326762Y-89469303D01*
X102327700Y-89468079D01*
X102339993Y-89452640D01*
X102349822Y-89442459D01*
X102359486Y-89435792D01*
X102371284Y-89430896D01*
X102380512Y-89428035D01*
X102399380Y-89422400D01*
X102419289Y-89416270D01*
X102430652Y-89412665D01*
X102446145Y-89407753D01*
X102467867Y-89400994D01*
X102493936Y-89392967D01*
X102522467Y-89384252D01*
X102551580Y-89375427D01*
X102561886Y-89372321D01*
X102574270Y-89368563D01*
X102591900Y-89363172D01*
X102611935Y-89357018D01*
X102623269Y-89353525D01*
X102647144Y-89346171D01*
X102673823Y-89337975D01*
X102698649Y-89330368D01*
X102705819Y-89328176D01*
X102725877Y-89322036D01*
X102750858Y-89314369D01*
X102777593Y-89306150D01*
X102802915Y-89298349D01*
X102803186Y-89298266D01*
X102835682Y-89288247D01*
X102861690Y-89280238D01*
X102882810Y-89273750D01*
X102900641Y-89268294D01*
X102916785Y-89263381D01*
X102932841Y-89258521D01*
X102950411Y-89253224D01*
X102955586Y-89251667D01*
X102979263Y-89244505D01*
X103005120Y-89236624D01*
X103028975Y-89229303D01*
X103038136Y-89226471D01*
X103059659Y-89219835D01*
X103085111Y-89212049D01*
X103110312Y-89204392D01*
X103120686Y-89201258D01*
X103139979Y-89195410D01*
X103157205Y-89190123D01*
X103170161Y-89186079D01*
X103175719Y-89184280D01*
X103183790Y-89181692D01*
X103197980Y-89177283D01*
X103216299Y-89171665D01*
X103236760Y-89165453D01*
X103237102Y-89165350D01*
X103262907Y-89157505D01*
X103292593Y-89148404D01*
X103321966Y-89139335D01*
X103340819Y-89133470D01*
X103364987Y-89125984D01*
X103390302Y-89118251D01*
X103413559Y-89111246D01*
X103429719Y-89106472D01*
X103451371Y-89100089D01*
X103473673Y-89093369D01*
X103494710Y-89086902D01*
X103512571Y-89081280D01*
X103525341Y-89077096D01*
X103529699Y-89075547D01*
X103534111Y-89074981D01*
X103534886Y-89078441D01*
G37*
X103534886Y-89078441D02*
X103531741Y-89086603D01*
X103524392Y-89100142D01*
X103512552Y-89119733D01*
X103508036Y-89126967D01*
X103497421Y-89144236D01*
X103488708Y-89159096D01*
X103482780Y-89169991D01*
X103480521Y-89175365D01*
X103480519Y-89175421D01*
X103477837Y-89179842D01*
X103476744Y-89180041D01*
X103472922Y-89183604D01*
X103470558Y-89189650D01*
X103465818Y-89200399D01*
X103460574Y-89207857D01*
X103452349Y-89218485D01*
X103446879Y-89226823D01*
X103442786Y-89233640D01*
X103435121Y-89246307D01*
X103424722Y-89263448D01*
X103412427Y-89283684D01*
X103399073Y-89305637D01*
X103385499Y-89327932D01*
X103372542Y-89349190D01*
X103361041Y-89368034D01*
X103351832Y-89383087D01*
X103351275Y-89383995D01*
X103343460Y-89395640D01*
X103336100Y-89402243D01*
X103325885Y-89406052D01*
X103315633Y-89408189D01*
X103302822Y-89410708D01*
X103284012Y-89414570D01*
X103261472Y-89419300D01*
X103237473Y-89424426D01*
X103230752Y-89425878D01*
X103206523Y-89431121D01*
X103182897Y-89436220D01*
X103162225Y-89440670D01*
X103146854Y-89443964D01*
X103143969Y-89444579D01*
X103112660Y-89451237D01*
X103088271Y-89456427D01*
X103069439Y-89460440D01*
X103054802Y-89463566D01*
X103042996Y-89466096D01*
X103032661Y-89468322D01*
X103025436Y-89469883D01*
X102990820Y-89477366D01*
X102963390Y-89483275D01*
X102942057Y-89487841D01*
X102925734Y-89491295D01*
X102913335Y-89493866D01*
X102903771Y-89495785D01*
X102896319Y-89497213D01*
X102885265Y-89499429D01*
X102868044Y-89503057D01*
X102846747Y-89507651D01*
X102823466Y-89512761D01*
X102815886Y-89514445D01*
X102792409Y-89519634D01*
X102770244Y-89524465D01*
X102751480Y-89528485D01*
X102738211Y-89531243D01*
X102735452Y-89531789D01*
X102719012Y-89535154D01*
X102702503Y-89538817D01*
X102699469Y-89539535D01*
X102686969Y-89542388D01*
X102669650Y-89546149D01*
X102650993Y-89550065D01*
X102648669Y-89550543D01*
X102627065Y-89555024D01*
X102602371Y-89560230D01*
X102579766Y-89565069D01*
X102578819Y-89565274D01*
X102556444Y-89570078D01*
X102531730Y-89575319D01*
X102509858Y-89579900D01*
X102508969Y-89580084D01*
X102488647Y-89584365D01*
X102467542Y-89588924D01*
X102450127Y-89592795D01*
X102449702Y-89592892D01*
X102430405Y-89597162D01*
X102409044Y-89601700D01*
X102398006Y-89603960D01*
X102371710Y-89609234D01*
X102040454Y-89940737D01*
X101996418Y-89984776D01*
X101954040Y-90027100D01*
X101913702Y-90067328D01*
X101875792Y-90105079D01*
X101840693Y-90139971D01*
X101808792Y-90171622D01*
X101780473Y-90199651D01*
X101756121Y-90223675D01*
X101736123Y-90243314D01*
X101720863Y-90258185D01*
X101710726Y-90267907D01*
X101706098Y-90272099D01*
X101705858Y-90272240D01*
X101702602Y-90269004D01*
X101702519Y-90268080D01*
X101705136Y-90262461D01*
X101711587Y-90253948D01*
X101713125Y-90252205D01*
X101719818Y-90244337D01*
X101730497Y-90231232D01*
X101743986Y-90214369D01*
X101759111Y-90195222D01*
X101774697Y-90175269D01*
X101786448Y-90160057D01*
X101795427Y-90148421D01*
X101807162Y-90133291D01*
X101820590Y-90116029D01*
X101834648Y-90097996D01*
X101848273Y-90080552D01*
X101860403Y-90065060D01*
X101869976Y-90052880D01*
X101875928Y-90045373D01*
X101877186Y-90043830D01*
X101881955Y-90037954D01*
X101891297Y-90026196D01*
X101904583Y-90009353D01*
X101921186Y-89988225D01*
X101940477Y-89963611D01*
X101961830Y-89936308D01*
X101976690Y-89917275D01*
X101991076Y-89898874D01*
X102006912Y-89878674D01*
X102021133Y-89860585D01*
X102023163Y-89858008D01*
X102035049Y-89842932D01*
X102043374Y-89832350D01*
X102049814Y-89824101D01*
X102056043Y-89816025D01*
X102063737Y-89805964D01*
X102074570Y-89791755D01*
X102076183Y-89789641D01*
X102087430Y-89774994D01*
X102097250Y-89762399D01*
X102104161Y-89753746D01*
X102106017Y-89751541D01*
X102111684Y-89744683D01*
X102120173Y-89733916D01*
X102126157Y-89726141D01*
X102134454Y-89715357D01*
X102140623Y-89707540D01*
X102142786Y-89704974D01*
X102146185Y-89700837D01*
X102153351Y-89691708D01*
X102162921Y-89679330D01*
X102165982Y-89675341D01*
X102177280Y-89660840D01*
X102187878Y-89647661D01*
X102195753Y-89638310D01*
X102196674Y-89637284D01*
X102203205Y-89629436D01*
X102206256Y-89624419D01*
X102206286Y-89624184D01*
X102208809Y-89619635D01*
X102215064Y-89611568D01*
X102216979Y-89609324D01*
X102224398Y-89600365D01*
X102235042Y-89586986D01*
X102247052Y-89571536D01*
X102251844Y-89565274D01*
X102262585Y-89551261D01*
X102271413Y-89539922D01*
X102277069Y-89532867D01*
X102278357Y-89531407D01*
X102280888Y-89528514D01*
X102286487Y-89521507D01*
X102295661Y-89509736D01*
X102308917Y-89492552D01*
X102326762Y-89469303D01*
X102327700Y-89468079D01*
X102339993Y-89452640D01*
X102349822Y-89442459D01*
X102359486Y-89435792D01*
X102371284Y-89430896D01*
X102380512Y-89428035D01*
X102399380Y-89422400D01*
X102419289Y-89416270D01*
X102430652Y-89412665D01*
X102446145Y-89407753D01*
X102467867Y-89400994D01*
X102493936Y-89392967D01*
X102522467Y-89384252D01*
X102551580Y-89375427D01*
X102561886Y-89372321D01*
X102574270Y-89368563D01*
X102591900Y-89363172D01*
X102611935Y-89357018D01*
X102623269Y-89353525D01*
X102647144Y-89346171D01*
X102673823Y-89337975D01*
X102698649Y-89330368D01*
X102705819Y-89328176D01*
X102725877Y-89322036D01*
X102750858Y-89314369D01*
X102777593Y-89306150D01*
X102802915Y-89298349D01*
X102803186Y-89298266D01*
X102835682Y-89288247D01*
X102861690Y-89280238D01*
X102882810Y-89273750D01*
X102900641Y-89268294D01*
X102916785Y-89263381D01*
X102932841Y-89258521D01*
X102950411Y-89253224D01*
X102955586Y-89251667D01*
X102979263Y-89244505D01*
X103005120Y-89236624D01*
X103028975Y-89229303D01*
X103038136Y-89226471D01*
X103059659Y-89219835D01*
X103085111Y-89212049D01*
X103110312Y-89204392D01*
X103120686Y-89201258D01*
X103139979Y-89195410D01*
X103157205Y-89190123D01*
X103170161Y-89186079D01*
X103175719Y-89184280D01*
X103183790Y-89181692D01*
X103197980Y-89177283D01*
X103216299Y-89171665D01*
X103236760Y-89165453D01*
X103237102Y-89165350D01*
X103262907Y-89157505D01*
X103292593Y-89148404D01*
X103321966Y-89139335D01*
X103340819Y-89133470D01*
X103364987Y-89125984D01*
X103390302Y-89118251D01*
X103413559Y-89111246D01*
X103429719Y-89106472D01*
X103451371Y-89100089D01*
X103473673Y-89093369D01*
X103494710Y-89086902D01*
X103512571Y-89081280D01*
X103525341Y-89077096D01*
X103529699Y-89075547D01*
X103534111Y-89074981D01*
X103534886Y-89078441D01*
G36*
X99793938Y-89432578D02*
G01*
X99809677Y-89435505D01*
X99821676Y-89438073D01*
X99856917Y-89445950D01*
X99886671Y-89452512D01*
X99913698Y-89458363D01*
X99940759Y-89464103D01*
X99947802Y-89465581D01*
X99964795Y-89469157D01*
X99979389Y-89472260D01*
X99988939Y-89474327D01*
X99990136Y-89474594D01*
X100002556Y-89477378D01*
X100021119Y-89481495D01*
X100043720Y-89486484D01*
X100068257Y-89491882D01*
X100092627Y-89497228D01*
X100114729Y-89502060D01*
X100132458Y-89505915D01*
X100142536Y-89508082D01*
X100174200Y-89514814D01*
X100198999Y-89520092D01*
X100218349Y-89524222D01*
X100233666Y-89527506D01*
X100246369Y-89530248D01*
X100257873Y-89532751D01*
X100263186Y-89533913D01*
X100281866Y-89537867D01*
X100303966Y-89542347D01*
X100323861Y-89546223D01*
X100339828Y-89549412D01*
X100352487Y-89552243D01*
X100359598Y-89554206D01*
X100360233Y-89554493D01*
X100365924Y-89556249D01*
X100377120Y-89558639D01*
X100386341Y-89560290D01*
X100400880Y-89562985D01*
X100422132Y-89567298D01*
X100448568Y-89572903D01*
X100478662Y-89579473D01*
X100510886Y-89586681D01*
X100527769Y-89590526D01*
X100540258Y-89593306D01*
X100557562Y-89597055D01*
X100576206Y-89601021D01*
X100578569Y-89601518D01*
X100600805Y-89606243D01*
X100625671Y-89611611D01*
X100646302Y-89616132D01*
X100666761Y-89620624D01*
X100688183Y-89625263D01*
X100706015Y-89629063D01*
X100706403Y-89629145D01*
X100732638Y-89634654D01*
X101036071Y-89938110D01*
X101078146Y-89980248D01*
X101118461Y-90020741D01*
X101156619Y-90059185D01*
X101192225Y-90095174D01*
X101224880Y-90128305D01*
X101254190Y-90158171D01*
X101279756Y-90184368D01*
X101301183Y-90206491D01*
X101318074Y-90224136D01*
X101330032Y-90236897D01*
X101336661Y-90244370D01*
X101337920Y-90246232D01*
X101334234Y-90245995D01*
X101325941Y-90241096D01*
X101314714Y-90232552D01*
X101312714Y-90230878D01*
X101297056Y-90217660D01*
X101280372Y-90203659D01*
X101268701Y-90193924D01*
X101241358Y-90171200D01*
X101218684Y-90152305D01*
X101198816Y-90135679D01*
X101179891Y-90119763D01*
X101160046Y-90102995D01*
X101151849Y-90096052D01*
X101137024Y-90083588D01*
X101120465Y-90069809D01*
X101111835Y-90062690D01*
X101097077Y-90050493D01*
X101081694Y-90037650D01*
X101073735Y-90030940D01*
X101060206Y-90019566D01*
X101044539Y-90006534D01*
X101035635Y-89999190D01*
X101020837Y-89986984D01*
X101005370Y-89974134D01*
X100997367Y-89967440D01*
X100987233Y-89958970D01*
X100972509Y-89946719D01*
X100955135Y-89932297D01*
X100937048Y-89917316D01*
X100936232Y-89916640D01*
X100915733Y-89899613D01*
X100893529Y-89881058D01*
X100872521Y-89863404D01*
X100857892Y-89851024D01*
X100839568Y-89835490D01*
X100817900Y-89817197D01*
X100796047Y-89798809D01*
X100782591Y-89787524D01*
X100742134Y-89753657D01*
X100687868Y-89748803D01*
X100664065Y-89746680D01*
X100634874Y-89744085D01*
X100603341Y-89741289D01*
X100572514Y-89738562D01*
X100559519Y-89737415D01*
X100534023Y-89735111D01*
X100510260Y-89732864D01*
X100490021Y-89730850D01*
X100475097Y-89729247D01*
X100468502Y-89728425D01*
X100457484Y-89727097D01*
X100440461Y-89725360D01*
X100419872Y-89723452D01*
X100400769Y-89721822D01*
X100384737Y-89720494D01*
X100368036Y-89719067D01*
X100349703Y-89717451D01*
X100328772Y-89715557D01*
X100304281Y-89713296D01*
X100275265Y-89710580D01*
X100240760Y-89707320D01*
X100199803Y-89703425D01*
X100151428Y-89698808D01*
X100148886Y-89698565D01*
X100118268Y-89695668D01*
X100083785Y-89692452D01*
X100049271Y-89689272D01*
X100018563Y-89686484D01*
X100013080Y-89685993D01*
X99989516Y-89683779D01*
X99968238Y-89681581D01*
X99950998Y-89679594D01*
X99939549Y-89678016D01*
X99936500Y-89677430D01*
X99928478Y-89672674D01*
X99919096Y-89661639D01*
X99908134Y-89644360D01*
X99896547Y-89624559D01*
X99888456Y-89610900D01*
X99883132Y-89602188D01*
X99879845Y-89597227D01*
X99877952Y-89594907D01*
X99872305Y-89587308D01*
X99866147Y-89576602D01*
X99862519Y-89568449D01*
X99858880Y-89562204D01*
X99856706Y-89561041D01*
X99852938Y-89557556D01*
X99848699Y-89549399D01*
X99843604Y-89538983D01*
X99835916Y-89525601D01*
X99831576Y-89518707D01*
X99821599Y-89502904D01*
X99811168Y-89485605D01*
X99807654Y-89479549D01*
X99800706Y-89468427D01*
X99794997Y-89461125D01*
X99792613Y-89459441D01*
X99789409Y-89456023D01*
X99789052Y-89453393D01*
X99786264Y-89445743D01*
X99782198Y-89440491D01*
X99777783Y-89434267D01*
X99777780Y-89431201D01*
X99782681Y-89431046D01*
X99793938Y-89432578D01*
G37*
X99793938Y-89432578D02*
X99809677Y-89435505D01*
X99821676Y-89438073D01*
X99856917Y-89445950D01*
X99886671Y-89452512D01*
X99913698Y-89458363D01*
X99940759Y-89464103D01*
X99947802Y-89465581D01*
X99964795Y-89469157D01*
X99979389Y-89472260D01*
X99988939Y-89474327D01*
X99990136Y-89474594D01*
X100002556Y-89477378D01*
X100021119Y-89481495D01*
X100043720Y-89486484D01*
X100068257Y-89491882D01*
X100092627Y-89497228D01*
X100114729Y-89502060D01*
X100132458Y-89505915D01*
X100142536Y-89508082D01*
X100174200Y-89514814D01*
X100198999Y-89520092D01*
X100218349Y-89524222D01*
X100233666Y-89527506D01*
X100246369Y-89530248D01*
X100257873Y-89532751D01*
X100263186Y-89533913D01*
X100281866Y-89537867D01*
X100303966Y-89542347D01*
X100323861Y-89546223D01*
X100339828Y-89549412D01*
X100352487Y-89552243D01*
X100359598Y-89554206D01*
X100360233Y-89554493D01*
X100365924Y-89556249D01*
X100377120Y-89558639D01*
X100386341Y-89560290D01*
X100400880Y-89562985D01*
X100422132Y-89567298D01*
X100448568Y-89572903D01*
X100478662Y-89579473D01*
X100510886Y-89586681D01*
X100527769Y-89590526D01*
X100540258Y-89593306D01*
X100557562Y-89597055D01*
X100576206Y-89601021D01*
X100578569Y-89601518D01*
X100600805Y-89606243D01*
X100625671Y-89611611D01*
X100646302Y-89616132D01*
X100666761Y-89620624D01*
X100688183Y-89625263D01*
X100706015Y-89629063D01*
X100706403Y-89629145D01*
X100732638Y-89634654D01*
X101036071Y-89938110D01*
X101078146Y-89980248D01*
X101118461Y-90020741D01*
X101156619Y-90059185D01*
X101192225Y-90095174D01*
X101224880Y-90128305D01*
X101254190Y-90158171D01*
X101279756Y-90184368D01*
X101301183Y-90206491D01*
X101318074Y-90224136D01*
X101330032Y-90236897D01*
X101336661Y-90244370D01*
X101337920Y-90246232D01*
X101334234Y-90245995D01*
X101325941Y-90241096D01*
X101314714Y-90232552D01*
X101312714Y-90230878D01*
X101297056Y-90217660D01*
X101280372Y-90203659D01*
X101268701Y-90193924D01*
X101241358Y-90171200D01*
X101218684Y-90152305D01*
X101198816Y-90135679D01*
X101179891Y-90119763D01*
X101160046Y-90102995D01*
X101151849Y-90096052D01*
X101137024Y-90083588D01*
X101120465Y-90069809D01*
X101111835Y-90062690D01*
X101097077Y-90050493D01*
X101081694Y-90037650D01*
X101073735Y-90030940D01*
X101060206Y-90019566D01*
X101044539Y-90006534D01*
X101035635Y-89999190D01*
X101020837Y-89986984D01*
X101005370Y-89974134D01*
X100997367Y-89967440D01*
X100987233Y-89958970D01*
X100972509Y-89946719D01*
X100955135Y-89932297D01*
X100937048Y-89917316D01*
X100936232Y-89916640D01*
X100915733Y-89899613D01*
X100893529Y-89881058D01*
X100872521Y-89863404D01*
X100857892Y-89851024D01*
X100839568Y-89835490D01*
X100817900Y-89817197D01*
X100796047Y-89798809D01*
X100782591Y-89787524D01*
X100742134Y-89753657D01*
X100687868Y-89748803D01*
X100664065Y-89746680D01*
X100634874Y-89744085D01*
X100603341Y-89741289D01*
X100572514Y-89738562D01*
X100559519Y-89737415D01*
X100534023Y-89735111D01*
X100510260Y-89732864D01*
X100490021Y-89730850D01*
X100475097Y-89729247D01*
X100468502Y-89728425D01*
X100457484Y-89727097D01*
X100440461Y-89725360D01*
X100419872Y-89723452D01*
X100400769Y-89721822D01*
X100384737Y-89720494D01*
X100368036Y-89719067D01*
X100349703Y-89717451D01*
X100328772Y-89715557D01*
X100304281Y-89713296D01*
X100275265Y-89710580D01*
X100240760Y-89707320D01*
X100199803Y-89703425D01*
X100151428Y-89698808D01*
X100148886Y-89698565D01*
X100118268Y-89695668D01*
X100083785Y-89692452D01*
X100049271Y-89689272D01*
X100018563Y-89686484D01*
X100013080Y-89685993D01*
X99989516Y-89683779D01*
X99968238Y-89681581D01*
X99950998Y-89679594D01*
X99939549Y-89678016D01*
X99936500Y-89677430D01*
X99928478Y-89672674D01*
X99919096Y-89661639D01*
X99908134Y-89644360D01*
X99896547Y-89624559D01*
X99888456Y-89610900D01*
X99883132Y-89602188D01*
X99879845Y-89597227D01*
X99877952Y-89594907D01*
X99872305Y-89587308D01*
X99866147Y-89576602D01*
X99862519Y-89568449D01*
X99858880Y-89562204D01*
X99856706Y-89561041D01*
X99852938Y-89557556D01*
X99848699Y-89549399D01*
X99843604Y-89538983D01*
X99835916Y-89525601D01*
X99831576Y-89518707D01*
X99821599Y-89502904D01*
X99811168Y-89485605D01*
X99807654Y-89479549D01*
X99800706Y-89468427D01*
X99794997Y-89461125D01*
X99792613Y-89459441D01*
X99789409Y-89456023D01*
X99789052Y-89453393D01*
X99786264Y-89445743D01*
X99782198Y-89440491D01*
X99777783Y-89434267D01*
X99777780Y-89431201D01*
X99782681Y-89431046D01*
X99793938Y-89432578D01*
G36*
X103317658Y-89432091D02*
G01*
X103319589Y-89435000D01*
X103319652Y-89436077D01*
X103317651Y-89441765D01*
X103315913Y-89442507D01*
X103311569Y-89445943D01*
X103309604Y-89449916D01*
X103306435Y-89456159D01*
X103299622Y-89467899D01*
X103290124Y-89483531D01*
X103278903Y-89501446D01*
X103277348Y-89503891D01*
X103265823Y-89522182D01*
X103255739Y-89538585D01*
X103248108Y-89551422D01*
X103243947Y-89559017D01*
X103243738Y-89559474D01*
X103239673Y-89567163D01*
X103232354Y-89579596D01*
X103223167Y-89594436D01*
X103220467Y-89598676D01*
X103211621Y-89612942D01*
X103204900Y-89624671D01*
X103201388Y-89631933D01*
X103201119Y-89633050D01*
X103198376Y-89637130D01*
X103197567Y-89637241D01*
X103193718Y-89640699D01*
X103188229Y-89649398D01*
X103185963Y-89653792D01*
X103179273Y-89665212D01*
X103172406Y-89673504D01*
X103170617Y-89674901D01*
X103164104Y-89676785D01*
X103150721Y-89679102D01*
X103132041Y-89681633D01*
X103109636Y-89684157D01*
X103092262Y-89685831D01*
X103061301Y-89688637D01*
X103026357Y-89691851D01*
X102991270Y-89695116D01*
X102959878Y-89698077D01*
X102953469Y-89698689D01*
X102891503Y-89704608D01*
X102835899Y-89709890D01*
X102784593Y-89714729D01*
X102735521Y-89719317D01*
X102686619Y-89723845D01*
X102635823Y-89728507D01*
X102581068Y-89733495D01*
X102549186Y-89736386D01*
X102522309Y-89738893D01*
X102495165Y-89741550D01*
X102470276Y-89744102D01*
X102450165Y-89746294D01*
X102443352Y-89747095D01*
X102423417Y-89749201D01*
X102403621Y-89750763D01*
X102387766Y-89751489D01*
X102385751Y-89751508D01*
X102375963Y-89751817D01*
X102367960Y-89753355D01*
X102359927Y-89757087D01*
X102350045Y-89763979D01*
X102336497Y-89774996D01*
X102327923Y-89782232D01*
X102309525Y-89797759D01*
X102287591Y-89816168D01*
X102265114Y-89834952D01*
X102248340Y-89848907D01*
X102227869Y-89865953D01*
X102205685Y-89884528D01*
X102184692Y-89902194D01*
X102170133Y-89914524D01*
X102155573Y-89926837D01*
X102136244Y-89943075D01*
X102113904Y-89961769D01*
X102090310Y-89981449D01*
X102068134Y-89999883D01*
X102047283Y-90017194D01*
X102028159Y-90033093D01*
X102011905Y-90046628D01*
X101999662Y-90056847D01*
X101992574Y-90062801D01*
X101991891Y-90063383D01*
X101984435Y-90069630D01*
X101972596Y-90079401D01*
X101958570Y-90090887D01*
X101954210Y-90094440D01*
X101939869Y-90106197D01*
X101926978Y-90116910D01*
X101917775Y-90124714D01*
X101916089Y-90126190D01*
X101908403Y-90132787D01*
X101896377Y-90142846D01*
X101882249Y-90154499D01*
X101878042Y-90157940D01*
X101862911Y-90170442D01*
X101844023Y-90186274D01*
X101824014Y-90203216D01*
X101808887Y-90216149D01*
X101790347Y-90231902D01*
X101777224Y-90242521D01*
X101768676Y-90248572D01*
X101763861Y-90250623D01*
X101761935Y-90249241D01*
X101761786Y-90247829D01*
X101764717Y-90244450D01*
X101773245Y-90235494D01*
X101786971Y-90221363D01*
X101805499Y-90202460D01*
X101828430Y-90179186D01*
X101855366Y-90151943D01*
X101885910Y-90121134D01*
X101919662Y-90087160D01*
X101956226Y-90050424D01*
X101995203Y-90011327D01*
X102036196Y-89970272D01*
X102066607Y-89939854D01*
X102118370Y-89888148D01*
X102164486Y-89842176D01*
X102205253Y-89801650D01*
X102240974Y-89766279D01*
X102271946Y-89735773D01*
X102298471Y-89709843D01*
X102320849Y-89688197D01*
X102339380Y-89670546D01*
X102354364Y-89656600D01*
X102366101Y-89646068D01*
X102374892Y-89638661D01*
X102381035Y-89634089D01*
X102384833Y-89632061D01*
X102385165Y-89631970D01*
X102396160Y-89629511D01*
X102412098Y-89626021D01*
X102429642Y-89622231D01*
X102430652Y-89622015D01*
X102450712Y-89617699D01*
X102471758Y-89613143D01*
X102487802Y-89609645D01*
X102506055Y-89605682D01*
X102527306Y-89601121D01*
X102542836Y-89597821D01*
X102558103Y-89594552D01*
X102579111Y-89589992D01*
X102603337Y-89584692D01*
X102628257Y-89579202D01*
X102633852Y-89577963D01*
X102672152Y-89569509D01*
X102703475Y-89562671D01*
X102729099Y-89557175D01*
X102750301Y-89552749D01*
X102768359Y-89549118D01*
X102771436Y-89548516D01*
X102778890Y-89547044D01*
X102787072Y-89545374D01*
X102797068Y-89543272D01*
X102809963Y-89540504D01*
X102826844Y-89536834D01*
X102848795Y-89532029D01*
X102876902Y-89525853D01*
X102910077Y-89518551D01*
X102929897Y-89514253D01*
X102948995Y-89510228D01*
X102964202Y-89507138D01*
X102968286Y-89506350D01*
X102979340Y-89504131D01*
X102996562Y-89500502D01*
X103017861Y-89495912D01*
X103041143Y-89490808D01*
X103048719Y-89489129D01*
X103073439Y-89483657D01*
X103098048Y-89478251D01*
X103120023Y-89473461D01*
X103136843Y-89469840D01*
X103139736Y-89469227D01*
X103160142Y-89464898D01*
X103182267Y-89460174D01*
X103196886Y-89457034D01*
X103215968Y-89453002D01*
X103235991Y-89448900D01*
X103247686Y-89446581D01*
X103263399Y-89443318D01*
X103277751Y-89439988D01*
X103283669Y-89438432D01*
X103301119Y-89433714D01*
X103311975Y-89431631D01*
X103317658Y-89432091D01*
G37*
X103317658Y-89432091D02*
X103319589Y-89435000D01*
X103319652Y-89436077D01*
X103317651Y-89441765D01*
X103315913Y-89442507D01*
X103311569Y-89445943D01*
X103309604Y-89449916D01*
X103306435Y-89456159D01*
X103299622Y-89467899D01*
X103290124Y-89483531D01*
X103278903Y-89501446D01*
X103277348Y-89503891D01*
X103265823Y-89522182D01*
X103255739Y-89538585D01*
X103248108Y-89551422D01*
X103243947Y-89559017D01*
X103243738Y-89559474D01*
X103239673Y-89567163D01*
X103232354Y-89579596D01*
X103223167Y-89594436D01*
X103220467Y-89598676D01*
X103211621Y-89612942D01*
X103204900Y-89624671D01*
X103201388Y-89631933D01*
X103201119Y-89633050D01*
X103198376Y-89637130D01*
X103197567Y-89637241D01*
X103193718Y-89640699D01*
X103188229Y-89649398D01*
X103185963Y-89653792D01*
X103179273Y-89665212D01*
X103172406Y-89673504D01*
X103170617Y-89674901D01*
X103164104Y-89676785D01*
X103150721Y-89679102D01*
X103132041Y-89681633D01*
X103109636Y-89684157D01*
X103092262Y-89685831D01*
X103061301Y-89688637D01*
X103026357Y-89691851D01*
X102991270Y-89695116D01*
X102959878Y-89698077D01*
X102953469Y-89698689D01*
X102891503Y-89704608D01*
X102835899Y-89709890D01*
X102784593Y-89714729D01*
X102735521Y-89719317D01*
X102686619Y-89723845D01*
X102635823Y-89728507D01*
X102581068Y-89733495D01*
X102549186Y-89736386D01*
X102522309Y-89738893D01*
X102495165Y-89741550D01*
X102470276Y-89744102D01*
X102450165Y-89746294D01*
X102443352Y-89747095D01*
X102423417Y-89749201D01*
X102403621Y-89750763D01*
X102387766Y-89751489D01*
X102385751Y-89751508D01*
X102375963Y-89751817D01*
X102367960Y-89753355D01*
X102359927Y-89757087D01*
X102350045Y-89763979D01*
X102336497Y-89774996D01*
X102327923Y-89782232D01*
X102309525Y-89797759D01*
X102287591Y-89816168D01*
X102265114Y-89834952D01*
X102248340Y-89848907D01*
X102227869Y-89865953D01*
X102205685Y-89884528D01*
X102184692Y-89902194D01*
X102170133Y-89914524D01*
X102155573Y-89926837D01*
X102136244Y-89943075D01*
X102113904Y-89961769D01*
X102090310Y-89981449D01*
X102068134Y-89999883D01*
X102047283Y-90017194D01*
X102028159Y-90033093D01*
X102011905Y-90046628D01*
X101999662Y-90056847D01*
X101992574Y-90062801D01*
X101991891Y-90063383D01*
X101984435Y-90069630D01*
X101972596Y-90079401D01*
X101958570Y-90090887D01*
X101954210Y-90094440D01*
X101939869Y-90106197D01*
X101926978Y-90116910D01*
X101917775Y-90124714D01*
X101916089Y-90126190D01*
X101908403Y-90132787D01*
X101896377Y-90142846D01*
X101882249Y-90154499D01*
X101878042Y-90157940D01*
X101862911Y-90170442D01*
X101844023Y-90186274D01*
X101824014Y-90203216D01*
X101808887Y-90216149D01*
X101790347Y-90231902D01*
X101777224Y-90242521D01*
X101768676Y-90248572D01*
X101763861Y-90250623D01*
X101761935Y-90249241D01*
X101761786Y-90247829D01*
X101764717Y-90244450D01*
X101773245Y-90235494D01*
X101786971Y-90221363D01*
X101805499Y-90202460D01*
X101828430Y-90179186D01*
X101855366Y-90151943D01*
X101885910Y-90121134D01*
X101919662Y-90087160D01*
X101956226Y-90050424D01*
X101995203Y-90011327D01*
X102036196Y-89970272D01*
X102066607Y-89939854D01*
X102118370Y-89888148D01*
X102164486Y-89842176D01*
X102205253Y-89801650D01*
X102240974Y-89766279D01*
X102271946Y-89735773D01*
X102298471Y-89709843D01*
X102320849Y-89688197D01*
X102339380Y-89670546D01*
X102354364Y-89656600D01*
X102366101Y-89646068D01*
X102374892Y-89638661D01*
X102381035Y-89634089D01*
X102384833Y-89632061D01*
X102385165Y-89631970D01*
X102396160Y-89629511D01*
X102412098Y-89626021D01*
X102429642Y-89622231D01*
X102430652Y-89622015D01*
X102450712Y-89617699D01*
X102471758Y-89613143D01*
X102487802Y-89609645D01*
X102506055Y-89605682D01*
X102527306Y-89601121D01*
X102542836Y-89597821D01*
X102558103Y-89594552D01*
X102579111Y-89589992D01*
X102603337Y-89584692D01*
X102628257Y-89579202D01*
X102633852Y-89577963D01*
X102672152Y-89569509D01*
X102703475Y-89562671D01*
X102729099Y-89557175D01*
X102750301Y-89552749D01*
X102768359Y-89549118D01*
X102771436Y-89548516D01*
X102778890Y-89547044D01*
X102787072Y-89545374D01*
X102797068Y-89543272D01*
X102809963Y-89540504D01*
X102826844Y-89536834D01*
X102848795Y-89532029D01*
X102876902Y-89525853D01*
X102910077Y-89518551D01*
X102929897Y-89514253D01*
X102948995Y-89510228D01*
X102964202Y-89507138D01*
X102968286Y-89506350D01*
X102979340Y-89504131D01*
X102996562Y-89500502D01*
X103017861Y-89495912D01*
X103041143Y-89490808D01*
X103048719Y-89489129D01*
X103073439Y-89483657D01*
X103098048Y-89478251D01*
X103120023Y-89473461D01*
X103136843Y-89469840D01*
X103139736Y-89469227D01*
X103160142Y-89464898D01*
X103182267Y-89460174D01*
X103196886Y-89457034D01*
X103215968Y-89453002D01*
X103235991Y-89448900D01*
X103247686Y-89446581D01*
X103263399Y-89443318D01*
X103277751Y-89439988D01*
X103283669Y-89438432D01*
X103301119Y-89433714D01*
X103311975Y-89431631D01*
X103317658Y-89432091D01*
G36*
X99967911Y-89702259D02*
G01*
X99978960Y-89703573D01*
X99996202Y-89705270D01*
X100017385Y-89707141D01*
X100040255Y-89708978D01*
X100043052Y-89709190D01*
X100068617Y-89711236D01*
X100095331Y-89713581D01*
X100119934Y-89715927D01*
X100138302Y-89717877D01*
X100158609Y-89720030D01*
X100183795Y-89722424D01*
X100210289Y-89724733D01*
X100229319Y-89726245D01*
X100264963Y-89729032D01*
X100307882Y-89732576D01*
X100356928Y-89736776D01*
X100410953Y-89741535D01*
X100468807Y-89746751D01*
X100496019Y-89749244D01*
X100525578Y-89751927D01*
X100560058Y-89755000D01*
X100595941Y-89758152D01*
X100629710Y-89761072D01*
X100643147Y-89762216D01*
X100668320Y-89764473D01*
X100690950Y-89766737D01*
X100709529Y-89768839D01*
X100722552Y-89770608D01*
X100728318Y-89771793D01*
X100731991Y-89773556D01*
X100736942Y-89776776D01*
X100744093Y-89782192D01*
X100754368Y-89790548D01*
X100768691Y-89802584D01*
X100787986Y-89819043D01*
X100800594Y-89829857D01*
X100813700Y-89840983D01*
X100830101Y-89854727D01*
X100846533Y-89868358D01*
X100848617Y-89870074D01*
X100861411Y-89881096D01*
X100871207Y-89890481D01*
X100876473Y-89896723D01*
X100876969Y-89897975D01*
X100873750Y-89899218D01*
X100863878Y-89900363D01*
X100847074Y-89901422D01*
X100823057Y-89902404D01*
X100791549Y-89903319D01*
X100752268Y-89904179D01*
X100704936Y-89904994D01*
X100679110Y-89905375D01*
X100629190Y-89906076D01*
X100573160Y-89906860D01*
X100513378Y-89907696D01*
X100452199Y-89908550D01*
X100391981Y-89909389D01*
X100335079Y-89910180D01*
X100283850Y-89910891D01*
X100279761Y-89910948D01*
X100078319Y-89913739D01*
X100071072Y-89903548D01*
X100065510Y-89895285D01*
X100057052Y-89882214D01*
X100047243Y-89866733D01*
X100044038Y-89861607D01*
X100034830Y-89847246D01*
X100027083Y-89835919D01*
X100022004Y-89829363D01*
X100020952Y-89828446D01*
X100017686Y-89823610D01*
X100017652Y-89823024D01*
X100015522Y-89818198D01*
X100009653Y-89807565D01*
X100000826Y-89792476D01*
X99989824Y-89774282D01*
X99983786Y-89764497D01*
X99971974Y-89745157D01*
X99961956Y-89728132D01*
X99954518Y-89714806D01*
X99950447Y-89706565D01*
X99949919Y-89704804D01*
X99952833Y-89701702D01*
X99962283Y-89701556D01*
X99967911Y-89702259D01*
G37*
X99967911Y-89702259D02*
X99978960Y-89703573D01*
X99996202Y-89705270D01*
X100017385Y-89707141D01*
X100040255Y-89708978D01*
X100043052Y-89709190D01*
X100068617Y-89711236D01*
X100095331Y-89713581D01*
X100119934Y-89715927D01*
X100138302Y-89717877D01*
X100158609Y-89720030D01*
X100183795Y-89722424D01*
X100210289Y-89724733D01*
X100229319Y-89726245D01*
X100264963Y-89729032D01*
X100307882Y-89732576D01*
X100356928Y-89736776D01*
X100410953Y-89741535D01*
X100468807Y-89746751D01*
X100496019Y-89749244D01*
X100525578Y-89751927D01*
X100560058Y-89755000D01*
X100595941Y-89758152D01*
X100629710Y-89761072D01*
X100643147Y-89762216D01*
X100668320Y-89764473D01*
X100690950Y-89766737D01*
X100709529Y-89768839D01*
X100722552Y-89770608D01*
X100728318Y-89771793D01*
X100731991Y-89773556D01*
X100736942Y-89776776D01*
X100744093Y-89782192D01*
X100754368Y-89790548D01*
X100768691Y-89802584D01*
X100787986Y-89819043D01*
X100800594Y-89829857D01*
X100813700Y-89840983D01*
X100830101Y-89854727D01*
X100846533Y-89868358D01*
X100848617Y-89870074D01*
X100861411Y-89881096D01*
X100871207Y-89890481D01*
X100876473Y-89896723D01*
X100876969Y-89897975D01*
X100873750Y-89899218D01*
X100863878Y-89900363D01*
X100847074Y-89901422D01*
X100823057Y-89902404D01*
X100791549Y-89903319D01*
X100752268Y-89904179D01*
X100704936Y-89904994D01*
X100679110Y-89905375D01*
X100629190Y-89906076D01*
X100573160Y-89906860D01*
X100513378Y-89907696D01*
X100452199Y-89908550D01*
X100391981Y-89909389D01*
X100335079Y-89910180D01*
X100283850Y-89910891D01*
X100279761Y-89910948D01*
X100078319Y-89913739D01*
X100071072Y-89903548D01*
X100065510Y-89895285D01*
X100057052Y-89882214D01*
X100047243Y-89866733D01*
X100044038Y-89861607D01*
X100034830Y-89847246D01*
X100027083Y-89835919D01*
X100022004Y-89829363D01*
X100020952Y-89828446D01*
X100017686Y-89823610D01*
X100017652Y-89823024D01*
X100015522Y-89818198D01*
X100009653Y-89807565D01*
X100000826Y-89792476D01*
X99989824Y-89774282D01*
X99983786Y-89764497D01*
X99971974Y-89745157D01*
X99961956Y-89728132D01*
X99954518Y-89714806D01*
X99950447Y-89706565D01*
X99949919Y-89704804D01*
X99952833Y-89701702D01*
X99962283Y-89701556D01*
X99967911Y-89702259D01*
G36*
X103151792Y-89701713D02*
G01*
X103153042Y-89702053D01*
X103151733Y-89706224D01*
X103146630Y-89716074D01*
X103138527Y-89730165D01*
X103128221Y-89747062D01*
X103127336Y-89748475D01*
X103116657Y-89765854D01*
X103107876Y-89780846D01*
X103101872Y-89791898D01*
X103099524Y-89797459D01*
X103099519Y-89797564D01*
X103096604Y-89802102D01*
X103095286Y-89802341D01*
X103091234Y-89805609D01*
X103091052Y-89806940D01*
X103088802Y-89812853D01*
X103083063Y-89822819D01*
X103078874Y-89829165D01*
X103070887Y-89841170D01*
X103060470Y-89857428D01*
X103049545Y-89874932D01*
X103046685Y-89879599D01*
X103026676Y-89912407D01*
X102903289Y-89911593D01*
X102869564Y-89911324D01*
X102829333Y-89910925D01*
X102784555Y-89910420D01*
X102737191Y-89909834D01*
X102689199Y-89909190D01*
X102642540Y-89908513D01*
X102606336Y-89907945D01*
X102563399Y-89907275D01*
X102518495Y-89906628D01*
X102473385Y-89906028D01*
X102429829Y-89905494D01*
X102389590Y-89905050D01*
X102354428Y-89904717D01*
X102327994Y-89904526D01*
X102295096Y-89904282D01*
X102269733Y-89903924D01*
X102250972Y-89903390D01*
X102237881Y-89902617D01*
X102229526Y-89901545D01*
X102224977Y-89900111D01*
X102223301Y-89898254D01*
X102223219Y-89897591D01*
X102225305Y-89891954D01*
X102227076Y-89891241D01*
X102231515Y-89888588D01*
X102241399Y-89881147D01*
X102255789Y-89869687D01*
X102273745Y-89854982D01*
X102294329Y-89837802D01*
X102316601Y-89818920D01*
X102339623Y-89799108D01*
X102347152Y-89792560D01*
X102359211Y-89782702D01*
X102369946Y-89775050D01*
X102375878Y-89771783D01*
X102382744Y-89770413D01*
X102396501Y-89768568D01*
X102415597Y-89766425D01*
X102438482Y-89764159D01*
X102459378Y-89762301D01*
X102491184Y-89759581D01*
X102527136Y-89756453D01*
X102563473Y-89753246D01*
X102596433Y-89750292D01*
X102606336Y-89749391D01*
X102675640Y-89743119D01*
X102737794Y-89737622D01*
X102792478Y-89732926D01*
X102839372Y-89729060D01*
X102877269Y-89726116D01*
X102901970Y-89724143D01*
X102927363Y-89721888D01*
X102950294Y-89719645D01*
X102966169Y-89717883D01*
X102987457Y-89715570D01*
X103012246Y-89713298D01*
X103035581Y-89711518D01*
X103038136Y-89711353D01*
X103061715Y-89709590D01*
X103088092Y-89707192D01*
X103111867Y-89704655D01*
X103113584Y-89704450D01*
X103130430Y-89702665D01*
X103143842Y-89701712D01*
X103151792Y-89701713D01*
G37*
X103151792Y-89701713D02*
X103153042Y-89702053D01*
X103151733Y-89706224D01*
X103146630Y-89716074D01*
X103138527Y-89730165D01*
X103128221Y-89747062D01*
X103127336Y-89748475D01*
X103116657Y-89765854D01*
X103107876Y-89780846D01*
X103101872Y-89791898D01*
X103099524Y-89797459D01*
X103099519Y-89797564D01*
X103096604Y-89802102D01*
X103095286Y-89802341D01*
X103091234Y-89805609D01*
X103091052Y-89806940D01*
X103088802Y-89812853D01*
X103083063Y-89822819D01*
X103078874Y-89829165D01*
X103070887Y-89841170D01*
X103060470Y-89857428D01*
X103049545Y-89874932D01*
X103046685Y-89879599D01*
X103026676Y-89912407D01*
X102903289Y-89911593D01*
X102869564Y-89911324D01*
X102829333Y-89910925D01*
X102784555Y-89910420D01*
X102737191Y-89909834D01*
X102689199Y-89909190D01*
X102642540Y-89908513D01*
X102606336Y-89907945D01*
X102563399Y-89907275D01*
X102518495Y-89906628D01*
X102473385Y-89906028D01*
X102429829Y-89905494D01*
X102389590Y-89905050D01*
X102354428Y-89904717D01*
X102327994Y-89904526D01*
X102295096Y-89904282D01*
X102269733Y-89903924D01*
X102250972Y-89903390D01*
X102237881Y-89902617D01*
X102229526Y-89901545D01*
X102224977Y-89900111D01*
X102223301Y-89898254D01*
X102223219Y-89897591D01*
X102225305Y-89891954D01*
X102227076Y-89891241D01*
X102231515Y-89888588D01*
X102241399Y-89881147D01*
X102255789Y-89869687D01*
X102273745Y-89854982D01*
X102294329Y-89837802D01*
X102316601Y-89818920D01*
X102339623Y-89799108D01*
X102347152Y-89792560D01*
X102359211Y-89782702D01*
X102369946Y-89775050D01*
X102375878Y-89771783D01*
X102382744Y-89770413D01*
X102396501Y-89768568D01*
X102415597Y-89766425D01*
X102438482Y-89764159D01*
X102459378Y-89762301D01*
X102491184Y-89759581D01*
X102527136Y-89756453D01*
X102563473Y-89753246D01*
X102596433Y-89750292D01*
X102606336Y-89749391D01*
X102675640Y-89743119D01*
X102737794Y-89737622D01*
X102792478Y-89732926D01*
X102839372Y-89729060D01*
X102877269Y-89726116D01*
X102901970Y-89724143D01*
X102927363Y-89721888D01*
X102950294Y-89719645D01*
X102966169Y-89717883D01*
X102987457Y-89715570D01*
X103012246Y-89713298D01*
X103035581Y-89711518D01*
X103038136Y-89711353D01*
X103061715Y-89709590D01*
X103088092Y-89707192D01*
X103111867Y-89704655D01*
X103113584Y-89704450D01*
X103130430Y-89702665D01*
X103143842Y-89701712D01*
X103151792Y-89701713D01*
G36*
X99358883Y-88745768D02*
G01*
X99369501Y-88750687D01*
X99385442Y-88758224D01*
X99405561Y-88767834D01*
X99428712Y-88778976D01*
X99436225Y-88782607D01*
X99462779Y-88795430D01*
X99489193Y-88808141D01*
X99513626Y-88819857D01*
X99534237Y-88829695D01*
X99549184Y-88836773D01*
X99549869Y-88837094D01*
X99566575Y-88844984D01*
X99588309Y-88855324D01*
X99612479Y-88866877D01*
X99636491Y-88878406D01*
X99640886Y-88880523D01*
X99669765Y-88894419D01*
X99698078Y-88907994D01*
X99727590Y-88922091D01*
X99760071Y-88937553D01*
X99797289Y-88955225D01*
X99825036Y-88968380D01*
X99846516Y-88978588D01*
X99872136Y-88990807D01*
X99898410Y-89003371D01*
X99918169Y-89012847D01*
X99960934Y-89033363D01*
X100007857Y-89055821D01*
X100055440Y-89078551D01*
X100100183Y-89099880D01*
X100112902Y-89105933D01*
X100131717Y-89114901D01*
X100155239Y-89126138D01*
X100180543Y-89138247D01*
X100204705Y-89149829D01*
X100206036Y-89150467D01*
X100230034Y-89161960D01*
X100255348Y-89174040D01*
X100279054Y-89185314D01*
X100298230Y-89194392D01*
X100299169Y-89194835D01*
X100318312Y-89203901D01*
X100342019Y-89215193D01*
X100367229Y-89227251D01*
X100390186Y-89238279D01*
X100435274Y-89259990D01*
X100473522Y-89278388D01*
X100505709Y-89293847D01*
X100532617Y-89306742D01*
X100555026Y-89317446D01*
X100573717Y-89326333D01*
X100589470Y-89333777D01*
X100597619Y-89337604D01*
X100634183Y-89354825D01*
X100663533Y-89368867D01*
X100686188Y-89379994D01*
X100702667Y-89388473D01*
X100713491Y-89394567D01*
X100719178Y-89398542D01*
X100720385Y-89400284D01*
X100717038Y-89403810D01*
X100707709Y-89402646D01*
X100701335Y-89400385D01*
X100693283Y-89397545D01*
X100679803Y-89393217D01*
X100663599Y-89388265D01*
X100661119Y-89387527D01*
X100643106Y-89382121D01*
X100625830Y-89376825D01*
X100612898Y-89372744D01*
X100612435Y-89372594D01*
X100598687Y-89368291D01*
X100581420Y-89363125D01*
X100570102Y-89359851D01*
X100552176Y-89354567D01*
X100531266Y-89348134D01*
X100515069Y-89342968D01*
X100497812Y-89337453D01*
X100475919Y-89330615D01*
X100452870Y-89323535D01*
X100440986Y-89319937D01*
X100412198Y-89311246D01*
X100382560Y-89302241D01*
X100353698Y-89293422D01*
X100327240Y-89285287D01*
X100304813Y-89278337D01*
X100288044Y-89273071D01*
X100282236Y-89271207D01*
X100269613Y-89267221D01*
X100252470Y-89261958D01*
X100234411Y-89256522D01*
X100233552Y-89256266D01*
X100214176Y-89250430D01*
X100194242Y-89244303D01*
X100178519Y-89239356D01*
X100160588Y-89233740D01*
X100140402Y-89227618D01*
X100129836Y-89224502D01*
X100103900Y-89216833D01*
X100075575Y-89208241D01*
X100048732Y-89199912D01*
X100032469Y-89194732D01*
X100020366Y-89190892D01*
X100001336Y-89184950D01*
X99976552Y-89177270D01*
X99947187Y-89168213D01*
X99914415Y-89158141D01*
X99879409Y-89147417D01*
X99854669Y-89139857D01*
X99834199Y-89133582D01*
X99815834Y-89127899D01*
X99801561Y-89123429D01*
X99793366Y-89120789D01*
X99793286Y-89120762D01*
X99784107Y-89117853D01*
X99769706Y-89113508D01*
X99753005Y-89108608D01*
X99750952Y-89108015D01*
X99732916Y-89102718D01*
X99715623Y-89097479D01*
X99702694Y-89093396D01*
X99702269Y-89093256D01*
X99687603Y-89088513D01*
X99668030Y-89082338D01*
X99645496Y-89075326D01*
X99621948Y-89068075D01*
X99599330Y-89061183D01*
X99579589Y-89055246D01*
X99564670Y-89050861D01*
X99558336Y-89049088D01*
X99547318Y-89045912D01*
X99539430Y-89042319D01*
X99532908Y-89036685D01*
X99525989Y-89027387D01*
X99516912Y-89012801D01*
X99514371Y-89008591D01*
X99502959Y-88989671D01*
X99495039Y-88976646D01*
X99489736Y-88968158D01*
X99486174Y-88962847D01*
X99483478Y-88959356D01*
X99480772Y-88956327D01*
X99480489Y-88956021D01*
X99474528Y-88947681D01*
X99468594Y-88936792D01*
X99462340Y-88924672D01*
X99453642Y-88909434D01*
X99443588Y-88892793D01*
X99433263Y-88876462D01*
X99423753Y-88862155D01*
X99416146Y-88851586D01*
X99411526Y-88846469D01*
X99411247Y-88846313D01*
X99408132Y-88841452D01*
X99408052Y-88840421D01*
X99405898Y-88835120D01*
X99400201Y-88824678D01*
X99392112Y-88810943D01*
X99382780Y-88795758D01*
X99373356Y-88780970D01*
X99364989Y-88768425D01*
X99358829Y-88759969D01*
X99356334Y-88757413D01*
X99353735Y-88753336D01*
X99352988Y-88747225D01*
X99354683Y-88744008D01*
X99354733Y-88744007D01*
X99358883Y-88745768D01*
G37*
X99358883Y-88745768D02*
X99369501Y-88750687D01*
X99385442Y-88758224D01*
X99405561Y-88767834D01*
X99428712Y-88778976D01*
X99436225Y-88782607D01*
X99462779Y-88795430D01*
X99489193Y-88808141D01*
X99513626Y-88819857D01*
X99534237Y-88829695D01*
X99549184Y-88836773D01*
X99549869Y-88837094D01*
X99566575Y-88844984D01*
X99588309Y-88855324D01*
X99612479Y-88866877D01*
X99636491Y-88878406D01*
X99640886Y-88880523D01*
X99669765Y-88894419D01*
X99698078Y-88907994D01*
X99727590Y-88922091D01*
X99760071Y-88937553D01*
X99797289Y-88955225D01*
X99825036Y-88968380D01*
X99846516Y-88978588D01*
X99872136Y-88990807D01*
X99898410Y-89003371D01*
X99918169Y-89012847D01*
X99960934Y-89033363D01*
X100007857Y-89055821D01*
X100055440Y-89078551D01*
X100100183Y-89099880D01*
X100112902Y-89105933D01*
X100131717Y-89114901D01*
X100155239Y-89126138D01*
X100180543Y-89138247D01*
X100204705Y-89149829D01*
X100206036Y-89150467D01*
X100230034Y-89161960D01*
X100255348Y-89174040D01*
X100279054Y-89185314D01*
X100298230Y-89194392D01*
X100299169Y-89194835D01*
X100318312Y-89203901D01*
X100342019Y-89215193D01*
X100367229Y-89227251D01*
X100390186Y-89238279D01*
X100435274Y-89259990D01*
X100473522Y-89278388D01*
X100505709Y-89293847D01*
X100532617Y-89306742D01*
X100555026Y-89317446D01*
X100573717Y-89326333D01*
X100589470Y-89333777D01*
X100597619Y-89337604D01*
X100634183Y-89354825D01*
X100663533Y-89368867D01*
X100686188Y-89379994D01*
X100702667Y-89388473D01*
X100713491Y-89394567D01*
X100719178Y-89398542D01*
X100720385Y-89400284D01*
X100717038Y-89403810D01*
X100707709Y-89402646D01*
X100701335Y-89400385D01*
X100693283Y-89397545D01*
X100679803Y-89393217D01*
X100663599Y-89388265D01*
X100661119Y-89387527D01*
X100643106Y-89382121D01*
X100625830Y-89376825D01*
X100612898Y-89372744D01*
X100612435Y-89372594D01*
X100598687Y-89368291D01*
X100581420Y-89363125D01*
X100570102Y-89359851D01*
X100552176Y-89354567D01*
X100531266Y-89348134D01*
X100515069Y-89342968D01*
X100497812Y-89337453D01*
X100475919Y-89330615D01*
X100452870Y-89323535D01*
X100440986Y-89319937D01*
X100412198Y-89311246D01*
X100382560Y-89302241D01*
X100353698Y-89293422D01*
X100327240Y-89285287D01*
X100304813Y-89278337D01*
X100288044Y-89273071D01*
X100282236Y-89271207D01*
X100269613Y-89267221D01*
X100252470Y-89261958D01*
X100234411Y-89256522D01*
X100233552Y-89256266D01*
X100214176Y-89250430D01*
X100194242Y-89244303D01*
X100178519Y-89239356D01*
X100160588Y-89233740D01*
X100140402Y-89227618D01*
X100129836Y-89224502D01*
X100103900Y-89216833D01*
X100075575Y-89208241D01*
X100048732Y-89199912D01*
X100032469Y-89194732D01*
X100020366Y-89190892D01*
X100001336Y-89184950D01*
X99976552Y-89177270D01*
X99947187Y-89168213D01*
X99914415Y-89158141D01*
X99879409Y-89147417D01*
X99854669Y-89139857D01*
X99834199Y-89133582D01*
X99815834Y-89127899D01*
X99801561Y-89123429D01*
X99793366Y-89120789D01*
X99793286Y-89120762D01*
X99784107Y-89117853D01*
X99769706Y-89113508D01*
X99753005Y-89108608D01*
X99750952Y-89108015D01*
X99732916Y-89102718D01*
X99715623Y-89097479D01*
X99702694Y-89093396D01*
X99702269Y-89093256D01*
X99687603Y-89088513D01*
X99668030Y-89082338D01*
X99645496Y-89075326D01*
X99621948Y-89068075D01*
X99599330Y-89061183D01*
X99579589Y-89055246D01*
X99564670Y-89050861D01*
X99558336Y-89049088D01*
X99547318Y-89045912D01*
X99539430Y-89042319D01*
X99532908Y-89036685D01*
X99525989Y-89027387D01*
X99516912Y-89012801D01*
X99514371Y-89008591D01*
X99502959Y-88989671D01*
X99495039Y-88976646D01*
X99489736Y-88968158D01*
X99486174Y-88962847D01*
X99483478Y-88959356D01*
X99480772Y-88956327D01*
X99480489Y-88956021D01*
X99474528Y-88947681D01*
X99468594Y-88936792D01*
X99462340Y-88924672D01*
X99453642Y-88909434D01*
X99443588Y-88892793D01*
X99433263Y-88876462D01*
X99423753Y-88862155D01*
X99416146Y-88851586D01*
X99411526Y-88846469D01*
X99411247Y-88846313D01*
X99408132Y-88841452D01*
X99408052Y-88840421D01*
X99405898Y-88835120D01*
X99400201Y-88824678D01*
X99392112Y-88810943D01*
X99382780Y-88795758D01*
X99373356Y-88780970D01*
X99364989Y-88768425D01*
X99358829Y-88759969D01*
X99356334Y-88757413D01*
X99353735Y-88753336D01*
X99352988Y-88747225D01*
X99354683Y-88744008D01*
X99354733Y-88744007D01*
X99358883Y-88745768D01*
G36*
X103734706Y-88755467D02*
G01*
X103731912Y-88763246D01*
X103725145Y-88774011D01*
X103724427Y-88774981D01*
X103717014Y-88786309D01*
X103711894Y-88796655D01*
X103711442Y-88797982D01*
X103707733Y-88805372D01*
X103704600Y-88807507D01*
X103701096Y-88810940D01*
X103700652Y-88813857D01*
X103698930Y-88819501D01*
X103697477Y-88820211D01*
X103693893Y-88823616D01*
X103687806Y-88832451D01*
X103681886Y-88842436D01*
X103673268Y-88857294D01*
X103662284Y-88875464D01*
X103651215Y-88893179D01*
X103650505Y-88894291D01*
X103639432Y-88912049D01*
X103628234Y-88930741D01*
X103619240Y-88946479D01*
X103618842Y-88947207D01*
X103609220Y-88963911D01*
X103597698Y-88982622D01*
X103589797Y-88994748D01*
X103581084Y-89008119D01*
X103574169Y-89019535D01*
X103570648Y-89026310D01*
X103564786Y-89036783D01*
X103557037Y-89045221D01*
X103550007Y-89048804D01*
X103549846Y-89048807D01*
X103544145Y-89050029D01*
X103532039Y-89053373D01*
X103515182Y-89058363D01*
X103495226Y-89064518D01*
X103490462Y-89066019D01*
X103468370Y-89072983D01*
X103447400Y-89079546D01*
X103429796Y-89085009D01*
X103417800Y-89088673D01*
X103417019Y-89088906D01*
X103401119Y-89093669D01*
X103383020Y-89099124D01*
X103375744Y-89101328D01*
X103328886Y-89115461D01*
X103291077Y-89126750D01*
X103279261Y-89130319D01*
X103260459Y-89136070D01*
X103235768Y-89143664D01*
X103206286Y-89152762D01*
X103173108Y-89163027D01*
X103137333Y-89174119D01*
X103100056Y-89185699D01*
X103084702Y-89190475D01*
X103059747Y-89198202D01*
X103031735Y-89206814D01*
X103005116Y-89214944D01*
X102993686Y-89218412D01*
X102969621Y-89225734D01*
X102943001Y-89233899D01*
X102918200Y-89241566D01*
X102909019Y-89244425D01*
X102889931Y-89250367D01*
X102872223Y-89255836D01*
X102858559Y-89260013D01*
X102853986Y-89261386D01*
X102839656Y-89265723D01*
X102824093Y-89270556D01*
X102822236Y-89271142D01*
X102807517Y-89275724D01*
X102790426Y-89280935D01*
X102784136Y-89282823D01*
X102768264Y-89287609D01*
X102745459Y-89294557D01*
X102716870Y-89303313D01*
X102683649Y-89313524D01*
X102646946Y-89324837D01*
X102607911Y-89336899D01*
X102606336Y-89337387D01*
X102583852Y-89344338D01*
X102562256Y-89351005D01*
X102543870Y-89356671D01*
X102531019Y-89360619D01*
X102530136Y-89360889D01*
X102513739Y-89365960D01*
X102497379Y-89371105D01*
X102492036Y-89372811D01*
X102479389Y-89376732D01*
X102462215Y-89381868D01*
X102444132Y-89387139D01*
X102443352Y-89387362D01*
X102426718Y-89392281D01*
X102412189Y-89396841D01*
X102402609Y-89400147D01*
X102401878Y-89400436D01*
X102390224Y-89403873D01*
X102382189Y-89403754D01*
X102379852Y-89400989D01*
X102383434Y-89397839D01*
X102393066Y-89392151D01*
X102407082Y-89384864D01*
X102416894Y-89380119D01*
X102430656Y-89373620D01*
X102446790Y-89365971D01*
X102466078Y-89356798D01*
X102489304Y-89345728D01*
X102517253Y-89332386D01*
X102550707Y-89316400D01*
X102590449Y-89297396D01*
X102623269Y-89281695D01*
X102639832Y-89273760D01*
X102661901Y-89263172D01*
X102687356Y-89250949D01*
X102714073Y-89238110D01*
X102734881Y-89228104D01*
X102757717Y-89217149D01*
X102777794Y-89207574D01*
X102793924Y-89199942D01*
X102804918Y-89194816D01*
X102809586Y-89192756D01*
X102809657Y-89192741D01*
X102813653Y-89190973D01*
X102824206Y-89186007D01*
X102840256Y-89178350D01*
X102860746Y-89168508D01*
X102884618Y-89156985D01*
X102902569Y-89148291D01*
X102928167Y-89135901D01*
X102951119Y-89124841D01*
X102970367Y-89115617D01*
X102984851Y-89108734D01*
X102993514Y-89104699D01*
X102995544Y-89103841D01*
X102999580Y-89102087D01*
X103010081Y-89097192D01*
X103025893Y-89089702D01*
X103045860Y-89080166D01*
X103068829Y-89069131D01*
X103074653Y-89066323D01*
X103101366Y-89053455D01*
X103128368Y-89040475D01*
X103153658Y-89028344D01*
X103175235Y-89018022D01*
X103190536Y-89010735D01*
X103205283Y-89003726D01*
X103226575Y-88993588D01*
X103253317Y-88980843D01*
X103284415Y-88966012D01*
X103318775Y-88949619D01*
X103355302Y-88932184D01*
X103392902Y-88914231D01*
X103430481Y-88896281D01*
X103466945Y-88878856D01*
X103467819Y-88878438D01*
X103484878Y-88870272D01*
X103507077Y-88859630D01*
X103531925Y-88847706D01*
X103556934Y-88835694D01*
X103565186Y-88831728D01*
X103606950Y-88811681D01*
X103643430Y-88794235D01*
X103674235Y-88779573D01*
X103698973Y-88767882D01*
X103717254Y-88759346D01*
X103728686Y-88754149D01*
X103732855Y-88752474D01*
X103734706Y-88755467D01*
G37*
X103734706Y-88755467D02*
X103731912Y-88763246D01*
X103725145Y-88774011D01*
X103724427Y-88774981D01*
X103717014Y-88786309D01*
X103711894Y-88796655D01*
X103711442Y-88797982D01*
X103707733Y-88805372D01*
X103704600Y-88807507D01*
X103701096Y-88810940D01*
X103700652Y-88813857D01*
X103698930Y-88819501D01*
X103697477Y-88820211D01*
X103693893Y-88823616D01*
X103687806Y-88832451D01*
X103681886Y-88842436D01*
X103673268Y-88857294D01*
X103662284Y-88875464D01*
X103651215Y-88893179D01*
X103650505Y-88894291D01*
X103639432Y-88912049D01*
X103628234Y-88930741D01*
X103619240Y-88946479D01*
X103618842Y-88947207D01*
X103609220Y-88963911D01*
X103597698Y-88982622D01*
X103589797Y-88994748D01*
X103581084Y-89008119D01*
X103574169Y-89019535D01*
X103570648Y-89026310D01*
X103564786Y-89036783D01*
X103557037Y-89045221D01*
X103550007Y-89048804D01*
X103549846Y-89048807D01*
X103544145Y-89050029D01*
X103532039Y-89053373D01*
X103515182Y-89058363D01*
X103495226Y-89064518D01*
X103490462Y-89066019D01*
X103468370Y-89072983D01*
X103447400Y-89079546D01*
X103429796Y-89085009D01*
X103417800Y-89088673D01*
X103417019Y-89088906D01*
X103401119Y-89093669D01*
X103383020Y-89099124D01*
X103375744Y-89101328D01*
X103328886Y-89115461D01*
X103291077Y-89126750D01*
X103279261Y-89130319D01*
X103260459Y-89136070D01*
X103235768Y-89143664D01*
X103206286Y-89152762D01*
X103173108Y-89163027D01*
X103137333Y-89174119D01*
X103100056Y-89185699D01*
X103084702Y-89190475D01*
X103059747Y-89198202D01*
X103031735Y-89206814D01*
X103005116Y-89214944D01*
X102993686Y-89218412D01*
X102969621Y-89225734D01*
X102943001Y-89233899D01*
X102918200Y-89241566D01*
X102909019Y-89244425D01*
X102889931Y-89250367D01*
X102872223Y-89255836D01*
X102858559Y-89260013D01*
X102853986Y-89261386D01*
X102839656Y-89265723D01*
X102824093Y-89270556D01*
X102822236Y-89271142D01*
X102807517Y-89275724D01*
X102790426Y-89280935D01*
X102784136Y-89282823D01*
X102768264Y-89287609D01*
X102745459Y-89294557D01*
X102716870Y-89303313D01*
X102683649Y-89313524D01*
X102646946Y-89324837D01*
X102607911Y-89336899D01*
X102606336Y-89337387D01*
X102583852Y-89344338D01*
X102562256Y-89351005D01*
X102543870Y-89356671D01*
X102531019Y-89360619D01*
X102530136Y-89360889D01*
X102513739Y-89365960D01*
X102497379Y-89371105D01*
X102492036Y-89372811D01*
X102479389Y-89376732D01*
X102462215Y-89381868D01*
X102444132Y-89387139D01*
X102443352Y-89387362D01*
X102426718Y-89392281D01*
X102412189Y-89396841D01*
X102402609Y-89400147D01*
X102401878Y-89400436D01*
X102390224Y-89403873D01*
X102382189Y-89403754D01*
X102379852Y-89400989D01*
X102383434Y-89397839D01*
X102393066Y-89392151D01*
X102407082Y-89384864D01*
X102416894Y-89380119D01*
X102430656Y-89373620D01*
X102446790Y-89365971D01*
X102466078Y-89356798D01*
X102489304Y-89345728D01*
X102517253Y-89332386D01*
X102550707Y-89316400D01*
X102590449Y-89297396D01*
X102623269Y-89281695D01*
X102639832Y-89273760D01*
X102661901Y-89263172D01*
X102687356Y-89250949D01*
X102714073Y-89238110D01*
X102734881Y-89228104D01*
X102757717Y-89217149D01*
X102777794Y-89207574D01*
X102793924Y-89199942D01*
X102804918Y-89194816D01*
X102809586Y-89192756D01*
X102809657Y-89192741D01*
X102813653Y-89190973D01*
X102824206Y-89186007D01*
X102840256Y-89178350D01*
X102860746Y-89168508D01*
X102884618Y-89156985D01*
X102902569Y-89148291D01*
X102928167Y-89135901D01*
X102951119Y-89124841D01*
X102970367Y-89115617D01*
X102984851Y-89108734D01*
X102993514Y-89104699D01*
X102995544Y-89103841D01*
X102999580Y-89102087D01*
X103010081Y-89097192D01*
X103025893Y-89089702D01*
X103045860Y-89080166D01*
X103068829Y-89069131D01*
X103074653Y-89066323D01*
X103101366Y-89053455D01*
X103128368Y-89040475D01*
X103153658Y-89028344D01*
X103175235Y-89018022D01*
X103190536Y-89010735D01*
X103205283Y-89003726D01*
X103226575Y-88993588D01*
X103253317Y-88980843D01*
X103284415Y-88966012D01*
X103318775Y-88949619D01*
X103355302Y-88932184D01*
X103392902Y-88914231D01*
X103430481Y-88896281D01*
X103466945Y-88878856D01*
X103467819Y-88878438D01*
X103484878Y-88870272D01*
X103507077Y-88859630D01*
X103531925Y-88847706D01*
X103556934Y-88835694D01*
X103565186Y-88831728D01*
X103606950Y-88811681D01*
X103643430Y-88794235D01*
X103674235Y-88779573D01*
X103698973Y-88767882D01*
X103717254Y-88759346D01*
X103728686Y-88754149D01*
X103732855Y-88752474D01*
X103734706Y-88755467D01*
D12*
%TO.C,C2*%
X109473797Y-89052400D02*
X110235797Y-89052400D01*
X107247491Y-88125402D02*
X106722109Y-88125402D01*
X109854797Y-89433400D02*
X109854797Y-88671400D01*
X106722109Y-89979398D02*
X107247491Y-89979398D01*
D13*
%TO.C,C1*%
X108612800Y-78275600D02*
X108912800Y-78275600D01*
X108612800Y-77375600D02*
X108912800Y-77375600D01*
D12*
%TO.C,D2*%
X114452400Y-89217500D02*
X114452400Y-88991440D01*
X111099600Y-88991440D02*
X111099600Y-89217500D01*
X112410240Y-90596720D02*
X112402620Y-89679780D01*
X113223040Y-89700100D02*
X113223040Y-90561160D01*
X112402620Y-89679780D02*
X113210340Y-90124280D01*
X113215420Y-90139520D02*
X113644680Y-90136980D01*
X112374680Y-90111580D02*
X111899700Y-90111580D01*
X113210340Y-90124280D02*
X112425480Y-90617040D01*
X111099600Y-89217500D02*
X114452400Y-89217500D01*
X114452400Y-87058500D02*
X111099600Y-87058500D01*
X111099600Y-87058500D02*
X111099600Y-87284560D01*
X114452400Y-87284560D02*
X114452400Y-87058500D01*
D13*
%TO.C,P2*%
X115445100Y-76860400D02*
X115445100Y-79400400D01*
X126105100Y-76860400D02*
X115445100Y-76860400D01*
X115445100Y-79400400D02*
X126105100Y-79400400D01*
X126105100Y-79400400D02*
X126105100Y-76860400D01*
D14*
X114915100Y-78180400D02*
G75*
G03*
X114915100Y-78180400I-100000J0D01*
G01*
%TD*%
M02*
