%TF.GenerationSoftware,KiCad,Pcbnew,5.1.10*%
%TF.CreationDate,2021-11-16T14:47:03-07:00*%
%TF.ProjectId,L0003-Wheatstone-Bridge,4c303030-332d-4576-9865-617473746f6e,rev?*%
%TF.SameCoordinates,Original*%
%TF.FileFunction,Legend,Top*%
%TF.FilePolarity,Positive*%
%FSLAX46Y46*%
G04 Gerber Fmt 4.6, Leading zero omitted, Abs format (unit mm)*
G04 Created by KiCad (PCBNEW 5.1.10) date 2021-11-16 14:47:03*
%MOMM*%
%LPD*%
G01*
G04 APERTURE LIST*
%ADD10C,0.152400*%
%ADD11C,0.203200*%
%ADD12C,0.120000*%
%ADD13C,0.010000*%
%ADD14C,0.127000*%
%ADD15C,0.200000*%
%ADD16C,0.150000*%
%ADD17C,0.076200*%
G04 APERTURE END LIST*
D10*
X100921457Y-94324714D02*
X100558600Y-94324714D01*
X100558600Y-93562714D01*
X101320600Y-93562714D02*
X101393171Y-93562714D01*
X101465742Y-93599000D01*
X101502028Y-93635285D01*
X101538314Y-93707857D01*
X101574600Y-93853000D01*
X101574600Y-94034428D01*
X101538314Y-94179571D01*
X101502028Y-94252142D01*
X101465742Y-94288428D01*
X101393171Y-94324714D01*
X101320600Y-94324714D01*
X101248028Y-94288428D01*
X101211742Y-94252142D01*
X101175457Y-94179571D01*
X101139171Y-94034428D01*
X101139171Y-93853000D01*
X101175457Y-93707857D01*
X101211742Y-93635285D01*
X101248028Y-93599000D01*
X101320600Y-93562714D01*
X102046314Y-93562714D02*
X102118885Y-93562714D01*
X102191457Y-93599000D01*
X102227742Y-93635285D01*
X102264028Y-93707857D01*
X102300314Y-93853000D01*
X102300314Y-94034428D01*
X102264028Y-94179571D01*
X102227742Y-94252142D01*
X102191457Y-94288428D01*
X102118885Y-94324714D01*
X102046314Y-94324714D01*
X101973742Y-94288428D01*
X101937457Y-94252142D01*
X101901171Y-94179571D01*
X101864885Y-94034428D01*
X101864885Y-93853000D01*
X101901171Y-93707857D01*
X101937457Y-93635285D01*
X101973742Y-93599000D01*
X102046314Y-93562714D01*
X102772028Y-93562714D02*
X102844600Y-93562714D01*
X102917171Y-93599000D01*
X102953457Y-93635285D01*
X102989742Y-93707857D01*
X103026028Y-93853000D01*
X103026028Y-94034428D01*
X102989742Y-94179571D01*
X102953457Y-94252142D01*
X102917171Y-94288428D01*
X102844600Y-94324714D01*
X102772028Y-94324714D01*
X102699457Y-94288428D01*
X102663171Y-94252142D01*
X102626885Y-94179571D01*
X102590600Y-94034428D01*
X102590600Y-93853000D01*
X102626885Y-93707857D01*
X102663171Y-93635285D01*
X102699457Y-93599000D01*
X102772028Y-93562714D01*
X103280028Y-93562714D02*
X103751742Y-93562714D01*
X103497742Y-93853000D01*
X103606600Y-93853000D01*
X103679171Y-93889285D01*
X103715457Y-93925571D01*
X103751742Y-93998142D01*
X103751742Y-94179571D01*
X103715457Y-94252142D01*
X103679171Y-94288428D01*
X103606600Y-94324714D01*
X103388885Y-94324714D01*
X103316314Y-94288428D01*
X103280028Y-94252142D01*
X105094314Y-94324714D02*
X104840314Y-93961857D01*
X104658885Y-94324714D02*
X104658885Y-93562714D01*
X104949171Y-93562714D01*
X105021742Y-93599000D01*
X105058028Y-93635285D01*
X105094314Y-93707857D01*
X105094314Y-93816714D01*
X105058028Y-93889285D01*
X105021742Y-93925571D01*
X104949171Y-93961857D01*
X104658885Y-93961857D01*
X105711171Y-94288428D02*
X105638600Y-94324714D01*
X105493457Y-94324714D01*
X105420885Y-94288428D01*
X105384600Y-94215857D01*
X105384600Y-93925571D01*
X105420885Y-93853000D01*
X105493457Y-93816714D01*
X105638600Y-93816714D01*
X105711171Y-93853000D01*
X105747457Y-93925571D01*
X105747457Y-93998142D01*
X105384600Y-94070714D01*
X106001457Y-93816714D02*
X106182885Y-94324714D01*
X106364314Y-93816714D01*
X107634314Y-94324714D02*
X107198885Y-94324714D01*
X107416600Y-94324714D02*
X107416600Y-93562714D01*
X107344028Y-93671571D01*
X107271457Y-93744142D01*
X107198885Y-93780428D01*
X107960885Y-94252142D02*
X107997171Y-94288428D01*
X107960885Y-94324714D01*
X107924600Y-94288428D01*
X107960885Y-94252142D01*
X107960885Y-94324714D01*
X108468885Y-93562714D02*
X108541457Y-93562714D01*
X108614028Y-93599000D01*
X108650314Y-93635285D01*
X108686600Y-93707857D01*
X108722885Y-93853000D01*
X108722885Y-94034428D01*
X108686600Y-94179571D01*
X108650314Y-94252142D01*
X108614028Y-94288428D01*
X108541457Y-94324714D01*
X108468885Y-94324714D01*
X108396314Y-94288428D01*
X108360028Y-94252142D01*
X108323742Y-94179571D01*
X108287457Y-94034428D01*
X108287457Y-93853000D01*
X108323742Y-93707857D01*
X108360028Y-93635285D01*
X108396314Y-93599000D01*
X108468885Y-93562714D01*
D11*
X127137160Y-81906775D02*
X127088779Y-82003537D01*
X127088779Y-82148680D01*
X127137160Y-82293822D01*
X127233921Y-82390584D01*
X127330683Y-82438965D01*
X127524207Y-82487346D01*
X127669350Y-82487346D01*
X127862874Y-82438965D01*
X127959636Y-82390584D01*
X128056398Y-82293822D01*
X128104779Y-82148680D01*
X128104779Y-82051918D01*
X128056398Y-81906775D01*
X128008017Y-81858394D01*
X127669350Y-81858394D01*
X127669350Y-82051918D01*
X128104779Y-81422965D02*
X127088779Y-81422965D01*
X128104779Y-80842394D01*
X127088779Y-80842394D01*
X128104779Y-80358584D02*
X127088779Y-80358584D01*
X127088779Y-80116680D01*
X127137160Y-79971537D01*
X127233921Y-79874775D01*
X127330683Y-79826394D01*
X127524207Y-79778013D01*
X127669350Y-79778013D01*
X127862874Y-79826394D01*
X127959636Y-79874775D01*
X128056398Y-79971537D01*
X128104779Y-80116680D01*
X128104779Y-80358584D01*
X124411619Y-81541499D02*
X125427619Y-81202832D01*
X124411619Y-80864165D01*
X125040571Y-80525499D02*
X125040571Y-79751403D01*
X121764939Y-81577059D02*
X122780939Y-81238392D01*
X121764939Y-80899725D01*
X122393891Y-80561059D02*
X122393891Y-79786963D01*
X122780939Y-80174011D02*
X122006843Y-80174011D01*
X119372259Y-80889323D02*
X119372259Y-81373133D01*
X119856068Y-81421514D01*
X119807687Y-81373133D01*
X119759306Y-81276371D01*
X119759306Y-81034466D01*
X119807687Y-80937704D01*
X119856068Y-80889323D01*
X119952830Y-80840942D01*
X120194735Y-80840942D01*
X120291497Y-80889323D01*
X120339878Y-80937704D01*
X120388259Y-81034466D01*
X120388259Y-81276371D01*
X120339878Y-81373133D01*
X120291497Y-81421514D01*
X119372259Y-80550657D02*
X120388259Y-80211990D01*
X119372259Y-79873323D01*
D12*
%TO.C,U1*%
X105996999Y-83003000D02*
X112951001Y-83003000D01*
X112951001Y-83003000D02*
X112951001Y-79049000D01*
X112951001Y-79049000D02*
X105996999Y-79049000D01*
X105996999Y-79049000D02*
X105996999Y-83003000D01*
X104981000Y-84676000D02*
G75*
G03*
X104981000Y-84676000I-127000J0D01*
G01*
D13*
%TO.C,LOGO1*%
G36*
X105896174Y-89449093D02*
G01*
X105893380Y-89456872D01*
X105886613Y-89467637D01*
X105885895Y-89468607D01*
X105878482Y-89479935D01*
X105873362Y-89490281D01*
X105872910Y-89491608D01*
X105869201Y-89498998D01*
X105866068Y-89501133D01*
X105862564Y-89504566D01*
X105862120Y-89507483D01*
X105860398Y-89513127D01*
X105858945Y-89513837D01*
X105855361Y-89517242D01*
X105849274Y-89526077D01*
X105843354Y-89536062D01*
X105834736Y-89550920D01*
X105823752Y-89569090D01*
X105812683Y-89586805D01*
X105811973Y-89587917D01*
X105800900Y-89605675D01*
X105789702Y-89624367D01*
X105780708Y-89640105D01*
X105780310Y-89640833D01*
X105770688Y-89657537D01*
X105759166Y-89676248D01*
X105751265Y-89688374D01*
X105742552Y-89701745D01*
X105735637Y-89713161D01*
X105732116Y-89719936D01*
X105726254Y-89730409D01*
X105718505Y-89738847D01*
X105711475Y-89742430D01*
X105711314Y-89742433D01*
X105705613Y-89743655D01*
X105693507Y-89746999D01*
X105676650Y-89751989D01*
X105656694Y-89758144D01*
X105651930Y-89759645D01*
X105629838Y-89766609D01*
X105608868Y-89773172D01*
X105591264Y-89778635D01*
X105579268Y-89782299D01*
X105578487Y-89782532D01*
X105562587Y-89787295D01*
X105544488Y-89792750D01*
X105537212Y-89794954D01*
X105490354Y-89809087D01*
X105452545Y-89820376D01*
X105440729Y-89823945D01*
X105421927Y-89829696D01*
X105397236Y-89837290D01*
X105367754Y-89846388D01*
X105334576Y-89856653D01*
X105298801Y-89867745D01*
X105261524Y-89879325D01*
X105246170Y-89884101D01*
X105221215Y-89891828D01*
X105193203Y-89900440D01*
X105166584Y-89908570D01*
X105155154Y-89912038D01*
X105131089Y-89919360D01*
X105104469Y-89927525D01*
X105079668Y-89935192D01*
X105070487Y-89938051D01*
X105051399Y-89943993D01*
X105033691Y-89949462D01*
X105020027Y-89953639D01*
X105015454Y-89955012D01*
X105001124Y-89959349D01*
X104985561Y-89964182D01*
X104983704Y-89964768D01*
X104968985Y-89969350D01*
X104951894Y-89974561D01*
X104945604Y-89976449D01*
X104929732Y-89981235D01*
X104906927Y-89988183D01*
X104878338Y-89996939D01*
X104845117Y-90007150D01*
X104808414Y-90018463D01*
X104769379Y-90030525D01*
X104767804Y-90031013D01*
X104745320Y-90037964D01*
X104723724Y-90044631D01*
X104705338Y-90050297D01*
X104692487Y-90054245D01*
X104691604Y-90054515D01*
X104675207Y-90059586D01*
X104658847Y-90064731D01*
X104653504Y-90066437D01*
X104640857Y-90070358D01*
X104623683Y-90075494D01*
X104605600Y-90080765D01*
X104604820Y-90080988D01*
X104588186Y-90085907D01*
X104573657Y-90090467D01*
X104564077Y-90093773D01*
X104563346Y-90094062D01*
X104551692Y-90097499D01*
X104543657Y-90097380D01*
X104541320Y-90094615D01*
X104544902Y-90091465D01*
X104554534Y-90085777D01*
X104568550Y-90078490D01*
X104578362Y-90073745D01*
X104592124Y-90067246D01*
X104608258Y-90059597D01*
X104627546Y-90050424D01*
X104650772Y-90039354D01*
X104678721Y-90026012D01*
X104712175Y-90010026D01*
X104751917Y-89991022D01*
X104784737Y-89975321D01*
X104801300Y-89967386D01*
X104823369Y-89956798D01*
X104848824Y-89944575D01*
X104875541Y-89931736D01*
X104896349Y-89921730D01*
X104919185Y-89910775D01*
X104939262Y-89901200D01*
X104955392Y-89893568D01*
X104966386Y-89888442D01*
X104971054Y-89886382D01*
X104971125Y-89886367D01*
X104975121Y-89884599D01*
X104985674Y-89879633D01*
X105001724Y-89871976D01*
X105022214Y-89862134D01*
X105046086Y-89850611D01*
X105064037Y-89841917D01*
X105089635Y-89829527D01*
X105112587Y-89818467D01*
X105131835Y-89809243D01*
X105146319Y-89802360D01*
X105154982Y-89798325D01*
X105157012Y-89797467D01*
X105161048Y-89795713D01*
X105171549Y-89790818D01*
X105187361Y-89783328D01*
X105207328Y-89773792D01*
X105230297Y-89762757D01*
X105236121Y-89759949D01*
X105262834Y-89747081D01*
X105289836Y-89734101D01*
X105315126Y-89721970D01*
X105336703Y-89711648D01*
X105352004Y-89704361D01*
X105366751Y-89697352D01*
X105388043Y-89687214D01*
X105414785Y-89674469D01*
X105445883Y-89659638D01*
X105480243Y-89643245D01*
X105516770Y-89625810D01*
X105554370Y-89607857D01*
X105591949Y-89589907D01*
X105628413Y-89572482D01*
X105629287Y-89572064D01*
X105646346Y-89563898D01*
X105668545Y-89553256D01*
X105693393Y-89541332D01*
X105718402Y-89529320D01*
X105726654Y-89525354D01*
X105768418Y-89505307D01*
X105804898Y-89487861D01*
X105835703Y-89473199D01*
X105860441Y-89461508D01*
X105878722Y-89452972D01*
X105890154Y-89447775D01*
X105894323Y-89446100D01*
X105896174Y-89449093D01*
G37*
X105896174Y-89449093D02*
X105893380Y-89456872D01*
X105886613Y-89467637D01*
X105885895Y-89468607D01*
X105878482Y-89479935D01*
X105873362Y-89490281D01*
X105872910Y-89491608D01*
X105869201Y-89498998D01*
X105866068Y-89501133D01*
X105862564Y-89504566D01*
X105862120Y-89507483D01*
X105860398Y-89513127D01*
X105858945Y-89513837D01*
X105855361Y-89517242D01*
X105849274Y-89526077D01*
X105843354Y-89536062D01*
X105834736Y-89550920D01*
X105823752Y-89569090D01*
X105812683Y-89586805D01*
X105811973Y-89587917D01*
X105800900Y-89605675D01*
X105789702Y-89624367D01*
X105780708Y-89640105D01*
X105780310Y-89640833D01*
X105770688Y-89657537D01*
X105759166Y-89676248D01*
X105751265Y-89688374D01*
X105742552Y-89701745D01*
X105735637Y-89713161D01*
X105732116Y-89719936D01*
X105726254Y-89730409D01*
X105718505Y-89738847D01*
X105711475Y-89742430D01*
X105711314Y-89742433D01*
X105705613Y-89743655D01*
X105693507Y-89746999D01*
X105676650Y-89751989D01*
X105656694Y-89758144D01*
X105651930Y-89759645D01*
X105629838Y-89766609D01*
X105608868Y-89773172D01*
X105591264Y-89778635D01*
X105579268Y-89782299D01*
X105578487Y-89782532D01*
X105562587Y-89787295D01*
X105544488Y-89792750D01*
X105537212Y-89794954D01*
X105490354Y-89809087D01*
X105452545Y-89820376D01*
X105440729Y-89823945D01*
X105421927Y-89829696D01*
X105397236Y-89837290D01*
X105367754Y-89846388D01*
X105334576Y-89856653D01*
X105298801Y-89867745D01*
X105261524Y-89879325D01*
X105246170Y-89884101D01*
X105221215Y-89891828D01*
X105193203Y-89900440D01*
X105166584Y-89908570D01*
X105155154Y-89912038D01*
X105131089Y-89919360D01*
X105104469Y-89927525D01*
X105079668Y-89935192D01*
X105070487Y-89938051D01*
X105051399Y-89943993D01*
X105033691Y-89949462D01*
X105020027Y-89953639D01*
X105015454Y-89955012D01*
X105001124Y-89959349D01*
X104985561Y-89964182D01*
X104983704Y-89964768D01*
X104968985Y-89969350D01*
X104951894Y-89974561D01*
X104945604Y-89976449D01*
X104929732Y-89981235D01*
X104906927Y-89988183D01*
X104878338Y-89996939D01*
X104845117Y-90007150D01*
X104808414Y-90018463D01*
X104769379Y-90030525D01*
X104767804Y-90031013D01*
X104745320Y-90037964D01*
X104723724Y-90044631D01*
X104705338Y-90050297D01*
X104692487Y-90054245D01*
X104691604Y-90054515D01*
X104675207Y-90059586D01*
X104658847Y-90064731D01*
X104653504Y-90066437D01*
X104640857Y-90070358D01*
X104623683Y-90075494D01*
X104605600Y-90080765D01*
X104604820Y-90080988D01*
X104588186Y-90085907D01*
X104573657Y-90090467D01*
X104564077Y-90093773D01*
X104563346Y-90094062D01*
X104551692Y-90097499D01*
X104543657Y-90097380D01*
X104541320Y-90094615D01*
X104544902Y-90091465D01*
X104554534Y-90085777D01*
X104568550Y-90078490D01*
X104578362Y-90073745D01*
X104592124Y-90067246D01*
X104608258Y-90059597D01*
X104627546Y-90050424D01*
X104650772Y-90039354D01*
X104678721Y-90026012D01*
X104712175Y-90010026D01*
X104751917Y-89991022D01*
X104784737Y-89975321D01*
X104801300Y-89967386D01*
X104823369Y-89956798D01*
X104848824Y-89944575D01*
X104875541Y-89931736D01*
X104896349Y-89921730D01*
X104919185Y-89910775D01*
X104939262Y-89901200D01*
X104955392Y-89893568D01*
X104966386Y-89888442D01*
X104971054Y-89886382D01*
X104971125Y-89886367D01*
X104975121Y-89884599D01*
X104985674Y-89879633D01*
X105001724Y-89871976D01*
X105022214Y-89862134D01*
X105046086Y-89850611D01*
X105064037Y-89841917D01*
X105089635Y-89829527D01*
X105112587Y-89818467D01*
X105131835Y-89809243D01*
X105146319Y-89802360D01*
X105154982Y-89798325D01*
X105157012Y-89797467D01*
X105161048Y-89795713D01*
X105171549Y-89790818D01*
X105187361Y-89783328D01*
X105207328Y-89773792D01*
X105230297Y-89762757D01*
X105236121Y-89759949D01*
X105262834Y-89747081D01*
X105289836Y-89734101D01*
X105315126Y-89721970D01*
X105336703Y-89711648D01*
X105352004Y-89704361D01*
X105366751Y-89697352D01*
X105388043Y-89687214D01*
X105414785Y-89674469D01*
X105445883Y-89659638D01*
X105480243Y-89643245D01*
X105516770Y-89625810D01*
X105554370Y-89607857D01*
X105591949Y-89589907D01*
X105628413Y-89572482D01*
X105629287Y-89572064D01*
X105646346Y-89563898D01*
X105668545Y-89553256D01*
X105693393Y-89541332D01*
X105718402Y-89529320D01*
X105726654Y-89525354D01*
X105768418Y-89505307D01*
X105804898Y-89487861D01*
X105835703Y-89473199D01*
X105860441Y-89461508D01*
X105878722Y-89452972D01*
X105890154Y-89447775D01*
X105894323Y-89446100D01*
X105896174Y-89449093D01*
G36*
X101520351Y-89439394D02*
G01*
X101530969Y-89444313D01*
X101546910Y-89451850D01*
X101567029Y-89461460D01*
X101590180Y-89472602D01*
X101597693Y-89476233D01*
X101624247Y-89489056D01*
X101650661Y-89501767D01*
X101675094Y-89513483D01*
X101695705Y-89523321D01*
X101710652Y-89530399D01*
X101711337Y-89530720D01*
X101728043Y-89538610D01*
X101749777Y-89548950D01*
X101773947Y-89560503D01*
X101797959Y-89572032D01*
X101802354Y-89574149D01*
X101831233Y-89588045D01*
X101859546Y-89601620D01*
X101889058Y-89615717D01*
X101921539Y-89631179D01*
X101958757Y-89648851D01*
X101986504Y-89662006D01*
X102007984Y-89672214D01*
X102033604Y-89684433D01*
X102059878Y-89696997D01*
X102079637Y-89706473D01*
X102122402Y-89726989D01*
X102169325Y-89749447D01*
X102216908Y-89772177D01*
X102261651Y-89793506D01*
X102274370Y-89799559D01*
X102293185Y-89808527D01*
X102316707Y-89819764D01*
X102342011Y-89831873D01*
X102366173Y-89843455D01*
X102367504Y-89844093D01*
X102391502Y-89855586D01*
X102416816Y-89867666D01*
X102440522Y-89878940D01*
X102459698Y-89888018D01*
X102460637Y-89888461D01*
X102479780Y-89897527D01*
X102503487Y-89908819D01*
X102528697Y-89920877D01*
X102551654Y-89931905D01*
X102596742Y-89953616D01*
X102634990Y-89972014D01*
X102667177Y-89987473D01*
X102694085Y-90000368D01*
X102716494Y-90011072D01*
X102735185Y-90019959D01*
X102750938Y-90027403D01*
X102759087Y-90031230D01*
X102795651Y-90048451D01*
X102825001Y-90062493D01*
X102847656Y-90073620D01*
X102864135Y-90082099D01*
X102874959Y-90088193D01*
X102880646Y-90092168D01*
X102881853Y-90093910D01*
X102878506Y-90097436D01*
X102869177Y-90096272D01*
X102862803Y-90094011D01*
X102854751Y-90091171D01*
X102841271Y-90086843D01*
X102825067Y-90081891D01*
X102822587Y-90081153D01*
X102804574Y-90075747D01*
X102787298Y-90070451D01*
X102774366Y-90066370D01*
X102773903Y-90066220D01*
X102760155Y-90061917D01*
X102742888Y-90056751D01*
X102731570Y-90053477D01*
X102713644Y-90048193D01*
X102692734Y-90041760D01*
X102676537Y-90036594D01*
X102659280Y-90031079D01*
X102637387Y-90024241D01*
X102614338Y-90017161D01*
X102602454Y-90013563D01*
X102573666Y-90004872D01*
X102544028Y-89995867D01*
X102515166Y-89987048D01*
X102488708Y-89978913D01*
X102466281Y-89971963D01*
X102449512Y-89966697D01*
X102443704Y-89964833D01*
X102431081Y-89960847D01*
X102413938Y-89955584D01*
X102395879Y-89950148D01*
X102395020Y-89949892D01*
X102375644Y-89944056D01*
X102355710Y-89937929D01*
X102339987Y-89932982D01*
X102322056Y-89927366D01*
X102301870Y-89921244D01*
X102291304Y-89918128D01*
X102265368Y-89910459D01*
X102237043Y-89901867D01*
X102210200Y-89893538D01*
X102193937Y-89888358D01*
X102181834Y-89884518D01*
X102162804Y-89878576D01*
X102138020Y-89870896D01*
X102108655Y-89861839D01*
X102075883Y-89851767D01*
X102040877Y-89841043D01*
X102016137Y-89833483D01*
X101995667Y-89827208D01*
X101977302Y-89821525D01*
X101963029Y-89817055D01*
X101954834Y-89814415D01*
X101954754Y-89814388D01*
X101945575Y-89811479D01*
X101931174Y-89807134D01*
X101914473Y-89802234D01*
X101912420Y-89801641D01*
X101894384Y-89796344D01*
X101877091Y-89791105D01*
X101864162Y-89787022D01*
X101863737Y-89786882D01*
X101849071Y-89782139D01*
X101829498Y-89775964D01*
X101806964Y-89768952D01*
X101783416Y-89761701D01*
X101760798Y-89754809D01*
X101741057Y-89748872D01*
X101726138Y-89744487D01*
X101719804Y-89742714D01*
X101708786Y-89739538D01*
X101700898Y-89735945D01*
X101694376Y-89730311D01*
X101687457Y-89721013D01*
X101678380Y-89706427D01*
X101675839Y-89702217D01*
X101664427Y-89683297D01*
X101656507Y-89670272D01*
X101651204Y-89661784D01*
X101647642Y-89656473D01*
X101644946Y-89652982D01*
X101642240Y-89649953D01*
X101641957Y-89649647D01*
X101635996Y-89641307D01*
X101630062Y-89630418D01*
X101623808Y-89618298D01*
X101615110Y-89603060D01*
X101605056Y-89586419D01*
X101594731Y-89570088D01*
X101585221Y-89555781D01*
X101577614Y-89545212D01*
X101572994Y-89540095D01*
X101572715Y-89539939D01*
X101569600Y-89535078D01*
X101569520Y-89534047D01*
X101567366Y-89528746D01*
X101561669Y-89518304D01*
X101553580Y-89504569D01*
X101544248Y-89489384D01*
X101534824Y-89474596D01*
X101526457Y-89462051D01*
X101520297Y-89453595D01*
X101517802Y-89451039D01*
X101515203Y-89446962D01*
X101514456Y-89440851D01*
X101516151Y-89437634D01*
X101516201Y-89437633D01*
X101520351Y-89439394D01*
G37*
X101520351Y-89439394D02*
X101530969Y-89444313D01*
X101546910Y-89451850D01*
X101567029Y-89461460D01*
X101590180Y-89472602D01*
X101597693Y-89476233D01*
X101624247Y-89489056D01*
X101650661Y-89501767D01*
X101675094Y-89513483D01*
X101695705Y-89523321D01*
X101710652Y-89530399D01*
X101711337Y-89530720D01*
X101728043Y-89538610D01*
X101749777Y-89548950D01*
X101773947Y-89560503D01*
X101797959Y-89572032D01*
X101802354Y-89574149D01*
X101831233Y-89588045D01*
X101859546Y-89601620D01*
X101889058Y-89615717D01*
X101921539Y-89631179D01*
X101958757Y-89648851D01*
X101986504Y-89662006D01*
X102007984Y-89672214D01*
X102033604Y-89684433D01*
X102059878Y-89696997D01*
X102079637Y-89706473D01*
X102122402Y-89726989D01*
X102169325Y-89749447D01*
X102216908Y-89772177D01*
X102261651Y-89793506D01*
X102274370Y-89799559D01*
X102293185Y-89808527D01*
X102316707Y-89819764D01*
X102342011Y-89831873D01*
X102366173Y-89843455D01*
X102367504Y-89844093D01*
X102391502Y-89855586D01*
X102416816Y-89867666D01*
X102440522Y-89878940D01*
X102459698Y-89888018D01*
X102460637Y-89888461D01*
X102479780Y-89897527D01*
X102503487Y-89908819D01*
X102528697Y-89920877D01*
X102551654Y-89931905D01*
X102596742Y-89953616D01*
X102634990Y-89972014D01*
X102667177Y-89987473D01*
X102694085Y-90000368D01*
X102716494Y-90011072D01*
X102735185Y-90019959D01*
X102750938Y-90027403D01*
X102759087Y-90031230D01*
X102795651Y-90048451D01*
X102825001Y-90062493D01*
X102847656Y-90073620D01*
X102864135Y-90082099D01*
X102874959Y-90088193D01*
X102880646Y-90092168D01*
X102881853Y-90093910D01*
X102878506Y-90097436D01*
X102869177Y-90096272D01*
X102862803Y-90094011D01*
X102854751Y-90091171D01*
X102841271Y-90086843D01*
X102825067Y-90081891D01*
X102822587Y-90081153D01*
X102804574Y-90075747D01*
X102787298Y-90070451D01*
X102774366Y-90066370D01*
X102773903Y-90066220D01*
X102760155Y-90061917D01*
X102742888Y-90056751D01*
X102731570Y-90053477D01*
X102713644Y-90048193D01*
X102692734Y-90041760D01*
X102676537Y-90036594D01*
X102659280Y-90031079D01*
X102637387Y-90024241D01*
X102614338Y-90017161D01*
X102602454Y-90013563D01*
X102573666Y-90004872D01*
X102544028Y-89995867D01*
X102515166Y-89987048D01*
X102488708Y-89978913D01*
X102466281Y-89971963D01*
X102449512Y-89966697D01*
X102443704Y-89964833D01*
X102431081Y-89960847D01*
X102413938Y-89955584D01*
X102395879Y-89950148D01*
X102395020Y-89949892D01*
X102375644Y-89944056D01*
X102355710Y-89937929D01*
X102339987Y-89932982D01*
X102322056Y-89927366D01*
X102301870Y-89921244D01*
X102291304Y-89918128D01*
X102265368Y-89910459D01*
X102237043Y-89901867D01*
X102210200Y-89893538D01*
X102193937Y-89888358D01*
X102181834Y-89884518D01*
X102162804Y-89878576D01*
X102138020Y-89870896D01*
X102108655Y-89861839D01*
X102075883Y-89851767D01*
X102040877Y-89841043D01*
X102016137Y-89833483D01*
X101995667Y-89827208D01*
X101977302Y-89821525D01*
X101963029Y-89817055D01*
X101954834Y-89814415D01*
X101954754Y-89814388D01*
X101945575Y-89811479D01*
X101931174Y-89807134D01*
X101914473Y-89802234D01*
X101912420Y-89801641D01*
X101894384Y-89796344D01*
X101877091Y-89791105D01*
X101864162Y-89787022D01*
X101863737Y-89786882D01*
X101849071Y-89782139D01*
X101829498Y-89775964D01*
X101806964Y-89768952D01*
X101783416Y-89761701D01*
X101760798Y-89754809D01*
X101741057Y-89748872D01*
X101726138Y-89744487D01*
X101719804Y-89742714D01*
X101708786Y-89739538D01*
X101700898Y-89735945D01*
X101694376Y-89730311D01*
X101687457Y-89721013D01*
X101678380Y-89706427D01*
X101675839Y-89702217D01*
X101664427Y-89683297D01*
X101656507Y-89670272D01*
X101651204Y-89661784D01*
X101647642Y-89656473D01*
X101644946Y-89652982D01*
X101642240Y-89649953D01*
X101641957Y-89649647D01*
X101635996Y-89641307D01*
X101630062Y-89630418D01*
X101623808Y-89618298D01*
X101615110Y-89603060D01*
X101605056Y-89586419D01*
X101594731Y-89570088D01*
X101585221Y-89555781D01*
X101577614Y-89545212D01*
X101572994Y-89540095D01*
X101572715Y-89539939D01*
X101569600Y-89535078D01*
X101569520Y-89534047D01*
X101567366Y-89528746D01*
X101561669Y-89518304D01*
X101553580Y-89504569D01*
X101544248Y-89489384D01*
X101534824Y-89474596D01*
X101526457Y-89462051D01*
X101520297Y-89453595D01*
X101517802Y-89451039D01*
X101515203Y-89446962D01*
X101514456Y-89440851D01*
X101516151Y-89437634D01*
X101516201Y-89437633D01*
X101520351Y-89439394D01*
G36*
X105313260Y-90395339D02*
G01*
X105314510Y-90395679D01*
X105313201Y-90399850D01*
X105308098Y-90409700D01*
X105299995Y-90423791D01*
X105289689Y-90440688D01*
X105288804Y-90442101D01*
X105278125Y-90459480D01*
X105269344Y-90474472D01*
X105263340Y-90485524D01*
X105260992Y-90491085D01*
X105260987Y-90491190D01*
X105258072Y-90495728D01*
X105256754Y-90495967D01*
X105252702Y-90499235D01*
X105252520Y-90500566D01*
X105250270Y-90506479D01*
X105244531Y-90516445D01*
X105240342Y-90522791D01*
X105232355Y-90534796D01*
X105221938Y-90551054D01*
X105211013Y-90568558D01*
X105208153Y-90573225D01*
X105188144Y-90606033D01*
X105064757Y-90605219D01*
X105031032Y-90604950D01*
X104990801Y-90604551D01*
X104946023Y-90604046D01*
X104898659Y-90603460D01*
X104850667Y-90602816D01*
X104804008Y-90602139D01*
X104767804Y-90601571D01*
X104724867Y-90600901D01*
X104679963Y-90600254D01*
X104634853Y-90599654D01*
X104591297Y-90599120D01*
X104551058Y-90598676D01*
X104515896Y-90598343D01*
X104489462Y-90598152D01*
X104456564Y-90597908D01*
X104431201Y-90597550D01*
X104412440Y-90597016D01*
X104399349Y-90596243D01*
X104390994Y-90595171D01*
X104386445Y-90593737D01*
X104384769Y-90591880D01*
X104384687Y-90591217D01*
X104386773Y-90585580D01*
X104388544Y-90584867D01*
X104392983Y-90582214D01*
X104402867Y-90574773D01*
X104417257Y-90563313D01*
X104435213Y-90548608D01*
X104455797Y-90531428D01*
X104478069Y-90512546D01*
X104501091Y-90492734D01*
X104508620Y-90486186D01*
X104520679Y-90476328D01*
X104531414Y-90468676D01*
X104537346Y-90465409D01*
X104544212Y-90464039D01*
X104557969Y-90462194D01*
X104577065Y-90460051D01*
X104599950Y-90457785D01*
X104620846Y-90455927D01*
X104652652Y-90453207D01*
X104688604Y-90450079D01*
X104724941Y-90446872D01*
X104757901Y-90443918D01*
X104767804Y-90443017D01*
X104837108Y-90436745D01*
X104899262Y-90431248D01*
X104953946Y-90426552D01*
X105000840Y-90422686D01*
X105038737Y-90419742D01*
X105063438Y-90417769D01*
X105088831Y-90415514D01*
X105111762Y-90413271D01*
X105127637Y-90411509D01*
X105148925Y-90409196D01*
X105173714Y-90406924D01*
X105197049Y-90405144D01*
X105199604Y-90404979D01*
X105223183Y-90403216D01*
X105249560Y-90400818D01*
X105273335Y-90398281D01*
X105275052Y-90398076D01*
X105291898Y-90396291D01*
X105305310Y-90395338D01*
X105313260Y-90395339D01*
G37*
X105313260Y-90395339D02*
X105314510Y-90395679D01*
X105313201Y-90399850D01*
X105308098Y-90409700D01*
X105299995Y-90423791D01*
X105289689Y-90440688D01*
X105288804Y-90442101D01*
X105278125Y-90459480D01*
X105269344Y-90474472D01*
X105263340Y-90485524D01*
X105260992Y-90491085D01*
X105260987Y-90491190D01*
X105258072Y-90495728D01*
X105256754Y-90495967D01*
X105252702Y-90499235D01*
X105252520Y-90500566D01*
X105250270Y-90506479D01*
X105244531Y-90516445D01*
X105240342Y-90522791D01*
X105232355Y-90534796D01*
X105221938Y-90551054D01*
X105211013Y-90568558D01*
X105208153Y-90573225D01*
X105188144Y-90606033D01*
X105064757Y-90605219D01*
X105031032Y-90604950D01*
X104990801Y-90604551D01*
X104946023Y-90604046D01*
X104898659Y-90603460D01*
X104850667Y-90602816D01*
X104804008Y-90602139D01*
X104767804Y-90601571D01*
X104724867Y-90600901D01*
X104679963Y-90600254D01*
X104634853Y-90599654D01*
X104591297Y-90599120D01*
X104551058Y-90598676D01*
X104515896Y-90598343D01*
X104489462Y-90598152D01*
X104456564Y-90597908D01*
X104431201Y-90597550D01*
X104412440Y-90597016D01*
X104399349Y-90596243D01*
X104390994Y-90595171D01*
X104386445Y-90593737D01*
X104384769Y-90591880D01*
X104384687Y-90591217D01*
X104386773Y-90585580D01*
X104388544Y-90584867D01*
X104392983Y-90582214D01*
X104402867Y-90574773D01*
X104417257Y-90563313D01*
X104435213Y-90548608D01*
X104455797Y-90531428D01*
X104478069Y-90512546D01*
X104501091Y-90492734D01*
X104508620Y-90486186D01*
X104520679Y-90476328D01*
X104531414Y-90468676D01*
X104537346Y-90465409D01*
X104544212Y-90464039D01*
X104557969Y-90462194D01*
X104577065Y-90460051D01*
X104599950Y-90457785D01*
X104620846Y-90455927D01*
X104652652Y-90453207D01*
X104688604Y-90450079D01*
X104724941Y-90446872D01*
X104757901Y-90443918D01*
X104767804Y-90443017D01*
X104837108Y-90436745D01*
X104899262Y-90431248D01*
X104953946Y-90426552D01*
X105000840Y-90422686D01*
X105038737Y-90419742D01*
X105063438Y-90417769D01*
X105088831Y-90415514D01*
X105111762Y-90413271D01*
X105127637Y-90411509D01*
X105148925Y-90409196D01*
X105173714Y-90406924D01*
X105197049Y-90405144D01*
X105199604Y-90404979D01*
X105223183Y-90403216D01*
X105249560Y-90400818D01*
X105273335Y-90398281D01*
X105275052Y-90398076D01*
X105291898Y-90396291D01*
X105305310Y-90395338D01*
X105313260Y-90395339D01*
G36*
X102129379Y-90395885D02*
G01*
X102140428Y-90397199D01*
X102157670Y-90398896D01*
X102178853Y-90400767D01*
X102201723Y-90402604D01*
X102204520Y-90402816D01*
X102230085Y-90404862D01*
X102256799Y-90407207D01*
X102281402Y-90409553D01*
X102299770Y-90411503D01*
X102320077Y-90413656D01*
X102345263Y-90416050D01*
X102371757Y-90418359D01*
X102390787Y-90419871D01*
X102426431Y-90422658D01*
X102469350Y-90426202D01*
X102518396Y-90430402D01*
X102572421Y-90435161D01*
X102630275Y-90440377D01*
X102657487Y-90442870D01*
X102687046Y-90445553D01*
X102721526Y-90448626D01*
X102757409Y-90451778D01*
X102791178Y-90454698D01*
X102804615Y-90455842D01*
X102829788Y-90458099D01*
X102852418Y-90460363D01*
X102870997Y-90462465D01*
X102884020Y-90464234D01*
X102889786Y-90465419D01*
X102893459Y-90467182D01*
X102898410Y-90470402D01*
X102905561Y-90475818D01*
X102915836Y-90484174D01*
X102930159Y-90496210D01*
X102949454Y-90512669D01*
X102962062Y-90523483D01*
X102975168Y-90534609D01*
X102991569Y-90548353D01*
X103008001Y-90561984D01*
X103010085Y-90563700D01*
X103022879Y-90574722D01*
X103032675Y-90584107D01*
X103037941Y-90590349D01*
X103038437Y-90591601D01*
X103035218Y-90592844D01*
X103025346Y-90593989D01*
X103008542Y-90595048D01*
X102984525Y-90596030D01*
X102953017Y-90596945D01*
X102913736Y-90597805D01*
X102866404Y-90598620D01*
X102840578Y-90599001D01*
X102790658Y-90599702D01*
X102734628Y-90600486D01*
X102674846Y-90601322D01*
X102613667Y-90602176D01*
X102553449Y-90603015D01*
X102496547Y-90603806D01*
X102445318Y-90604517D01*
X102441229Y-90604574D01*
X102239787Y-90607365D01*
X102232540Y-90597174D01*
X102226978Y-90588911D01*
X102218520Y-90575840D01*
X102208711Y-90560359D01*
X102205506Y-90555233D01*
X102196298Y-90540872D01*
X102188551Y-90529545D01*
X102183472Y-90522989D01*
X102182420Y-90522072D01*
X102179154Y-90517236D01*
X102179120Y-90516650D01*
X102176990Y-90511824D01*
X102171121Y-90501191D01*
X102162294Y-90486102D01*
X102151292Y-90467908D01*
X102145254Y-90458123D01*
X102133442Y-90438783D01*
X102123424Y-90421758D01*
X102115986Y-90408432D01*
X102111915Y-90400191D01*
X102111387Y-90398430D01*
X102114301Y-90395328D01*
X102123751Y-90395182D01*
X102129379Y-90395885D01*
G37*
X102129379Y-90395885D02*
X102140428Y-90397199D01*
X102157670Y-90398896D01*
X102178853Y-90400767D01*
X102201723Y-90402604D01*
X102204520Y-90402816D01*
X102230085Y-90404862D01*
X102256799Y-90407207D01*
X102281402Y-90409553D01*
X102299770Y-90411503D01*
X102320077Y-90413656D01*
X102345263Y-90416050D01*
X102371757Y-90418359D01*
X102390787Y-90419871D01*
X102426431Y-90422658D01*
X102469350Y-90426202D01*
X102518396Y-90430402D01*
X102572421Y-90435161D01*
X102630275Y-90440377D01*
X102657487Y-90442870D01*
X102687046Y-90445553D01*
X102721526Y-90448626D01*
X102757409Y-90451778D01*
X102791178Y-90454698D01*
X102804615Y-90455842D01*
X102829788Y-90458099D01*
X102852418Y-90460363D01*
X102870997Y-90462465D01*
X102884020Y-90464234D01*
X102889786Y-90465419D01*
X102893459Y-90467182D01*
X102898410Y-90470402D01*
X102905561Y-90475818D01*
X102915836Y-90484174D01*
X102930159Y-90496210D01*
X102949454Y-90512669D01*
X102962062Y-90523483D01*
X102975168Y-90534609D01*
X102991569Y-90548353D01*
X103008001Y-90561984D01*
X103010085Y-90563700D01*
X103022879Y-90574722D01*
X103032675Y-90584107D01*
X103037941Y-90590349D01*
X103038437Y-90591601D01*
X103035218Y-90592844D01*
X103025346Y-90593989D01*
X103008542Y-90595048D01*
X102984525Y-90596030D01*
X102953017Y-90596945D01*
X102913736Y-90597805D01*
X102866404Y-90598620D01*
X102840578Y-90599001D01*
X102790658Y-90599702D01*
X102734628Y-90600486D01*
X102674846Y-90601322D01*
X102613667Y-90602176D01*
X102553449Y-90603015D01*
X102496547Y-90603806D01*
X102445318Y-90604517D01*
X102441229Y-90604574D01*
X102239787Y-90607365D01*
X102232540Y-90597174D01*
X102226978Y-90588911D01*
X102218520Y-90575840D01*
X102208711Y-90560359D01*
X102205506Y-90555233D01*
X102196298Y-90540872D01*
X102188551Y-90529545D01*
X102183472Y-90522989D01*
X102182420Y-90522072D01*
X102179154Y-90517236D01*
X102179120Y-90516650D01*
X102176990Y-90511824D01*
X102171121Y-90501191D01*
X102162294Y-90486102D01*
X102151292Y-90467908D01*
X102145254Y-90458123D01*
X102133442Y-90438783D01*
X102123424Y-90421758D01*
X102115986Y-90408432D01*
X102111915Y-90400191D01*
X102111387Y-90398430D01*
X102114301Y-90395328D01*
X102123751Y-90395182D01*
X102129379Y-90395885D01*
G36*
X105479126Y-90125717D02*
G01*
X105481057Y-90128626D01*
X105481120Y-90129703D01*
X105479119Y-90135391D01*
X105477381Y-90136133D01*
X105473037Y-90139569D01*
X105471072Y-90143542D01*
X105467903Y-90149785D01*
X105461090Y-90161525D01*
X105451592Y-90177157D01*
X105440371Y-90195072D01*
X105438816Y-90197517D01*
X105427291Y-90215808D01*
X105417207Y-90232211D01*
X105409576Y-90245048D01*
X105405415Y-90252643D01*
X105405206Y-90253100D01*
X105401141Y-90260789D01*
X105393822Y-90273222D01*
X105384635Y-90288062D01*
X105381935Y-90292302D01*
X105373089Y-90306568D01*
X105366368Y-90318297D01*
X105362856Y-90325559D01*
X105362587Y-90326676D01*
X105359844Y-90330756D01*
X105359035Y-90330867D01*
X105355186Y-90334325D01*
X105349697Y-90343024D01*
X105347431Y-90347418D01*
X105340741Y-90358838D01*
X105333874Y-90367130D01*
X105332085Y-90368527D01*
X105325572Y-90370411D01*
X105312189Y-90372728D01*
X105293509Y-90375259D01*
X105271104Y-90377783D01*
X105253730Y-90379457D01*
X105222769Y-90382263D01*
X105187825Y-90385477D01*
X105152738Y-90388742D01*
X105121346Y-90391703D01*
X105114937Y-90392315D01*
X105052971Y-90398234D01*
X104997367Y-90403516D01*
X104946061Y-90408355D01*
X104896989Y-90412943D01*
X104848087Y-90417471D01*
X104797291Y-90422133D01*
X104742536Y-90427121D01*
X104710654Y-90430012D01*
X104683777Y-90432519D01*
X104656633Y-90435176D01*
X104631744Y-90437728D01*
X104611633Y-90439920D01*
X104604820Y-90440721D01*
X104584885Y-90442827D01*
X104565089Y-90444389D01*
X104549234Y-90445115D01*
X104547219Y-90445134D01*
X104537431Y-90445443D01*
X104529428Y-90446981D01*
X104521395Y-90450713D01*
X104511513Y-90457605D01*
X104497965Y-90468622D01*
X104489391Y-90475858D01*
X104470993Y-90491385D01*
X104449059Y-90509794D01*
X104426582Y-90528578D01*
X104409808Y-90542533D01*
X104389337Y-90559579D01*
X104367153Y-90578154D01*
X104346160Y-90595820D01*
X104331601Y-90608150D01*
X104317041Y-90620463D01*
X104297712Y-90636701D01*
X104275372Y-90655395D01*
X104251778Y-90675075D01*
X104229602Y-90693509D01*
X104208751Y-90710820D01*
X104189627Y-90726719D01*
X104173373Y-90740254D01*
X104161130Y-90750473D01*
X104154042Y-90756427D01*
X104153359Y-90757009D01*
X104145903Y-90763256D01*
X104134064Y-90773027D01*
X104120038Y-90784513D01*
X104115678Y-90788066D01*
X104101337Y-90799823D01*
X104088446Y-90810536D01*
X104079243Y-90818340D01*
X104077557Y-90819816D01*
X104069871Y-90826413D01*
X104057845Y-90836472D01*
X104043717Y-90848125D01*
X104039510Y-90851566D01*
X104024379Y-90864068D01*
X104005491Y-90879900D01*
X103985482Y-90896842D01*
X103970355Y-90909775D01*
X103951815Y-90925528D01*
X103938692Y-90936147D01*
X103930144Y-90942198D01*
X103925329Y-90944249D01*
X103923403Y-90942867D01*
X103923254Y-90941455D01*
X103926185Y-90938076D01*
X103934713Y-90929120D01*
X103948439Y-90914989D01*
X103966967Y-90896086D01*
X103989898Y-90872812D01*
X104016834Y-90845569D01*
X104047378Y-90814760D01*
X104081130Y-90780786D01*
X104117694Y-90744050D01*
X104156671Y-90704953D01*
X104197664Y-90663898D01*
X104228075Y-90633480D01*
X104279838Y-90581774D01*
X104325954Y-90535802D01*
X104366721Y-90495276D01*
X104402442Y-90459905D01*
X104433414Y-90429399D01*
X104459939Y-90403469D01*
X104482317Y-90381823D01*
X104500848Y-90364172D01*
X104515832Y-90350226D01*
X104527569Y-90339694D01*
X104536360Y-90332287D01*
X104542503Y-90327715D01*
X104546301Y-90325687D01*
X104546633Y-90325596D01*
X104557628Y-90323137D01*
X104573566Y-90319647D01*
X104591110Y-90315857D01*
X104592120Y-90315641D01*
X104612180Y-90311325D01*
X104633226Y-90306769D01*
X104649270Y-90303271D01*
X104667523Y-90299308D01*
X104688774Y-90294747D01*
X104704304Y-90291447D01*
X104719571Y-90288178D01*
X104740579Y-90283618D01*
X104764805Y-90278318D01*
X104789725Y-90272828D01*
X104795320Y-90271589D01*
X104833620Y-90263135D01*
X104864943Y-90256297D01*
X104890567Y-90250801D01*
X104911769Y-90246375D01*
X104929827Y-90242744D01*
X104932904Y-90242142D01*
X104940358Y-90240670D01*
X104948540Y-90239000D01*
X104958536Y-90236898D01*
X104971431Y-90234130D01*
X104988312Y-90230460D01*
X105010263Y-90225655D01*
X105038370Y-90219479D01*
X105071545Y-90212177D01*
X105091365Y-90207879D01*
X105110463Y-90203854D01*
X105125670Y-90200764D01*
X105129754Y-90199976D01*
X105140808Y-90197757D01*
X105158030Y-90194128D01*
X105179329Y-90189538D01*
X105202611Y-90184434D01*
X105210187Y-90182755D01*
X105234907Y-90177283D01*
X105259516Y-90171877D01*
X105281491Y-90167087D01*
X105298311Y-90163466D01*
X105301204Y-90162853D01*
X105321610Y-90158524D01*
X105343735Y-90153800D01*
X105358354Y-90150660D01*
X105377436Y-90146628D01*
X105397459Y-90142526D01*
X105409154Y-90140207D01*
X105424867Y-90136944D01*
X105439219Y-90133614D01*
X105445137Y-90132058D01*
X105462587Y-90127340D01*
X105473443Y-90125257D01*
X105479126Y-90125717D01*
G37*
X105479126Y-90125717D02*
X105481057Y-90128626D01*
X105481120Y-90129703D01*
X105479119Y-90135391D01*
X105477381Y-90136133D01*
X105473037Y-90139569D01*
X105471072Y-90143542D01*
X105467903Y-90149785D01*
X105461090Y-90161525D01*
X105451592Y-90177157D01*
X105440371Y-90195072D01*
X105438816Y-90197517D01*
X105427291Y-90215808D01*
X105417207Y-90232211D01*
X105409576Y-90245048D01*
X105405415Y-90252643D01*
X105405206Y-90253100D01*
X105401141Y-90260789D01*
X105393822Y-90273222D01*
X105384635Y-90288062D01*
X105381935Y-90292302D01*
X105373089Y-90306568D01*
X105366368Y-90318297D01*
X105362856Y-90325559D01*
X105362587Y-90326676D01*
X105359844Y-90330756D01*
X105359035Y-90330867D01*
X105355186Y-90334325D01*
X105349697Y-90343024D01*
X105347431Y-90347418D01*
X105340741Y-90358838D01*
X105333874Y-90367130D01*
X105332085Y-90368527D01*
X105325572Y-90370411D01*
X105312189Y-90372728D01*
X105293509Y-90375259D01*
X105271104Y-90377783D01*
X105253730Y-90379457D01*
X105222769Y-90382263D01*
X105187825Y-90385477D01*
X105152738Y-90388742D01*
X105121346Y-90391703D01*
X105114937Y-90392315D01*
X105052971Y-90398234D01*
X104997367Y-90403516D01*
X104946061Y-90408355D01*
X104896989Y-90412943D01*
X104848087Y-90417471D01*
X104797291Y-90422133D01*
X104742536Y-90427121D01*
X104710654Y-90430012D01*
X104683777Y-90432519D01*
X104656633Y-90435176D01*
X104631744Y-90437728D01*
X104611633Y-90439920D01*
X104604820Y-90440721D01*
X104584885Y-90442827D01*
X104565089Y-90444389D01*
X104549234Y-90445115D01*
X104547219Y-90445134D01*
X104537431Y-90445443D01*
X104529428Y-90446981D01*
X104521395Y-90450713D01*
X104511513Y-90457605D01*
X104497965Y-90468622D01*
X104489391Y-90475858D01*
X104470993Y-90491385D01*
X104449059Y-90509794D01*
X104426582Y-90528578D01*
X104409808Y-90542533D01*
X104389337Y-90559579D01*
X104367153Y-90578154D01*
X104346160Y-90595820D01*
X104331601Y-90608150D01*
X104317041Y-90620463D01*
X104297712Y-90636701D01*
X104275372Y-90655395D01*
X104251778Y-90675075D01*
X104229602Y-90693509D01*
X104208751Y-90710820D01*
X104189627Y-90726719D01*
X104173373Y-90740254D01*
X104161130Y-90750473D01*
X104154042Y-90756427D01*
X104153359Y-90757009D01*
X104145903Y-90763256D01*
X104134064Y-90773027D01*
X104120038Y-90784513D01*
X104115678Y-90788066D01*
X104101337Y-90799823D01*
X104088446Y-90810536D01*
X104079243Y-90818340D01*
X104077557Y-90819816D01*
X104069871Y-90826413D01*
X104057845Y-90836472D01*
X104043717Y-90848125D01*
X104039510Y-90851566D01*
X104024379Y-90864068D01*
X104005491Y-90879900D01*
X103985482Y-90896842D01*
X103970355Y-90909775D01*
X103951815Y-90925528D01*
X103938692Y-90936147D01*
X103930144Y-90942198D01*
X103925329Y-90944249D01*
X103923403Y-90942867D01*
X103923254Y-90941455D01*
X103926185Y-90938076D01*
X103934713Y-90929120D01*
X103948439Y-90914989D01*
X103966967Y-90896086D01*
X103989898Y-90872812D01*
X104016834Y-90845569D01*
X104047378Y-90814760D01*
X104081130Y-90780786D01*
X104117694Y-90744050D01*
X104156671Y-90704953D01*
X104197664Y-90663898D01*
X104228075Y-90633480D01*
X104279838Y-90581774D01*
X104325954Y-90535802D01*
X104366721Y-90495276D01*
X104402442Y-90459905D01*
X104433414Y-90429399D01*
X104459939Y-90403469D01*
X104482317Y-90381823D01*
X104500848Y-90364172D01*
X104515832Y-90350226D01*
X104527569Y-90339694D01*
X104536360Y-90332287D01*
X104542503Y-90327715D01*
X104546301Y-90325687D01*
X104546633Y-90325596D01*
X104557628Y-90323137D01*
X104573566Y-90319647D01*
X104591110Y-90315857D01*
X104592120Y-90315641D01*
X104612180Y-90311325D01*
X104633226Y-90306769D01*
X104649270Y-90303271D01*
X104667523Y-90299308D01*
X104688774Y-90294747D01*
X104704304Y-90291447D01*
X104719571Y-90288178D01*
X104740579Y-90283618D01*
X104764805Y-90278318D01*
X104789725Y-90272828D01*
X104795320Y-90271589D01*
X104833620Y-90263135D01*
X104864943Y-90256297D01*
X104890567Y-90250801D01*
X104911769Y-90246375D01*
X104929827Y-90242744D01*
X104932904Y-90242142D01*
X104940358Y-90240670D01*
X104948540Y-90239000D01*
X104958536Y-90236898D01*
X104971431Y-90234130D01*
X104988312Y-90230460D01*
X105010263Y-90225655D01*
X105038370Y-90219479D01*
X105071545Y-90212177D01*
X105091365Y-90207879D01*
X105110463Y-90203854D01*
X105125670Y-90200764D01*
X105129754Y-90199976D01*
X105140808Y-90197757D01*
X105158030Y-90194128D01*
X105179329Y-90189538D01*
X105202611Y-90184434D01*
X105210187Y-90182755D01*
X105234907Y-90177283D01*
X105259516Y-90171877D01*
X105281491Y-90167087D01*
X105298311Y-90163466D01*
X105301204Y-90162853D01*
X105321610Y-90158524D01*
X105343735Y-90153800D01*
X105358354Y-90150660D01*
X105377436Y-90146628D01*
X105397459Y-90142526D01*
X105409154Y-90140207D01*
X105424867Y-90136944D01*
X105439219Y-90133614D01*
X105445137Y-90132058D01*
X105462587Y-90127340D01*
X105473443Y-90125257D01*
X105479126Y-90125717D01*
G36*
X101955406Y-90126204D02*
G01*
X101971145Y-90129131D01*
X101983144Y-90131699D01*
X102018385Y-90139576D01*
X102048139Y-90146138D01*
X102075166Y-90151989D01*
X102102227Y-90157729D01*
X102109270Y-90159207D01*
X102126263Y-90162783D01*
X102140857Y-90165886D01*
X102150407Y-90167953D01*
X102151604Y-90168220D01*
X102164024Y-90171004D01*
X102182587Y-90175121D01*
X102205188Y-90180110D01*
X102229725Y-90185508D01*
X102254095Y-90190854D01*
X102276197Y-90195686D01*
X102293926Y-90199541D01*
X102304004Y-90201708D01*
X102335668Y-90208440D01*
X102360467Y-90213718D01*
X102379817Y-90217848D01*
X102395134Y-90221132D01*
X102407837Y-90223874D01*
X102419341Y-90226377D01*
X102424654Y-90227539D01*
X102443334Y-90231493D01*
X102465434Y-90235973D01*
X102485329Y-90239849D01*
X102501296Y-90243038D01*
X102513955Y-90245869D01*
X102521066Y-90247832D01*
X102521701Y-90248119D01*
X102527392Y-90249875D01*
X102538588Y-90252265D01*
X102547809Y-90253916D01*
X102562348Y-90256611D01*
X102583600Y-90260924D01*
X102610036Y-90266529D01*
X102640130Y-90273099D01*
X102672354Y-90280307D01*
X102689237Y-90284152D01*
X102701726Y-90286932D01*
X102719030Y-90290681D01*
X102737674Y-90294647D01*
X102740037Y-90295144D01*
X102762273Y-90299869D01*
X102787139Y-90305237D01*
X102807770Y-90309758D01*
X102828229Y-90314250D01*
X102849651Y-90318889D01*
X102867483Y-90322689D01*
X102867871Y-90322771D01*
X102894106Y-90328280D01*
X103197539Y-90631736D01*
X103239614Y-90673874D01*
X103279929Y-90714367D01*
X103318087Y-90752811D01*
X103353693Y-90788800D01*
X103386348Y-90821931D01*
X103415658Y-90851797D01*
X103441224Y-90877994D01*
X103462651Y-90900117D01*
X103479542Y-90917762D01*
X103491500Y-90930523D01*
X103498129Y-90937996D01*
X103499388Y-90939858D01*
X103495702Y-90939621D01*
X103487409Y-90934722D01*
X103476182Y-90926178D01*
X103474182Y-90924504D01*
X103458524Y-90911286D01*
X103441840Y-90897285D01*
X103430169Y-90887550D01*
X103402826Y-90864826D01*
X103380152Y-90845931D01*
X103360284Y-90829305D01*
X103341359Y-90813389D01*
X103321514Y-90796621D01*
X103313317Y-90789678D01*
X103298492Y-90777214D01*
X103281933Y-90763435D01*
X103273303Y-90756316D01*
X103258545Y-90744119D01*
X103243162Y-90731276D01*
X103235203Y-90724566D01*
X103221674Y-90713192D01*
X103206007Y-90700160D01*
X103197103Y-90692816D01*
X103182305Y-90680610D01*
X103166838Y-90667760D01*
X103158835Y-90661066D01*
X103148701Y-90652596D01*
X103133977Y-90640345D01*
X103116603Y-90625923D01*
X103098516Y-90610942D01*
X103097700Y-90610266D01*
X103077201Y-90593239D01*
X103054997Y-90574684D01*
X103033989Y-90557030D01*
X103019360Y-90544650D01*
X103001036Y-90529116D01*
X102979368Y-90510823D01*
X102957515Y-90492435D01*
X102944059Y-90481150D01*
X102903602Y-90447283D01*
X102849336Y-90442429D01*
X102825533Y-90440306D01*
X102796342Y-90437711D01*
X102764809Y-90434915D01*
X102733982Y-90432188D01*
X102720987Y-90431041D01*
X102695491Y-90428737D01*
X102671728Y-90426490D01*
X102651489Y-90424476D01*
X102636565Y-90422873D01*
X102629970Y-90422051D01*
X102618952Y-90420723D01*
X102601929Y-90418986D01*
X102581340Y-90417078D01*
X102562237Y-90415448D01*
X102546205Y-90414120D01*
X102529504Y-90412693D01*
X102511171Y-90411077D01*
X102490240Y-90409183D01*
X102465749Y-90406922D01*
X102436733Y-90404206D01*
X102402228Y-90400946D01*
X102361271Y-90397051D01*
X102312896Y-90392434D01*
X102310354Y-90392191D01*
X102279736Y-90389294D01*
X102245253Y-90386078D01*
X102210739Y-90382898D01*
X102180031Y-90380110D01*
X102174548Y-90379619D01*
X102150984Y-90377405D01*
X102129706Y-90375207D01*
X102112466Y-90373220D01*
X102101017Y-90371642D01*
X102097968Y-90371056D01*
X102089946Y-90366300D01*
X102080564Y-90355265D01*
X102069602Y-90337986D01*
X102058015Y-90318185D01*
X102049924Y-90304526D01*
X102044600Y-90295814D01*
X102041313Y-90290853D01*
X102039420Y-90288533D01*
X102033773Y-90280934D01*
X102027615Y-90270228D01*
X102023987Y-90262075D01*
X102020348Y-90255830D01*
X102018174Y-90254667D01*
X102014406Y-90251182D01*
X102010167Y-90243025D01*
X102005072Y-90232609D01*
X101997384Y-90219227D01*
X101993044Y-90212333D01*
X101983067Y-90196530D01*
X101972636Y-90179231D01*
X101969122Y-90173175D01*
X101962174Y-90162053D01*
X101956465Y-90154751D01*
X101954081Y-90153067D01*
X101950877Y-90149649D01*
X101950520Y-90147019D01*
X101947732Y-90139369D01*
X101943666Y-90134117D01*
X101939251Y-90127893D01*
X101939248Y-90124827D01*
X101944149Y-90124672D01*
X101955406Y-90126204D01*
G37*
X101955406Y-90126204D02*
X101971145Y-90129131D01*
X101983144Y-90131699D01*
X102018385Y-90139576D01*
X102048139Y-90146138D01*
X102075166Y-90151989D01*
X102102227Y-90157729D01*
X102109270Y-90159207D01*
X102126263Y-90162783D01*
X102140857Y-90165886D01*
X102150407Y-90167953D01*
X102151604Y-90168220D01*
X102164024Y-90171004D01*
X102182587Y-90175121D01*
X102205188Y-90180110D01*
X102229725Y-90185508D01*
X102254095Y-90190854D01*
X102276197Y-90195686D01*
X102293926Y-90199541D01*
X102304004Y-90201708D01*
X102335668Y-90208440D01*
X102360467Y-90213718D01*
X102379817Y-90217848D01*
X102395134Y-90221132D01*
X102407837Y-90223874D01*
X102419341Y-90226377D01*
X102424654Y-90227539D01*
X102443334Y-90231493D01*
X102465434Y-90235973D01*
X102485329Y-90239849D01*
X102501296Y-90243038D01*
X102513955Y-90245869D01*
X102521066Y-90247832D01*
X102521701Y-90248119D01*
X102527392Y-90249875D01*
X102538588Y-90252265D01*
X102547809Y-90253916D01*
X102562348Y-90256611D01*
X102583600Y-90260924D01*
X102610036Y-90266529D01*
X102640130Y-90273099D01*
X102672354Y-90280307D01*
X102689237Y-90284152D01*
X102701726Y-90286932D01*
X102719030Y-90290681D01*
X102737674Y-90294647D01*
X102740037Y-90295144D01*
X102762273Y-90299869D01*
X102787139Y-90305237D01*
X102807770Y-90309758D01*
X102828229Y-90314250D01*
X102849651Y-90318889D01*
X102867483Y-90322689D01*
X102867871Y-90322771D01*
X102894106Y-90328280D01*
X103197539Y-90631736D01*
X103239614Y-90673874D01*
X103279929Y-90714367D01*
X103318087Y-90752811D01*
X103353693Y-90788800D01*
X103386348Y-90821931D01*
X103415658Y-90851797D01*
X103441224Y-90877994D01*
X103462651Y-90900117D01*
X103479542Y-90917762D01*
X103491500Y-90930523D01*
X103498129Y-90937996D01*
X103499388Y-90939858D01*
X103495702Y-90939621D01*
X103487409Y-90934722D01*
X103476182Y-90926178D01*
X103474182Y-90924504D01*
X103458524Y-90911286D01*
X103441840Y-90897285D01*
X103430169Y-90887550D01*
X103402826Y-90864826D01*
X103380152Y-90845931D01*
X103360284Y-90829305D01*
X103341359Y-90813389D01*
X103321514Y-90796621D01*
X103313317Y-90789678D01*
X103298492Y-90777214D01*
X103281933Y-90763435D01*
X103273303Y-90756316D01*
X103258545Y-90744119D01*
X103243162Y-90731276D01*
X103235203Y-90724566D01*
X103221674Y-90713192D01*
X103206007Y-90700160D01*
X103197103Y-90692816D01*
X103182305Y-90680610D01*
X103166838Y-90667760D01*
X103158835Y-90661066D01*
X103148701Y-90652596D01*
X103133977Y-90640345D01*
X103116603Y-90625923D01*
X103098516Y-90610942D01*
X103097700Y-90610266D01*
X103077201Y-90593239D01*
X103054997Y-90574684D01*
X103033989Y-90557030D01*
X103019360Y-90544650D01*
X103001036Y-90529116D01*
X102979368Y-90510823D01*
X102957515Y-90492435D01*
X102944059Y-90481150D01*
X102903602Y-90447283D01*
X102849336Y-90442429D01*
X102825533Y-90440306D01*
X102796342Y-90437711D01*
X102764809Y-90434915D01*
X102733982Y-90432188D01*
X102720987Y-90431041D01*
X102695491Y-90428737D01*
X102671728Y-90426490D01*
X102651489Y-90424476D01*
X102636565Y-90422873D01*
X102629970Y-90422051D01*
X102618952Y-90420723D01*
X102601929Y-90418986D01*
X102581340Y-90417078D01*
X102562237Y-90415448D01*
X102546205Y-90414120D01*
X102529504Y-90412693D01*
X102511171Y-90411077D01*
X102490240Y-90409183D01*
X102465749Y-90406922D01*
X102436733Y-90404206D01*
X102402228Y-90400946D01*
X102361271Y-90397051D01*
X102312896Y-90392434D01*
X102310354Y-90392191D01*
X102279736Y-90389294D01*
X102245253Y-90386078D01*
X102210739Y-90382898D01*
X102180031Y-90380110D01*
X102174548Y-90379619D01*
X102150984Y-90377405D01*
X102129706Y-90375207D01*
X102112466Y-90373220D01*
X102101017Y-90371642D01*
X102097968Y-90371056D01*
X102089946Y-90366300D01*
X102080564Y-90355265D01*
X102069602Y-90337986D01*
X102058015Y-90318185D01*
X102049924Y-90304526D01*
X102044600Y-90295814D01*
X102041313Y-90290853D01*
X102039420Y-90288533D01*
X102033773Y-90280934D01*
X102027615Y-90270228D01*
X102023987Y-90262075D01*
X102020348Y-90255830D01*
X102018174Y-90254667D01*
X102014406Y-90251182D01*
X102010167Y-90243025D01*
X102005072Y-90232609D01*
X101997384Y-90219227D01*
X101993044Y-90212333D01*
X101983067Y-90196530D01*
X101972636Y-90179231D01*
X101969122Y-90173175D01*
X101962174Y-90162053D01*
X101956465Y-90154751D01*
X101954081Y-90153067D01*
X101950877Y-90149649D01*
X101950520Y-90147019D01*
X101947732Y-90139369D01*
X101943666Y-90134117D01*
X101939251Y-90127893D01*
X101939248Y-90124827D01*
X101944149Y-90124672D01*
X101955406Y-90126204D01*
G36*
X105696354Y-89772067D02*
G01*
X105693209Y-89780229D01*
X105685860Y-89793768D01*
X105674020Y-89813359D01*
X105669504Y-89820593D01*
X105658889Y-89837862D01*
X105650176Y-89852722D01*
X105644248Y-89863617D01*
X105641989Y-89868991D01*
X105641987Y-89869047D01*
X105639305Y-89873468D01*
X105638212Y-89873667D01*
X105634390Y-89877230D01*
X105632026Y-89883276D01*
X105627286Y-89894025D01*
X105622042Y-89901483D01*
X105613817Y-89912111D01*
X105608347Y-89920449D01*
X105604254Y-89927266D01*
X105596589Y-89939933D01*
X105586190Y-89957074D01*
X105573895Y-89977310D01*
X105560541Y-89999263D01*
X105546967Y-90021558D01*
X105534010Y-90042816D01*
X105522509Y-90061660D01*
X105513300Y-90076713D01*
X105512743Y-90077621D01*
X105504928Y-90089266D01*
X105497568Y-90095869D01*
X105487353Y-90099678D01*
X105477101Y-90101815D01*
X105464290Y-90104334D01*
X105445480Y-90108196D01*
X105422940Y-90112926D01*
X105398941Y-90118052D01*
X105392220Y-90119504D01*
X105367991Y-90124747D01*
X105344365Y-90129846D01*
X105323693Y-90134296D01*
X105308322Y-90137590D01*
X105305437Y-90138205D01*
X105274128Y-90144863D01*
X105249739Y-90150053D01*
X105230907Y-90154066D01*
X105216270Y-90157192D01*
X105204464Y-90159722D01*
X105194129Y-90161948D01*
X105186904Y-90163509D01*
X105152288Y-90170992D01*
X105124858Y-90176901D01*
X105103525Y-90181467D01*
X105087202Y-90184921D01*
X105074803Y-90187492D01*
X105065239Y-90189411D01*
X105057787Y-90190839D01*
X105046733Y-90193055D01*
X105029512Y-90196683D01*
X105008215Y-90201277D01*
X104984934Y-90206387D01*
X104977354Y-90208071D01*
X104953877Y-90213260D01*
X104931712Y-90218091D01*
X104912948Y-90222111D01*
X104899679Y-90224869D01*
X104896920Y-90225415D01*
X104880480Y-90228780D01*
X104863971Y-90232443D01*
X104860937Y-90233161D01*
X104848437Y-90236014D01*
X104831118Y-90239775D01*
X104812461Y-90243691D01*
X104810137Y-90244169D01*
X104788533Y-90248650D01*
X104763839Y-90253856D01*
X104741234Y-90258695D01*
X104740287Y-90258900D01*
X104717912Y-90263704D01*
X104693198Y-90268945D01*
X104671326Y-90273526D01*
X104670437Y-90273710D01*
X104650115Y-90277991D01*
X104629010Y-90282550D01*
X104611595Y-90286421D01*
X104611170Y-90286518D01*
X104591873Y-90290788D01*
X104570512Y-90295326D01*
X104559474Y-90297586D01*
X104533178Y-90302860D01*
X104201922Y-90634363D01*
X104157886Y-90678402D01*
X104115508Y-90720726D01*
X104075170Y-90760954D01*
X104037260Y-90798705D01*
X104002161Y-90833597D01*
X103970260Y-90865248D01*
X103941941Y-90893277D01*
X103917589Y-90917301D01*
X103897591Y-90936940D01*
X103882331Y-90951811D01*
X103872194Y-90961533D01*
X103867566Y-90965725D01*
X103867326Y-90965866D01*
X103864070Y-90962630D01*
X103863987Y-90961706D01*
X103866604Y-90956087D01*
X103873055Y-90947574D01*
X103874593Y-90945831D01*
X103881286Y-90937963D01*
X103891965Y-90924858D01*
X103905454Y-90907995D01*
X103920579Y-90888848D01*
X103936165Y-90868895D01*
X103947916Y-90853683D01*
X103956895Y-90842047D01*
X103968630Y-90826917D01*
X103982058Y-90809655D01*
X103996116Y-90791622D01*
X104009741Y-90774178D01*
X104021871Y-90758686D01*
X104031444Y-90746506D01*
X104037396Y-90738999D01*
X104038654Y-90737456D01*
X104043423Y-90731580D01*
X104052765Y-90719822D01*
X104066051Y-90702979D01*
X104082654Y-90681851D01*
X104101945Y-90657237D01*
X104123298Y-90629934D01*
X104138158Y-90610901D01*
X104152544Y-90592500D01*
X104168380Y-90572300D01*
X104182601Y-90554211D01*
X104184631Y-90551634D01*
X104196517Y-90536558D01*
X104204842Y-90525976D01*
X104211282Y-90517727D01*
X104217511Y-90509651D01*
X104225205Y-90499590D01*
X104236038Y-90485381D01*
X104237651Y-90483267D01*
X104248898Y-90468620D01*
X104258718Y-90456025D01*
X104265629Y-90447372D01*
X104267485Y-90445167D01*
X104273152Y-90438309D01*
X104281641Y-90427542D01*
X104287625Y-90419767D01*
X104295922Y-90408983D01*
X104302091Y-90401166D01*
X104304254Y-90398600D01*
X104307653Y-90394463D01*
X104314819Y-90385334D01*
X104324389Y-90372956D01*
X104327450Y-90368967D01*
X104338748Y-90354466D01*
X104349346Y-90341287D01*
X104357221Y-90331936D01*
X104358142Y-90330910D01*
X104364673Y-90323062D01*
X104367724Y-90318045D01*
X104367754Y-90317810D01*
X104370277Y-90313261D01*
X104376532Y-90305194D01*
X104378447Y-90302950D01*
X104385866Y-90293991D01*
X104396510Y-90280612D01*
X104408520Y-90265162D01*
X104413312Y-90258900D01*
X104424053Y-90244887D01*
X104432881Y-90233548D01*
X104438537Y-90226493D01*
X104439825Y-90225033D01*
X104442356Y-90222140D01*
X104447955Y-90215133D01*
X104457129Y-90203362D01*
X104470385Y-90186178D01*
X104488230Y-90162929D01*
X104489168Y-90161705D01*
X104501461Y-90146266D01*
X104511290Y-90136085D01*
X104520954Y-90129418D01*
X104532752Y-90124522D01*
X104541980Y-90121661D01*
X104560848Y-90116026D01*
X104580757Y-90109896D01*
X104592120Y-90106291D01*
X104607613Y-90101379D01*
X104629335Y-90094620D01*
X104655404Y-90086593D01*
X104683935Y-90077878D01*
X104713048Y-90069053D01*
X104723354Y-90065947D01*
X104735738Y-90062189D01*
X104753368Y-90056798D01*
X104773403Y-90050644D01*
X104784737Y-90047151D01*
X104808612Y-90039797D01*
X104835291Y-90031601D01*
X104860117Y-90023994D01*
X104867287Y-90021802D01*
X104887345Y-90015662D01*
X104912326Y-90007995D01*
X104939061Y-89999776D01*
X104964383Y-89991975D01*
X104964654Y-89991892D01*
X104997150Y-89981873D01*
X105023158Y-89973864D01*
X105044278Y-89967376D01*
X105062109Y-89961920D01*
X105078253Y-89957007D01*
X105094309Y-89952147D01*
X105111879Y-89946850D01*
X105117054Y-89945293D01*
X105140731Y-89938131D01*
X105166588Y-89930250D01*
X105190443Y-89922929D01*
X105199604Y-89920097D01*
X105221127Y-89913461D01*
X105246579Y-89905675D01*
X105271780Y-89898018D01*
X105282154Y-89894884D01*
X105301447Y-89889036D01*
X105318673Y-89883749D01*
X105331629Y-89879705D01*
X105337187Y-89877906D01*
X105345258Y-89875318D01*
X105359448Y-89870909D01*
X105377767Y-89865291D01*
X105398228Y-89859079D01*
X105398570Y-89858976D01*
X105424375Y-89851131D01*
X105454061Y-89842030D01*
X105483434Y-89832961D01*
X105502287Y-89827096D01*
X105526455Y-89819610D01*
X105551770Y-89811877D01*
X105575027Y-89804872D01*
X105591187Y-89800098D01*
X105612839Y-89793715D01*
X105635141Y-89786995D01*
X105656178Y-89780528D01*
X105674039Y-89774906D01*
X105686809Y-89770722D01*
X105691167Y-89769173D01*
X105695579Y-89768607D01*
X105696354Y-89772067D01*
G37*
X105696354Y-89772067D02*
X105693209Y-89780229D01*
X105685860Y-89793768D01*
X105674020Y-89813359D01*
X105669504Y-89820593D01*
X105658889Y-89837862D01*
X105650176Y-89852722D01*
X105644248Y-89863617D01*
X105641989Y-89868991D01*
X105641987Y-89869047D01*
X105639305Y-89873468D01*
X105638212Y-89873667D01*
X105634390Y-89877230D01*
X105632026Y-89883276D01*
X105627286Y-89894025D01*
X105622042Y-89901483D01*
X105613817Y-89912111D01*
X105608347Y-89920449D01*
X105604254Y-89927266D01*
X105596589Y-89939933D01*
X105586190Y-89957074D01*
X105573895Y-89977310D01*
X105560541Y-89999263D01*
X105546967Y-90021558D01*
X105534010Y-90042816D01*
X105522509Y-90061660D01*
X105513300Y-90076713D01*
X105512743Y-90077621D01*
X105504928Y-90089266D01*
X105497568Y-90095869D01*
X105487353Y-90099678D01*
X105477101Y-90101815D01*
X105464290Y-90104334D01*
X105445480Y-90108196D01*
X105422940Y-90112926D01*
X105398941Y-90118052D01*
X105392220Y-90119504D01*
X105367991Y-90124747D01*
X105344365Y-90129846D01*
X105323693Y-90134296D01*
X105308322Y-90137590D01*
X105305437Y-90138205D01*
X105274128Y-90144863D01*
X105249739Y-90150053D01*
X105230907Y-90154066D01*
X105216270Y-90157192D01*
X105204464Y-90159722D01*
X105194129Y-90161948D01*
X105186904Y-90163509D01*
X105152288Y-90170992D01*
X105124858Y-90176901D01*
X105103525Y-90181467D01*
X105087202Y-90184921D01*
X105074803Y-90187492D01*
X105065239Y-90189411D01*
X105057787Y-90190839D01*
X105046733Y-90193055D01*
X105029512Y-90196683D01*
X105008215Y-90201277D01*
X104984934Y-90206387D01*
X104977354Y-90208071D01*
X104953877Y-90213260D01*
X104931712Y-90218091D01*
X104912948Y-90222111D01*
X104899679Y-90224869D01*
X104896920Y-90225415D01*
X104880480Y-90228780D01*
X104863971Y-90232443D01*
X104860937Y-90233161D01*
X104848437Y-90236014D01*
X104831118Y-90239775D01*
X104812461Y-90243691D01*
X104810137Y-90244169D01*
X104788533Y-90248650D01*
X104763839Y-90253856D01*
X104741234Y-90258695D01*
X104740287Y-90258900D01*
X104717912Y-90263704D01*
X104693198Y-90268945D01*
X104671326Y-90273526D01*
X104670437Y-90273710D01*
X104650115Y-90277991D01*
X104629010Y-90282550D01*
X104611595Y-90286421D01*
X104611170Y-90286518D01*
X104591873Y-90290788D01*
X104570512Y-90295326D01*
X104559474Y-90297586D01*
X104533178Y-90302860D01*
X104201922Y-90634363D01*
X104157886Y-90678402D01*
X104115508Y-90720726D01*
X104075170Y-90760954D01*
X104037260Y-90798705D01*
X104002161Y-90833597D01*
X103970260Y-90865248D01*
X103941941Y-90893277D01*
X103917589Y-90917301D01*
X103897591Y-90936940D01*
X103882331Y-90951811D01*
X103872194Y-90961533D01*
X103867566Y-90965725D01*
X103867326Y-90965866D01*
X103864070Y-90962630D01*
X103863987Y-90961706D01*
X103866604Y-90956087D01*
X103873055Y-90947574D01*
X103874593Y-90945831D01*
X103881286Y-90937963D01*
X103891965Y-90924858D01*
X103905454Y-90907995D01*
X103920579Y-90888848D01*
X103936165Y-90868895D01*
X103947916Y-90853683D01*
X103956895Y-90842047D01*
X103968630Y-90826917D01*
X103982058Y-90809655D01*
X103996116Y-90791622D01*
X104009741Y-90774178D01*
X104021871Y-90758686D01*
X104031444Y-90746506D01*
X104037396Y-90738999D01*
X104038654Y-90737456D01*
X104043423Y-90731580D01*
X104052765Y-90719822D01*
X104066051Y-90702979D01*
X104082654Y-90681851D01*
X104101945Y-90657237D01*
X104123298Y-90629934D01*
X104138158Y-90610901D01*
X104152544Y-90592500D01*
X104168380Y-90572300D01*
X104182601Y-90554211D01*
X104184631Y-90551634D01*
X104196517Y-90536558D01*
X104204842Y-90525976D01*
X104211282Y-90517727D01*
X104217511Y-90509651D01*
X104225205Y-90499590D01*
X104236038Y-90485381D01*
X104237651Y-90483267D01*
X104248898Y-90468620D01*
X104258718Y-90456025D01*
X104265629Y-90447372D01*
X104267485Y-90445167D01*
X104273152Y-90438309D01*
X104281641Y-90427542D01*
X104287625Y-90419767D01*
X104295922Y-90408983D01*
X104302091Y-90401166D01*
X104304254Y-90398600D01*
X104307653Y-90394463D01*
X104314819Y-90385334D01*
X104324389Y-90372956D01*
X104327450Y-90368967D01*
X104338748Y-90354466D01*
X104349346Y-90341287D01*
X104357221Y-90331936D01*
X104358142Y-90330910D01*
X104364673Y-90323062D01*
X104367724Y-90318045D01*
X104367754Y-90317810D01*
X104370277Y-90313261D01*
X104376532Y-90305194D01*
X104378447Y-90302950D01*
X104385866Y-90293991D01*
X104396510Y-90280612D01*
X104408520Y-90265162D01*
X104413312Y-90258900D01*
X104424053Y-90244887D01*
X104432881Y-90233548D01*
X104438537Y-90226493D01*
X104439825Y-90225033D01*
X104442356Y-90222140D01*
X104447955Y-90215133D01*
X104457129Y-90203362D01*
X104470385Y-90186178D01*
X104488230Y-90162929D01*
X104489168Y-90161705D01*
X104501461Y-90146266D01*
X104511290Y-90136085D01*
X104520954Y-90129418D01*
X104532752Y-90124522D01*
X104541980Y-90121661D01*
X104560848Y-90116026D01*
X104580757Y-90109896D01*
X104592120Y-90106291D01*
X104607613Y-90101379D01*
X104629335Y-90094620D01*
X104655404Y-90086593D01*
X104683935Y-90077878D01*
X104713048Y-90069053D01*
X104723354Y-90065947D01*
X104735738Y-90062189D01*
X104753368Y-90056798D01*
X104773403Y-90050644D01*
X104784737Y-90047151D01*
X104808612Y-90039797D01*
X104835291Y-90031601D01*
X104860117Y-90023994D01*
X104867287Y-90021802D01*
X104887345Y-90015662D01*
X104912326Y-90007995D01*
X104939061Y-89999776D01*
X104964383Y-89991975D01*
X104964654Y-89991892D01*
X104997150Y-89981873D01*
X105023158Y-89973864D01*
X105044278Y-89967376D01*
X105062109Y-89961920D01*
X105078253Y-89957007D01*
X105094309Y-89952147D01*
X105111879Y-89946850D01*
X105117054Y-89945293D01*
X105140731Y-89938131D01*
X105166588Y-89930250D01*
X105190443Y-89922929D01*
X105199604Y-89920097D01*
X105221127Y-89913461D01*
X105246579Y-89905675D01*
X105271780Y-89898018D01*
X105282154Y-89894884D01*
X105301447Y-89889036D01*
X105318673Y-89883749D01*
X105331629Y-89879705D01*
X105337187Y-89877906D01*
X105345258Y-89875318D01*
X105359448Y-89870909D01*
X105377767Y-89865291D01*
X105398228Y-89859079D01*
X105398570Y-89858976D01*
X105424375Y-89851131D01*
X105454061Y-89842030D01*
X105483434Y-89832961D01*
X105502287Y-89827096D01*
X105526455Y-89819610D01*
X105551770Y-89811877D01*
X105575027Y-89804872D01*
X105591187Y-89800098D01*
X105612839Y-89793715D01*
X105635141Y-89786995D01*
X105656178Y-89780528D01*
X105674039Y-89774906D01*
X105686809Y-89770722D01*
X105691167Y-89769173D01*
X105695579Y-89768607D01*
X105696354Y-89772067D01*
G36*
X101733535Y-89769684D02*
G01*
X101750656Y-89774062D01*
X101774965Y-89781299D01*
X101778611Y-89782427D01*
X101801730Y-89789582D01*
X101829387Y-89798112D01*
X101858021Y-89806919D01*
X101882787Y-89814514D01*
X101906133Y-89821666D01*
X101929040Y-89828697D01*
X101949072Y-89834856D01*
X101963794Y-89839397D01*
X101965337Y-89839875D01*
X101983261Y-89845401D01*
X102007443Y-89852818D01*
X102036035Y-89861563D01*
X102067191Y-89871071D01*
X102099066Y-89880779D01*
X102129813Y-89890124D01*
X102145254Y-89894807D01*
X102168922Y-89902008D01*
X102194770Y-89909917D01*
X102218620Y-89917255D01*
X102227804Y-89920097D01*
X102249322Y-89926737D01*
X102274769Y-89934535D01*
X102299965Y-89942212D01*
X102310354Y-89945361D01*
X102334596Y-89952735D01*
X102362465Y-89961276D01*
X102389511Y-89969618D01*
X102401370Y-89973299D01*
X102430023Y-89982201D01*
X102460561Y-89991663D01*
X102491591Y-90001256D01*
X102521720Y-90010551D01*
X102549556Y-90019118D01*
X102573706Y-90026528D01*
X102592776Y-90032353D01*
X102605375Y-90036162D01*
X102606687Y-90036553D01*
X102622586Y-90041303D01*
X102640684Y-90046751D01*
X102647962Y-90048954D01*
X102665810Y-90054356D01*
X102684705Y-90060052D01*
X102691354Y-90062050D01*
X102719240Y-90070444D01*
X102743308Y-90077765D01*
X102767558Y-90085238D01*
X102795070Y-90093800D01*
X102824135Y-90102851D01*
X102846523Y-90109764D01*
X102863628Y-90114956D01*
X102876844Y-90118844D01*
X102887566Y-90121844D01*
X102897189Y-90124375D01*
X102897728Y-90124513D01*
X102908615Y-90127850D01*
X102915011Y-90130905D01*
X102915720Y-90131851D01*
X102918301Y-90136402D01*
X102924814Y-90144680D01*
X102928420Y-90148833D01*
X102936063Y-90157891D01*
X102940589Y-90164218D01*
X102941120Y-90165514D01*
X102943718Y-90169967D01*
X102950073Y-90177613D01*
X102951067Y-90178697D01*
X102959575Y-90188933D01*
X102969271Y-90202060D01*
X102972796Y-90207228D01*
X102980093Y-90217426D01*
X102985759Y-90223868D01*
X102987602Y-90225033D01*
X102991644Y-90228354D01*
X102994448Y-90233013D01*
X102999397Y-90240890D01*
X103007606Y-90251800D01*
X103012175Y-90257354D01*
X103021203Y-90268420D01*
X103033094Y-90283591D01*
X103045719Y-90300137D01*
X103049708Y-90305467D01*
X103060301Y-90319542D01*
X103069076Y-90330910D01*
X103074764Y-90337937D01*
X103076079Y-90339333D01*
X103079686Y-90343439D01*
X103087095Y-90352707D01*
X103097032Y-90365524D01*
X103102967Y-90373312D01*
X103114481Y-90388324D01*
X103124898Y-90401579D01*
X103132599Y-90411032D01*
X103134772Y-90413528D01*
X103142229Y-90422491D01*
X103150991Y-90434101D01*
X103152842Y-90436700D01*
X103160722Y-90447721D01*
X103168291Y-90457714D01*
X103177668Y-90469412D01*
X103186951Y-90480696D01*
X103195973Y-90491930D01*
X103206802Y-90505859D01*
X103212351Y-90513163D01*
X103224112Y-90528402D01*
X103237168Y-90544744D01*
X103242527Y-90551263D01*
X103254362Y-90565875D01*
X103267338Y-90582497D01*
X103273936Y-90591217D01*
X103292423Y-90615766D01*
X103311586Y-90640555D01*
X103333778Y-90668627D01*
X103334820Y-90669934D01*
X103346181Y-90684244D01*
X103357051Y-90698043D01*
X103364453Y-90707541D01*
X103374029Y-90719842D01*
X103384866Y-90733609D01*
X103387737Y-90737227D01*
X103398875Y-90751338D01*
X103413414Y-90769912D01*
X103429881Y-90791048D01*
X103446799Y-90812847D01*
X103462693Y-90833408D01*
X103476090Y-90850833D01*
X103484432Y-90861786D01*
X103495226Y-90875692D01*
X103505963Y-90888916D01*
X103512047Y-90896016D01*
X103522342Y-90908413D01*
X103532537Y-90921971D01*
X103533628Y-90923533D01*
X103542817Y-90935829D01*
X103552220Y-90946949D01*
X103553638Y-90948452D01*
X103561578Y-90958251D01*
X103562812Y-90964095D01*
X103558128Y-90965585D01*
X103554499Y-90962602D01*
X103545302Y-90953985D01*
X103530925Y-90940118D01*
X103511757Y-90921387D01*
X103488184Y-90898176D01*
X103460594Y-90870869D01*
X103429375Y-90839851D01*
X103394914Y-90805507D01*
X103357600Y-90768222D01*
X103317819Y-90728379D01*
X103275960Y-90686363D01*
X103232410Y-90642559D01*
X103224235Y-90634327D01*
X102895633Y-90303350D01*
X102819951Y-90286993D01*
X102794257Y-90281469D01*
X102770071Y-90276321D01*
X102749160Y-90271922D01*
X102733290Y-90268643D01*
X102725220Y-90267042D01*
X102712433Y-90264503D01*
X102694469Y-90260778D01*
X102674416Y-90256510D01*
X102665954Y-90254676D01*
X102643649Y-90249838D01*
X102619898Y-90244726D01*
X102598942Y-90240254D01*
X102593987Y-90239206D01*
X102564122Y-90232893D01*
X102539963Y-90227755D01*
X102518927Y-90223231D01*
X102498434Y-90218764D01*
X102475900Y-90213795D01*
X102450054Y-90208056D01*
X102426578Y-90202879D01*
X102404412Y-90198074D01*
X102385649Y-90194089D01*
X102372380Y-90191371D01*
X102369620Y-90190839D01*
X102361268Y-90189232D01*
X102350744Y-90187108D01*
X102336976Y-90184241D01*
X102318891Y-90180403D01*
X102295418Y-90175369D01*
X102265486Y-90168910D01*
X102240504Y-90163505D01*
X102201080Y-90154999D01*
X102167996Y-90147935D01*
X102139330Y-90141902D01*
X102124087Y-90138739D01*
X102107723Y-90135299D01*
X102085808Y-90130602D01*
X102061055Y-90125235D01*
X102036176Y-90119783D01*
X102033070Y-90119098D01*
X102009022Y-90113877D01*
X101985363Y-90108898D01*
X101964571Y-90104673D01*
X101949123Y-90101713D01*
X101947142Y-90101362D01*
X101920481Y-90096714D01*
X101903532Y-90068799D01*
X101894632Y-90054127D01*
X101886897Y-90041350D01*
X101881853Y-90032989D01*
X101881509Y-90032417D01*
X101876617Y-90024893D01*
X101874181Y-90021833D01*
X101870940Y-90017304D01*
X101864892Y-90007783D01*
X101859281Y-89998550D01*
X101851378Y-89985332D01*
X101844555Y-89973942D01*
X101841537Y-89968917D01*
X101836500Y-89960445D01*
X101829229Y-89948098D01*
X101824687Y-89940346D01*
X101817679Y-89929260D01*
X101812046Y-89921957D01*
X101809762Y-89920237D01*
X101806941Y-89916790D01*
X101806587Y-89913883D01*
X101804545Y-89908246D01*
X101802812Y-89907533D01*
X101799086Y-89903945D01*
X101796382Y-89896950D01*
X101792982Y-89889021D01*
X101789573Y-89886367D01*
X101785631Y-89883073D01*
X101785420Y-89881568D01*
X101783282Y-89876559D01*
X101777540Y-89866097D01*
X101769204Y-89851831D01*
X101759285Y-89835406D01*
X101748793Y-89818471D01*
X101738736Y-89802672D01*
X101730126Y-89789657D01*
X101723972Y-89781073D01*
X101723266Y-89780200D01*
X101718467Y-89773421D01*
X101718124Y-89769390D01*
X101722919Y-89768135D01*
X101733535Y-89769684D01*
G37*
X101733535Y-89769684D02*
X101750656Y-89774062D01*
X101774965Y-89781299D01*
X101778611Y-89782427D01*
X101801730Y-89789582D01*
X101829387Y-89798112D01*
X101858021Y-89806919D01*
X101882787Y-89814514D01*
X101906133Y-89821666D01*
X101929040Y-89828697D01*
X101949072Y-89834856D01*
X101963794Y-89839397D01*
X101965337Y-89839875D01*
X101983261Y-89845401D01*
X102007443Y-89852818D01*
X102036035Y-89861563D01*
X102067191Y-89871071D01*
X102099066Y-89880779D01*
X102129813Y-89890124D01*
X102145254Y-89894807D01*
X102168922Y-89902008D01*
X102194770Y-89909917D01*
X102218620Y-89917255D01*
X102227804Y-89920097D01*
X102249322Y-89926737D01*
X102274769Y-89934535D01*
X102299965Y-89942212D01*
X102310354Y-89945361D01*
X102334596Y-89952735D01*
X102362465Y-89961276D01*
X102389511Y-89969618D01*
X102401370Y-89973299D01*
X102430023Y-89982201D01*
X102460561Y-89991663D01*
X102491591Y-90001256D01*
X102521720Y-90010551D01*
X102549556Y-90019118D01*
X102573706Y-90026528D01*
X102592776Y-90032353D01*
X102605375Y-90036162D01*
X102606687Y-90036553D01*
X102622586Y-90041303D01*
X102640684Y-90046751D01*
X102647962Y-90048954D01*
X102665810Y-90054356D01*
X102684705Y-90060052D01*
X102691354Y-90062050D01*
X102719240Y-90070444D01*
X102743308Y-90077765D01*
X102767558Y-90085238D01*
X102795070Y-90093800D01*
X102824135Y-90102851D01*
X102846523Y-90109764D01*
X102863628Y-90114956D01*
X102876844Y-90118844D01*
X102887566Y-90121844D01*
X102897189Y-90124375D01*
X102897728Y-90124513D01*
X102908615Y-90127850D01*
X102915011Y-90130905D01*
X102915720Y-90131851D01*
X102918301Y-90136402D01*
X102924814Y-90144680D01*
X102928420Y-90148833D01*
X102936063Y-90157891D01*
X102940589Y-90164218D01*
X102941120Y-90165514D01*
X102943718Y-90169967D01*
X102950073Y-90177613D01*
X102951067Y-90178697D01*
X102959575Y-90188933D01*
X102969271Y-90202060D01*
X102972796Y-90207228D01*
X102980093Y-90217426D01*
X102985759Y-90223868D01*
X102987602Y-90225033D01*
X102991644Y-90228354D01*
X102994448Y-90233013D01*
X102999397Y-90240890D01*
X103007606Y-90251800D01*
X103012175Y-90257354D01*
X103021203Y-90268420D01*
X103033094Y-90283591D01*
X103045719Y-90300137D01*
X103049708Y-90305467D01*
X103060301Y-90319542D01*
X103069076Y-90330910D01*
X103074764Y-90337937D01*
X103076079Y-90339333D01*
X103079686Y-90343439D01*
X103087095Y-90352707D01*
X103097032Y-90365524D01*
X103102967Y-90373312D01*
X103114481Y-90388324D01*
X103124898Y-90401579D01*
X103132599Y-90411032D01*
X103134772Y-90413528D01*
X103142229Y-90422491D01*
X103150991Y-90434101D01*
X103152842Y-90436700D01*
X103160722Y-90447721D01*
X103168291Y-90457714D01*
X103177668Y-90469412D01*
X103186951Y-90480696D01*
X103195973Y-90491930D01*
X103206802Y-90505859D01*
X103212351Y-90513163D01*
X103224112Y-90528402D01*
X103237168Y-90544744D01*
X103242527Y-90551263D01*
X103254362Y-90565875D01*
X103267338Y-90582497D01*
X103273936Y-90591217D01*
X103292423Y-90615766D01*
X103311586Y-90640555D01*
X103333778Y-90668627D01*
X103334820Y-90669934D01*
X103346181Y-90684244D01*
X103357051Y-90698043D01*
X103364453Y-90707541D01*
X103374029Y-90719842D01*
X103384866Y-90733609D01*
X103387737Y-90737227D01*
X103398875Y-90751338D01*
X103413414Y-90769912D01*
X103429881Y-90791048D01*
X103446799Y-90812847D01*
X103462693Y-90833408D01*
X103476090Y-90850833D01*
X103484432Y-90861786D01*
X103495226Y-90875692D01*
X103505963Y-90888916D01*
X103512047Y-90896016D01*
X103522342Y-90908413D01*
X103532537Y-90921971D01*
X103533628Y-90923533D01*
X103542817Y-90935829D01*
X103552220Y-90946949D01*
X103553638Y-90948452D01*
X103561578Y-90958251D01*
X103562812Y-90964095D01*
X103558128Y-90965585D01*
X103554499Y-90962602D01*
X103545302Y-90953985D01*
X103530925Y-90940118D01*
X103511757Y-90921387D01*
X103488184Y-90898176D01*
X103460594Y-90870869D01*
X103429375Y-90839851D01*
X103394914Y-90805507D01*
X103357600Y-90768222D01*
X103317819Y-90728379D01*
X103275960Y-90686363D01*
X103232410Y-90642559D01*
X103224235Y-90634327D01*
X102895633Y-90303350D01*
X102819951Y-90286993D01*
X102794257Y-90281469D01*
X102770071Y-90276321D01*
X102749160Y-90271922D01*
X102733290Y-90268643D01*
X102725220Y-90267042D01*
X102712433Y-90264503D01*
X102694469Y-90260778D01*
X102674416Y-90256510D01*
X102665954Y-90254676D01*
X102643649Y-90249838D01*
X102619898Y-90244726D01*
X102598942Y-90240254D01*
X102593987Y-90239206D01*
X102564122Y-90232893D01*
X102539963Y-90227755D01*
X102518927Y-90223231D01*
X102498434Y-90218764D01*
X102475900Y-90213795D01*
X102450054Y-90208056D01*
X102426578Y-90202879D01*
X102404412Y-90198074D01*
X102385649Y-90194089D01*
X102372380Y-90191371D01*
X102369620Y-90190839D01*
X102361268Y-90189232D01*
X102350744Y-90187108D01*
X102336976Y-90184241D01*
X102318891Y-90180403D01*
X102295418Y-90175369D01*
X102265486Y-90168910D01*
X102240504Y-90163505D01*
X102201080Y-90154999D01*
X102167996Y-90147935D01*
X102139330Y-90141902D01*
X102124087Y-90138739D01*
X102107723Y-90135299D01*
X102085808Y-90130602D01*
X102061055Y-90125235D01*
X102036176Y-90119783D01*
X102033070Y-90119098D01*
X102009022Y-90113877D01*
X101985363Y-90108898D01*
X101964571Y-90104673D01*
X101949123Y-90101713D01*
X101947142Y-90101362D01*
X101920481Y-90096714D01*
X101903532Y-90068799D01*
X101894632Y-90054127D01*
X101886897Y-90041350D01*
X101881853Y-90032989D01*
X101881509Y-90032417D01*
X101876617Y-90024893D01*
X101874181Y-90021833D01*
X101870940Y-90017304D01*
X101864892Y-90007783D01*
X101859281Y-89998550D01*
X101851378Y-89985332D01*
X101844555Y-89973942D01*
X101841537Y-89968917D01*
X101836500Y-89960445D01*
X101829229Y-89948098D01*
X101824687Y-89940346D01*
X101817679Y-89929260D01*
X101812046Y-89921957D01*
X101809762Y-89920237D01*
X101806941Y-89916790D01*
X101806587Y-89913883D01*
X101804545Y-89908246D01*
X101802812Y-89907533D01*
X101799086Y-89903945D01*
X101796382Y-89896950D01*
X101792982Y-89889021D01*
X101789573Y-89886367D01*
X101785631Y-89883073D01*
X101785420Y-89881568D01*
X101783282Y-89876559D01*
X101777540Y-89866097D01*
X101769204Y-89851831D01*
X101759285Y-89835406D01*
X101748793Y-89818471D01*
X101738736Y-89802672D01*
X101730126Y-89789657D01*
X101723972Y-89781073D01*
X101723266Y-89780200D01*
X101718467Y-89773421D01*
X101718124Y-89769390D01*
X101722919Y-89768135D01*
X101733535Y-89769684D01*
G36*
X101229835Y-88961257D02*
G01*
X101239904Y-88966549D01*
X101253435Y-88974128D01*
X101257947Y-88976732D01*
X101274132Y-88986130D01*
X101289310Y-88994929D01*
X101300553Y-89001434D01*
X101301762Y-89002132D01*
X101315630Y-89010135D01*
X101329278Y-89018017D01*
X101337369Y-89022665D01*
X101351337Y-89030659D01*
X101369701Y-89041153D01*
X101390982Y-89053303D01*
X101410770Y-89064590D01*
X101432730Y-89077141D01*
X101452427Y-89088452D01*
X101468566Y-89097776D01*
X101479849Y-89104362D01*
X101484853Y-89107379D01*
X101492709Y-89112037D01*
X101503880Y-89118144D01*
X101506020Y-89119268D01*
X101515364Y-89124302D01*
X101530105Y-89132432D01*
X101548282Y-89142568D01*
X101567930Y-89153621D01*
X101569520Y-89154520D01*
X101589197Y-89165576D01*
X101607560Y-89175768D01*
X101622650Y-89184016D01*
X101632506Y-89189239D01*
X101633020Y-89189500D01*
X101645119Y-89195772D01*
X101655293Y-89201347D01*
X101656304Y-89201935D01*
X101663084Y-89205729D01*
X101675662Y-89212595D01*
X101692363Y-89221625D01*
X101711511Y-89231909D01*
X101715570Y-89234081D01*
X101736009Y-89245030D01*
X101755315Y-89255409D01*
X101771460Y-89264124D01*
X101782413Y-89270082D01*
X101783304Y-89270571D01*
X101800458Y-89279806D01*
X101824129Y-89292235D01*
X101853236Y-89307313D01*
X101886700Y-89324494D01*
X101923441Y-89343235D01*
X101962379Y-89362991D01*
X102002434Y-89383215D01*
X102042526Y-89403364D01*
X102081575Y-89422892D01*
X102118502Y-89441255D01*
X102152226Y-89457908D01*
X102181668Y-89472304D01*
X102205747Y-89483901D01*
X102210870Y-89486331D01*
X102248353Y-89503907D01*
X102291558Y-89523948D01*
X102338454Y-89545518D01*
X102387007Y-89567680D01*
X102426770Y-89585703D01*
X102478480Y-89608652D01*
X102534821Y-89632939D01*
X102593359Y-89657551D01*
X102651663Y-89681480D01*
X102707300Y-89703715D01*
X102757839Y-89723247D01*
X102759087Y-89723718D01*
X102780972Y-89732024D01*
X102800560Y-89739532D01*
X102816243Y-89745620D01*
X102826415Y-89749667D01*
X102828937Y-89750734D01*
X102841300Y-89755760D01*
X102860423Y-89762820D01*
X102884966Y-89771476D01*
X102913591Y-89781288D01*
X102944960Y-89791818D01*
X102977733Y-89802628D01*
X103010573Y-89813279D01*
X103042141Y-89823331D01*
X103071098Y-89832348D01*
X103096105Y-89839890D01*
X103115825Y-89845518D01*
X103126717Y-89848307D01*
X103149330Y-89853531D01*
X103185337Y-89928157D01*
X103199054Y-89956534D01*
X103215127Y-89989702D01*
X103232190Y-90024844D01*
X103248875Y-90059148D01*
X103262672Y-90087450D01*
X103276174Y-90115153D01*
X103289773Y-90143124D01*
X103302555Y-90169482D01*
X103313609Y-90192346D01*
X103322022Y-90209835D01*
X103323217Y-90212333D01*
X103331808Y-90230310D01*
X103342907Y-90253533D01*
X103355369Y-90279609D01*
X103368052Y-90306146D01*
X103374809Y-90320283D01*
X103387496Y-90346677D01*
X103402620Y-90377906D01*
X103418847Y-90411226D01*
X103434841Y-90443894D01*
X103447202Y-90468994D01*
X103459056Y-90493196D01*
X103469516Y-90514960D01*
X103478029Y-90533103D01*
X103484043Y-90546443D01*
X103487006Y-90553795D01*
X103487220Y-90554719D01*
X103490151Y-90559235D01*
X103491453Y-90559467D01*
X103495394Y-90562806D01*
X103495687Y-90564721D01*
X103497450Y-90570834D01*
X103502115Y-90582242D01*
X103508748Y-90596692D01*
X103510178Y-90599646D01*
X103516684Y-90613022D01*
X103525979Y-90632211D01*
X103537185Y-90655392D01*
X103549422Y-90680747D01*
X103561358Y-90705516D01*
X103575732Y-90735301D01*
X103591805Y-90768497D01*
X103608108Y-90802072D01*
X103623169Y-90832997D01*
X103631533Y-90850113D01*
X103642296Y-90872342D01*
X103651622Y-90892075D01*
X103658913Y-90908009D01*
X103663573Y-90918838D01*
X103665020Y-90923138D01*
X103668013Y-90927563D01*
X103669253Y-90927766D01*
X103673230Y-90931085D01*
X103673487Y-90932813D01*
X103675225Y-90939099D01*
X103679756Y-90950156D01*
X103686053Y-90963897D01*
X103693093Y-90978232D01*
X103699848Y-90991074D01*
X103705293Y-91000335D01*
X103708404Y-91003927D01*
X103708412Y-91003927D01*
X103711426Y-91000652D01*
X103711587Y-90999142D01*
X103713367Y-90993848D01*
X103718278Y-90982393D01*
X103725678Y-90966197D01*
X103734926Y-90946680D01*
X103740792Y-90934584D01*
X103753345Y-90908829D01*
X103768017Y-90878606D01*
X103783271Y-90847083D01*
X103797573Y-90817429D01*
X103802532Y-90807116D01*
X103815269Y-90780717D01*
X103828820Y-90752828D01*
X103841914Y-90726051D01*
X103853281Y-90702990D01*
X103857994Y-90693518D01*
X103866903Y-90675222D01*
X103874196Y-90659341D01*
X103879120Y-90647583D01*
X103880920Y-90641660D01*
X103883324Y-90636259D01*
X103885154Y-90635666D01*
X103889241Y-90632426D01*
X103889387Y-90631291D01*
X103891177Y-90626372D01*
X103896194Y-90615010D01*
X103903903Y-90598348D01*
X103913774Y-90577530D01*
X103925271Y-90553697D01*
X103931305Y-90541332D01*
X103944520Y-90514267D01*
X103957443Y-90487641D01*
X103969269Y-90463126D01*
X103979194Y-90442391D01*
X103986413Y-90427108D01*
X103987854Y-90424000D01*
X103993501Y-90411850D01*
X104000337Y-90397349D01*
X104008700Y-90379797D01*
X104018928Y-90358493D01*
X104031359Y-90332736D01*
X104046330Y-90301826D01*
X104064179Y-90265062D01*
X104085244Y-90221742D01*
X104097034Y-90197517D01*
X104110524Y-90169740D01*
X104124714Y-90140407D01*
X104138444Y-90111928D01*
X104150548Y-90086715D01*
X104158281Y-90070517D01*
X104169959Y-90046027D01*
X104183587Y-90017560D01*
X104197418Y-89988756D01*
X104209018Y-89964683D01*
X104219818Y-89942224D01*
X104230461Y-89919914D01*
X104239830Y-89900105D01*
X104246810Y-89885148D01*
X104247702Y-89883205D01*
X104252201Y-89873231D01*
X104256010Y-89865908D01*
X104260473Y-89860444D01*
X104266936Y-89856047D01*
X104276743Y-89851925D01*
X104291238Y-89847287D01*
X104311765Y-89841340D01*
X104325420Y-89837424D01*
X104377876Y-89821537D01*
X104436590Y-89802367D01*
X104500246Y-89780411D01*
X104567528Y-89756169D01*
X104637119Y-89730139D01*
X104707702Y-89702820D01*
X104777962Y-89674710D01*
X104846581Y-89646309D01*
X104912244Y-89618115D01*
X104957428Y-89598008D01*
X104975346Y-89589955D01*
X104990236Y-89583369D01*
X105000532Y-89578933D01*
X105004661Y-89577333D01*
X105008889Y-89575657D01*
X105019147Y-89571117D01*
X105033802Y-89564446D01*
X105047871Y-89557940D01*
X105065744Y-89549630D01*
X105089064Y-89538800D01*
X105115597Y-89526488D01*
X105143106Y-89513731D01*
X105163620Y-89504224D01*
X105182010Y-89495534D01*
X105206885Y-89483523D01*
X105237188Y-89468720D01*
X105271863Y-89451653D01*
X105309852Y-89432850D01*
X105350100Y-89412840D01*
X105391548Y-89392151D01*
X105433142Y-89371310D01*
X105473823Y-89350846D01*
X105512536Y-89331286D01*
X105548223Y-89313161D01*
X105579828Y-89296996D01*
X105606294Y-89283321D01*
X105620820Y-89275711D01*
X105650862Y-89259717D01*
X105686598Y-89240478D01*
X105726352Y-89218913D01*
X105768445Y-89195941D01*
X105811199Y-89172480D01*
X105852936Y-89149449D01*
X105891979Y-89127766D01*
X105926650Y-89108350D01*
X105929854Y-89106545D01*
X105954031Y-89092902D01*
X105972999Y-89082164D01*
X105988932Y-89073092D01*
X106004004Y-89064447D01*
X106020387Y-89054990D01*
X106025656Y-89051940D01*
X106065867Y-89028701D01*
X106099338Y-89009459D01*
X106126621Y-88993909D01*
X106148270Y-88981748D01*
X106164837Y-88972673D01*
X106176875Y-88966380D01*
X106184939Y-88962565D01*
X106189579Y-88960926D01*
X106191256Y-88961025D01*
X106191350Y-88966274D01*
X106187523Y-88974927D01*
X106187250Y-88975382D01*
X106181636Y-88984766D01*
X106173521Y-88998555D01*
X106164631Y-89013818D01*
X106164352Y-89014300D01*
X106153464Y-89032626D01*
X106140796Y-89053259D01*
X106130152Y-89070074D01*
X106121546Y-89083928D01*
X106115123Y-89095299D01*
X106112014Y-89102150D01*
X106111887Y-89102883D01*
X106109525Y-89107253D01*
X106108616Y-89107433D01*
X106104815Y-89110833D01*
X106099188Y-89119363D01*
X106097015Y-89123308D01*
X106091370Y-89133631D01*
X106087276Y-89140345D01*
X106086527Y-89141300D01*
X106082867Y-89146289D01*
X106079381Y-89151883D01*
X106075304Y-89158610D01*
X106067786Y-89170838D01*
X106057866Y-89186886D01*
X106046582Y-89205070D01*
X106045515Y-89206787D01*
X106034263Y-89225181D01*
X106024473Y-89241746D01*
X106017138Y-89254760D01*
X106013255Y-89262500D01*
X106013109Y-89262879D01*
X106008997Y-89270293D01*
X106005701Y-89272533D01*
X106001955Y-89275787D01*
X106001820Y-89276934D01*
X105999602Y-89282536D01*
X105993831Y-89292698D01*
X105987004Y-89303335D01*
X105979216Y-89315651D01*
X105973849Y-89325572D01*
X105972187Y-89330332D01*
X105969552Y-89336093D01*
X105968438Y-89336739D01*
X105964714Y-89340776D01*
X105957903Y-89350394D01*
X105949199Y-89363864D01*
X105944838Y-89370958D01*
X105935704Y-89385435D01*
X105927917Y-89396648D01*
X105922649Y-89402959D01*
X105921363Y-89403766D01*
X105916413Y-89405494D01*
X105905326Y-89410236D01*
X105889589Y-89417330D01*
X105870692Y-89426115D01*
X105864237Y-89429167D01*
X105844847Y-89438321D01*
X105828361Y-89446009D01*
X105816198Y-89451576D01*
X105809779Y-89454367D01*
X105809161Y-89454567D01*
X105804891Y-89456240D01*
X105794758Y-89460727D01*
X105780554Y-89467223D01*
X105772412Y-89471010D01*
X105748657Y-89482067D01*
X105718343Y-89496098D01*
X105682618Y-89512574D01*
X105642629Y-89530966D01*
X105608120Y-89546804D01*
X105559787Y-89568982D01*
X105516679Y-89588810D01*
X105477733Y-89606792D01*
X105441889Y-89623433D01*
X105408088Y-89639237D01*
X105375267Y-89654709D01*
X105342366Y-89670354D01*
X105308325Y-89686676D01*
X105272082Y-89704179D01*
X105232578Y-89723368D01*
X105188750Y-89744748D01*
X105139540Y-89768824D01*
X105083885Y-89796099D01*
X105078954Y-89798517D01*
X105047632Y-89813854D01*
X105016227Y-89829192D01*
X104986271Y-89843785D01*
X104959294Y-89856888D01*
X104936829Y-89867757D01*
X104920405Y-89875646D01*
X104920204Y-89875742D01*
X104903037Y-89883982D01*
X104879991Y-89895118D01*
X104852787Y-89908314D01*
X104823148Y-89922735D01*
X104792792Y-89937545D01*
X104774154Y-89946660D01*
X104740279Y-89963242D01*
X104702405Y-89981778D01*
X104663231Y-90000947D01*
X104625455Y-90019429D01*
X104591777Y-90035904D01*
X104582894Y-90040248D01*
X104552544Y-90055232D01*
X104529007Y-90067221D01*
X104511393Y-90076732D01*
X104498812Y-90084283D01*
X104490373Y-90090389D01*
X104485185Y-90095569D01*
X104483556Y-90097932D01*
X104477738Y-90106465D01*
X104473361Y-90110647D01*
X104472959Y-90110733D01*
X104469350Y-90114190D01*
X104467433Y-90118580D01*
X104463331Y-90125929D01*
X104455360Y-90136661D01*
X104448255Y-90145039D01*
X104438040Y-90157199D01*
X104429596Y-90168589D01*
X104426119Y-90174233D01*
X104419176Y-90185175D01*
X104411008Y-90195400D01*
X104403444Y-90204614D01*
X104393643Y-90217756D01*
X104385608Y-90229238D01*
X104376873Y-90241913D01*
X104369593Y-90252065D01*
X104365637Y-90257142D01*
X104362432Y-90260872D01*
X104357845Y-90266642D01*
X104351221Y-90275323D01*
X104341907Y-90287788D01*
X104329249Y-90304908D01*
X104312591Y-90327557D01*
X104302395Y-90341450D01*
X104287682Y-90361413D01*
X104273792Y-90380091D01*
X104261907Y-90395905D01*
X104253210Y-90407280D01*
X104250330Y-90410928D01*
X104241366Y-90422356D01*
X104233690Y-90432719D01*
X104232287Y-90434739D01*
X104220229Y-90452404D01*
X104212257Y-90463778D01*
X104207814Y-90469651D01*
X104206974Y-90470567D01*
X104203028Y-90475381D01*
X104194591Y-90486475D01*
X104182107Y-90503248D01*
X104166022Y-90525101D01*
X104146783Y-90551436D01*
X104144018Y-90555233D01*
X104132754Y-90570660D01*
X104123100Y-90583793D01*
X104116297Y-90592949D01*
X104113882Y-90596106D01*
X104109530Y-90601775D01*
X104100926Y-90613205D01*
X104088848Y-90629349D01*
X104074075Y-90649159D01*
X104057385Y-90671584D01*
X104039556Y-90695578D01*
X104021366Y-90720091D01*
X104003595Y-90744075D01*
X103987020Y-90766481D01*
X103972418Y-90786262D01*
X103960570Y-90802368D01*
X103952253Y-90813751D01*
X103949635Y-90817381D01*
X103943368Y-90825948D01*
X103934224Y-90838216D01*
X103923883Y-90851958D01*
X103914023Y-90864950D01*
X103906324Y-90874967D01*
X103903065Y-90879083D01*
X103899112Y-90884424D01*
X103891816Y-90894718D01*
X103882616Y-90907931D01*
X103880723Y-90910673D01*
X103870572Y-90925050D01*
X103861243Y-90937658D01*
X103854569Y-90946025D01*
X103854006Y-90946657D01*
X103846809Y-90955632D01*
X103838209Y-90967774D01*
X103835353Y-90972122D01*
X103827883Y-90983374D01*
X103821655Y-90992068D01*
X103819933Y-90994200D01*
X103817133Y-90997419D01*
X103814047Y-91001165D01*
X103809671Y-91006731D01*
X103802998Y-91015413D01*
X103793022Y-91028503D01*
X103781908Y-91043125D01*
X103756980Y-91075933D01*
X103706934Y-91075933D01*
X103682045Y-91075551D01*
X103664977Y-91074365D01*
X103655119Y-91072316D01*
X103652404Y-91070641D01*
X103638658Y-91054124D01*
X103630311Y-91043363D01*
X103627011Y-91037901D01*
X103626925Y-91037423D01*
X103624438Y-91032701D01*
X103619248Y-91026049D01*
X103610570Y-91015365D01*
X103604623Y-91007410D01*
X103600365Y-91001567D01*
X103592018Y-90990241D01*
X103580467Y-90974621D01*
X103566593Y-90955895D01*
X103551282Y-90935253D01*
X103535415Y-90913885D01*
X103519876Y-90892980D01*
X103505549Y-90873726D01*
X103493316Y-90857314D01*
X103484060Y-90844932D01*
X103478666Y-90837770D01*
X103477880Y-90836750D01*
X103473773Y-90831271D01*
X103466417Y-90821240D01*
X103458657Y-90810559D01*
X103448432Y-90796440D01*
X103440072Y-90784945D01*
X103432282Y-90774322D01*
X103423770Y-90762817D01*
X103413243Y-90748679D01*
X103399407Y-90730155D01*
X103393282Y-90721960D01*
X103379780Y-90703877D01*
X103367539Y-90687440D01*
X103357741Y-90674239D01*
X103351568Y-90665867D01*
X103350799Y-90664810D01*
X103340583Y-90650820D01*
X103327476Y-90633056D01*
X103312327Y-90612651D01*
X103295984Y-90590736D01*
X103279297Y-90568442D01*
X103263116Y-90546903D01*
X103248289Y-90527250D01*
X103235667Y-90510615D01*
X103226098Y-90498129D01*
X103220432Y-90490926D01*
X103219541Y-90489877D01*
X103213919Y-90482764D01*
X103212053Y-90478883D01*
X103209598Y-90473912D01*
X103204645Y-90467337D01*
X103193286Y-90453703D01*
X103185400Y-90443584D01*
X103178835Y-90434171D01*
X103176410Y-90430458D01*
X103169852Y-90420699D01*
X103164817Y-90413871D01*
X103164526Y-90413527D01*
X103160845Y-90408785D01*
X103153284Y-90398733D01*
X103142969Y-90384891D01*
X103131026Y-90368777D01*
X103118579Y-90351910D01*
X103106754Y-90335811D01*
X103096676Y-90321997D01*
X103094362Y-90318802D01*
X103087090Y-90309004D01*
X103077937Y-90296990D01*
X103075528Y-90293879D01*
X103068495Y-90284306D01*
X103064342Y-90277641D01*
X103063867Y-90276309D01*
X103061234Y-90271857D01*
X103054683Y-90263898D01*
X103052071Y-90261017D01*
X103041644Y-90248404D01*
X103031884Y-90234542D01*
X103031034Y-90233179D01*
X103022284Y-90220307D01*
X103012937Y-90208540D01*
X103011712Y-90207184D01*
X103002394Y-90195839D01*
X102993382Y-90182982D01*
X102992832Y-90182105D01*
X102984848Y-90170329D01*
X102976974Y-90160327D01*
X102976150Y-90159417D01*
X102969184Y-90151010D01*
X102960157Y-90138980D01*
X102955151Y-90131900D01*
X102945817Y-90118882D01*
X102936806Y-90107136D01*
X102933101Y-90102677D01*
X102926889Y-90094648D01*
X102924190Y-90089297D01*
X102924187Y-90089201D01*
X102920628Y-90086034D01*
X102911089Y-90080303D01*
X102897278Y-90072994D01*
X102889262Y-90069035D01*
X102874657Y-90061984D01*
X102854208Y-90052110D01*
X102829695Y-90040274D01*
X102802897Y-90027334D01*
X102775594Y-90014150D01*
X102770320Y-90011604D01*
X102745851Y-89999813D01*
X102724076Y-89989370D01*
X102706104Y-89980801D01*
X102693041Y-89974634D01*
X102685995Y-89971395D01*
X102685083Y-89971033D01*
X102681084Y-89969276D01*
X102670604Y-89964363D01*
X102654780Y-89956838D01*
X102634747Y-89947240D01*
X102611642Y-89936112D01*
X102603999Y-89932419D01*
X102576641Y-89919209D01*
X102548680Y-89905738D01*
X102522175Y-89892997D01*
X102499182Y-89881973D01*
X102481804Y-89873678D01*
X102459351Y-89863003D01*
X102433180Y-89850561D01*
X102407219Y-89838220D01*
X102392904Y-89831415D01*
X102370356Y-89820659D01*
X102343576Y-89807828D01*
X102315947Y-89794545D01*
X102291304Y-89782652D01*
X102244434Y-89760005D01*
X102197640Y-89737450D01*
X102152737Y-89715859D01*
X102111542Y-89696106D01*
X102075870Y-89679065D01*
X102071170Y-89676826D01*
X102048155Y-89665849D01*
X102021083Y-89652911D01*
X101993528Y-89639719D01*
X101971687Y-89629244D01*
X101948225Y-89618003D01*
X101923593Y-89606243D01*
X101900738Y-89595368D01*
X101882787Y-89586868D01*
X101795590Y-89545476D01*
X101708088Y-89503355D01*
X101685738Y-89492508D01*
X101661176Y-89480623D01*
X101636847Y-89468945D01*
X101614761Y-89458432D01*
X101596926Y-89450042D01*
X101588371Y-89446092D01*
X101555416Y-89430728D01*
X101527705Y-89417060D01*
X101505916Y-89405447D01*
X101490727Y-89396248D01*
X101483291Y-89390364D01*
X101476012Y-89380984D01*
X101468063Y-89368561D01*
X101466264Y-89365384D01*
X101458352Y-89351496D01*
X101448368Y-89334751D01*
X101437400Y-89316881D01*
X101426535Y-89299617D01*
X101416860Y-89284690D01*
X101409463Y-89273829D01*
X101405746Y-89269056D01*
X101401001Y-89262452D01*
X101400187Y-89259657D01*
X101398015Y-89255054D01*
X101391965Y-89244494D01*
X101382740Y-89229142D01*
X101371039Y-89210162D01*
X101357564Y-89188720D01*
X101356431Y-89186934D01*
X101336518Y-89155477D01*
X101319755Y-89128754D01*
X101304678Y-89104397D01*
X101289825Y-89080042D01*
X101273730Y-89053321D01*
X101271909Y-89050283D01*
X101266942Y-89042753D01*
X101264401Y-89039700D01*
X101260957Y-89034930D01*
X101255427Y-89025712D01*
X101253818Y-89022844D01*
X101247177Y-89011791D01*
X101241246Y-89003428D01*
X101240378Y-89002433D01*
X101235783Y-88994712D01*
X101235087Y-88991232D01*
X101232113Y-88984087D01*
X101228737Y-88980433D01*
X101224409Y-88974105D01*
X101222356Y-88966229D01*
X101223182Y-88960356D01*
X101225138Y-88959267D01*
X101229835Y-88961257D01*
G37*
X101229835Y-88961257D02*
X101239904Y-88966549D01*
X101253435Y-88974128D01*
X101257947Y-88976732D01*
X101274132Y-88986130D01*
X101289310Y-88994929D01*
X101300553Y-89001434D01*
X101301762Y-89002132D01*
X101315630Y-89010135D01*
X101329278Y-89018017D01*
X101337369Y-89022665D01*
X101351337Y-89030659D01*
X101369701Y-89041153D01*
X101390982Y-89053303D01*
X101410770Y-89064590D01*
X101432730Y-89077141D01*
X101452427Y-89088452D01*
X101468566Y-89097776D01*
X101479849Y-89104362D01*
X101484853Y-89107379D01*
X101492709Y-89112037D01*
X101503880Y-89118144D01*
X101506020Y-89119268D01*
X101515364Y-89124302D01*
X101530105Y-89132432D01*
X101548282Y-89142568D01*
X101567930Y-89153621D01*
X101569520Y-89154520D01*
X101589197Y-89165576D01*
X101607560Y-89175768D01*
X101622650Y-89184016D01*
X101632506Y-89189239D01*
X101633020Y-89189500D01*
X101645119Y-89195772D01*
X101655293Y-89201347D01*
X101656304Y-89201935D01*
X101663084Y-89205729D01*
X101675662Y-89212595D01*
X101692363Y-89221625D01*
X101711511Y-89231909D01*
X101715570Y-89234081D01*
X101736009Y-89245030D01*
X101755315Y-89255409D01*
X101771460Y-89264124D01*
X101782413Y-89270082D01*
X101783304Y-89270571D01*
X101800458Y-89279806D01*
X101824129Y-89292235D01*
X101853236Y-89307313D01*
X101886700Y-89324494D01*
X101923441Y-89343235D01*
X101962379Y-89362991D01*
X102002434Y-89383215D01*
X102042526Y-89403364D01*
X102081575Y-89422892D01*
X102118502Y-89441255D01*
X102152226Y-89457908D01*
X102181668Y-89472304D01*
X102205747Y-89483901D01*
X102210870Y-89486331D01*
X102248353Y-89503907D01*
X102291558Y-89523948D01*
X102338454Y-89545518D01*
X102387007Y-89567680D01*
X102426770Y-89585703D01*
X102478480Y-89608652D01*
X102534821Y-89632939D01*
X102593359Y-89657551D01*
X102651663Y-89681480D01*
X102707300Y-89703715D01*
X102757839Y-89723247D01*
X102759087Y-89723718D01*
X102780972Y-89732024D01*
X102800560Y-89739532D01*
X102816243Y-89745620D01*
X102826415Y-89749667D01*
X102828937Y-89750734D01*
X102841300Y-89755760D01*
X102860423Y-89762820D01*
X102884966Y-89771476D01*
X102913591Y-89781288D01*
X102944960Y-89791818D01*
X102977733Y-89802628D01*
X103010573Y-89813279D01*
X103042141Y-89823331D01*
X103071098Y-89832348D01*
X103096105Y-89839890D01*
X103115825Y-89845518D01*
X103126717Y-89848307D01*
X103149330Y-89853531D01*
X103185337Y-89928157D01*
X103199054Y-89956534D01*
X103215127Y-89989702D01*
X103232190Y-90024844D01*
X103248875Y-90059148D01*
X103262672Y-90087450D01*
X103276174Y-90115153D01*
X103289773Y-90143124D01*
X103302555Y-90169482D01*
X103313609Y-90192346D01*
X103322022Y-90209835D01*
X103323217Y-90212333D01*
X103331808Y-90230310D01*
X103342907Y-90253533D01*
X103355369Y-90279609D01*
X103368052Y-90306146D01*
X103374809Y-90320283D01*
X103387496Y-90346677D01*
X103402620Y-90377906D01*
X103418847Y-90411226D01*
X103434841Y-90443894D01*
X103447202Y-90468994D01*
X103459056Y-90493196D01*
X103469516Y-90514960D01*
X103478029Y-90533103D01*
X103484043Y-90546443D01*
X103487006Y-90553795D01*
X103487220Y-90554719D01*
X103490151Y-90559235D01*
X103491453Y-90559467D01*
X103495394Y-90562806D01*
X103495687Y-90564721D01*
X103497450Y-90570834D01*
X103502115Y-90582242D01*
X103508748Y-90596692D01*
X103510178Y-90599646D01*
X103516684Y-90613022D01*
X103525979Y-90632211D01*
X103537185Y-90655392D01*
X103549422Y-90680747D01*
X103561358Y-90705516D01*
X103575732Y-90735301D01*
X103591805Y-90768497D01*
X103608108Y-90802072D01*
X103623169Y-90832997D01*
X103631533Y-90850113D01*
X103642296Y-90872342D01*
X103651622Y-90892075D01*
X103658913Y-90908009D01*
X103663573Y-90918838D01*
X103665020Y-90923138D01*
X103668013Y-90927563D01*
X103669253Y-90927766D01*
X103673230Y-90931085D01*
X103673487Y-90932813D01*
X103675225Y-90939099D01*
X103679756Y-90950156D01*
X103686053Y-90963897D01*
X103693093Y-90978232D01*
X103699848Y-90991074D01*
X103705293Y-91000335D01*
X103708404Y-91003927D01*
X103708412Y-91003927D01*
X103711426Y-91000652D01*
X103711587Y-90999142D01*
X103713367Y-90993848D01*
X103718278Y-90982393D01*
X103725678Y-90966197D01*
X103734926Y-90946680D01*
X103740792Y-90934584D01*
X103753345Y-90908829D01*
X103768017Y-90878606D01*
X103783271Y-90847083D01*
X103797573Y-90817429D01*
X103802532Y-90807116D01*
X103815269Y-90780717D01*
X103828820Y-90752828D01*
X103841914Y-90726051D01*
X103853281Y-90702990D01*
X103857994Y-90693518D01*
X103866903Y-90675222D01*
X103874196Y-90659341D01*
X103879120Y-90647583D01*
X103880920Y-90641660D01*
X103883324Y-90636259D01*
X103885154Y-90635666D01*
X103889241Y-90632426D01*
X103889387Y-90631291D01*
X103891177Y-90626372D01*
X103896194Y-90615010D01*
X103903903Y-90598348D01*
X103913774Y-90577530D01*
X103925271Y-90553697D01*
X103931305Y-90541332D01*
X103944520Y-90514267D01*
X103957443Y-90487641D01*
X103969269Y-90463126D01*
X103979194Y-90442391D01*
X103986413Y-90427108D01*
X103987854Y-90424000D01*
X103993501Y-90411850D01*
X104000337Y-90397349D01*
X104008700Y-90379797D01*
X104018928Y-90358493D01*
X104031359Y-90332736D01*
X104046330Y-90301826D01*
X104064179Y-90265062D01*
X104085244Y-90221742D01*
X104097034Y-90197517D01*
X104110524Y-90169740D01*
X104124714Y-90140407D01*
X104138444Y-90111928D01*
X104150548Y-90086715D01*
X104158281Y-90070517D01*
X104169959Y-90046027D01*
X104183587Y-90017560D01*
X104197418Y-89988756D01*
X104209018Y-89964683D01*
X104219818Y-89942224D01*
X104230461Y-89919914D01*
X104239830Y-89900105D01*
X104246810Y-89885148D01*
X104247702Y-89883205D01*
X104252201Y-89873231D01*
X104256010Y-89865908D01*
X104260473Y-89860444D01*
X104266936Y-89856047D01*
X104276743Y-89851925D01*
X104291238Y-89847287D01*
X104311765Y-89841340D01*
X104325420Y-89837424D01*
X104377876Y-89821537D01*
X104436590Y-89802367D01*
X104500246Y-89780411D01*
X104567528Y-89756169D01*
X104637119Y-89730139D01*
X104707702Y-89702820D01*
X104777962Y-89674710D01*
X104846581Y-89646309D01*
X104912244Y-89618115D01*
X104957428Y-89598008D01*
X104975346Y-89589955D01*
X104990236Y-89583369D01*
X105000532Y-89578933D01*
X105004661Y-89577333D01*
X105008889Y-89575657D01*
X105019147Y-89571117D01*
X105033802Y-89564446D01*
X105047871Y-89557940D01*
X105065744Y-89549630D01*
X105089064Y-89538800D01*
X105115597Y-89526488D01*
X105143106Y-89513731D01*
X105163620Y-89504224D01*
X105182010Y-89495534D01*
X105206885Y-89483523D01*
X105237188Y-89468720D01*
X105271863Y-89451653D01*
X105309852Y-89432850D01*
X105350100Y-89412840D01*
X105391548Y-89392151D01*
X105433142Y-89371310D01*
X105473823Y-89350846D01*
X105512536Y-89331286D01*
X105548223Y-89313161D01*
X105579828Y-89296996D01*
X105606294Y-89283321D01*
X105620820Y-89275711D01*
X105650862Y-89259717D01*
X105686598Y-89240478D01*
X105726352Y-89218913D01*
X105768445Y-89195941D01*
X105811199Y-89172480D01*
X105852936Y-89149449D01*
X105891979Y-89127766D01*
X105926650Y-89108350D01*
X105929854Y-89106545D01*
X105954031Y-89092902D01*
X105972999Y-89082164D01*
X105988932Y-89073092D01*
X106004004Y-89064447D01*
X106020387Y-89054990D01*
X106025656Y-89051940D01*
X106065867Y-89028701D01*
X106099338Y-89009459D01*
X106126621Y-88993909D01*
X106148270Y-88981748D01*
X106164837Y-88972673D01*
X106176875Y-88966380D01*
X106184939Y-88962565D01*
X106189579Y-88960926D01*
X106191256Y-88961025D01*
X106191350Y-88966274D01*
X106187523Y-88974927D01*
X106187250Y-88975382D01*
X106181636Y-88984766D01*
X106173521Y-88998555D01*
X106164631Y-89013818D01*
X106164352Y-89014300D01*
X106153464Y-89032626D01*
X106140796Y-89053259D01*
X106130152Y-89070074D01*
X106121546Y-89083928D01*
X106115123Y-89095299D01*
X106112014Y-89102150D01*
X106111887Y-89102883D01*
X106109525Y-89107253D01*
X106108616Y-89107433D01*
X106104815Y-89110833D01*
X106099188Y-89119363D01*
X106097015Y-89123308D01*
X106091370Y-89133631D01*
X106087276Y-89140345D01*
X106086527Y-89141300D01*
X106082867Y-89146289D01*
X106079381Y-89151883D01*
X106075304Y-89158610D01*
X106067786Y-89170838D01*
X106057866Y-89186886D01*
X106046582Y-89205070D01*
X106045515Y-89206787D01*
X106034263Y-89225181D01*
X106024473Y-89241746D01*
X106017138Y-89254760D01*
X106013255Y-89262500D01*
X106013109Y-89262879D01*
X106008997Y-89270293D01*
X106005701Y-89272533D01*
X106001955Y-89275787D01*
X106001820Y-89276934D01*
X105999602Y-89282536D01*
X105993831Y-89292698D01*
X105987004Y-89303335D01*
X105979216Y-89315651D01*
X105973849Y-89325572D01*
X105972187Y-89330332D01*
X105969552Y-89336093D01*
X105968438Y-89336739D01*
X105964714Y-89340776D01*
X105957903Y-89350394D01*
X105949199Y-89363864D01*
X105944838Y-89370958D01*
X105935704Y-89385435D01*
X105927917Y-89396648D01*
X105922649Y-89402959D01*
X105921363Y-89403766D01*
X105916413Y-89405494D01*
X105905326Y-89410236D01*
X105889589Y-89417330D01*
X105870692Y-89426115D01*
X105864237Y-89429167D01*
X105844847Y-89438321D01*
X105828361Y-89446009D01*
X105816198Y-89451576D01*
X105809779Y-89454367D01*
X105809161Y-89454567D01*
X105804891Y-89456240D01*
X105794758Y-89460727D01*
X105780554Y-89467223D01*
X105772412Y-89471010D01*
X105748657Y-89482067D01*
X105718343Y-89496098D01*
X105682618Y-89512574D01*
X105642629Y-89530966D01*
X105608120Y-89546804D01*
X105559787Y-89568982D01*
X105516679Y-89588810D01*
X105477733Y-89606792D01*
X105441889Y-89623433D01*
X105408088Y-89639237D01*
X105375267Y-89654709D01*
X105342366Y-89670354D01*
X105308325Y-89686676D01*
X105272082Y-89704179D01*
X105232578Y-89723368D01*
X105188750Y-89744748D01*
X105139540Y-89768824D01*
X105083885Y-89796099D01*
X105078954Y-89798517D01*
X105047632Y-89813854D01*
X105016227Y-89829192D01*
X104986271Y-89843785D01*
X104959294Y-89856888D01*
X104936829Y-89867757D01*
X104920405Y-89875646D01*
X104920204Y-89875742D01*
X104903037Y-89883982D01*
X104879991Y-89895118D01*
X104852787Y-89908314D01*
X104823148Y-89922735D01*
X104792792Y-89937545D01*
X104774154Y-89946660D01*
X104740279Y-89963242D01*
X104702405Y-89981778D01*
X104663231Y-90000947D01*
X104625455Y-90019429D01*
X104591777Y-90035904D01*
X104582894Y-90040248D01*
X104552544Y-90055232D01*
X104529007Y-90067221D01*
X104511393Y-90076732D01*
X104498812Y-90084283D01*
X104490373Y-90090389D01*
X104485185Y-90095569D01*
X104483556Y-90097932D01*
X104477738Y-90106465D01*
X104473361Y-90110647D01*
X104472959Y-90110733D01*
X104469350Y-90114190D01*
X104467433Y-90118580D01*
X104463331Y-90125929D01*
X104455360Y-90136661D01*
X104448255Y-90145039D01*
X104438040Y-90157199D01*
X104429596Y-90168589D01*
X104426119Y-90174233D01*
X104419176Y-90185175D01*
X104411008Y-90195400D01*
X104403444Y-90204614D01*
X104393643Y-90217756D01*
X104385608Y-90229238D01*
X104376873Y-90241913D01*
X104369593Y-90252065D01*
X104365637Y-90257142D01*
X104362432Y-90260872D01*
X104357845Y-90266642D01*
X104351221Y-90275323D01*
X104341907Y-90287788D01*
X104329249Y-90304908D01*
X104312591Y-90327557D01*
X104302395Y-90341450D01*
X104287682Y-90361413D01*
X104273792Y-90380091D01*
X104261907Y-90395905D01*
X104253210Y-90407280D01*
X104250330Y-90410928D01*
X104241366Y-90422356D01*
X104233690Y-90432719D01*
X104232287Y-90434739D01*
X104220229Y-90452404D01*
X104212257Y-90463778D01*
X104207814Y-90469651D01*
X104206974Y-90470567D01*
X104203028Y-90475381D01*
X104194591Y-90486475D01*
X104182107Y-90503248D01*
X104166022Y-90525101D01*
X104146783Y-90551436D01*
X104144018Y-90555233D01*
X104132754Y-90570660D01*
X104123100Y-90583793D01*
X104116297Y-90592949D01*
X104113882Y-90596106D01*
X104109530Y-90601775D01*
X104100926Y-90613205D01*
X104088848Y-90629349D01*
X104074075Y-90649159D01*
X104057385Y-90671584D01*
X104039556Y-90695578D01*
X104021366Y-90720091D01*
X104003595Y-90744075D01*
X103987020Y-90766481D01*
X103972418Y-90786262D01*
X103960570Y-90802368D01*
X103952253Y-90813751D01*
X103949635Y-90817381D01*
X103943368Y-90825948D01*
X103934224Y-90838216D01*
X103923883Y-90851958D01*
X103914023Y-90864950D01*
X103906324Y-90874967D01*
X103903065Y-90879083D01*
X103899112Y-90884424D01*
X103891816Y-90894718D01*
X103882616Y-90907931D01*
X103880723Y-90910673D01*
X103870572Y-90925050D01*
X103861243Y-90937658D01*
X103854569Y-90946025D01*
X103854006Y-90946657D01*
X103846809Y-90955632D01*
X103838209Y-90967774D01*
X103835353Y-90972122D01*
X103827883Y-90983374D01*
X103821655Y-90992068D01*
X103819933Y-90994200D01*
X103817133Y-90997419D01*
X103814047Y-91001165D01*
X103809671Y-91006731D01*
X103802998Y-91015413D01*
X103793022Y-91028503D01*
X103781908Y-91043125D01*
X103756980Y-91075933D01*
X103706934Y-91075933D01*
X103682045Y-91075551D01*
X103664977Y-91074365D01*
X103655119Y-91072316D01*
X103652404Y-91070641D01*
X103638658Y-91054124D01*
X103630311Y-91043363D01*
X103627011Y-91037901D01*
X103626925Y-91037423D01*
X103624438Y-91032701D01*
X103619248Y-91026049D01*
X103610570Y-91015365D01*
X103604623Y-91007410D01*
X103600365Y-91001567D01*
X103592018Y-90990241D01*
X103580467Y-90974621D01*
X103566593Y-90955895D01*
X103551282Y-90935253D01*
X103535415Y-90913885D01*
X103519876Y-90892980D01*
X103505549Y-90873726D01*
X103493316Y-90857314D01*
X103484060Y-90844932D01*
X103478666Y-90837770D01*
X103477880Y-90836750D01*
X103473773Y-90831271D01*
X103466417Y-90821240D01*
X103458657Y-90810559D01*
X103448432Y-90796440D01*
X103440072Y-90784945D01*
X103432282Y-90774322D01*
X103423770Y-90762817D01*
X103413243Y-90748679D01*
X103399407Y-90730155D01*
X103393282Y-90721960D01*
X103379780Y-90703877D01*
X103367539Y-90687440D01*
X103357741Y-90674239D01*
X103351568Y-90665867D01*
X103350799Y-90664810D01*
X103340583Y-90650820D01*
X103327476Y-90633056D01*
X103312327Y-90612651D01*
X103295984Y-90590736D01*
X103279297Y-90568442D01*
X103263116Y-90546903D01*
X103248289Y-90527250D01*
X103235667Y-90510615D01*
X103226098Y-90498129D01*
X103220432Y-90490926D01*
X103219541Y-90489877D01*
X103213919Y-90482764D01*
X103212053Y-90478883D01*
X103209598Y-90473912D01*
X103204645Y-90467337D01*
X103193286Y-90453703D01*
X103185400Y-90443584D01*
X103178835Y-90434171D01*
X103176410Y-90430458D01*
X103169852Y-90420699D01*
X103164817Y-90413871D01*
X103164526Y-90413527D01*
X103160845Y-90408785D01*
X103153284Y-90398733D01*
X103142969Y-90384891D01*
X103131026Y-90368777D01*
X103118579Y-90351910D01*
X103106754Y-90335811D01*
X103096676Y-90321997D01*
X103094362Y-90318802D01*
X103087090Y-90309004D01*
X103077937Y-90296990D01*
X103075528Y-90293879D01*
X103068495Y-90284306D01*
X103064342Y-90277641D01*
X103063867Y-90276309D01*
X103061234Y-90271857D01*
X103054683Y-90263898D01*
X103052071Y-90261017D01*
X103041644Y-90248404D01*
X103031884Y-90234542D01*
X103031034Y-90233179D01*
X103022284Y-90220307D01*
X103012937Y-90208540D01*
X103011712Y-90207184D01*
X103002394Y-90195839D01*
X102993382Y-90182982D01*
X102992832Y-90182105D01*
X102984848Y-90170329D01*
X102976974Y-90160327D01*
X102976150Y-90159417D01*
X102969184Y-90151010D01*
X102960157Y-90138980D01*
X102955151Y-90131900D01*
X102945817Y-90118882D01*
X102936806Y-90107136D01*
X102933101Y-90102677D01*
X102926889Y-90094648D01*
X102924190Y-90089297D01*
X102924187Y-90089201D01*
X102920628Y-90086034D01*
X102911089Y-90080303D01*
X102897278Y-90072994D01*
X102889262Y-90069035D01*
X102874657Y-90061984D01*
X102854208Y-90052110D01*
X102829695Y-90040274D01*
X102802897Y-90027334D01*
X102775594Y-90014150D01*
X102770320Y-90011604D01*
X102745851Y-89999813D01*
X102724076Y-89989370D01*
X102706104Y-89980801D01*
X102693041Y-89974634D01*
X102685995Y-89971395D01*
X102685083Y-89971033D01*
X102681084Y-89969276D01*
X102670604Y-89964363D01*
X102654780Y-89956838D01*
X102634747Y-89947240D01*
X102611642Y-89936112D01*
X102603999Y-89932419D01*
X102576641Y-89919209D01*
X102548680Y-89905738D01*
X102522175Y-89892997D01*
X102499182Y-89881973D01*
X102481804Y-89873678D01*
X102459351Y-89863003D01*
X102433180Y-89850561D01*
X102407219Y-89838220D01*
X102392904Y-89831415D01*
X102370356Y-89820659D01*
X102343576Y-89807828D01*
X102315947Y-89794545D01*
X102291304Y-89782652D01*
X102244434Y-89760005D01*
X102197640Y-89737450D01*
X102152737Y-89715859D01*
X102111542Y-89696106D01*
X102075870Y-89679065D01*
X102071170Y-89676826D01*
X102048155Y-89665849D01*
X102021083Y-89652911D01*
X101993528Y-89639719D01*
X101971687Y-89629244D01*
X101948225Y-89618003D01*
X101923593Y-89606243D01*
X101900738Y-89595368D01*
X101882787Y-89586868D01*
X101795590Y-89545476D01*
X101708088Y-89503355D01*
X101685738Y-89492508D01*
X101661176Y-89480623D01*
X101636847Y-89468945D01*
X101614761Y-89458432D01*
X101596926Y-89450042D01*
X101588371Y-89446092D01*
X101555416Y-89430728D01*
X101527705Y-89417060D01*
X101505916Y-89405447D01*
X101490727Y-89396248D01*
X101483291Y-89390364D01*
X101476012Y-89380984D01*
X101468063Y-89368561D01*
X101466264Y-89365384D01*
X101458352Y-89351496D01*
X101448368Y-89334751D01*
X101437400Y-89316881D01*
X101426535Y-89299617D01*
X101416860Y-89284690D01*
X101409463Y-89273829D01*
X101405746Y-89269056D01*
X101401001Y-89262452D01*
X101400187Y-89259657D01*
X101398015Y-89255054D01*
X101391965Y-89244494D01*
X101382740Y-89229142D01*
X101371039Y-89210162D01*
X101357564Y-89188720D01*
X101356431Y-89186934D01*
X101336518Y-89155477D01*
X101319755Y-89128754D01*
X101304678Y-89104397D01*
X101289825Y-89080042D01*
X101273730Y-89053321D01*
X101271909Y-89050283D01*
X101266942Y-89042753D01*
X101264401Y-89039700D01*
X101260957Y-89034930D01*
X101255427Y-89025712D01*
X101253818Y-89022844D01*
X101247177Y-89011791D01*
X101241246Y-89003428D01*
X101240378Y-89002433D01*
X101235783Y-88994712D01*
X101235087Y-88991232D01*
X101232113Y-88984087D01*
X101228737Y-88980433D01*
X101224409Y-88974105D01*
X101222356Y-88966229D01*
X101223182Y-88960356D01*
X101225138Y-88959267D01*
X101229835Y-88961257D01*
G36*
X106725720Y-91943767D02*
G01*
X106886587Y-91943767D01*
X106886587Y-92058067D01*
X106590253Y-92058067D01*
X106590253Y-91550067D01*
X106725720Y-91550067D01*
X106725720Y-91943767D01*
G37*
X106725720Y-91943767D02*
X106886587Y-91943767D01*
X106886587Y-92058067D01*
X106590253Y-92058067D01*
X106590253Y-91550067D01*
X106725720Y-91550067D01*
X106725720Y-91943767D01*
G36*
X106175387Y-92058067D02*
G01*
X106039920Y-92058067D01*
X106039920Y-91550067D01*
X106175387Y-91550067D01*
X106175387Y-92058067D01*
G37*
X106175387Y-92058067D02*
X106039920Y-92058067D01*
X106039920Y-91550067D01*
X106175387Y-91550067D01*
X106175387Y-92058067D01*
G36*
X105629083Y-91550122D02*
G01*
X105648394Y-91550366D01*
X105661467Y-91550913D01*
X105669419Y-91551878D01*
X105673362Y-91553378D01*
X105674411Y-91555527D01*
X105674022Y-91557475D01*
X105671972Y-91562581D01*
X105666877Y-91574787D01*
X105659027Y-91593411D01*
X105648712Y-91617769D01*
X105636222Y-91647180D01*
X105621846Y-91680960D01*
X105605875Y-91718429D01*
X105588598Y-91758902D01*
X105570305Y-91801698D01*
X105566576Y-91810417D01*
X105461532Y-92055950D01*
X105352004Y-92058038D01*
X105248287Y-91810493D01*
X105230130Y-91767108D01*
X105212942Y-91725943D01*
X105197003Y-91687676D01*
X105182594Y-91652986D01*
X105169997Y-91622553D01*
X105159492Y-91597056D01*
X105151360Y-91577173D01*
X105145883Y-91563584D01*
X105143341Y-91556968D01*
X105143201Y-91556507D01*
X105143667Y-91554153D01*
X105146946Y-91552442D01*
X105154130Y-91551278D01*
X105166314Y-91550562D01*
X105184591Y-91550197D01*
X105210054Y-91550085D01*
X105215168Y-91550084D01*
X105288504Y-91550102D01*
X105347731Y-91700195D01*
X105360998Y-91733584D01*
X105373353Y-91764236D01*
X105384447Y-91791319D01*
X105393932Y-91813998D01*
X105401457Y-91831441D01*
X105406674Y-91842813D01*
X105409232Y-91847281D01*
X105409385Y-91847286D01*
X105411443Y-91842796D01*
X105416250Y-91831317D01*
X105423447Y-91813734D01*
X105432674Y-91790933D01*
X105443574Y-91763802D01*
X105455788Y-91733226D01*
X105468957Y-91700091D01*
X105470113Y-91697175D01*
X105528415Y-91550067D01*
X105602420Y-91550067D01*
X105629083Y-91550122D01*
G37*
X105629083Y-91550122D02*
X105648394Y-91550366D01*
X105661467Y-91550913D01*
X105669419Y-91551878D01*
X105673362Y-91553378D01*
X105674411Y-91555527D01*
X105674022Y-91557475D01*
X105671972Y-91562581D01*
X105666877Y-91574787D01*
X105659027Y-91593411D01*
X105648712Y-91617769D01*
X105636222Y-91647180D01*
X105621846Y-91680960D01*
X105605875Y-91718429D01*
X105588598Y-91758902D01*
X105570305Y-91801698D01*
X105566576Y-91810417D01*
X105461532Y-92055950D01*
X105352004Y-92058038D01*
X105248287Y-91810493D01*
X105230130Y-91767108D01*
X105212942Y-91725943D01*
X105197003Y-91687676D01*
X105182594Y-91652986D01*
X105169997Y-91622553D01*
X105159492Y-91597056D01*
X105151360Y-91577173D01*
X105145883Y-91563584D01*
X105143341Y-91556968D01*
X105143201Y-91556507D01*
X105143667Y-91554153D01*
X105146946Y-91552442D01*
X105154130Y-91551278D01*
X105166314Y-91550562D01*
X105184591Y-91550197D01*
X105210054Y-91550085D01*
X105215168Y-91550084D01*
X105288504Y-91550102D01*
X105347731Y-91700195D01*
X105360998Y-91733584D01*
X105373353Y-91764236D01*
X105384447Y-91791319D01*
X105393932Y-91813998D01*
X105401457Y-91831441D01*
X105406674Y-91842813D01*
X105409232Y-91847281D01*
X105409385Y-91847286D01*
X105411443Y-91842796D01*
X105416250Y-91831317D01*
X105423447Y-91813734D01*
X105432674Y-91790933D01*
X105443574Y-91763802D01*
X105455788Y-91733226D01*
X105468957Y-91700091D01*
X105470113Y-91697175D01*
X105528415Y-91550067D01*
X105602420Y-91550067D01*
X105629083Y-91550122D01*
G36*
X104782620Y-91664367D02*
G01*
X104625987Y-91664367D01*
X104625987Y-91744800D01*
X104774154Y-91744800D01*
X104774154Y-91863333D01*
X104625987Y-91863333D01*
X104625987Y-91943767D01*
X104782620Y-91943767D01*
X104782620Y-92058067D01*
X104490520Y-92058067D01*
X104490520Y-91550067D01*
X104782620Y-91550067D01*
X104782620Y-91664367D01*
G37*
X104782620Y-91664367D02*
X104625987Y-91664367D01*
X104625987Y-91744800D01*
X104774154Y-91744800D01*
X104774154Y-91863333D01*
X104625987Y-91863333D01*
X104625987Y-91943767D01*
X104782620Y-91943767D01*
X104782620Y-92058067D01*
X104490520Y-92058067D01*
X104490520Y-91550067D01*
X104782620Y-91550067D01*
X104782620Y-91664367D01*
G36*
X103759212Y-91550140D02*
G01*
X103799485Y-91550353D01*
X103832587Y-91551059D01*
X103859810Y-91552447D01*
X103882445Y-91554706D01*
X103901782Y-91558026D01*
X103919112Y-91562596D01*
X103935726Y-91568606D01*
X103952916Y-91576246D01*
X103959827Y-91579597D01*
X103996449Y-91602128D01*
X104029038Y-91631096D01*
X104056477Y-91665134D01*
X104077644Y-91702880D01*
X104090350Y-91738671D01*
X104093487Y-91755608D01*
X104095746Y-91777496D01*
X104096788Y-91800838D01*
X104096820Y-91805403D01*
X104094403Y-91848115D01*
X104086672Y-91885448D01*
X104072913Y-91919132D01*
X104052408Y-91950900D01*
X104024441Y-91982482D01*
X104022933Y-91983990D01*
X103995005Y-92009294D01*
X103969575Y-92027097D01*
X103961354Y-92031539D01*
X103945886Y-92038921D01*
X103931616Y-92044801D01*
X103917317Y-92049349D01*
X103901760Y-92052732D01*
X103883717Y-92055118D01*
X103861962Y-92056676D01*
X103835265Y-92057574D01*
X103802399Y-92057981D01*
X103767847Y-92058067D01*
X103652320Y-92058067D01*
X103652320Y-91944828D01*
X103787787Y-91944828D01*
X103823722Y-91942942D01*
X103844030Y-91941337D01*
X103859628Y-91938397D01*
X103874263Y-91933165D01*
X103888092Y-91926536D01*
X103915433Y-91908493D01*
X103935832Y-91885747D01*
X103949390Y-91858124D01*
X103956207Y-91825450D01*
X103957120Y-91806183D01*
X103953572Y-91771059D01*
X103943164Y-91739908D01*
X103926253Y-91713444D01*
X103903196Y-91692380D01*
X103898803Y-91689459D01*
X103882785Y-91680366D01*
X103866812Y-91674037D01*
X103848232Y-91669698D01*
X103824395Y-91666574D01*
X103818479Y-91666000D01*
X103787787Y-91663151D01*
X103787787Y-91944828D01*
X103652320Y-91944828D01*
X103652320Y-91550067D01*
X103759212Y-91550140D01*
G37*
X103759212Y-91550140D02*
X103799485Y-91550353D01*
X103832587Y-91551059D01*
X103859810Y-91552447D01*
X103882445Y-91554706D01*
X103901782Y-91558026D01*
X103919112Y-91562596D01*
X103935726Y-91568606D01*
X103952916Y-91576246D01*
X103959827Y-91579597D01*
X103996449Y-91602128D01*
X104029038Y-91631096D01*
X104056477Y-91665134D01*
X104077644Y-91702880D01*
X104090350Y-91738671D01*
X104093487Y-91755608D01*
X104095746Y-91777496D01*
X104096788Y-91800838D01*
X104096820Y-91805403D01*
X104094403Y-91848115D01*
X104086672Y-91885448D01*
X104072913Y-91919132D01*
X104052408Y-91950900D01*
X104024441Y-91982482D01*
X104022933Y-91983990D01*
X103995005Y-92009294D01*
X103969575Y-92027097D01*
X103961354Y-92031539D01*
X103945886Y-92038921D01*
X103931616Y-92044801D01*
X103917317Y-92049349D01*
X103901760Y-92052732D01*
X103883717Y-92055118D01*
X103861962Y-92056676D01*
X103835265Y-92057574D01*
X103802399Y-92057981D01*
X103767847Y-92058067D01*
X103652320Y-92058067D01*
X103652320Y-91944828D01*
X103787787Y-91944828D01*
X103823722Y-91942942D01*
X103844030Y-91941337D01*
X103859628Y-91938397D01*
X103874263Y-91933165D01*
X103888092Y-91926536D01*
X103915433Y-91908493D01*
X103935832Y-91885747D01*
X103949390Y-91858124D01*
X103956207Y-91825450D01*
X103957120Y-91806183D01*
X103953572Y-91771059D01*
X103943164Y-91739908D01*
X103926253Y-91713444D01*
X103903196Y-91692380D01*
X103898803Y-91689459D01*
X103882785Y-91680366D01*
X103866812Y-91674037D01*
X103848232Y-91669698D01*
X103824395Y-91666574D01*
X103818479Y-91666000D01*
X103787787Y-91663151D01*
X103787787Y-91944828D01*
X103652320Y-91944828D01*
X103652320Y-91550067D01*
X103759212Y-91550140D01*
G36*
X102414266Y-91702192D02*
G01*
X102532604Y-91854318D01*
X102533715Y-91702192D01*
X102534826Y-91550067D01*
X102670187Y-91550067D01*
X102670187Y-92058067D01*
X102531876Y-92058067D01*
X102415823Y-91908388D01*
X102299770Y-91758710D01*
X102298658Y-91908388D01*
X102297547Y-92058067D01*
X102162187Y-92058067D01*
X102162187Y-91550067D01*
X102295929Y-91550067D01*
X102414266Y-91702192D01*
G37*
X102414266Y-91702192D02*
X102532604Y-91854318D01*
X102533715Y-91702192D01*
X102534826Y-91550067D01*
X102670187Y-91550067D01*
X102670187Y-92058067D01*
X102531876Y-92058067D01*
X102415823Y-91908388D01*
X102299770Y-91758710D01*
X102298658Y-91908388D01*
X102297547Y-92058067D01*
X102162187Y-92058067D01*
X102162187Y-91550067D01*
X102295929Y-91550067D01*
X102414266Y-91702192D01*
G36*
X101439124Y-91720583D02*
G01*
X101440403Y-91891099D01*
X101451091Y-91911855D01*
X101465189Y-91931561D01*
X101483983Y-91944575D01*
X101507974Y-91951171D01*
X101524678Y-91952164D01*
X101545258Y-91950601D01*
X101561526Y-91945489D01*
X101567005Y-91942639D01*
X101577102Y-91936287D01*
X101585566Y-91929257D01*
X101592539Y-91920779D01*
X101598164Y-91910086D01*
X101602585Y-91896411D01*
X101605942Y-91878985D01*
X101608379Y-91857041D01*
X101610038Y-91829810D01*
X101611062Y-91796526D01*
X101611594Y-91756420D01*
X101611774Y-91708725D01*
X101611780Y-91701408D01*
X101611854Y-91550067D01*
X101747320Y-91550067D01*
X101747285Y-91707758D01*
X101747146Y-91758698D01*
X101746716Y-91802000D01*
X101745938Y-91838487D01*
X101744758Y-91868987D01*
X101743119Y-91894322D01*
X101740966Y-91915319D01*
X101738243Y-91932801D01*
X101734893Y-91947595D01*
X101730863Y-91960524D01*
X101730048Y-91962749D01*
X101715524Y-91990180D01*
X101693982Y-92015269D01*
X101666783Y-92036905D01*
X101635287Y-92053977D01*
X101606019Y-92064104D01*
X101585339Y-92068063D01*
X101559377Y-92070972D01*
X101531274Y-92072663D01*
X101504169Y-92072964D01*
X101481202Y-92071708D01*
X101476387Y-92071117D01*
X101433734Y-92061779D01*
X101396408Y-92046781D01*
X101364874Y-92026432D01*
X101339598Y-92001037D01*
X101321048Y-91970902D01*
X101319923Y-91968419D01*
X101315915Y-91958350D01*
X101312572Y-91947300D01*
X101309836Y-91934440D01*
X101307650Y-91918942D01*
X101305956Y-91899975D01*
X101304697Y-91876713D01*
X101303814Y-91848324D01*
X101303251Y-91813981D01*
X101302950Y-91772855D01*
X101302852Y-91724116D01*
X101302852Y-91722575D01*
X101302820Y-91550067D01*
X101437844Y-91550067D01*
X101439124Y-91720583D01*
G37*
X101439124Y-91720583D02*
X101440403Y-91891099D01*
X101451091Y-91911855D01*
X101465189Y-91931561D01*
X101483983Y-91944575D01*
X101507974Y-91951171D01*
X101524678Y-91952164D01*
X101545258Y-91950601D01*
X101561526Y-91945489D01*
X101567005Y-91942639D01*
X101577102Y-91936287D01*
X101585566Y-91929257D01*
X101592539Y-91920779D01*
X101598164Y-91910086D01*
X101602585Y-91896411D01*
X101605942Y-91878985D01*
X101608379Y-91857041D01*
X101610038Y-91829810D01*
X101611062Y-91796526D01*
X101611594Y-91756420D01*
X101611774Y-91708725D01*
X101611780Y-91701408D01*
X101611854Y-91550067D01*
X101747320Y-91550067D01*
X101747285Y-91707758D01*
X101747146Y-91758698D01*
X101746716Y-91802000D01*
X101745938Y-91838487D01*
X101744758Y-91868987D01*
X101743119Y-91894322D01*
X101740966Y-91915319D01*
X101738243Y-91932801D01*
X101734893Y-91947595D01*
X101730863Y-91960524D01*
X101730048Y-91962749D01*
X101715524Y-91990180D01*
X101693982Y-92015269D01*
X101666783Y-92036905D01*
X101635287Y-92053977D01*
X101606019Y-92064104D01*
X101585339Y-92068063D01*
X101559377Y-92070972D01*
X101531274Y-92072663D01*
X101504169Y-92072964D01*
X101481202Y-92071708D01*
X101476387Y-92071117D01*
X101433734Y-92061779D01*
X101396408Y-92046781D01*
X101364874Y-92026432D01*
X101339598Y-92001037D01*
X101321048Y-91970902D01*
X101319923Y-91968419D01*
X101315915Y-91958350D01*
X101312572Y-91947300D01*
X101309836Y-91934440D01*
X101307650Y-91918942D01*
X101305956Y-91899975D01*
X101304697Y-91876713D01*
X101303814Y-91848324D01*
X101303251Y-91813981D01*
X101302950Y-91772855D01*
X101302852Y-91724116D01*
X101302852Y-91722575D01*
X101302820Y-91550067D01*
X101437844Y-91550067D01*
X101439124Y-91720583D01*
G36*
X100761673Y-91540527D02*
G01*
X100788169Y-91543213D01*
X100809637Y-91547625D01*
X100831316Y-91554052D01*
X100851463Y-91561226D01*
X100868550Y-91568477D01*
X100881052Y-91575134D01*
X100887443Y-91580527D01*
X100887954Y-91582020D01*
X100886071Y-91587638D01*
X100880924Y-91599128D01*
X100873259Y-91614906D01*
X100863827Y-91633390D01*
X100862100Y-91636689D01*
X100836246Y-91685912D01*
X100825058Y-91678473D01*
X100796963Y-91662912D01*
X100770066Y-91654055D01*
X100745274Y-91652004D01*
X100723497Y-91656861D01*
X100709272Y-91665442D01*
X100700469Y-91675419D01*
X100695123Y-91686312D01*
X100695062Y-91686563D01*
X100694505Y-91695189D01*
X100698361Y-91703288D01*
X100706534Y-91712394D01*
X100715434Y-91719811D01*
X100727252Y-91726586D01*
X100743704Y-91733537D01*
X100766505Y-91741483D01*
X100769427Y-91742438D01*
X100802161Y-91753779D01*
X100828092Y-91764496D01*
X100848768Y-91775384D01*
X100865734Y-91787236D01*
X100877734Y-91798002D01*
X100892382Y-91816001D01*
X100902116Y-91836826D01*
X100907493Y-91862155D01*
X100909070Y-91892662D01*
X100905981Y-91934105D01*
X100896712Y-91969840D01*
X100881071Y-92000143D01*
X100858870Y-92025290D01*
X100829918Y-92045554D01*
X100794026Y-92061212D01*
X100792399Y-92061761D01*
X100769666Y-92067342D01*
X100741896Y-92071154D01*
X100712379Y-92072961D01*
X100684402Y-92072528D01*
X100667268Y-92070729D01*
X100649720Y-92067173D01*
X100629565Y-92061966D01*
X100616468Y-92057960D01*
X100601363Y-92052217D01*
X100584189Y-92044620D01*
X100566941Y-92036188D01*
X100551612Y-92027941D01*
X100540195Y-92020897D01*
X100534750Y-92016186D01*
X100536037Y-92011815D01*
X100540469Y-92001620D01*
X100547220Y-91987252D01*
X100555462Y-91970364D01*
X100564370Y-91952608D01*
X100573116Y-91935637D01*
X100580874Y-91921103D01*
X100586818Y-91910659D01*
X100589647Y-91906434D01*
X100593390Y-91907951D01*
X100601953Y-91913259D01*
X100611314Y-91919686D01*
X100636670Y-91936206D01*
X100659035Y-91947099D01*
X100680730Y-91953326D01*
X100697834Y-91955504D01*
X100717194Y-91955957D01*
X100731675Y-91953755D01*
X100741412Y-91950066D01*
X100756768Y-91939217D01*
X100766084Y-91925149D01*
X100768837Y-91909669D01*
X100764507Y-91894586D01*
X100759418Y-91887644D01*
X100751539Y-91880161D01*
X100742165Y-91873737D01*
X100729744Y-91867643D01*
X100712721Y-91861155D01*
X100689543Y-91853544D01*
X100680529Y-91850740D01*
X100646200Y-91839141D01*
X100619113Y-91827488D01*
X100598075Y-91815020D01*
X100581893Y-91800972D01*
X100569371Y-91784584D01*
X100564986Y-91776951D01*
X100560860Y-91768037D01*
X100558166Y-91758520D01*
X100556614Y-91746334D01*
X100555919Y-91729417D01*
X100555785Y-91710933D01*
X100556064Y-91687809D01*
X100557115Y-91670735D01*
X100559256Y-91657307D01*
X100562808Y-91645121D01*
X100565464Y-91638113D01*
X100582152Y-91607718D01*
X100605965Y-91581635D01*
X100636525Y-91560254D01*
X100645707Y-91555425D01*
X100659579Y-91548706D01*
X100670460Y-91544207D01*
X100680668Y-91541489D01*
X100692521Y-91540112D01*
X100708335Y-91539635D01*
X100728984Y-91539616D01*
X100761673Y-91540527D01*
G37*
X100761673Y-91540527D02*
X100788169Y-91543213D01*
X100809637Y-91547625D01*
X100831316Y-91554052D01*
X100851463Y-91561226D01*
X100868550Y-91568477D01*
X100881052Y-91575134D01*
X100887443Y-91580527D01*
X100887954Y-91582020D01*
X100886071Y-91587638D01*
X100880924Y-91599128D01*
X100873259Y-91614906D01*
X100863827Y-91633390D01*
X100862100Y-91636689D01*
X100836246Y-91685912D01*
X100825058Y-91678473D01*
X100796963Y-91662912D01*
X100770066Y-91654055D01*
X100745274Y-91652004D01*
X100723497Y-91656861D01*
X100709272Y-91665442D01*
X100700469Y-91675419D01*
X100695123Y-91686312D01*
X100695062Y-91686563D01*
X100694505Y-91695189D01*
X100698361Y-91703288D01*
X100706534Y-91712394D01*
X100715434Y-91719811D01*
X100727252Y-91726586D01*
X100743704Y-91733537D01*
X100766505Y-91741483D01*
X100769427Y-91742438D01*
X100802161Y-91753779D01*
X100828092Y-91764496D01*
X100848768Y-91775384D01*
X100865734Y-91787236D01*
X100877734Y-91798002D01*
X100892382Y-91816001D01*
X100902116Y-91836826D01*
X100907493Y-91862155D01*
X100909070Y-91892662D01*
X100905981Y-91934105D01*
X100896712Y-91969840D01*
X100881071Y-92000143D01*
X100858870Y-92025290D01*
X100829918Y-92045554D01*
X100794026Y-92061212D01*
X100792399Y-92061761D01*
X100769666Y-92067342D01*
X100741896Y-92071154D01*
X100712379Y-92072961D01*
X100684402Y-92072528D01*
X100667268Y-92070729D01*
X100649720Y-92067173D01*
X100629565Y-92061966D01*
X100616468Y-92057960D01*
X100601363Y-92052217D01*
X100584189Y-92044620D01*
X100566941Y-92036188D01*
X100551612Y-92027941D01*
X100540195Y-92020897D01*
X100534750Y-92016186D01*
X100536037Y-92011815D01*
X100540469Y-92001620D01*
X100547220Y-91987252D01*
X100555462Y-91970364D01*
X100564370Y-91952608D01*
X100573116Y-91935637D01*
X100580874Y-91921103D01*
X100586818Y-91910659D01*
X100589647Y-91906434D01*
X100593390Y-91907951D01*
X100601953Y-91913259D01*
X100611314Y-91919686D01*
X100636670Y-91936206D01*
X100659035Y-91947099D01*
X100680730Y-91953326D01*
X100697834Y-91955504D01*
X100717194Y-91955957D01*
X100731675Y-91953755D01*
X100741412Y-91950066D01*
X100756768Y-91939217D01*
X100766084Y-91925149D01*
X100768837Y-91909669D01*
X100764507Y-91894586D01*
X100759418Y-91887644D01*
X100751539Y-91880161D01*
X100742165Y-91873737D01*
X100729744Y-91867643D01*
X100712721Y-91861155D01*
X100689543Y-91853544D01*
X100680529Y-91850740D01*
X100646200Y-91839141D01*
X100619113Y-91827488D01*
X100598075Y-91815020D01*
X100581893Y-91800972D01*
X100569371Y-91784584D01*
X100564986Y-91776951D01*
X100560860Y-91768037D01*
X100558166Y-91758520D01*
X100556614Y-91746334D01*
X100555919Y-91729417D01*
X100555785Y-91710933D01*
X100556064Y-91687809D01*
X100557115Y-91670735D01*
X100559256Y-91657307D01*
X100562808Y-91645121D01*
X100565464Y-91638113D01*
X100582152Y-91607718D01*
X100605965Y-91581635D01*
X100636525Y-91560254D01*
X100645707Y-91555425D01*
X100659579Y-91548706D01*
X100670460Y-91544207D01*
X100680668Y-91541489D01*
X100692521Y-91540112D01*
X100708335Y-91539635D01*
X100728984Y-91539616D01*
X100761673Y-91540527D01*
G36*
X106580413Y-92341976D02*
G01*
X106585760Y-92343504D01*
X106590959Y-92347431D01*
X106596828Y-92354660D01*
X106604181Y-92366097D01*
X106613836Y-92382643D01*
X106626609Y-92405203D01*
X106633218Y-92416899D01*
X106646038Y-92439340D01*
X106655477Y-92455205D01*
X106662183Y-92465365D01*
X106666803Y-92470690D01*
X106669985Y-92472052D01*
X106672377Y-92470321D01*
X106672650Y-92469935D01*
X106676437Y-92463746D01*
X106683528Y-92451641D01*
X106693079Y-92435081D01*
X106704244Y-92415529D01*
X106710933Y-92403733D01*
X106722541Y-92383639D01*
X106733036Y-92366261D01*
X106741593Y-92352905D01*
X106747390Y-92344874D01*
X106749203Y-92343154D01*
X106756294Y-92342236D01*
X106768182Y-92342219D01*
X106773750Y-92342505D01*
X106793187Y-92343817D01*
X106740515Y-92434833D01*
X106687843Y-92525850D01*
X106687731Y-92594642D01*
X106687620Y-92663433D01*
X106649520Y-92663433D01*
X106649520Y-92527772D01*
X106596833Y-92435794D01*
X106544146Y-92343817D01*
X106566013Y-92342505D01*
X106574103Y-92341944D01*
X106580413Y-92341976D01*
G37*
X106580413Y-92341976D02*
X106585760Y-92343504D01*
X106590959Y-92347431D01*
X106596828Y-92354660D01*
X106604181Y-92366097D01*
X106613836Y-92382643D01*
X106626609Y-92405203D01*
X106633218Y-92416899D01*
X106646038Y-92439340D01*
X106655477Y-92455205D01*
X106662183Y-92465365D01*
X106666803Y-92470690D01*
X106669985Y-92472052D01*
X106672377Y-92470321D01*
X106672650Y-92469935D01*
X106676437Y-92463746D01*
X106683528Y-92451641D01*
X106693079Y-92435081D01*
X106704244Y-92415529D01*
X106710933Y-92403733D01*
X106722541Y-92383639D01*
X106733036Y-92366261D01*
X106741593Y-92352905D01*
X106747390Y-92344874D01*
X106749203Y-92343154D01*
X106756294Y-92342236D01*
X106768182Y-92342219D01*
X106773750Y-92342505D01*
X106793187Y-92343817D01*
X106740515Y-92434833D01*
X106687843Y-92525850D01*
X106687731Y-92594642D01*
X106687620Y-92663433D01*
X106649520Y-92663433D01*
X106649520Y-92527772D01*
X106596833Y-92435794D01*
X106544146Y-92343817D01*
X106566013Y-92342505D01*
X106574103Y-92341944D01*
X106580413Y-92341976D01*
G36*
X105812500Y-92342323D02*
G01*
X105835461Y-92343175D01*
X105852037Y-92344422D01*
X105864311Y-92346411D01*
X105874363Y-92349491D01*
X105884277Y-92354012D01*
X105885238Y-92354504D01*
X105904948Y-92368599D01*
X105917959Y-92387382D01*
X105924544Y-92411353D01*
X105925527Y-92428091D01*
X105922172Y-92457307D01*
X105912286Y-92481159D01*
X105895798Y-92499759D01*
X105872636Y-92513220D01*
X105869587Y-92514426D01*
X105850479Y-92521679D01*
X105898614Y-92589381D01*
X105913430Y-92610383D01*
X105926399Y-92629080D01*
X105936771Y-92644366D01*
X105943798Y-92655133D01*
X105946727Y-92660274D01*
X105946768Y-92660469D01*
X105942956Y-92662097D01*
X105933075Y-92662802D01*
X105922853Y-92662586D01*
X105898919Y-92661317D01*
X105851944Y-92592683D01*
X105837357Y-92571587D01*
X105824290Y-92553101D01*
X105813520Y-92538291D01*
X105805824Y-92528223D01*
X105801979Y-92523963D01*
X105801795Y-92523891D01*
X105800739Y-92527837D01*
X105799831Y-92538859D01*
X105799136Y-92555564D01*
X105798716Y-92576563D01*
X105798620Y-92593583D01*
X105798620Y-92663433D01*
X105760520Y-92663433D01*
X105760520Y-92485633D01*
X105798620Y-92485633D01*
X105820845Y-92485627D01*
X105838250Y-92484010D01*
X105854092Y-92479862D01*
X105857887Y-92478218D01*
X105873429Y-92466034D01*
X105883185Y-92449036D01*
X105885963Y-92429522D01*
X105885503Y-92425010D01*
X105880931Y-92406896D01*
X105872640Y-92393956D01*
X105859353Y-92385198D01*
X105839797Y-92379628D01*
X105824369Y-92377386D01*
X105798620Y-92374473D01*
X105798620Y-92485633D01*
X105760520Y-92485633D01*
X105760520Y-92340829D01*
X105812500Y-92342323D01*
G37*
X105812500Y-92342323D02*
X105835461Y-92343175D01*
X105852037Y-92344422D01*
X105864311Y-92346411D01*
X105874363Y-92349491D01*
X105884277Y-92354012D01*
X105885238Y-92354504D01*
X105904948Y-92368599D01*
X105917959Y-92387382D01*
X105924544Y-92411353D01*
X105925527Y-92428091D01*
X105922172Y-92457307D01*
X105912286Y-92481159D01*
X105895798Y-92499759D01*
X105872636Y-92513220D01*
X105869587Y-92514426D01*
X105850479Y-92521679D01*
X105898614Y-92589381D01*
X105913430Y-92610383D01*
X105926399Y-92629080D01*
X105936771Y-92644366D01*
X105943798Y-92655133D01*
X105946727Y-92660274D01*
X105946768Y-92660469D01*
X105942956Y-92662097D01*
X105933075Y-92662802D01*
X105922853Y-92662586D01*
X105898919Y-92661317D01*
X105851944Y-92592683D01*
X105837357Y-92571587D01*
X105824290Y-92553101D01*
X105813520Y-92538291D01*
X105805824Y-92528223D01*
X105801979Y-92523963D01*
X105801795Y-92523891D01*
X105800739Y-92527837D01*
X105799831Y-92538859D01*
X105799136Y-92555564D01*
X105798716Y-92576563D01*
X105798620Y-92593583D01*
X105798620Y-92663433D01*
X105760520Y-92663433D01*
X105760520Y-92485633D01*
X105798620Y-92485633D01*
X105820845Y-92485627D01*
X105838250Y-92484010D01*
X105854092Y-92479862D01*
X105857887Y-92478218D01*
X105873429Y-92466034D01*
X105883185Y-92449036D01*
X105885963Y-92429522D01*
X105885503Y-92425010D01*
X105880931Y-92406896D01*
X105872640Y-92393956D01*
X105859353Y-92385198D01*
X105839797Y-92379628D01*
X105824369Y-92377386D01*
X105798620Y-92374473D01*
X105798620Y-92485633D01*
X105760520Y-92485633D01*
X105760520Y-92340829D01*
X105812500Y-92342323D01*
G36*
X105133987Y-92375567D02*
G01*
X105057787Y-92375567D01*
X105057787Y-92663433D01*
X105015454Y-92663433D01*
X105015454Y-92375567D01*
X104939254Y-92375567D01*
X104939254Y-92341700D01*
X105133987Y-92341700D01*
X105133987Y-92375567D01*
G37*
X105133987Y-92375567D02*
X105057787Y-92375567D01*
X105057787Y-92663433D01*
X105015454Y-92663433D01*
X105015454Y-92375567D01*
X104939254Y-92375567D01*
X104939254Y-92341700D01*
X105133987Y-92341700D01*
X105133987Y-92375567D01*
G36*
X104316954Y-92375567D02*
G01*
X104189954Y-92375567D01*
X104189954Y-92468700D01*
X104312720Y-92468700D01*
X104312720Y-92506800D01*
X104189954Y-92506800D01*
X104189954Y-92625333D01*
X104316954Y-92625333D01*
X104316954Y-92663433D01*
X104147620Y-92663433D01*
X104147620Y-92341700D01*
X104316954Y-92341700D01*
X104316954Y-92375567D01*
G37*
X104316954Y-92375567D02*
X104189954Y-92375567D01*
X104189954Y-92468700D01*
X104312720Y-92468700D01*
X104312720Y-92506800D01*
X104189954Y-92506800D01*
X104189954Y-92625333D01*
X104316954Y-92625333D01*
X104316954Y-92663433D01*
X104147620Y-92663433D01*
X104147620Y-92341700D01*
X104316954Y-92341700D01*
X104316954Y-92375567D01*
G36*
X103339053Y-92470714D02*
G01*
X103468269Y-92341700D01*
X103523115Y-92341700D01*
X103448392Y-92416842D01*
X103373669Y-92491983D01*
X103449369Y-92574533D01*
X103469560Y-92596661D01*
X103487731Y-92616787D01*
X103503131Y-92634062D01*
X103515009Y-92647637D01*
X103522613Y-92656662D01*
X103525195Y-92660258D01*
X103521410Y-92661895D01*
X103511413Y-92663021D01*
X103498862Y-92663379D01*
X103472403Y-92663325D01*
X103408903Y-92591510D01*
X103390530Y-92570878D01*
X103373963Y-92552555D01*
X103360035Y-92537440D01*
X103349582Y-92526434D01*
X103343438Y-92520437D01*
X103342228Y-92519597D01*
X103341187Y-92523568D01*
X103340289Y-92534633D01*
X103339595Y-92551421D01*
X103339165Y-92572558D01*
X103339053Y-92591467D01*
X103339053Y-92663433D01*
X103296720Y-92663433D01*
X103296720Y-92341700D01*
X103339053Y-92341700D01*
X103339053Y-92470714D01*
G37*
X103339053Y-92470714D02*
X103468269Y-92341700D01*
X103523115Y-92341700D01*
X103448392Y-92416842D01*
X103373669Y-92491983D01*
X103449369Y-92574533D01*
X103469560Y-92596661D01*
X103487731Y-92616787D01*
X103503131Y-92634062D01*
X103515009Y-92647637D01*
X103522613Y-92656662D01*
X103525195Y-92660258D01*
X103521410Y-92661895D01*
X103511413Y-92663021D01*
X103498862Y-92663379D01*
X103472403Y-92663325D01*
X103408903Y-92591510D01*
X103390530Y-92570878D01*
X103373963Y-92552555D01*
X103360035Y-92537440D01*
X103349582Y-92526434D01*
X103343438Y-92520437D01*
X103342228Y-92519597D01*
X103341187Y-92523568D01*
X103340289Y-92534633D01*
X103339595Y-92551421D01*
X103339165Y-92572558D01*
X103339053Y-92591467D01*
X103339053Y-92663433D01*
X103296720Y-92663433D01*
X103296720Y-92341700D01*
X103339053Y-92341700D01*
X103339053Y-92470714D01*
G36*
X100703419Y-92343351D02*
G01*
X100731980Y-92348537D01*
X100753988Y-92357605D01*
X100770090Y-92370901D01*
X100780931Y-92388775D01*
X100785986Y-92405329D01*
X100788496Y-92433443D01*
X100784180Y-92459614D01*
X100773710Y-92482585D01*
X100757757Y-92501098D01*
X100736995Y-92513895D01*
X100726029Y-92517512D01*
X100717639Y-92520217D01*
X100714387Y-92522399D01*
X100716729Y-92526305D01*
X100723245Y-92535978D01*
X100733165Y-92550308D01*
X100745724Y-92568187D01*
X100760151Y-92588506D01*
X100760230Y-92588615D01*
X100774913Y-92609238D01*
X100787985Y-92627694D01*
X100798612Y-92642795D01*
X100805959Y-92653355D01*
X100809163Y-92658142D01*
X100808800Y-92661227D01*
X100802403Y-92662896D01*
X100788818Y-92663431D01*
X100787506Y-92663433D01*
X100762759Y-92663433D01*
X100714642Y-92593583D01*
X100699822Y-92572318D01*
X100686494Y-92553661D01*
X100675434Y-92538664D01*
X100667422Y-92528379D01*
X100663235Y-92523855D01*
X100662939Y-92523733D01*
X100661746Y-92527734D01*
X100660721Y-92538805D01*
X100659936Y-92555553D01*
X100659462Y-92576581D01*
X100659354Y-92593583D01*
X100659354Y-92663433D01*
X100621254Y-92663433D01*
X100621254Y-92485633D01*
X100659354Y-92485633D01*
X100680434Y-92485633D01*
X100697252Y-92484139D01*
X100713991Y-92480398D01*
X100718697Y-92478758D01*
X100734480Y-92468567D01*
X100744404Y-92454193D01*
X100748626Y-92437410D01*
X100747305Y-92419990D01*
X100740599Y-92403709D01*
X100728664Y-92390339D01*
X100711659Y-92381655D01*
X100710021Y-92381199D01*
X100694246Y-92377956D01*
X100678605Y-92376063D01*
X100675229Y-92375907D01*
X100659354Y-92375567D01*
X100659354Y-92485633D01*
X100621254Y-92485633D01*
X100621254Y-92341700D01*
X100667661Y-92341700D01*
X100703419Y-92343351D01*
G37*
X100703419Y-92343351D02*
X100731980Y-92348537D01*
X100753988Y-92357605D01*
X100770090Y-92370901D01*
X100780931Y-92388775D01*
X100785986Y-92405329D01*
X100788496Y-92433443D01*
X100784180Y-92459614D01*
X100773710Y-92482585D01*
X100757757Y-92501098D01*
X100736995Y-92513895D01*
X100726029Y-92517512D01*
X100717639Y-92520217D01*
X100714387Y-92522399D01*
X100716729Y-92526305D01*
X100723245Y-92535978D01*
X100733165Y-92550308D01*
X100745724Y-92568187D01*
X100760151Y-92588506D01*
X100760230Y-92588615D01*
X100774913Y-92609238D01*
X100787985Y-92627694D01*
X100798612Y-92642795D01*
X100805959Y-92653355D01*
X100809163Y-92658142D01*
X100808800Y-92661227D01*
X100802403Y-92662896D01*
X100788818Y-92663431D01*
X100787506Y-92663433D01*
X100762759Y-92663433D01*
X100714642Y-92593583D01*
X100699822Y-92572318D01*
X100686494Y-92553661D01*
X100675434Y-92538664D01*
X100667422Y-92528379D01*
X100663235Y-92523855D01*
X100662939Y-92523733D01*
X100661746Y-92527734D01*
X100660721Y-92538805D01*
X100659936Y-92555553D01*
X100659462Y-92576581D01*
X100659354Y-92593583D01*
X100659354Y-92663433D01*
X100621254Y-92663433D01*
X100621254Y-92485633D01*
X100659354Y-92485633D01*
X100680434Y-92485633D01*
X100697252Y-92484139D01*
X100713991Y-92480398D01*
X100718697Y-92478758D01*
X100734480Y-92468567D01*
X100744404Y-92454193D01*
X100748626Y-92437410D01*
X100747305Y-92419990D01*
X100740599Y-92403709D01*
X100728664Y-92390339D01*
X100711659Y-92381655D01*
X100710021Y-92381199D01*
X100694246Y-92377956D01*
X100678605Y-92376063D01*
X100675229Y-92375907D01*
X100659354Y-92375567D01*
X100659354Y-92485633D01*
X100621254Y-92485633D01*
X100621254Y-92341700D01*
X100667661Y-92341700D01*
X100703419Y-92343351D01*
G36*
X102573887Y-92335963D02*
G01*
X102588190Y-92337393D01*
X102600321Y-92340502D01*
X102613425Y-92345953D01*
X102620945Y-92349576D01*
X102649020Y-92363397D01*
X102649020Y-92388532D01*
X102648450Y-92404012D01*
X102646345Y-92411706D01*
X102642118Y-92412240D01*
X102635180Y-92406242D01*
X102633801Y-92404742D01*
X102619112Y-92392976D01*
X102598965Y-92382785D01*
X102576363Y-92375450D01*
X102558086Y-92372464D01*
X102528090Y-92374222D01*
X102499461Y-92383639D01*
X102473485Y-92399907D01*
X102451450Y-92422218D01*
X102434640Y-92449765D01*
X102434509Y-92450049D01*
X102428775Y-92464015D01*
X102425779Y-92476418D01*
X102424941Y-92490824D01*
X102425428Y-92506016D01*
X102428290Y-92532106D01*
X102434732Y-92553310D01*
X102446028Y-92572888D01*
X102457030Y-92586818D01*
X102478628Y-92607470D01*
X102502492Y-92620759D01*
X102530515Y-92627622D01*
X102541559Y-92628674D01*
X102570007Y-92628274D01*
X102594518Y-92622438D01*
X102618063Y-92610256D01*
X102630445Y-92601468D01*
X102649431Y-92586976D01*
X102648167Y-92613445D01*
X102646904Y-92639914D01*
X102622150Y-92652554D01*
X102608426Y-92658958D01*
X102595919Y-92662932D01*
X102581560Y-92665146D01*
X102562284Y-92666267D01*
X102558650Y-92666386D01*
X102534182Y-92666270D01*
X102514105Y-92664448D01*
X102502970Y-92661969D01*
X102467072Y-92645954D01*
X102436600Y-92623644D01*
X102412006Y-92595432D01*
X102397536Y-92570312D01*
X102391033Y-92555503D01*
X102387124Y-92542884D01*
X102385168Y-92529227D01*
X102384524Y-92511304D01*
X102384490Y-92504683D01*
X102387607Y-92466456D01*
X102397367Y-92433094D01*
X102414208Y-92403698D01*
X102438571Y-92377371D01*
X102452271Y-92366159D01*
X102475013Y-92351372D01*
X102498270Y-92341847D01*
X102524554Y-92336830D01*
X102554270Y-92335552D01*
X102573887Y-92335963D01*
G37*
X102573887Y-92335963D02*
X102588190Y-92337393D01*
X102600321Y-92340502D01*
X102613425Y-92345953D01*
X102620945Y-92349576D01*
X102649020Y-92363397D01*
X102649020Y-92388532D01*
X102648450Y-92404012D01*
X102646345Y-92411706D01*
X102642118Y-92412240D01*
X102635180Y-92406242D01*
X102633801Y-92404742D01*
X102619112Y-92392976D01*
X102598965Y-92382785D01*
X102576363Y-92375450D01*
X102558086Y-92372464D01*
X102528090Y-92374222D01*
X102499461Y-92383639D01*
X102473485Y-92399907D01*
X102451450Y-92422218D01*
X102434640Y-92449765D01*
X102434509Y-92450049D01*
X102428775Y-92464015D01*
X102425779Y-92476418D01*
X102424941Y-92490824D01*
X102425428Y-92506016D01*
X102428290Y-92532106D01*
X102434732Y-92553310D01*
X102446028Y-92572888D01*
X102457030Y-92586818D01*
X102478628Y-92607470D01*
X102502492Y-92620759D01*
X102530515Y-92627622D01*
X102541559Y-92628674D01*
X102570007Y-92628274D01*
X102594518Y-92622438D01*
X102618063Y-92610256D01*
X102630445Y-92601468D01*
X102649431Y-92586976D01*
X102648167Y-92613445D01*
X102646904Y-92639914D01*
X102622150Y-92652554D01*
X102608426Y-92658958D01*
X102595919Y-92662932D01*
X102581560Y-92665146D01*
X102562284Y-92666267D01*
X102558650Y-92666386D01*
X102534182Y-92666270D01*
X102514105Y-92664448D01*
X102502970Y-92661969D01*
X102467072Y-92645954D01*
X102436600Y-92623644D01*
X102412006Y-92595432D01*
X102397536Y-92570312D01*
X102391033Y-92555503D01*
X102387124Y-92542884D01*
X102385168Y-92529227D01*
X102384524Y-92511304D01*
X102384490Y-92504683D01*
X102387607Y-92466456D01*
X102397367Y-92433094D01*
X102414208Y-92403698D01*
X102438571Y-92377371D01*
X102452271Y-92366159D01*
X102475013Y-92351372D01*
X102498270Y-92341847D01*
X102524554Y-92336830D01*
X102554270Y-92335552D01*
X102573887Y-92335963D01*
G36*
X101617818Y-92336337D02*
G01*
X101635382Y-92338357D01*
X101650695Y-92342240D01*
X101659625Y-92345476D01*
X101685941Y-92359641D01*
X101711107Y-92380154D01*
X101732958Y-92404958D01*
X101748304Y-92429854D01*
X101754578Y-92443180D01*
X101758596Y-92454136D01*
X101760849Y-92465330D01*
X101761829Y-92479372D01*
X101762031Y-92498871D01*
X101762024Y-92502492D01*
X101761755Y-92523399D01*
X101760768Y-92538411D01*
X101758606Y-92550096D01*
X101754813Y-92561023D01*
X101749584Y-92572417D01*
X101732137Y-92600162D01*
X101708767Y-92625429D01*
X101681910Y-92645785D01*
X101669004Y-92652856D01*
X101654863Y-92659011D01*
X101641719Y-92662874D01*
X101626541Y-92665066D01*
X101606298Y-92666209D01*
X101603387Y-92666305D01*
X101575938Y-92666175D01*
X101554533Y-92663975D01*
X101545331Y-92661759D01*
X101511581Y-92646358D01*
X101480923Y-92623119D01*
X101470650Y-92612851D01*
X101449240Y-92584245D01*
X101435174Y-92552950D01*
X101428222Y-92520059D01*
X101428167Y-92493673D01*
X101468743Y-92493673D01*
X101470766Y-92525790D01*
X101480323Y-92555577D01*
X101496995Y-92582048D01*
X101520367Y-92604220D01*
X101540967Y-92616896D01*
X101555104Y-92623655D01*
X101566368Y-92627491D01*
X101578080Y-92629043D01*
X101593561Y-92628952D01*
X101601660Y-92628593D01*
X101621776Y-92626999D01*
X101636560Y-92624042D01*
X101649127Y-92618973D01*
X101654931Y-92615778D01*
X101678272Y-92598282D01*
X101698921Y-92575686D01*
X101714111Y-92551049D01*
X101714752Y-92549651D01*
X101722237Y-92523888D01*
X101723762Y-92495211D01*
X101719408Y-92466639D01*
X101711897Y-92446182D01*
X101694011Y-92418541D01*
X101670931Y-92396865D01*
X101643832Y-92381684D01*
X101613887Y-92373524D01*
X101582273Y-92372913D01*
X101558971Y-92377491D01*
X101536518Y-92387582D01*
X101514576Y-92403677D01*
X101495267Y-92423690D01*
X101480713Y-92445541D01*
X101474669Y-92460211D01*
X101468743Y-92493673D01*
X101428167Y-92493673D01*
X101428152Y-92486669D01*
X101434736Y-92453872D01*
X101447742Y-92422764D01*
X101466941Y-92394440D01*
X101492101Y-92369993D01*
X101522994Y-92350518D01*
X101526168Y-92348990D01*
X101540750Y-92342534D01*
X101552879Y-92338567D01*
X101565572Y-92336505D01*
X101581851Y-92335765D01*
X101594920Y-92335714D01*
X101617818Y-92336337D01*
G37*
X101617818Y-92336337D02*
X101635382Y-92338357D01*
X101650695Y-92342240D01*
X101659625Y-92345476D01*
X101685941Y-92359641D01*
X101711107Y-92380154D01*
X101732958Y-92404958D01*
X101748304Y-92429854D01*
X101754578Y-92443180D01*
X101758596Y-92454136D01*
X101760849Y-92465330D01*
X101761829Y-92479372D01*
X101762031Y-92498871D01*
X101762024Y-92502492D01*
X101761755Y-92523399D01*
X101760768Y-92538411D01*
X101758606Y-92550096D01*
X101754813Y-92561023D01*
X101749584Y-92572417D01*
X101732137Y-92600162D01*
X101708767Y-92625429D01*
X101681910Y-92645785D01*
X101669004Y-92652856D01*
X101654863Y-92659011D01*
X101641719Y-92662874D01*
X101626541Y-92665066D01*
X101606298Y-92666209D01*
X101603387Y-92666305D01*
X101575938Y-92666175D01*
X101554533Y-92663975D01*
X101545331Y-92661759D01*
X101511581Y-92646358D01*
X101480923Y-92623119D01*
X101470650Y-92612851D01*
X101449240Y-92584245D01*
X101435174Y-92552950D01*
X101428222Y-92520059D01*
X101428167Y-92493673D01*
X101468743Y-92493673D01*
X101470766Y-92525790D01*
X101480323Y-92555577D01*
X101496995Y-92582048D01*
X101520367Y-92604220D01*
X101540967Y-92616896D01*
X101555104Y-92623655D01*
X101566368Y-92627491D01*
X101578080Y-92629043D01*
X101593561Y-92628952D01*
X101601660Y-92628593D01*
X101621776Y-92626999D01*
X101636560Y-92624042D01*
X101649127Y-92618973D01*
X101654931Y-92615778D01*
X101678272Y-92598282D01*
X101698921Y-92575686D01*
X101714111Y-92551049D01*
X101714752Y-92549651D01*
X101722237Y-92523888D01*
X101723762Y-92495211D01*
X101719408Y-92466639D01*
X101711897Y-92446182D01*
X101694011Y-92418541D01*
X101670931Y-92396865D01*
X101643832Y-92381684D01*
X101613887Y-92373524D01*
X101582273Y-92372913D01*
X101558971Y-92377491D01*
X101536518Y-92387582D01*
X101514576Y-92403677D01*
X101495267Y-92423690D01*
X101480713Y-92445541D01*
X101474669Y-92460211D01*
X101468743Y-92493673D01*
X101428167Y-92493673D01*
X101428152Y-92486669D01*
X101434736Y-92453872D01*
X101447742Y-92422764D01*
X101466941Y-92394440D01*
X101492101Y-92369993D01*
X101522994Y-92350518D01*
X101526168Y-92348990D01*
X101540750Y-92342534D01*
X101552879Y-92338567D01*
X101565572Y-92336505D01*
X101581851Y-92335765D01*
X101594920Y-92335714D01*
X101617818Y-92336337D01*
D14*
%TO.C,C1*%
X107668480Y-87886680D02*
X107668480Y-87586680D01*
X106768480Y-87886680D02*
X106768480Y-87586680D01*
D12*
%TO.C,D1*%
X113233200Y-85902800D02*
X114249200Y-85902800D01*
X113792000Y-85852000D02*
X113792000Y-86512400D01*
X114249200Y-85039200D02*
X113792000Y-85852000D01*
X113792000Y-85039200D02*
X114249200Y-85039200D01*
X113182400Y-85039200D02*
X113792000Y-85852000D01*
X113792000Y-85039200D02*
X113182400Y-85039200D01*
X113792000Y-84378800D02*
X113792000Y-85039200D01*
X116801900Y-86598365D02*
X116801900Y-84597635D01*
X114846100Y-84597635D02*
X114846100Y-86598365D01*
D15*
%TO.C,P1*%
X105134000Y-81026000D02*
G75*
G03*
X105134000Y-81026000I-100000J0D01*
G01*
D14*
X104059000Y-85426000D02*
X102804000Y-85426000D01*
X104059000Y-83546000D02*
X104059000Y-85426000D01*
X89844000Y-85426000D02*
X98364000Y-85426000D01*
X89844000Y-76626000D02*
X89844000Y-85426000D01*
X104059000Y-76626000D02*
X89844000Y-76626000D01*
X104059000Y-78506000D02*
X104059000Y-76626000D01*
D12*
X101955600Y-81026000D02*
X101193600Y-81026000D01*
X101600000Y-80670400D02*
X101600000Y-81381600D01*
X95859600Y-80772000D02*
X95859600Y-81330800D01*
D14*
%TO.C,P2*%
X129028000Y-76708000D02*
X118368000Y-76708000D01*
X129028000Y-79248000D02*
X129028000Y-76708000D01*
X118368000Y-79248000D02*
X129028000Y-79248000D01*
X118368000Y-76708000D02*
X118368000Y-79248000D01*
D15*
X117838000Y-78028000D02*
G75*
G03*
X117838000Y-78028000I-100000J0D01*
G01*
D14*
%TO.C,R1*%
X116514000Y-89116000D02*
X116514000Y-90716000D01*
X115134000Y-89116000D02*
X115134000Y-90716000D01*
%TO.C,R2*%
X127193000Y-84897000D02*
X117663000Y-84897000D01*
X117663000Y-84897000D02*
X117663000Y-94427000D01*
X117663000Y-94427000D02*
X127193000Y-94427000D01*
X127193000Y-94427000D02*
X127193000Y-84897000D01*
D15*
X120128000Y-84262000D02*
G75*
G03*
X120128000Y-84262000I-100000J0D01*
G01*
D14*
%TO.C,R3*%
X129468000Y-87947400D02*
X129468000Y-86347400D01*
X128088000Y-87947400D02*
X128088000Y-86347400D01*
%TO.C,R4*%
X121564500Y-84319500D02*
X123164500Y-84319500D01*
X121564500Y-82939500D02*
X123164500Y-82939500D01*
%TO.C,R5*%
X129032100Y-83307800D02*
X130632100Y-83307800D01*
X129032100Y-84687800D02*
X130632100Y-84687800D01*
%TO.C,C2*%
X112169360Y-88552160D02*
X112169360Y-88252160D01*
X111269360Y-88552160D02*
X111269360Y-88252160D01*
%TO.C,U1*%
D16*
X104902095Y-77430380D02*
X104902095Y-78239904D01*
X104949714Y-78335142D01*
X104997333Y-78382761D01*
X105092571Y-78430380D01*
X105283047Y-78430380D01*
X105378285Y-78382761D01*
X105425904Y-78335142D01*
X105473523Y-78239904D01*
X105473523Y-77430380D01*
X106473523Y-78430380D02*
X105902095Y-78430380D01*
X106187809Y-78430380D02*
X106187809Y-77430380D01*
X106092571Y-77573238D01*
X105997333Y-77668476D01*
X105902095Y-77716095D01*
%TO.C,C1*%
X105019813Y-87839822D02*
X104972194Y-87887441D01*
X104829337Y-87935060D01*
X104734099Y-87935060D01*
X104591241Y-87887441D01*
X104496003Y-87792203D01*
X104448384Y-87696965D01*
X104400765Y-87506489D01*
X104400765Y-87363632D01*
X104448384Y-87173156D01*
X104496003Y-87077918D01*
X104591241Y-86982680D01*
X104734099Y-86935060D01*
X104829337Y-86935060D01*
X104972194Y-86982680D01*
X105019813Y-87030299D01*
X105972194Y-87935060D02*
X105400765Y-87935060D01*
X105686480Y-87935060D02*
X105686480Y-86935060D01*
X105591241Y-87077918D01*
X105496003Y-87173156D01*
X105400765Y-87220775D01*
%TO.C,D1*%
X117117904Y-83002380D02*
X117117904Y-82002380D01*
X117356000Y-82002380D01*
X117498857Y-82050000D01*
X117594095Y-82145238D01*
X117641714Y-82240476D01*
X117689333Y-82430952D01*
X117689333Y-82573809D01*
X117641714Y-82764285D01*
X117594095Y-82859523D01*
X117498857Y-82954761D01*
X117356000Y-83002380D01*
X117117904Y-83002380D01*
X118641714Y-83002380D02*
X118070285Y-83002380D01*
X118356000Y-83002380D02*
X118356000Y-82002380D01*
X118260761Y-82145238D01*
X118165523Y-82240476D01*
X118070285Y-82288095D01*
%TO.C,P1*%
X96248666Y-87755333D02*
X96248666Y-86355333D01*
X96782000Y-86355333D01*
X96915333Y-86422000D01*
X96982000Y-86488666D01*
X97048666Y-86622000D01*
X97048666Y-86822000D01*
X96982000Y-86955333D01*
X96915333Y-87022000D01*
X96782000Y-87088666D01*
X96248666Y-87088666D01*
X98382000Y-87755333D02*
X97582000Y-87755333D01*
X97982000Y-87755333D02*
X97982000Y-86355333D01*
X97848666Y-86555333D01*
X97715333Y-86688666D01*
X97582000Y-86755333D01*
%TO.C,P2*%
X129711523Y-78339904D02*
X129711523Y-77539904D01*
X130016285Y-77539904D01*
X130092476Y-77578000D01*
X130130571Y-77616095D01*
X130168666Y-77692285D01*
X130168666Y-77806571D01*
X130130571Y-77882761D01*
X130092476Y-77920857D01*
X130016285Y-77958952D01*
X129711523Y-77958952D01*
X130473428Y-77616095D02*
X130511523Y-77578000D01*
X130587714Y-77539904D01*
X130778190Y-77539904D01*
X130854380Y-77578000D01*
X130892476Y-77616095D01*
X130930571Y-77692285D01*
X130930571Y-77768476D01*
X130892476Y-77882761D01*
X130435333Y-78339904D01*
X130930571Y-78339904D01*
%TO.C,R1*%
X115657333Y-92908380D02*
X115324000Y-92432190D01*
X115085904Y-92908380D02*
X115085904Y-91908380D01*
X115466857Y-91908380D01*
X115562095Y-91956000D01*
X115609714Y-92003619D01*
X115657333Y-92098857D01*
X115657333Y-92241714D01*
X115609714Y-92336952D01*
X115562095Y-92384571D01*
X115466857Y-92432190D01*
X115085904Y-92432190D01*
X116609714Y-92908380D02*
X116038285Y-92908380D01*
X116324000Y-92908380D02*
X116324000Y-91908380D01*
X116228761Y-92051238D01*
X116133523Y-92146476D01*
X116038285Y-92194095D01*
%TO.C,R2*%
X128611208Y-93416719D02*
X128277626Y-92940172D01*
X128039352Y-93416719D02*
X128039352Y-92415971D01*
X128420590Y-92415971D01*
X128515899Y-92463626D01*
X128563554Y-92511280D01*
X128611208Y-92606590D01*
X128611208Y-92749554D01*
X128563554Y-92844863D01*
X128515899Y-92892518D01*
X128420590Y-92940172D01*
X128039352Y-92940172D01*
X128992446Y-92511280D02*
X129040100Y-92463626D01*
X129135410Y-92415971D01*
X129373683Y-92415971D01*
X129468992Y-92463626D01*
X129516647Y-92511280D01*
X129564302Y-92606590D01*
X129564302Y-92701899D01*
X129516647Y-92844863D01*
X128944791Y-93416719D01*
X129564302Y-93416719D01*
%TO.C,R3*%
D17*
X130676666Y-87537304D02*
X130410000Y-87156352D01*
X130219523Y-87537304D02*
X130219523Y-86737304D01*
X130524285Y-86737304D01*
X130600476Y-86775400D01*
X130638571Y-86813495D01*
X130676666Y-86889685D01*
X130676666Y-87003971D01*
X130638571Y-87080161D01*
X130600476Y-87118257D01*
X130524285Y-87156352D01*
X130219523Y-87156352D01*
X130943333Y-86737304D02*
X131438571Y-86737304D01*
X131171904Y-87042066D01*
X131286190Y-87042066D01*
X131362380Y-87080161D01*
X131400476Y-87118257D01*
X131438571Y-87194447D01*
X131438571Y-87384923D01*
X131400476Y-87461114D01*
X131362380Y-87499209D01*
X131286190Y-87537304D01*
X131057619Y-87537304D01*
X130981428Y-87499209D01*
X130943333Y-87461114D01*
%TO.C,R4*%
X124753386Y-84156504D02*
X124486720Y-83775552D01*
X124296243Y-84156504D02*
X124296243Y-83356504D01*
X124601005Y-83356504D01*
X124677196Y-83394600D01*
X124715291Y-83432695D01*
X124753386Y-83508885D01*
X124753386Y-83623171D01*
X124715291Y-83699361D01*
X124677196Y-83737457D01*
X124601005Y-83775552D01*
X124296243Y-83775552D01*
X125439100Y-83623171D02*
X125439100Y-84156504D01*
X125248624Y-83318409D02*
X125058148Y-83889838D01*
X125553386Y-83889838D01*
%TO.C,R5*%
X132594366Y-84410504D02*
X132327700Y-84029552D01*
X132137223Y-84410504D02*
X132137223Y-83610504D01*
X132441985Y-83610504D01*
X132518176Y-83648600D01*
X132556271Y-83686695D01*
X132594366Y-83762885D01*
X132594366Y-83877171D01*
X132556271Y-83953361D01*
X132518176Y-83991457D01*
X132441985Y-84029552D01*
X132137223Y-84029552D01*
X133318176Y-83610504D02*
X132937223Y-83610504D01*
X132899128Y-83991457D01*
X132937223Y-83953361D01*
X133013414Y-83915266D01*
X133203890Y-83915266D01*
X133280080Y-83953361D01*
X133318176Y-83991457D01*
X133356271Y-84067647D01*
X133356271Y-84258123D01*
X133318176Y-84334314D01*
X133280080Y-84372409D01*
X133203890Y-84410504D01*
X133013414Y-84410504D01*
X132937223Y-84372409D01*
X132899128Y-84334314D01*
%TO.C,C2*%
X113262426Y-88032554D02*
X113224331Y-88070649D01*
X113110045Y-88108744D01*
X113033855Y-88108744D01*
X112919569Y-88070649D01*
X112843379Y-87994459D01*
X112805283Y-87918268D01*
X112767188Y-87765887D01*
X112767188Y-87651601D01*
X112805283Y-87499220D01*
X112843379Y-87423030D01*
X112919569Y-87346840D01*
X113033855Y-87308744D01*
X113110045Y-87308744D01*
X113224331Y-87346840D01*
X113262426Y-87384935D01*
X113567188Y-87384935D02*
X113605283Y-87346840D01*
X113681474Y-87308744D01*
X113871950Y-87308744D01*
X113948140Y-87346840D01*
X113986236Y-87384935D01*
X114024331Y-87461125D01*
X114024331Y-87537316D01*
X113986236Y-87651601D01*
X113529093Y-88108744D01*
X114024331Y-88108744D01*
%TD*%
M02*
